<svg width="717" height="112" viewBox="0 0 717 112" fill="none" xmlns="http://www.w3.org/2000/svg">
<path d="M0 0H717V112H0V0Z" fill="white"/>
<path d="M96.2202 45.7812V60H93.5346V45.7812H96.2202ZM101.455 51.6895V60H98.8764V49.4336H101.298L101.455 51.6895ZM101.044 54.3359H100.283C100.289 53.5677 100.393 52.8711 100.595 52.2461C100.797 51.6211 101.08 51.084 101.445 50.6348C101.816 50.1855 102.255 49.8405 102.763 49.5996C103.271 49.3587 103.837 49.2383 104.462 49.2383C104.97 49.2383 105.429 49.3099 105.839 49.4531C106.249 49.5964 106.601 49.8242 106.894 50.1367C107.193 50.4492 107.421 50.8594 107.578 51.3672C107.74 51.8685 107.822 52.487 107.822 53.2227V60H105.224V53.2031C105.224 52.7214 105.152 52.3405 105.009 52.0605C104.872 51.7806 104.671 51.582 104.404 51.4648C104.143 51.3477 103.821 51.2891 103.437 51.2891C103.04 51.2891 102.692 51.3704 102.392 51.5332C102.099 51.6895 101.852 51.9076 101.65 52.1875C101.455 52.4674 101.305 52.7897 101.201 53.1543C101.096 53.5189 101.044 53.9128 101.044 54.3359ZM115.908 57.1094C115.908 56.888 115.849 56.6895 115.732 56.5137C115.615 56.3379 115.393 56.1784 115.068 56.0352C114.749 55.8854 114.28 55.7454 113.662 55.6152C113.115 55.498 112.61 55.3516 112.148 55.1758C111.686 55 111.289 54.7884 110.956 54.541C110.624 54.2871 110.364 53.9909 110.175 53.6523C109.993 53.3073 109.902 52.9102 109.902 52.4609C109.902 52.0247 109.996 51.6146 110.185 51.2305C110.374 50.8398 110.647 50.498 111.005 50.2051C111.363 49.9056 111.8 49.6712 112.314 49.502C112.828 49.3262 113.408 49.2383 114.052 49.2383C114.951 49.2383 115.722 49.3848 116.367 49.6777C117.018 49.9707 117.516 50.3743 117.861 50.8887C118.206 51.3965 118.378 51.9694 118.378 52.6074H115.8C115.8 52.3275 115.735 52.0736 115.605 51.8457C115.481 51.6178 115.289 51.4355 115.029 51.2988C114.768 51.1556 114.44 51.084 114.042 51.084C113.684 51.084 113.382 51.1426 113.134 51.2598C112.893 51.377 112.711 51.5299 112.587 51.7188C112.464 51.9076 112.402 52.1159 112.402 52.3438C112.402 52.513 112.434 52.666 112.499 52.8027C112.571 52.9329 112.685 53.0534 112.841 53.1641C112.997 53.2747 113.209 53.3757 113.476 53.4668C113.749 53.5579 114.085 53.6458 114.482 53.7305C115.27 53.8867 115.956 54.0951 116.542 54.3555C117.135 54.6094 117.597 54.9479 117.929 55.3711C118.261 55.7943 118.427 56.3346 118.427 56.9922C118.427 57.4609 118.326 57.8906 118.124 58.2812C117.923 58.6654 117.63 59.0007 117.246 59.2871C116.861 59.5736 116.402 59.7982 115.869 59.9609C115.335 60.1172 114.733 60.1953 114.062 60.1953C113.092 60.1953 112.272 60.0228 111.601 59.6777C110.93 59.3262 110.423 58.8835 110.078 58.3496C109.733 57.8092 109.56 57.2493 109.56 56.6699H112.031C112.05 57.0801 112.161 57.4089 112.363 57.6562C112.565 57.9036 112.818 58.0827 113.124 58.1934C113.437 58.2975 113.766 58.3496 114.111 58.3496C114.501 58.3496 114.83 58.2975 115.097 58.1934C115.364 58.0827 115.566 57.9362 115.703 57.7539C115.839 57.5651 115.908 57.3503 115.908 57.1094ZM125.39 49.4336V51.2891H119.335V49.4336H125.39ZM120.956 46.8359H123.544V56.9531C123.544 57.2656 123.587 57.5065 123.671 57.6758C123.756 57.8451 123.883 57.959 124.052 58.0176C124.221 58.0762 124.423 58.1055 124.658 58.1055C124.827 58.1055 124.983 58.0957 125.126 58.0762C125.27 58.0566 125.39 58.0371 125.488 58.0176L125.497 59.9512C125.283 60.0228 125.039 60.0814 124.765 60.127C124.498 60.1725 124.195 60.1953 123.857 60.1953C123.277 60.1953 122.77 60.0977 122.333 59.9023C121.897 59.7005 121.559 59.3783 121.318 58.9355C121.077 58.4863 120.956 57.8939 120.956 57.1582V46.8359ZM132.929 57.7539V52.8809C132.929 52.5228 132.867 52.2135 132.744 51.9531C132.62 51.6927 132.431 51.4909 132.177 51.3477C131.923 51.2044 131.601 51.1328 131.21 51.1328C130.865 51.1328 130.563 51.1914 130.302 51.3086C130.048 51.4258 129.853 51.5918 129.716 51.8066C129.58 52.015 129.511 52.2559 129.511 52.5293H126.923C126.923 52.0931 127.027 51.6797 127.236 51.2891C127.444 50.8919 127.74 50.5404 128.124 50.2344C128.515 49.9219 128.981 49.6777 129.521 49.502C130.068 49.3262 130.68 49.2383 131.357 49.2383C132.158 49.2383 132.871 49.375 133.496 49.6484C134.127 49.9154 134.622 50.319 134.98 50.8594C135.345 51.3997 135.527 52.0801 135.527 52.9004V57.5098C135.527 58.0371 135.559 58.4896 135.624 58.8672C135.696 59.2383 135.8 59.5605 135.937 59.834V60H133.31C133.186 59.7331 133.092 59.3945 133.027 58.9844C132.962 58.5677 132.929 58.1576 132.929 57.7539ZM133.29 53.5645L133.31 55.0977H131.679C131.275 55.0977 130.921 55.14 130.615 55.2246C130.309 55.3027 130.058 55.4199 129.863 55.5762C129.667 55.7259 129.521 55.9082 129.423 56.123C129.326 56.3314 129.277 56.569 129.277 56.8359C129.277 57.0964 129.335 57.3307 129.453 57.5391C129.576 57.7474 129.752 57.9134 129.98 58.0371C130.214 58.1543 130.488 58.2129 130.8 58.2129C131.256 58.2129 131.653 58.1217 131.992 57.9395C132.33 57.7507 132.594 57.5228 132.783 57.2559C132.971 56.9889 133.072 56.735 133.085 56.4941L133.828 57.6074C133.736 57.8743 133.6 58.1576 133.417 58.457C133.235 58.7565 133.001 59.0365 132.714 59.2969C132.428 59.5573 132.083 59.7721 131.679 59.9414C131.275 60.1107 130.807 60.1953 130.273 60.1953C129.589 60.1953 128.977 60.0586 128.437 59.7852C127.897 59.5117 127.47 59.1374 127.158 58.6621C126.845 58.1868 126.689 57.6465 126.689 57.041C126.689 56.4811 126.793 55.9863 127.001 55.5566C127.21 55.127 127.519 54.7656 127.929 54.4727C128.339 54.1732 128.847 53.9486 129.453 53.7988C130.065 53.6426 130.764 53.5645 131.552 53.5645H133.29ZM140.585 45V60H137.997V45H140.585ZM145.781 45V60H143.193V45H145.781ZM154.062 57.7539V52.8809C154.062 52.5228 154 52.2135 153.876 51.9531C153.753 51.6927 153.564 51.4909 153.31 51.3477C153.056 51.2044 152.734 51.1328 152.343 51.1328C151.998 51.1328 151.695 51.1914 151.435 51.3086C151.181 51.4258 150.986 51.5918 150.849 51.8066C150.712 52.015 150.644 52.2559 150.644 52.5293H148.056C148.056 52.0931 148.16 51.6797 148.369 51.2891C148.577 50.8919 148.873 50.5404 149.257 50.2344C149.648 49.9219 150.113 49.6777 150.654 49.502C151.201 49.3262 151.813 49.2383 152.49 49.2383C153.29 49.2383 154.003 49.375 154.628 49.6484C155.26 49.9154 155.755 50.319 156.113 50.8594C156.477 51.3997 156.66 52.0801 156.66 52.9004V57.5098C156.66 58.0371 156.692 58.4896 156.757 58.8672C156.829 59.2383 156.933 59.5605 157.07 59.834V60H154.443C154.319 59.7331 154.225 59.3945 154.16 58.9844C154.095 58.5677 154.062 58.1576 154.062 57.7539ZM154.423 53.5645L154.443 55.0977H152.812C152.408 55.0977 152.053 55.14 151.747 55.2246C151.442 55.3027 151.191 55.4199 150.996 55.5762C150.8 55.7259 150.654 55.9082 150.556 56.123C150.458 56.3314 150.41 56.569 150.41 56.8359C150.41 57.0964 150.468 57.3307 150.585 57.5391C150.709 57.7474 150.885 57.9134 151.113 58.0371C151.347 58.1543 151.621 58.2129 151.933 58.2129C152.389 58.2129 152.786 58.1217 153.124 57.9395C153.463 57.7507 153.727 57.5228 153.915 57.2559C154.104 56.9889 154.205 56.735 154.218 56.4941L154.96 57.6074C154.869 57.8743 154.733 58.1576 154.55 58.457C154.368 58.7565 154.134 59.0365 153.847 59.2969C153.561 59.5573 153.216 59.7721 152.812 59.9414C152.408 60.1107 151.94 60.1953 151.406 60.1953C150.722 60.1953 150.11 60.0586 149.57 59.7852C149.029 59.5117 148.603 59.1374 148.29 58.6621C147.978 58.1868 147.822 57.6465 147.822 57.041C147.822 56.4811 147.926 55.9863 148.134 55.5566C148.343 55.127 148.652 54.7656 149.062 54.4727C149.472 54.1732 149.98 53.9486 150.585 53.7988C151.197 53.6426 151.897 53.5645 152.685 53.5645H154.423ZM163.984 49.4336V51.2891H157.929V49.4336H163.984ZM159.55 46.8359H162.138V56.9531C162.138 57.2656 162.18 57.5065 162.265 57.6758C162.35 57.8451 162.477 57.959 162.646 58.0176C162.815 58.0762 163.017 58.1055 163.251 58.1055C163.421 58.1055 163.577 58.0957 163.72 58.0762C163.863 58.0566 163.984 58.0371 164.081 58.0176L164.091 59.9512C163.876 60.0228 163.632 60.0814 163.359 60.127C163.092 60.1725 162.789 60.1953 162.451 60.1953C161.871 60.1953 161.363 60.0977 160.927 59.9023C160.491 59.7005 160.152 59.3783 159.912 58.9355C159.671 58.4863 159.55 57.8939 159.55 57.1582V46.8359ZM168.437 49.4336V60H165.849V49.4336H168.437ZM165.673 46.6699C165.673 46.2858 165.803 45.9668 166.064 45.7129C166.331 45.459 166.689 45.332 167.138 45.332C167.587 45.332 167.942 45.459 168.203 45.7129C168.47 45.9668 168.603 46.2858 168.603 46.6699C168.603 47.0475 168.47 47.3633 168.203 47.6172C167.942 47.8711 167.587 47.998 167.138 47.998C166.689 47.998 166.331 47.8711 166.064 47.6172C165.803 47.3633 165.673 47.0475 165.673 46.6699ZM170.439 54.8242V54.6191C170.439 53.8444 170.55 53.1315 170.771 52.4805C170.992 51.8229 171.315 51.2533 171.738 50.7715C172.161 50.2897 172.678 49.9154 173.29 49.6484C173.902 49.375 174.599 49.2383 175.38 49.2383C176.175 49.2383 176.878 49.375 177.49 49.6484C178.108 49.9154 178.629 50.2897 179.052 50.7715C179.475 51.2533 179.798 51.8229 180.019 52.4805C180.24 53.1315 180.351 53.8444 180.351 54.6191V54.8242C180.351 55.5924 180.24 56.3053 180.019 56.9629C179.798 57.6139 179.475 58.1836 179.052 58.6719C178.629 59.1536 178.111 59.528 177.499 59.7949C176.887 60.0618 176.188 60.1953 175.4 60.1953C174.619 60.1953 173.919 60.0618 173.3 59.7949C172.682 59.528 172.161 59.1536 171.738 58.6719C171.315 58.1836 170.992 57.6139 170.771 56.9629C170.55 56.3053 170.439 55.5924 170.439 54.8242ZM173.017 54.6191V54.8242C173.017 55.2865 173.063 55.7194 173.154 56.123C173.245 56.5267 173.385 56.8815 173.574 57.1875C173.762 57.4935 174.007 57.7344 174.306 57.9102C174.612 58.0794 174.977 58.1641 175.4 58.1641C175.817 58.1641 176.175 58.0794 176.474 57.9102C176.774 57.7344 177.018 57.4935 177.206 57.1875C177.402 56.8815 177.545 56.5267 177.636 56.123C177.727 55.7194 177.773 55.2865 177.773 54.8242V54.6191C177.773 54.1634 177.727 53.737 177.636 53.3398C177.545 52.9362 177.402 52.5814 177.206 52.2754C177.018 51.9629 176.77 51.7188 176.464 51.543C176.165 51.3607 175.803 51.2695 175.38 51.2695C174.964 51.2695 174.606 51.3607 174.306 51.543C174.007 51.7188 173.762 51.9629 173.574 52.2754C173.385 52.5814 173.245 52.9362 173.154 53.3398C173.063 53.737 173.017 54.1634 173.017 54.6191ZM184.755 51.6895V60H182.177V49.4336H184.599L184.755 51.6895ZM184.345 54.3359H183.583C183.59 53.5677 183.694 52.8711 183.896 52.2461C184.098 51.6211 184.381 51.084 184.746 50.6348C185.117 50.1855 185.556 49.8405 186.064 49.5996C186.572 49.3587 187.138 49.2383 187.763 49.2383C188.271 49.2383 188.73 49.3099 189.14 49.4531C189.55 49.5964 189.902 49.8242 190.195 50.1367C190.494 50.4492 190.722 50.8594 190.878 51.3672C191.041 51.8685 191.122 52.487 191.122 53.2227V60H188.525V53.2031C188.525 52.7214 188.453 52.3405 188.31 52.0605C188.173 51.7806 187.971 51.582 187.705 51.4648C187.444 51.3477 187.122 51.2891 186.738 51.2891C186.341 51.2891 185.992 51.3704 185.693 51.5332C185.4 51.6895 185.152 51.9076 184.951 52.1875C184.755 52.4674 184.606 52.7897 184.501 53.1543C184.397 53.5189 184.345 53.9128 184.345 54.3359ZM204.199 57.7539V52.8809C204.199 52.5228 204.137 52.2135 204.013 51.9531C203.889 51.6927 203.701 51.4909 203.447 51.3477C203.193 51.2044 202.871 51.1328 202.48 51.1328C202.135 51.1328 201.832 51.1914 201.572 51.3086C201.318 51.4258 201.122 51.5918 200.986 51.8066C200.849 52.015 200.781 52.2559 200.781 52.5293H198.193C198.193 52.0931 198.297 51.6797 198.505 51.2891C198.714 50.8919 199.01 50.5404 199.394 50.2344C199.785 49.9219 200.25 49.6777 200.79 49.502C201.337 49.3262 201.949 49.2383 202.626 49.2383C203.427 49.2383 204.14 49.375 204.765 49.6484C205.397 49.9154 205.891 50.319 206.249 50.8594C206.614 51.3997 206.796 52.0801 206.796 52.9004V57.5098C206.796 58.0371 206.829 58.4896 206.894 58.8672C206.966 59.2383 207.07 59.5605 207.206 59.834V60H204.58C204.456 59.7331 204.361 59.3945 204.296 58.9844C204.231 58.5677 204.199 58.1576 204.199 57.7539ZM204.56 53.5645L204.58 55.0977H202.949C202.545 55.0977 202.19 55.14 201.884 55.2246C201.578 55.3027 201.328 55.4199 201.132 55.5762C200.937 55.7259 200.79 55.9082 200.693 56.123C200.595 56.3314 200.546 56.569 200.546 56.8359C200.546 57.0964 200.605 57.3307 200.722 57.5391C200.846 57.7474 201.022 57.9134 201.249 58.0371C201.484 58.1543 201.757 58.2129 202.07 58.2129C202.525 58.2129 202.923 58.1217 203.261 57.9395C203.6 57.7507 203.863 57.5228 204.052 57.2559C204.241 56.9889 204.342 56.735 204.355 56.4941L205.097 57.6074C205.006 57.8743 204.869 58.1576 204.687 58.457C204.505 58.7565 204.27 59.0365 203.984 59.2969C203.697 59.5573 203.352 59.7721 202.949 59.9414C202.545 60.1107 202.076 60.1953 201.542 60.1953C200.859 60.1953 200.247 60.0586 199.706 59.7852C199.166 59.5117 198.74 59.1374 198.427 58.6621C198.115 58.1868 197.958 57.6465 197.958 57.041C197.958 56.4811 198.063 55.9863 198.271 55.5566C198.479 55.127 198.789 54.7656 199.199 54.4727C199.609 54.1732 200.117 53.9486 200.722 53.7988C201.334 53.6426 202.034 53.5645 202.822 53.5645H204.56ZM211.65 51.6895V60H209.072V49.4336H211.494L211.65 51.6895ZM211.24 54.3359H210.478C210.484 53.5677 210.589 52.8711 210.79 52.2461C210.992 51.6211 211.275 51.084 211.64 50.6348C212.011 50.1855 212.451 49.8405 212.958 49.5996C213.466 49.3587 214.033 49.2383 214.658 49.2383C215.165 49.2383 215.624 49.3099 216.035 49.4531C216.445 49.5964 216.796 49.8242 217.089 50.1367C217.389 50.4492 217.617 50.8594 217.773 51.3672C217.936 51.8685 218.017 52.487 218.017 53.2227V60H215.419V53.2031C215.419 52.7214 215.348 52.3405 215.205 52.0605C215.068 51.7806 214.866 51.582 214.599 51.4648C214.339 51.3477 214.016 51.2891 213.632 51.2891C213.235 51.2891 212.887 51.3704 212.587 51.5332C212.294 51.6895 212.047 51.9076 211.845 52.1875C211.65 52.4674 211.5 52.7897 211.396 53.1543C211.292 53.5189 211.24 53.9128 211.24 54.3359ZM226.63 57.7539V45H229.228V60H226.884L226.63 57.7539ZM219.843 54.8438V54.6387C219.843 53.8314 219.934 53.099 220.117 52.4414C220.305 51.7773 220.579 51.2077 220.937 50.7324C221.295 50.2572 221.728 49.8893 222.236 49.6289C222.75 49.3685 223.333 49.2383 223.984 49.2383C224.615 49.2383 225.165 49.3652 225.634 49.6191C226.109 49.873 226.513 50.2344 226.845 50.7031C227.184 51.1719 227.454 51.7285 227.656 52.373C227.858 53.0111 228.004 53.7142 228.095 54.4824V55.0391C228.004 55.7878 227.858 56.4746 227.656 57.0996C227.454 57.7246 227.184 58.2715 226.845 58.7402C226.513 59.2025 226.109 59.5605 225.634 59.8145C225.159 60.0684 224.602 60.1953 223.964 60.1953C223.32 60.1953 222.74 60.0618 222.226 59.7949C221.718 59.528 221.285 59.1536 220.927 58.6719C220.576 58.1901 220.305 57.6237 220.117 56.9727C219.934 56.3216 219.843 55.612 219.843 54.8438ZM222.431 54.6387V54.8438C222.431 55.2995 222.47 55.7259 222.548 56.123C222.626 56.5202 222.753 56.8717 222.929 57.1777C223.105 57.4772 223.33 57.7116 223.603 57.8809C223.883 58.0501 224.221 58.1348 224.619 58.1348C225.126 58.1348 225.543 58.0241 225.869 57.8027C226.201 57.5749 226.458 57.2656 226.64 56.875C226.822 56.4779 226.94 56.0319 226.992 55.5371V54.0039C226.966 53.6133 226.897 53.252 226.787 52.9199C226.682 52.5879 226.533 52.3014 226.337 52.0605C226.149 51.8197 225.914 51.6309 225.634 51.4941C225.354 51.3574 225.022 51.2891 224.638 51.2891C224.241 51.2891 223.902 51.377 223.622 51.5527C223.343 51.722 223.115 51.9596 222.939 52.2656C222.763 52.5716 222.633 52.9264 222.548 53.3301C222.47 53.7337 222.431 54.1699 222.431 54.6387ZM245.058 55.3223H247.744C247.672 56.2728 247.408 57.1159 246.953 57.8516C246.497 58.5807 245.862 59.1536 245.048 59.5703C244.234 59.987 243.248 60.1953 242.089 60.1953C241.197 60.1953 240.393 60.0391 239.677 59.7266C238.968 59.4076 238.359 58.9551 237.851 58.3691C237.35 57.7767 236.966 57.0671 236.699 56.2402C236.432 55.4069 236.298 54.4727 236.298 53.4375V52.3535C236.298 51.3184 236.435 50.3841 236.708 49.5508C236.982 48.7174 237.372 48.0078 237.88 47.4219C238.395 46.8294 239.01 46.3737 239.726 46.0547C240.449 45.7357 241.256 45.5762 242.148 45.5762C243.307 45.5762 244.287 45.791 245.087 46.2207C245.888 46.6439 246.51 47.2266 246.953 47.9688C247.395 48.7109 247.662 49.5638 247.753 50.5273H245.068C245.016 49.9284 244.886 49.4206 244.677 49.0039C244.475 48.5872 244.169 48.2715 243.759 48.0566C243.356 47.8353 242.818 47.7246 242.148 47.7246C241.627 47.7246 241.168 47.8223 240.771 48.0176C240.38 48.2129 240.055 48.5059 239.794 48.8965C239.534 49.2806 239.339 49.7624 239.208 50.3418C239.078 50.9147 239.013 51.5788 239.013 52.334V53.4375C239.013 54.1602 239.072 54.8079 239.189 55.3809C239.306 55.9538 239.488 56.4388 239.736 56.8359C239.983 57.2331 240.302 57.5358 240.693 57.7441C241.083 57.9525 241.549 58.0566 242.089 58.0566C242.747 58.0566 243.281 57.9525 243.691 57.7441C244.108 57.5358 244.423 57.2298 244.638 56.8262C244.859 56.4225 244.999 55.9212 245.058 55.3223ZM249.169 54.8242V54.6191C249.169 53.8444 249.28 53.1315 249.501 52.4805C249.723 51.8229 250.045 51.2533 250.468 50.7715C250.891 50.2897 251.409 49.9154 252.021 49.6484C252.633 49.375 253.33 49.2383 254.111 49.2383C254.905 49.2383 255.608 49.375 256.22 49.6484C256.839 49.9154 257.359 50.2897 257.783 50.7715C258.206 51.2533 258.528 51.8229 258.749 52.4805C258.971 53.1315 259.081 53.8444 259.081 54.6191V54.8242C259.081 55.5924 258.971 56.3053 258.749 56.9629C258.528 57.6139 258.206 58.1836 257.783 58.6719C257.359 59.1536 256.842 59.528 256.23 59.7949C255.618 60.0618 254.918 60.1953 254.13 60.1953C253.349 60.1953 252.649 60.0618 252.031 59.7949C251.412 59.528 250.891 59.1536 250.468 58.6719C250.045 58.1836 249.723 57.6139 249.501 56.9629C249.28 56.3053 249.169 55.5924 249.169 54.8242ZM251.747 54.6191V54.8242C251.747 55.2865 251.793 55.7194 251.884 56.123C251.975 56.5267 252.115 56.8815 252.304 57.1875C252.493 57.4935 252.737 57.7344 253.037 57.9102C253.343 58.0794 253.707 58.1641 254.13 58.1641C254.547 58.1641 254.905 58.0794 255.205 57.9102C255.504 57.7344 255.748 57.4935 255.937 57.1875C256.132 56.8815 256.275 56.5267 256.367 56.123C256.458 55.7194 256.503 55.2865 256.503 54.8242V54.6191C256.503 54.1634 256.458 53.737 256.367 53.3398C256.275 52.9362 256.132 52.5814 255.937 52.2754C255.748 51.9629 255.501 51.7188 255.195 51.543C254.895 51.3607 254.534 51.2695 254.111 51.2695C253.694 51.2695 253.336 51.3607 253.037 51.543C252.737 51.7188 252.493 51.9629 252.304 52.2754C252.115 52.5814 251.975 52.9362 251.884 53.3398C251.793 53.737 251.747 54.1634 251.747 54.6191ZM263.486 51.6895V60H260.908V49.4336H263.33L263.486 51.6895ZM263.076 54.3359H262.314C262.32 53.5677 262.425 52.8711 262.626 52.2461C262.828 51.6211 263.111 51.084 263.476 50.6348C263.847 50.1855 264.287 49.8405 264.794 49.5996C265.302 49.3587 265.869 49.2383 266.494 49.2383C267.001 49.2383 267.46 49.3099 267.871 49.4531C268.281 49.5964 268.632 49.8242 268.925 50.1367C269.225 50.4492 269.453 50.8594 269.609 51.3672C269.772 51.8685 269.853 52.487 269.853 53.2227V60H267.255V53.2031C267.255 52.7214 267.184 52.3405 267.04 52.0605C266.904 51.7806 266.702 51.582 266.435 51.4648C266.175 51.3477 265.852 51.2891 265.468 51.2891C265.071 51.2891 264.723 51.3704 264.423 51.5332C264.13 51.6895 263.883 51.9076 263.681 52.1875C263.486 52.4674 263.336 52.7897 263.232 53.1543C263.128 53.5189 263.076 53.9128 263.076 54.3359ZM275.39 60H272.792V48.8477C272.792 47.9753 272.968 47.2396 273.32 46.6406C273.678 46.0352 274.189 45.5762 274.853 45.2637C275.524 44.9512 276.321 44.7949 277.246 44.7949C277.786 44.7949 278.307 44.8503 278.808 44.9609C279.316 45.0651 279.837 45.2018 280.371 45.3711L279.99 47.4609C279.645 47.3503 279.267 47.2461 278.857 47.1484C278.453 47.0508 277.975 47.002 277.421 47.002C276.738 47.002 276.227 47.1582 275.888 47.4707C275.556 47.7832 275.39 48.2422 275.39 48.8477V60ZM277.499 49.4336V51.2891H271.201V49.4336H277.499ZM281.581 49.4336V60H278.994V49.4336H281.581ZM290.8 49.4336H293.144V59.6777C293.144 60.6348 292.936 61.4453 292.519 62.1094C292.109 62.7799 291.533 63.2878 290.79 63.6328C290.048 63.9844 289.186 64.1602 288.203 64.1602C287.779 64.1602 287.32 64.1016 286.826 63.9844C286.337 63.8672 285.865 63.6816 285.41 63.4277C284.96 63.1803 284.586 62.8581 284.287 62.4609L285.449 60.9375C285.8 61.3477 286.197 61.6569 286.64 61.8652C287.083 62.0801 287.561 62.1875 288.076 62.1875C288.596 62.1875 289.039 62.0898 289.404 61.8945C289.775 61.7057 290.058 61.4258 290.253 61.0547C290.455 60.6901 290.556 60.2409 290.556 59.707V51.8457L290.8 49.4336ZM283.662 54.8438V54.6387C283.662 53.8314 283.759 53.099 283.955 52.4414C284.15 51.7773 284.43 51.2077 284.794 50.7324C285.165 50.2572 285.611 49.8893 286.132 49.6289C286.66 49.3685 287.252 49.2383 287.91 49.2383C288.606 49.2383 289.192 49.3652 289.667 49.6191C290.149 49.873 290.546 50.2344 290.859 50.7031C291.178 51.1719 291.425 51.7285 291.601 52.373C291.783 53.0111 291.923 53.7142 292.021 54.4824V55.0391C291.93 55.7878 291.783 56.4746 291.581 57.0996C291.386 57.7246 291.126 58.2715 290.8 58.7402C290.475 59.2025 290.071 59.5605 289.589 59.8145C289.108 60.0684 288.541 60.1953 287.89 60.1953C287.239 60.1953 286.653 60.0618 286.132 59.7949C285.611 59.528 285.165 59.1536 284.794 58.6719C284.43 58.1901 284.15 57.6237 283.955 56.9727C283.759 56.3216 283.662 55.612 283.662 54.8438ZM286.24 54.6387V54.8438C286.24 55.2995 286.285 55.7259 286.376 56.123C286.468 56.5202 286.608 56.8717 286.796 57.1777C286.985 57.4772 287.223 57.7116 287.509 57.8809C287.796 58.0501 288.137 58.1348 288.535 58.1348C289.068 58.1348 289.505 58.0241 289.843 57.8027C290.188 57.5749 290.449 57.2656 290.624 56.875C290.807 56.4779 290.924 56.0319 290.976 55.5371V54.0039C290.943 53.6133 290.872 53.252 290.761 52.9199C290.657 52.5879 290.511 52.3014 290.322 52.0605C290.133 51.8197 289.892 51.6309 289.599 51.4941C289.306 51.3574 288.958 51.2891 288.554 51.2891C288.164 51.2891 287.822 51.377 287.529 51.5527C287.236 51.722 286.995 51.9596 286.806 52.2656C286.617 52.5716 286.474 52.9264 286.376 53.3301C286.285 53.7337 286.24 54.1699 286.24 54.6387ZM301.757 57.4902V49.4336H304.355V60H301.914L301.757 57.4902ZM302.089 55.3027L302.89 55.2832C302.89 55.9928 302.812 56.6471 302.656 57.2461C302.499 57.8451 302.255 58.3659 301.923 58.8086C301.598 59.2448 301.184 59.5866 300.683 59.834C300.182 60.0749 299.589 60.1953 298.906 60.1953C298.385 60.1953 297.91 60.1237 297.48 59.9805C297.05 59.8307 296.679 59.5996 296.367 59.2871C296.061 58.9681 295.823 58.5612 295.654 58.0664C295.484 57.5651 295.4 56.9629 295.4 56.2598V49.4336H297.978V56.2793C297.978 56.6309 298.017 56.9238 298.095 57.1582C298.18 57.3926 298.294 57.5846 298.437 57.7344C298.587 57.8776 298.759 57.9818 298.955 58.0469C299.156 58.1055 299.371 58.1348 299.599 58.1348C300.224 58.1348 300.716 58.0111 301.074 57.7637C301.438 57.5098 301.699 57.1712 301.855 56.748C302.011 56.3184 302.089 55.8366 302.089 55.3027ZM309.218 51.5918V60H306.64V49.4336H309.081L309.218 51.5918ZM312.431 49.3652L312.392 51.7676C312.249 51.7415 312.086 51.722 311.904 51.709C311.728 51.696 311.562 51.6895 311.406 51.6895C311.009 51.6895 310.66 51.7448 310.361 51.8555C310.061 51.9596 309.811 52.1126 309.609 52.3145C309.414 52.5163 309.264 52.7637 309.16 53.0566C309.055 53.3431 308.997 53.6686 308.984 54.0332L308.427 53.9648C308.427 53.2943 308.496 52.6725 308.632 52.0996C308.769 51.5267 308.968 51.0254 309.228 50.5957C309.488 50.166 309.814 49.834 310.205 49.5996C310.602 49.3587 311.057 49.2383 311.572 49.2383C311.715 49.2383 311.868 49.2513 312.031 49.2773C312.2 49.2969 312.333 49.3262 312.431 49.3652ZM319.335 57.7539V52.8809C319.335 52.5228 319.274 52.2135 319.15 51.9531C319.026 51.6927 318.837 51.4909 318.583 51.3477C318.33 51.2044 318.007 51.1328 317.617 51.1328C317.272 51.1328 316.969 51.1914 316.708 51.3086C316.455 51.4258 316.259 51.5918 316.122 51.8066C315.986 52.015 315.917 52.2559 315.917 52.5293H313.33C313.33 52.0931 313.434 51.6797 313.642 51.2891C313.85 50.8919 314.147 50.5404 314.531 50.2344C314.921 49.9219 315.387 49.6777 315.927 49.502C316.474 49.3262 317.086 49.2383 317.763 49.2383C318.564 49.2383 319.277 49.375 319.902 49.6484C320.533 49.9154 321.028 50.319 321.386 50.8594C321.751 51.3997 321.933 52.0801 321.933 52.9004V57.5098C321.933 58.0371 321.966 58.4896 322.031 58.8672C322.102 59.2383 322.206 59.5605 322.343 59.834V60H319.716C319.593 59.7331 319.498 59.3945 319.433 58.9844C319.368 58.5677 319.335 58.1576 319.335 57.7539ZM319.697 53.5645L319.716 55.0977H318.085C317.682 55.0977 317.327 55.14 317.021 55.2246C316.715 55.3027 316.464 55.4199 316.269 55.5762C316.074 55.7259 315.927 55.9082 315.83 56.123C315.732 56.3314 315.683 56.569 315.683 56.8359C315.683 57.0964 315.742 57.3307 315.859 57.5391C315.983 57.7474 316.158 57.9134 316.386 58.0371C316.621 58.1543 316.894 58.2129 317.206 58.2129C317.662 58.2129 318.059 58.1217 318.398 57.9395C318.736 57.7507 319 57.5228 319.189 57.2559C319.378 56.9889 319.479 56.735 319.492 56.4941L320.234 57.6074C320.143 57.8743 320.006 58.1576 319.824 58.457C319.641 58.7565 319.407 59.0365 319.121 59.2969C318.834 59.5573 318.489 59.7721 318.085 59.9414C317.682 60.1107 317.213 60.1953 316.679 60.1953C315.996 60.1953 315.384 60.0586 314.843 59.7852C314.303 59.5117 313.876 59.1374 313.564 58.6621C313.251 58.1868 313.095 57.6465 313.095 57.041C313.095 56.4811 313.199 55.9863 313.408 55.5566C313.616 55.127 313.925 54.7656 314.335 54.4727C314.746 54.1732 315.253 53.9486 315.859 53.7988C316.471 53.6426 317.171 53.5645 317.958 53.5645H319.697ZM329.257 49.4336V51.2891H323.203V49.4336H329.257ZM324.824 46.8359H327.412V56.9531C327.412 57.2656 327.454 57.5065 327.539 57.6758C327.623 57.8451 327.75 57.959 327.919 58.0176C328.089 58.0762 328.29 58.1055 328.525 58.1055C328.694 58.1055 328.85 58.0957 328.994 58.0762C329.137 58.0566 329.257 58.0371 329.355 58.0176L329.365 59.9512C329.15 60.0228 328.906 60.0814 328.632 60.127C328.365 60.1725 328.063 60.1953 327.724 60.1953C327.145 60.1953 326.637 60.0977 326.201 59.9023C325.764 59.7005 325.426 59.3783 325.185 58.9355C324.944 58.4863 324.824 57.8939 324.824 57.1582V46.8359ZM333.71 49.4336V60H331.122V49.4336H333.71ZM330.947 46.6699C330.947 46.2858 331.077 45.9668 331.337 45.7129C331.604 45.459 331.962 45.332 332.412 45.332C332.861 45.332 333.216 45.459 333.476 45.7129C333.743 45.9668 333.876 46.2858 333.876 46.6699C333.876 47.0475 333.743 47.3633 333.476 47.6172C333.216 47.8711 332.861 47.998 332.412 47.998C331.962 47.998 331.604 47.8711 331.337 47.6172C331.077 47.3633 330.947 47.0475 330.947 46.6699ZM335.712 54.8242V54.6191C335.712 53.8444 335.823 53.1315 336.044 52.4805C336.266 51.8229 336.588 51.2533 337.011 50.7715C337.434 50.2897 337.952 49.9154 338.564 49.6484C339.176 49.375 339.872 49.2383 340.654 49.2383C341.448 49.2383 342.151 49.375 342.763 49.6484C343.382 49.9154 343.902 50.2897 344.326 50.7715C344.749 51.2533 345.071 51.8229 345.292 52.4805C345.514 53.1315 345.624 53.8444 345.624 54.6191V54.8242C345.624 55.5924 345.514 56.3053 345.292 56.9629C345.071 57.6139 344.749 58.1836 344.326 58.6719C343.902 59.1536 343.385 59.528 342.773 59.7949C342.161 60.0618 341.461 60.1953 340.673 60.1953C339.892 60.1953 339.192 60.0618 338.574 59.7949C337.955 59.528 337.434 59.1536 337.011 58.6719C336.588 58.1836 336.266 57.6139 336.044 56.9629C335.823 56.3053 335.712 55.5924 335.712 54.8242ZM338.29 54.6191V54.8242C338.29 55.2865 338.336 55.7194 338.427 56.123C338.518 56.5267 338.658 56.8815 338.847 57.1875C339.036 57.4935 339.28 57.7344 339.58 57.9102C339.886 58.0794 340.25 58.1641 340.673 58.1641C341.09 58.1641 341.448 58.0794 341.747 57.9102C342.047 57.7344 342.291 57.4935 342.48 57.1875C342.675 56.8815 342.818 56.5267 342.91 56.123C343.001 55.7194 343.046 55.2865 343.046 54.8242V54.6191C343.046 54.1634 343.001 53.737 342.91 53.3398C342.818 52.9362 342.675 52.5814 342.48 52.2754C342.291 51.9629 342.044 51.7188 341.738 51.543C341.438 51.3607 341.077 51.2695 340.654 51.2695C340.237 51.2695 339.879 51.3607 339.58 51.543C339.28 51.7188 339.036 51.9629 338.847 52.2754C338.658 52.5814 338.518 52.9362 338.427 53.3398C338.336 53.737 338.29 54.1634 338.29 54.6191ZM350.029 51.6895V60H347.451V49.4336H349.872L350.029 51.6895ZM349.619 54.3359H348.857C348.863 53.5677 348.968 52.8711 349.169 52.2461C349.371 51.6211 349.654 51.084 350.019 50.6348C350.39 50.1855 350.83 49.8405 351.337 49.5996C351.845 49.3587 352.412 49.2383 353.037 49.2383C353.544 49.2383 354.003 49.3099 354.414 49.4531C354.824 49.5964 355.175 49.8242 355.468 50.1367C355.768 50.4492 355.996 50.8594 356.152 51.3672C356.315 51.8685 356.396 52.487 356.396 53.2227V60H353.798V53.2031C353.798 52.7214 353.727 52.3405 353.583 52.0605C353.447 51.7806 353.245 51.582 352.978 51.4648C352.718 51.3477 352.395 51.2891 352.011 51.2891C351.614 51.2891 351.266 51.3704 350.966 51.5332C350.673 51.6895 350.426 51.9076 350.224 52.1875C350.029 52.4674 349.879 52.7897 349.775 53.1543C349.671 53.5189 349.619 53.9128 349.619 54.3359Z" fill="#6A6A6A"/>
<rect x="92.0038" y="66.4868" width="580.655" height="6.91669" transform="rotate(0.109739 92.0038 66.4868)" fill="#6A6A6A"/>
<g clip-path="url(#clip0_962_3244)">
<path d="M77.9322 44.5554H72.7125C72.3957 44.5554 72.0919 44.6812 71.8679 44.9052C71.6439 45.1292 71.518 45.433 71.518 45.7498C71.518 46.0666 71.6439 46.3704 71.8679 46.5944C72.0919 46.8184 72.3957 46.9443 72.7125 46.9443H78.0278V70.8332H46.9722V46.9443H52.2039C52.5207 46.9443 52.8245 46.8184 53.0485 46.5944C53.2725 46.3704 53.3983 46.0666 53.3983 45.7498C53.3983 45.433 53.2725 45.1292 53.0485 44.9052C52.8245 44.6812 52.5207 44.5554 52.2039 44.5554H47.0678C46.7461 44.5425 46.4252 44.5948 46.1242 44.709C45.8232 44.8233 45.5485 44.9972 45.3164 45.2204C45.0844 45.4435 44.8998 45.7112 44.7738 46.0075C44.6479 46.3037 44.5831 46.6223 44.5833 46.9443V70.8332C44.5831 71.1551 44.6479 71.4737 44.7738 71.77C44.8998 72.0662 45.0844 72.3339 45.3164 72.5571C45.5485 72.7802 45.8232 72.9541 46.1242 73.0684C46.4252 73.1827 46.7461 73.2349 47.0678 73.222H77.9322C78.2539 73.2349 78.5748 73.1827 78.8758 73.0684C79.1767 72.9541 79.4515 72.7802 79.6835 72.5571C79.9156 72.3339 80.1001 72.0662 80.2261 71.77C80.3521 71.4737 80.4169 71.1551 80.4166 70.8332V46.9443C80.4169 46.6223 80.3521 46.3037 80.2261 46.0075C80.1001 45.7112 79.9156 45.4435 79.6835 45.2204C79.4515 44.9972 79.1767 44.8233 78.8758 44.709C78.5748 44.5948 78.2539 44.5425 77.9322 44.5554Z" fill="#6A6A6A"/>
<path d="M53.3028 57.5391L61.6639 65.7688C61.8872 65.9877 62.1874 66.1102 62.5 66.1102C62.8127 66.1102 63.1128 65.9877 63.3361 65.7688L71.6972 57.5391C71.9237 57.3173 72.0529 57.0147 72.0562 56.6977C72.0596 56.3808 71.9369 56.0754 71.7152 55.8489C71.4934 55.6224 71.1908 55.4933 70.8738 55.4899C70.5568 55.4866 70.2515 55.6093 70.025 55.831L63.6945 62.0541V39.7777C63.6945 39.4609 63.5686 39.1571 63.3446 38.9331C63.1206 38.7091 62.8168 38.5833 62.5 38.5833C62.1832 38.5833 61.8794 38.7091 61.6554 38.9331C61.4314 39.1571 61.3056 39.4609 61.3056 39.7777V62.0541L54.975 55.831C54.7485 55.6093 54.4432 55.4866 54.1262 55.4899C53.8093 55.4933 53.5066 55.6224 53.2849 55.8489C53.0631 56.0754 52.9404 56.3808 52.9438 56.6977C52.9472 57.0147 53.0763 57.3173 53.3028 57.5391Z" fill="#6A6A6A"/>
</g>
<defs>
<clipPath id="clip0_962_3244">
<rect width="43" height="43" fill="white" transform="translate(41 35)"/>
</clipPath>
</defs>
</svg>
