<svg width="717" height="112" viewBox="0 0 717 112" fill="none" xmlns="http://www.w3.org/2000/svg">
<path d="M0 0H717V112H0V0Z" fill="white"/>
<path d="M98.8262 54.8145H95.1641V52.7051H98.8262C99.4251 52.7051 99.9102 52.6074 100.281 52.4121C100.659 52.2103 100.936 51.9368 101.111 51.5918C101.287 51.2402 101.375 50.8398 101.375 50.3906C101.375 49.9544 101.287 49.5475 101.111 49.1699C100.936 48.7923 100.659 48.4863 100.281 48.252C99.9102 48.0176 99.4251 47.9004 98.8262 47.9004H96.043V60H93.3574V45.7812H98.8262C99.9329 45.7812 100.877 45.9798 101.658 46.377C102.446 46.7676 103.045 47.3112 103.455 48.0078C103.872 48.6979 104.08 49.4857 104.08 50.3711C104.08 51.2891 103.872 52.0801 103.455 52.7441C103.045 53.4082 102.446 53.9193 101.658 54.2773C100.877 54.6354 99.9329 54.8145 98.8262 54.8145ZM108.572 51.5918V60H105.994V49.4336H108.436L108.572 51.5918ZM111.785 49.3652L111.746 51.7676C111.603 51.7415 111.44 51.722 111.258 51.709C111.082 51.696 110.916 51.6895 110.76 51.6895C110.363 51.6895 110.014 51.7448 109.715 51.8555C109.415 51.9596 109.165 52.1126 108.963 52.3145C108.768 52.5163 108.618 52.7637 108.514 53.0566C108.41 53.3431 108.351 53.6686 108.338 54.0332L107.781 53.9648C107.781 53.2943 107.85 52.6725 107.986 52.0996C108.123 51.5267 108.322 51.0254 108.582 50.5957C108.842 50.166 109.168 49.834 109.559 49.5996C109.956 49.3587 110.411 49.2383 110.926 49.2383C111.069 49.2383 111.222 49.2513 111.385 49.2773C111.554 49.2969 111.688 49.3262 111.785 49.3652ZM112.469 54.8242V54.6191C112.469 53.8444 112.579 53.1315 112.801 52.4805C113.022 51.8229 113.344 51.2533 113.768 50.7715C114.191 50.2897 114.708 49.9154 115.32 49.6484C115.932 49.375 116.629 49.2383 117.41 49.2383C118.204 49.2383 118.908 49.375 119.52 49.6484C120.138 49.9154 120.659 50.2897 121.082 50.7715C121.505 51.2533 121.827 51.8229 122.049 52.4805C122.27 53.1315 122.381 53.8444 122.381 54.6191V54.8242C122.381 55.5924 122.27 56.3053 122.049 56.9629C121.827 57.6139 121.505 58.1836 121.082 58.6719C120.659 59.1536 120.141 59.528 119.529 59.7949C118.917 60.0618 118.217 60.1953 117.43 60.1953C116.648 60.1953 115.949 60.0618 115.33 59.7949C114.712 59.528 114.191 59.1536 113.768 58.6719C113.344 58.1836 113.022 57.6139 112.801 56.9629C112.579 56.3053 112.469 55.5924 112.469 54.8242ZM115.047 54.6191V54.8242C115.047 55.2865 115.092 55.7194 115.184 56.123C115.275 56.5267 115.415 56.8815 115.604 57.1875C115.792 57.4935 116.036 57.7344 116.336 57.9102C116.642 58.0794 117.007 58.1641 117.43 58.1641C117.846 58.1641 118.204 58.0794 118.504 57.9102C118.803 57.7344 119.048 57.4935 119.236 57.1875C119.432 56.8815 119.575 56.5267 119.666 56.123C119.757 55.7194 119.803 55.2865 119.803 54.8242V54.6191C119.803 54.1634 119.757 53.737 119.666 53.3398C119.575 52.9362 119.432 52.5814 119.236 52.2754C119.048 51.9629 118.8 51.7188 118.494 51.543C118.195 51.3607 117.833 51.2695 117.41 51.2695C116.993 51.2695 116.635 51.3607 116.336 51.543C116.036 51.7188 115.792 51.9629 115.604 52.2754C115.415 52.5814 115.275 52.9362 115.184 53.3398C115.092 53.737 115.047 54.1634 115.047 54.6191ZM124.383 49.4336H126.98V60.7812C126.98 61.5299 126.844 62.1647 126.57 62.6855C126.303 63.2064 125.916 63.6003 125.408 63.8672C124.9 64.1341 124.279 64.2676 123.543 64.2676C123.315 64.2676 123.087 64.2546 122.859 64.2285C122.632 64.2025 122.407 64.1602 122.186 64.1016L122.195 62.1094C122.339 62.1354 122.485 62.1549 122.635 62.168C122.785 62.1875 122.934 62.1973 123.084 62.1973C123.364 62.1973 123.598 62.1484 123.787 62.0508C123.982 61.9531 124.129 61.8001 124.227 61.5918C124.331 61.3835 124.383 61.1133 124.383 60.7812V49.4336ZM124.168 46.6699C124.168 46.2858 124.298 45.9668 124.559 45.7129C124.826 45.459 125.184 45.332 125.633 45.332C126.082 45.332 126.437 45.459 126.697 45.7129C126.964 45.9668 127.098 46.2858 127.098 46.6699C127.098 47.0475 126.964 47.3633 126.697 47.6172C126.437 47.8711 126.082 47.998 125.633 47.998C125.184 47.998 124.826 47.8711 124.559 47.6172C124.298 47.3633 124.168 47.0475 124.168 46.6699ZM134.119 60.1953C133.318 60.1953 132.599 60.0651 131.961 59.8047C131.323 59.5443 130.779 59.1829 130.33 58.7207C129.887 58.252 129.546 57.7083 129.305 57.0898C129.07 56.4648 128.953 55.7943 128.953 55.0781V54.6875C128.953 53.8737 129.07 53.1348 129.305 52.4707C129.539 51.8001 129.871 51.224 130.301 50.7422C130.73 50.2604 131.245 49.8893 131.844 49.6289C132.443 49.3685 133.104 49.2383 133.826 49.2383C134.575 49.2383 135.236 49.3652 135.809 49.6191C136.382 49.8665 136.86 50.2181 137.244 50.6738C137.628 51.1296 137.918 51.6764 138.113 52.3145C138.309 52.946 138.406 53.6458 138.406 54.4141V55.498H130.125V53.7207H135.867V53.5254C135.854 53.1152 135.776 52.7409 135.633 52.4023C135.49 52.0573 135.268 51.7839 134.969 51.582C134.669 51.3737 134.282 51.2695 133.807 51.2695C133.423 51.2695 133.087 51.3542 132.801 51.5234C132.521 51.6862 132.286 51.9206 132.098 52.2266C131.915 52.526 131.779 52.8841 131.688 53.3008C131.596 53.7174 131.551 54.1797 131.551 54.6875V55.0781C131.551 55.5208 131.609 55.931 131.727 56.3086C131.85 56.6862 132.029 57.015 132.264 57.2949C132.505 57.5684 132.791 57.7832 133.123 57.9395C133.462 58.0892 133.846 58.1641 134.275 58.1641C134.816 58.1641 135.304 58.0599 135.74 57.8516C136.183 57.6367 136.567 57.321 136.893 56.9043L138.191 58.252C137.97 58.5775 137.671 58.89 137.293 59.1895C136.922 59.4889 136.473 59.7331 135.945 59.9219C135.418 60.1042 134.809 60.1953 134.119 60.1953ZM144.471 58.1641C144.835 58.1641 145.161 58.0924 145.447 57.9492C145.734 57.806 145.962 57.6042 146.131 57.3438C146.307 57.0833 146.401 56.7806 146.414 56.4355H148.846C148.833 57.1517 148.631 57.793 148.24 58.3594C147.85 58.9258 147.329 59.375 146.678 59.707C146.033 60.0326 145.311 60.1953 144.51 60.1953C143.696 60.1953 142.986 60.0586 142.381 59.7852C141.775 59.5117 141.271 59.1309 140.867 58.6426C140.47 58.1543 140.171 57.5879 139.969 56.9434C139.773 56.2988 139.676 55.6087 139.676 54.873V54.5605C139.676 53.8249 139.773 53.1348 139.969 52.4902C140.171 51.8457 140.47 51.2793 140.867 50.791C141.271 50.3027 141.775 49.9219 142.381 49.6484C142.986 49.375 143.693 49.2383 144.5 49.2383C145.353 49.2383 146.102 49.4043 146.746 49.7363C147.397 50.0684 147.905 50.5371 148.27 51.1426C148.641 51.748 148.833 52.4609 148.846 53.2812H146.414C146.401 52.9036 146.316 52.5651 146.16 52.2656C146.004 51.9661 145.783 51.7253 145.496 51.543C145.21 51.3607 144.861 51.2695 144.451 51.2695C144.015 51.2695 143.65 51.3607 143.357 51.543C143.071 51.7253 142.846 51.9759 142.684 52.2949C142.527 52.6074 142.417 52.959 142.352 53.3496C142.293 53.7337 142.264 54.1374 142.264 54.5605V54.873C142.264 55.3027 142.293 55.7129 142.352 56.1035C142.417 56.4941 142.527 56.8457 142.684 57.1582C142.846 57.4642 143.071 57.7083 143.357 57.8906C143.65 58.0729 144.021 58.1641 144.471 58.1641ZM155.564 49.4336V51.2891H149.51V49.4336H155.564ZM151.131 46.8359H153.719V56.9531C153.719 57.2656 153.761 57.5065 153.846 57.6758C153.93 57.8451 154.057 57.959 154.227 58.0176C154.396 58.0762 154.598 58.1055 154.832 58.1055C155.001 58.1055 155.158 58.0957 155.301 58.0762C155.444 58.0566 155.564 58.0371 155.662 58.0176L155.672 59.9512C155.457 60.0228 155.213 60.0814 154.939 60.127C154.673 60.1725 154.37 60.1953 154.031 60.1953C153.452 60.1953 152.944 60.0977 152.508 59.9023C152.072 59.7005 151.733 59.3783 151.492 58.9355C151.251 58.4863 151.131 57.8939 151.131 57.1582V46.8359ZM165.32 45.7812V60H162.635V45.7812H165.32ZM170.555 51.6895V60H167.977V49.4336H170.398L170.555 51.6895ZM170.145 54.3359H169.383C169.389 53.5677 169.493 52.8711 169.695 52.2461C169.897 51.6211 170.18 51.084 170.545 50.6348C170.916 50.1855 171.355 49.8405 171.863 49.5996C172.371 49.3587 172.938 49.2383 173.562 49.2383C174.07 49.2383 174.529 49.3099 174.939 49.4531C175.35 49.5964 175.701 49.8242 175.994 50.1367C176.294 50.4492 176.521 50.8594 176.678 51.3672C176.84 51.8685 176.922 52.487 176.922 53.2227V60H174.324V53.2031C174.324 52.7214 174.253 52.3405 174.109 52.0605C173.973 51.7806 173.771 51.582 173.504 51.4648C173.243 51.3477 172.921 51.2891 172.537 51.2891C172.14 51.2891 171.792 51.3704 171.492 51.5332C171.199 51.6895 170.952 51.9076 170.75 52.1875C170.555 52.4674 170.405 52.7897 170.301 53.1543C170.197 53.5189 170.145 53.9128 170.145 54.3359ZM182.576 60H179.979V48.457C179.979 47.6628 180.132 46.9954 180.438 46.4551C180.743 45.9082 181.18 45.4948 181.746 45.2148C182.312 44.9349 182.98 44.7949 183.748 44.7949C184.002 44.7949 184.243 44.8112 184.471 44.8438C184.705 44.8763 184.936 44.9219 185.164 44.9805L185.115 46.9434C184.992 46.9108 184.855 46.888 184.705 46.875C184.562 46.862 184.402 46.8555 184.227 46.8555C183.875 46.8555 183.576 46.9173 183.328 47.041C183.081 47.1647 182.892 47.347 182.762 47.5879C182.638 47.8223 182.576 48.112 182.576 48.457V60ZM184.715 49.4336V51.2891H178.387V49.4336H184.715ZM185.848 54.8242V54.6191C185.848 53.8444 185.958 53.1315 186.18 52.4805C186.401 51.8229 186.723 51.2533 187.146 50.7715C187.57 50.2897 188.087 49.9154 188.699 49.6484C189.311 49.375 190.008 49.2383 190.789 49.2383C191.583 49.2383 192.286 49.375 192.898 49.6484C193.517 49.9154 194.038 50.2897 194.461 50.7715C194.884 51.2533 195.206 51.8229 195.428 52.4805C195.649 53.1315 195.76 53.8444 195.76 54.6191V54.8242C195.76 55.5924 195.649 56.3053 195.428 56.9629C195.206 57.6139 194.884 58.1836 194.461 58.6719C194.038 59.1536 193.52 59.528 192.908 59.7949C192.296 60.0618 191.596 60.1953 190.809 60.1953C190.027 60.1953 189.327 60.0618 188.709 59.7949C188.09 59.528 187.57 59.1536 187.146 58.6719C186.723 58.1836 186.401 57.6139 186.18 56.9629C185.958 56.3053 185.848 55.5924 185.848 54.8242ZM188.426 54.6191V54.8242C188.426 55.2865 188.471 55.7194 188.562 56.123C188.654 56.5267 188.794 56.8815 188.982 57.1875C189.171 57.4935 189.415 57.7344 189.715 57.9102C190.021 58.0794 190.385 58.1641 190.809 58.1641C191.225 58.1641 191.583 58.0794 191.883 57.9102C192.182 57.7344 192.426 57.4935 192.615 57.1875C192.811 56.8815 192.954 56.5267 193.045 56.123C193.136 55.7194 193.182 55.2865 193.182 54.8242V54.6191C193.182 54.1634 193.136 53.737 193.045 53.3398C192.954 52.9362 192.811 52.5814 192.615 52.2754C192.426 51.9629 192.179 51.7188 191.873 51.543C191.574 51.3607 191.212 51.2695 190.789 51.2695C190.372 51.2695 190.014 51.3607 189.715 51.543C189.415 51.7188 189.171 51.9629 188.982 52.2754C188.794 52.5814 188.654 52.9362 188.562 53.3398C188.471 53.737 188.426 54.1634 188.426 54.6191ZM200.213 51.5918V60H197.635V49.4336H200.076L200.213 51.5918ZM203.426 49.3652L203.387 51.7676C203.243 51.7415 203.081 51.722 202.898 51.709C202.723 51.696 202.557 51.6895 202.4 51.6895C202.003 51.6895 201.655 51.7448 201.355 51.8555C201.056 51.9596 200.805 52.1126 200.604 52.3145C200.408 52.5163 200.258 52.7637 200.154 53.0566C200.05 53.3431 199.992 53.6686 199.979 54.0332L199.422 53.9648C199.422 53.2943 199.49 52.6725 199.627 52.0996C199.764 51.5267 199.962 51.0254 200.223 50.5957C200.483 50.166 200.809 49.834 201.199 49.5996C201.596 49.3587 202.052 49.2383 202.566 49.2383C202.71 49.2383 202.863 49.2513 203.025 49.2773C203.195 49.2969 203.328 49.3262 203.426 49.3652ZM207.41 51.6016V60H204.832V49.4336H207.264L207.41 51.6016ZM207.029 54.3359H206.238C206.238 53.6003 206.326 52.9232 206.502 52.3047C206.684 51.6862 206.951 51.1491 207.303 50.6934C207.654 50.2311 208.087 49.873 208.602 49.6191C209.122 49.3652 209.725 49.2383 210.408 49.2383C210.883 49.2383 211.32 49.3099 211.717 49.4531C212.114 49.5898 212.456 49.8079 212.742 50.1074C213.035 50.4004 213.26 50.7845 213.416 51.2598C213.572 51.7285 213.65 52.2917 213.65 52.9492V60H211.072V53.2129C211.072 52.7181 211.001 52.3307 210.857 52.0508C210.721 51.7708 210.522 51.5755 210.262 51.4648C210.001 51.3477 209.689 51.2891 209.324 51.2891C208.921 51.2891 208.572 51.3704 208.279 51.5332C207.993 51.6895 207.755 51.9076 207.566 52.1875C207.384 52.4674 207.247 52.7897 207.156 53.1543C207.072 53.5189 207.029 53.9128 207.029 54.3359ZM213.455 53.8574L212.391 54.0527C212.397 53.3887 212.488 52.7669 212.664 52.1875C212.84 51.6016 213.097 51.0905 213.436 50.6543C213.781 50.2116 214.207 49.8665 214.715 49.6191C215.229 49.3652 215.822 49.2383 216.492 49.2383C217.013 49.2383 217.482 49.3132 217.898 49.4629C218.322 49.6061 218.683 49.8372 218.982 50.1562C219.282 50.4688 219.51 50.8757 219.666 51.377C219.829 51.8783 219.91 52.4902 219.91 53.2129V60H217.312V53.2031C217.312 52.6888 217.241 52.2949 217.098 52.0215C216.961 51.748 216.762 51.5592 216.502 51.4551C216.242 51.3444 215.936 51.2891 215.584 51.2891C215.226 51.2891 214.913 51.3574 214.646 51.4941C214.386 51.6243 214.165 51.8066 213.982 52.041C213.807 52.2754 213.673 52.5488 213.582 52.8613C213.497 53.1673 213.455 53.4993 213.455 53.8574ZM228.045 57.7539V52.8809C228.045 52.5228 227.983 52.2135 227.859 51.9531C227.736 51.6927 227.547 51.4909 227.293 51.3477C227.039 51.2044 226.717 51.1328 226.326 51.1328C225.981 51.1328 225.678 51.1914 225.418 51.3086C225.164 51.4258 224.969 51.5918 224.832 51.8066C224.695 52.015 224.627 52.2559 224.627 52.5293H222.039C222.039 52.0931 222.143 51.6797 222.352 51.2891C222.56 50.8919 222.856 50.5404 223.24 50.2344C223.631 49.9219 224.096 49.6777 224.637 49.502C225.184 49.3262 225.796 49.2383 226.473 49.2383C227.273 49.2383 227.986 49.375 228.611 49.6484C229.243 49.9154 229.738 50.319 230.096 50.8594C230.46 51.3997 230.643 52.0801 230.643 52.9004V57.5098C230.643 58.0371 230.675 58.4896 230.74 58.8672C230.812 59.2383 230.916 59.5605 231.053 59.834V60H228.426C228.302 59.7331 228.208 59.3945 228.143 58.9844C228.077 58.5677 228.045 58.1576 228.045 57.7539ZM228.406 53.5645L228.426 55.0977H226.795C226.391 55.0977 226.036 55.14 225.73 55.2246C225.424 55.3027 225.174 55.4199 224.979 55.5762C224.783 55.7259 224.637 55.9082 224.539 56.123C224.441 56.3314 224.393 56.569 224.393 56.8359C224.393 57.0964 224.451 57.3307 224.568 57.5391C224.692 57.7474 224.868 57.9134 225.096 58.0371C225.33 58.1543 225.604 58.2129 225.916 58.2129C226.372 58.2129 226.769 58.1217 227.107 57.9395C227.446 57.7507 227.71 57.5228 227.898 57.2559C228.087 56.9889 228.188 56.735 228.201 56.4941L228.943 57.6074C228.852 57.8743 228.715 58.1576 228.533 58.457C228.351 58.7565 228.117 59.0365 227.83 59.2969C227.544 59.5573 227.199 59.7721 226.795 59.9414C226.391 60.1107 225.923 60.1953 225.389 60.1953C224.705 60.1953 224.093 60.0586 223.553 59.7852C223.012 59.5117 222.586 59.1374 222.273 58.6621C221.961 58.1868 221.805 57.6465 221.805 57.041C221.805 56.4811 221.909 55.9863 222.117 55.5566C222.326 55.127 222.635 54.7656 223.045 54.4727C223.455 54.1732 223.963 53.9486 224.568 53.7988C225.18 53.6426 225.88 53.5645 226.668 53.5645H228.406ZM237.967 49.4336V51.2891H231.912V49.4336H237.967ZM233.533 46.8359H236.121V56.9531C236.121 57.2656 236.163 57.5065 236.248 57.6758C236.333 57.8451 236.46 57.959 236.629 58.0176C236.798 58.0762 237 58.1055 237.234 58.1055C237.404 58.1055 237.56 58.0957 237.703 58.0762C237.846 58.0566 237.967 58.0371 238.064 58.0176L238.074 59.9512C237.859 60.0228 237.615 60.0814 237.342 60.127C237.075 60.1725 236.772 60.1953 236.434 60.1953C235.854 60.1953 235.346 60.0977 234.91 59.9023C234.474 59.7005 234.135 59.3783 233.895 58.9355C233.654 58.4863 233.533 57.8939 233.533 57.1582V46.8359ZM242.42 49.4336V60H239.832V49.4336H242.42ZM239.656 46.6699C239.656 46.2858 239.786 45.9668 240.047 45.7129C240.314 45.459 240.672 45.332 241.121 45.332C241.57 45.332 241.925 45.459 242.186 45.7129C242.452 45.9668 242.586 46.2858 242.586 46.6699C242.586 47.0475 242.452 47.3633 242.186 47.6172C241.925 47.8711 241.57 47.998 241.121 47.998C240.672 47.998 240.314 47.8711 240.047 47.6172C239.786 47.3633 239.656 47.0475 239.656 46.6699ZM244.422 54.8242V54.6191C244.422 53.8444 244.533 53.1315 244.754 52.4805C244.975 51.8229 245.298 51.2533 245.721 50.7715C246.144 50.2897 246.661 49.9154 247.273 49.6484C247.885 49.375 248.582 49.2383 249.363 49.2383C250.158 49.2383 250.861 49.375 251.473 49.6484C252.091 49.9154 252.612 50.2897 253.035 50.7715C253.458 51.2533 253.781 51.8229 254.002 52.4805C254.223 53.1315 254.334 53.8444 254.334 54.6191V54.8242C254.334 55.5924 254.223 56.3053 254.002 56.9629C253.781 57.6139 253.458 58.1836 253.035 58.6719C252.612 59.1536 252.094 59.528 251.482 59.7949C250.87 60.0618 250.171 60.1953 249.383 60.1953C248.602 60.1953 247.902 60.0618 247.283 59.7949C246.665 59.528 246.144 59.1536 245.721 58.6719C245.298 58.1836 244.975 57.6139 244.754 56.9629C244.533 56.3053 244.422 55.5924 244.422 54.8242ZM247 54.6191V54.8242C247 55.2865 247.046 55.7194 247.137 56.123C247.228 56.5267 247.368 56.8815 247.557 57.1875C247.745 57.4935 247.99 57.7344 248.289 57.9102C248.595 58.0794 248.96 58.1641 249.383 58.1641C249.799 58.1641 250.158 58.0794 250.457 57.9102C250.757 57.7344 251.001 57.4935 251.189 57.1875C251.385 56.8815 251.528 56.5267 251.619 56.123C251.71 55.7194 251.756 55.2865 251.756 54.8242V54.6191C251.756 54.1634 251.71 53.737 251.619 53.3398C251.528 52.9362 251.385 52.5814 251.189 52.2754C251.001 51.9629 250.753 51.7188 250.447 51.543C250.148 51.3607 249.786 51.2695 249.363 51.2695C248.947 51.2695 248.589 51.3607 248.289 51.543C247.99 51.7188 247.745 51.9629 247.557 52.2754C247.368 52.5814 247.228 52.9362 247.137 53.3398C247.046 53.737 247 54.1634 247 54.6191ZM258.738 51.6895V60H256.16V49.4336H258.582L258.738 51.6895ZM258.328 54.3359H257.566C257.573 53.5677 257.677 52.8711 257.879 52.2461C258.081 51.6211 258.364 51.084 258.729 50.6348C259.1 50.1855 259.539 49.8405 260.047 49.5996C260.555 49.3587 261.121 49.2383 261.746 49.2383C262.254 49.2383 262.713 49.3099 263.123 49.4531C263.533 49.5964 263.885 49.8242 264.178 50.1367C264.477 50.4492 264.705 50.8594 264.861 51.3672C265.024 51.8685 265.105 52.487 265.105 53.2227V60H262.508V53.2031C262.508 52.7214 262.436 52.3405 262.293 52.0605C262.156 51.7806 261.954 51.582 261.688 51.4648C261.427 51.3477 261.105 51.2891 260.721 51.2891C260.324 51.2891 259.975 51.3704 259.676 51.5332C259.383 51.6895 259.135 51.9076 258.934 52.1875C258.738 52.4674 258.589 52.7897 258.484 53.1543C258.38 53.5189 258.328 53.9128 258.328 54.3359Z" fill="#2E86DE"/>
<rect x="54.9177" y="72.8005" width="13.6656" height="2.39147" rx="1.19574" fill="#0039A6"/>
<rect x="54.9177" y="75.8752" width="13.6656" height="2.04983" rx="1.02492" fill="#0039A6"/>
<rect x="54.9177" y="78.6084" width="13.6656" height="2.39147" rx="1.19574" fill="#0039A6"/>
<path fill-rule="evenodd" clip-rule="evenodd" d="M69.7039 66.8C72.6868 64.5138 74.6102 60.9145 74.6102 56.8659C74.6102 49.9575 69.0098 44.3572 62.1014 44.3572C55.1931 44.3572 49.5927 49.9575 49.5927 56.8659C49.5927 60.5157 51.1558 63.8004 53.6492 66.087V69.9944C53.6492 71.1318 54.5712 72.0539 55.7087 72.0539H67.6444C68.7819 72.0539 69.7039 71.1318 69.7039 69.9944V66.8Z" fill="#FECA57"/>
<rect x="54.9177" y="72.8005" width="13.6656" height="2.39147" rx="1.19574" fill="#2E86DE"/>
<rect x="54.9177" y="75.8752" width="13.6656" height="2.04983" rx="1.02492" fill="#2E86DE"/>
<rect x="54.9177" y="78.6084" width="13.6656" height="2.39147" rx="1.19574" fill="#2E86DE"/>
<path fill-rule="evenodd" clip-rule="evenodd" d="M69.7039 66.8C72.6868 64.5138 74.6102 60.9145 74.6102 56.8659C74.6102 49.9575 69.0098 44.3572 62.1014 44.3572C55.1931 44.3572 49.5927 49.9575 49.5927 56.8659C49.5927 60.5157 51.1558 63.8004 53.6492 66.087V69.9944C53.6492 71.1318 54.5712 72.0539 55.7087 72.0539H67.6444C68.7819 72.0539 69.7039 71.1318 69.7039 69.9944V66.8Z" fill="#FECA57"/>
<path d="M51.2404 41.8857L61.7916 44.6255L72.6593 41.8857V50.1238H51.2404V41.8857Z" fill="#343434"/>
<path fill-rule="evenodd" clip-rule="evenodd" d="M77.7218 38.5904H78.5888V48.3835C78.9715 48.5277 79.239 48.8569 79.239 49.2399C79.239 49.5454 79.0689 49.8166 78.8059 49.9871L79.518 52.645C79.5881 52.9066 79.391 53.1635 79.1202 53.1635H77.1904C76.9195 53.1635 76.7224 52.9066 76.7925 52.645L77.5046 49.9871C77.2416 49.8166 77.0715 49.5454 77.0715 49.2399C77.0715 48.8568 77.339 48.5276 77.7218 48.3835V38.5904Z" fill="#5E5E5E"/>
<path d="M62.0533 45.5374L84.845 39.5445C85.6657 39.3287 85.6634 38.1628 84.8418 37.9502L62.0501 32.0536C61.9142 32.0185 61.7716 32.0186 61.6358 32.054L39.0311 37.9506C38.2116 38.1644 38.2093 39.327 39.0279 39.544L61.6327 45.537C61.7705 45.5735 61.9154 45.5737 62.0533 45.5374Z" fill="#424242"/>
<path d="M57.0069 58.3618C58.4736 60.2268 62.8335 62.8378 68.5401 58.3618" stroke="#2E86DE" stroke-width="2.88331"/>
<rect x="92.0024" y="66.4868" width="580.655" height="8.0829" transform="rotate(0.109739 92.0024 66.4868)" fill="#2E86DE"/>
</svg>
