<svg width="717" height="112" viewBox="0 0 717 112" fill="none" xmlns="http://www.w3.org/2000/svg">
<path d="M0 0H716.8V112H0V0Z" fill="white"/>
<path d="M265.878 66.2402C265.385 66.6511 264.46 67.2059 263.104 67.9044C261.79 68.6029 260.166 69.2193 258.235 69.7535C256.304 70.2876 254.167 70.5342 251.825 70.4931C248.25 70.4109 245.045 69.774 242.21 68.5824C239.416 67.3497 237.033 65.6855 235.06 63.5899C233.129 61.4943 231.65 59.0906 230.623 56.3786C229.595 53.6666 229.082 50.7698 229.082 47.688C229.082 44.2364 229.595 41.0725 230.623 38.1962C231.691 35.3199 233.191 32.8339 235.122 30.7383C237.094 28.6427 239.436 27.0197 242.148 25.8691C244.86 24.7186 247.86 24.1433 251.147 24.1433C254.188 24.1433 256.879 24.5542 259.221 25.376C261.564 26.1978 263.474 27.0813 264.954 28.0264L261.44 36.4704C260.413 35.6897 259.037 34.8884 257.311 34.0666C255.626 33.2037 253.674 32.7723 251.455 32.7723C249.73 32.7723 248.065 33.1421 246.463 33.8817C244.901 34.5803 243.504 35.587 242.272 36.9018C241.08 38.2167 240.135 39.7576 239.436 41.5245C238.738 43.2503 238.389 45.1404 238.389 47.1949C238.389 49.3727 238.697 51.3656 239.313 53.1736C239.971 54.9815 240.895 56.543 242.087 57.8578C243.278 59.1316 244.696 60.1178 246.34 60.8163C248.024 61.5149 249.914 61.8641 252.01 61.8641C254.434 61.8641 256.509 61.4738 258.235 60.6931C259.961 59.9124 261.276 59.0906 262.18 58.2277L265.878 66.2402ZM280.132 70.7396C277.626 70.7396 275.345 70.2465 273.291 69.2604C271.277 68.2331 269.675 66.6717 268.483 64.5761C267.291 62.4805 266.696 59.8096 266.696 56.5635C266.696 53.5228 267.312 50.8931 268.545 48.6742C269.777 46.4553 271.4 44.7501 273.414 43.5585C275.427 42.3258 277.564 41.7094 279.824 41.7094C282.495 41.7094 284.508 42.1614 285.864 43.0654C287.261 43.9283 288.412 44.8939 289.316 45.9622L288.946 47.01L289.747 43.0654H297.76V70H289.131V64.1446L289.809 65.9937C289.727 65.9937 289.48 66.2402 289.069 66.7333C288.658 67.1853 288.042 67.74 287.22 68.3975C286.44 69.0138 285.453 69.548 284.262 70C283.111 70.4931 281.735 70.7396 280.132 70.7396ZM282.598 63.7132C283.625 63.7132 284.549 63.5694 285.371 63.2818C286.193 62.953 286.912 62.501 287.528 61.9258C288.145 61.3094 288.679 60.5493 289.131 59.6453V53.0503C288.802 52.1463 288.309 51.3861 287.652 50.7698C286.994 50.1123 286.214 49.6193 285.31 49.2905C284.406 48.9207 283.399 48.7358 282.289 48.7358C281.057 48.7358 279.906 49.0645 278.838 49.722C277.811 50.3383 276.989 51.2012 276.372 52.3107C275.756 53.4201 275.448 54.6939 275.448 56.1321C275.448 57.5702 275.777 58.8646 276.434 60.0151C277.091 61.1656 277.954 62.0696 279.023 62.727C280.132 63.3845 281.324 63.7132 282.598 63.7132ZM318.917 70.7396C317.314 70.7396 315.732 70.452 314.171 69.8767C312.65 69.2604 311.377 68.3975 310.349 67.288L310.596 64.761V82.9434H302.029V42.449H309.425L310.658 47.688L309.98 45.839C311.377 44.6473 312.938 43.6612 314.664 42.8805C316.39 42.0998 318.382 41.7094 320.642 41.7094C323.149 41.7094 325.388 42.3052 327.361 43.4968C329.333 44.6473 330.874 46.332 331.983 48.5509C333.134 50.7287 333.709 53.3585 333.709 56.4402C333.709 59.4809 333.072 62.0696 331.798 64.2063C330.525 66.343 328.778 67.966 326.559 69.0755C324.341 70.1849 321.793 70.7396 318.917 70.7396ZM317.191 63.9597C318.588 63.9597 319.862 63.6516 321.012 63.0352C322.204 62.4189 323.149 61.556 323.847 60.4465C324.587 59.296 324.957 58.0017 324.957 56.5635C324.957 55.0432 324.628 53.7283 323.971 52.6188C323.354 51.4683 322.491 50.5849 321.382 49.9685C320.314 49.3111 319.122 48.9824 317.807 48.9824C316.657 48.9824 315.629 49.1467 314.725 49.4754C313.863 49.7631 313.082 50.2151 312.383 50.8314C311.726 51.4067 311.151 52.1463 310.658 53.0503V59.6453C310.986 60.5082 311.459 61.2683 312.075 61.9258C312.691 62.5832 313.431 63.0968 314.294 63.4667C315.198 63.7954 316.164 63.9597 317.191 63.9597ZM369.237 31.2314H377.866V42.9421H384.399V49.6604H377.866V70H369.237V49.6604H365.045V42.9421H369.237V31.2314ZM397.685 70.7396C395.178 70.7396 392.898 70.2465 390.843 69.2604C388.83 68.2331 387.227 66.6717 386.036 64.5761C384.844 62.4805 384.248 59.8096 384.248 56.5635C384.248 53.5228 384.864 50.8931 386.097 48.6742C387.33 46.4553 388.953 44.7501 390.966 43.5585C392.98 42.3258 395.116 41.7094 397.376 41.7094C400.047 41.7094 402.061 42.1614 403.417 43.0654C404.814 43.9283 405.964 44.8939 406.868 45.9622L406.498 47.01L407.3 43.0654H415.312V70H406.683V64.1446L407.361 65.9937C407.279 65.9937 407.033 66.2402 406.622 66.7333C406.211 67.1853 405.594 67.74 404.773 68.3975C403.992 69.0138 403.006 69.548 401.814 70C400.664 70.4931 399.287 70.7396 397.685 70.7396ZM400.15 63.7132C401.177 63.7132 402.102 63.5694 402.924 63.2818C403.745 62.953 404.465 62.501 405.081 61.9258C405.697 61.3094 406.231 60.5493 406.683 59.6453V53.0503C406.355 52.1463 405.862 51.3861 405.204 50.7698C404.547 50.1123 403.766 49.6193 402.862 49.2905C401.958 48.9207 400.951 48.7358 399.842 48.7358C398.609 48.7358 397.459 49.0645 396.39 49.722C395.363 50.3383 394.541 51.2012 393.925 52.3107C393.309 53.4201 393 54.6939 393 56.1321C393 57.5702 393.329 58.8646 393.987 60.0151C394.644 61.1656 395.507 62.0696 396.575 62.727C397.685 63.3845 398.876 63.7132 400.15 63.7132ZM419.581 21.3698H428.21V70H419.581V21.3698ZM432.474 43.0654H441.103V70H432.474V43.0654ZM432.289 33.5119C432.289 32.2381 432.782 31.1903 433.768 30.3685C434.795 29.5467 435.884 29.1358 437.035 29.1358C438.185 29.1358 439.233 29.5467 440.178 30.3685C441.164 31.1903 441.658 32.2381 441.658 33.5119C441.658 34.7857 441.164 35.8335 440.178 36.6553C439.233 37.436 438.185 37.8264 437.035 37.8264C435.884 37.8264 434.795 37.436 433.768 36.6553C432.782 35.8335 432.289 34.7857 432.289 33.5119ZM454.119 70.5547C451.9 70.5547 449.825 70.1644 447.894 69.3836C446.004 68.6029 444.401 67.514 443.086 66.117L446.661 61.3711C447.976 62.5627 449.188 63.4256 450.298 63.9597C451.448 64.4528 452.475 64.6994 453.379 64.6994C454.078 64.6994 454.694 64.6377 455.228 64.5145C455.804 64.3501 456.256 64.1241 456.584 63.8365C456.913 63.5077 457.077 63.0968 457.077 62.6038C457.077 61.9052 456.79 61.3505 456.215 60.9396C455.68 60.5287 454.982 60.2 454.119 59.9534C453.256 59.6658 452.332 59.3782 451.345 59.0906C448.88 58.3098 447.093 57.1799 445.983 55.7006C444.915 54.1803 444.381 52.5367 444.381 50.7698C444.381 49.4138 444.73 48.0578 445.428 46.7019C446.168 45.3048 447.319 44.1543 448.88 43.2503C450.482 42.3052 452.537 41.8327 455.043 41.8327C457.303 41.8327 459.214 42.0587 460.776 42.5107C462.337 42.9627 463.816 43.7023 465.213 44.7295L461.947 49.7836C461.166 49.1673 460.282 48.6536 459.296 48.2427C458.351 47.7907 457.468 47.5442 456.646 47.5031C455.906 47.462 455.269 47.5442 454.735 47.7497C454.242 47.9551 453.852 48.2222 453.564 48.5509C453.277 48.8796 453.133 49.2289 453.133 49.5987C453.092 50.3794 453.379 50.9958 453.996 51.4478C454.653 51.8998 455.475 52.249 456.461 52.4956C457.447 52.7421 458.413 53.0297 459.358 53.3585C460.673 53.7694 461.803 54.3241 462.748 55.0226C463.693 55.7212 464.412 56.5635 464.905 57.5497C465.439 58.4947 465.706 59.6453 465.706 61.0012C465.706 62.6449 465.275 64.2063 464.412 65.6855C463.59 67.1237 462.316 68.2948 460.591 69.1987C458.906 70.1027 456.749 70.5547 454.119 70.5547ZM481.563 70.7396C478.276 70.7396 475.482 70.1233 473.181 68.8906C470.921 67.6579 469.195 65.9526 468.003 63.7748C466.812 61.5971 466.216 59.0906 466.216 56.2553C466.216 53.5434 466.914 51.0985 468.311 48.9207C469.709 46.7429 471.578 45.0172 473.92 43.7434C476.262 42.4285 478.872 41.771 481.748 41.771C485.61 41.771 488.774 42.901 491.24 45.161C493.746 47.3798 495.369 50.6054 496.109 54.8377L475.153 61.4943L473.242 56.81L488.405 51.6943L486.617 52.4956C486.288 51.4272 485.693 50.5027 484.83 49.722C484.008 48.9002 482.755 48.4893 481.07 48.4893C479.796 48.4893 478.666 48.7975 477.68 49.4138C476.735 49.9891 475.995 50.8314 475.461 51.9409C474.968 53.0092 474.722 54.283 474.722 55.7622C474.722 57.4469 475.03 58.8646 475.646 60.0151C476.262 61.1245 477.105 61.9669 478.173 62.5421C479.241 63.1174 480.433 63.405 481.748 63.405C482.693 63.405 483.597 63.2407 484.46 62.9119C485.364 62.5832 486.247 62.1518 487.11 61.6176L490.932 68.0277C489.493 68.8495 487.932 69.5069 486.247 70C484.604 70.4931 483.042 70.7396 481.563 70.7396ZM494.244 65.5623C494.244 64.2885 494.696 63.2201 495.6 62.3572C496.545 61.4943 497.572 61.0629 498.681 61.0629C499.709 61.0629 500.674 61.4943 501.578 62.3572C502.523 63.2201 502.996 64.2885 502.996 65.5623C502.996 66.9182 502.523 68.0071 501.578 68.8289C500.674 69.6096 499.709 70 498.681 70C497.572 70 496.545 69.6096 495.6 68.8289C494.696 68.0071 494.244 66.9182 494.244 65.5623Z" fill="#2E86DE"/>
<rect x="341.95" y="63.4082" width="12.0998" height="2.11746" rx="1.05873" fill="#2E86DE"/>
<rect x="341.95" y="66.1306" width="12.0998" height="1.81497" rx="0.907483" fill="#2E86DE"/>
<rect x="341.95" y="68.5505" width="12.0998" height="2.11746" rx="1.05873" fill="#2E86DE"/>
<path fill-rule="evenodd" clip-rule="evenodd" d="M355.042 58.095C357.683 56.0707 359.386 52.8838 359.386 49.2991C359.386 43.1823 354.428 38.2236 348.311 38.2236C342.194 38.2236 337.235 43.1823 337.235 49.2991C337.235 52.5308 338.619 55.4391 340.827 57.4638V60.9235C340.827 61.9307 341.643 62.7471 342.651 62.7471H353.219C354.226 62.7471 355.042 61.9307 355.042 60.9235V58.095Z" fill="#FECA57"/>
<path d="M338.694 36.0352L348.036 38.461L357.659 36.0352V43.3293H338.694V36.0352Z" fill="#343434"/>
<path fill-rule="evenodd" clip-rule="evenodd" d="M362.141 33.1177H362.909V41.7888C363.248 41.9165 363.485 42.2079 363.485 42.5471C363.485 42.8175 363.334 43.0576 363.101 43.2085L363.732 45.5618C363.794 45.7935 363.619 46.0209 363.379 46.0209H361.671C361.431 46.0209 361.256 45.7935 361.319 45.5618L361.949 43.2086C361.716 43.0577 361.565 42.8176 361.565 42.5471C361.565 42.2079 361.802 41.9164 362.141 41.7887V33.1177Z" fill="#5E5E5E"/>
<path d="M348.268 39.2688L368.448 33.9625C369.175 33.7714 369.173 32.7391 368.446 32.5509L348.265 27.3299C348.145 27.2988 348.019 27.2989 347.899 27.3303L327.884 32.5513C327.158 32.7405 327.156 33.77 327.881 33.9621L347.896 39.2684C348.018 39.3008 348.146 39.3009 348.268 39.2688Z" fill="#424242"/>
<path d="M343.8 50.6235C345.099 52.2748 348.959 54.5866 354.012 50.6235" stroke="#2E86DE" stroke-width="2.55294"/>
<path d="M283.454 88.3359V99H282.553V88.3359H283.454ZM287.021 92.7671V99H286.149V91.0752H286.984L287.021 92.7671ZM286.823 94.5469L286.435 94.3271C286.464 93.8584 286.559 93.4189 286.72 93.0088C286.881 92.5986 287.099 92.2373 287.372 91.9248C287.65 91.6123 287.975 91.3682 288.346 91.1924C288.722 91.0166 289.137 90.9287 289.591 90.9287C289.987 90.9287 290.341 90.9824 290.653 91.0898C290.966 91.1973 291.232 91.3682 291.452 91.6025C291.671 91.8369 291.837 92.1372 291.95 92.5034C292.067 92.8696 292.125 93.3164 292.125 93.8438V99H291.247V93.8364C291.247 93.2896 291.171 92.8623 291.02 92.5547C290.868 92.2422 290.653 92.02 290.375 91.8882C290.097 91.7563 289.767 91.6904 289.386 91.6904C288.966 91.6904 288.598 91.7832 288.28 91.9688C287.968 92.1494 287.704 92.3862 287.489 92.6792C287.279 92.9673 287.118 93.2773 287.006 93.6094C286.894 93.9365 286.833 94.249 286.823 94.5469ZM299.545 97.4619V87.75H300.424V99H299.604L299.545 97.4619ZM294.044 95.1182V94.9644C294.044 94.3491 294.115 93.7949 294.257 93.3018C294.398 92.8037 294.601 92.3789 294.865 92.0273C295.133 91.6709 295.456 91.3999 295.832 91.2144C296.208 91.0239 296.632 90.9287 297.106 90.9287C297.57 90.9287 297.98 91.0044 298.336 91.1558C298.693 91.3071 298.998 91.5244 299.252 91.8076C299.511 92.0908 299.718 92.4277 299.875 92.8184C300.036 93.209 300.153 93.6436 300.226 94.1221V96.0776C300.167 96.5269 300.06 96.9395 299.904 97.3154C299.748 97.6865 299.54 98.0112 299.281 98.2896C299.022 98.563 298.71 98.7754 298.344 98.9268C297.982 99.0732 297.565 99.1465 297.091 99.1465C296.623 99.1465 296.2 99.0488 295.824 98.8535C295.448 98.6582 295.128 98.3823 294.865 98.0259C294.601 97.6646 294.398 97.2373 294.257 96.7441C294.115 96.251 294.044 95.709 294.044 95.1182ZM294.923 94.9644V95.1182C294.923 95.582 294.97 96.0117 295.062 96.4072C295.155 96.8027 295.297 97.147 295.487 97.4399C295.678 97.7329 295.919 97.9624 296.212 98.1284C296.505 98.2944 296.852 98.3774 297.252 98.3774C297.755 98.3774 298.178 98.2822 298.52 98.0918C298.861 97.8965 299.135 97.6401 299.34 97.3228C299.545 97.0005 299.694 96.6489 299.787 96.2681V93.9902C299.728 93.7314 299.643 93.4678 299.53 93.1992C299.418 92.9307 299.264 92.6841 299.069 92.4595C298.878 92.23 298.634 92.0469 298.336 91.9102C298.043 91.7686 297.687 91.6978 297.267 91.6978C296.862 91.6978 296.513 91.7808 296.22 91.9468C295.927 92.1128 295.683 92.3447 295.487 92.6426C295.297 92.9355 295.155 93.2798 295.062 93.6753C294.97 94.0708 294.923 94.5005 294.923 94.9644ZM307.807 97.1689V91.0752H308.686V99H307.843L307.807 97.1689ZM307.968 95.7041L308.422 95.6895C308.422 96.1875 308.363 96.6465 308.246 97.0664C308.129 97.4863 307.946 97.8525 307.697 98.165C307.448 98.4775 307.125 98.7192 306.73 98.8901C306.334 99.061 305.858 99.1465 305.302 99.1465C304.916 99.1465 304.562 99.0928 304.24 98.9854C303.922 98.873 303.649 98.6973 303.419 98.458C303.19 98.2188 303.012 97.9087 302.885 97.5278C302.763 97.147 302.702 96.6855 302.702 96.1436V91.0752H303.573V96.1582C303.573 96.583 303.62 96.937 303.712 97.2202C303.81 97.5034 303.942 97.7305 304.108 97.9014C304.279 98.0723 304.474 98.1943 304.694 98.2676C304.914 98.3408 305.15 98.3774 305.404 98.3774C306.049 98.3774 306.557 98.2529 306.928 98.0039C307.304 97.7549 307.57 97.4277 307.726 97.0225C307.887 96.6123 307.968 96.1729 307.968 95.7041ZM315.724 96.9785C315.724 96.7637 315.67 96.5513 315.563 96.3413C315.456 96.1313 315.248 95.9385 314.94 95.7627C314.638 95.5869 314.191 95.438 313.6 95.3159C313.161 95.2183 312.768 95.1084 312.421 94.9863C312.079 94.8643 311.791 94.7178 311.557 94.5469C311.322 94.376 311.144 94.1709 311.022 93.9316C310.9 93.6924 310.839 93.4092 310.839 93.082C310.839 92.7891 310.902 92.5132 311.029 92.2544C311.161 91.9907 311.347 91.7612 311.586 91.5659C311.83 91.3657 312.123 91.2095 312.465 91.0972C312.812 90.9849 313.2 90.9287 313.629 90.9287C314.24 90.9287 314.762 91.0337 315.197 91.2437C315.636 91.4487 315.971 91.7295 316.2 92.0859C316.435 92.4424 316.552 92.8452 316.552 93.2944H315.68C315.68 93.021 315.6 92.7622 315.438 92.5181C315.282 92.2739 315.05 92.0737 314.743 91.9175C314.44 91.7612 314.069 91.6831 313.629 91.6831C313.175 91.6831 312.807 91.7515 312.523 91.8882C312.24 92.0249 312.033 92.1982 311.901 92.4082C311.774 92.6182 311.71 92.8354 311.71 93.0601C311.71 93.2358 311.737 93.397 311.791 93.5435C311.85 93.6851 311.952 93.8169 312.099 93.939C312.25 94.061 312.465 94.1758 312.743 94.2832C313.021 94.3906 313.383 94.4956 313.827 94.5981C314.467 94.7397 314.989 94.9131 315.395 95.1182C315.805 95.3184 316.107 95.5674 316.303 95.8652C316.498 96.1582 316.596 96.5146 316.596 96.9346C316.596 97.2617 316.527 97.562 316.391 97.8354C316.254 98.104 316.056 98.3359 315.797 98.5312C315.543 98.7266 315.236 98.8779 314.875 98.9854C314.518 99.0928 314.118 99.1465 313.673 99.1465C313.004 99.1465 312.438 99.0366 311.974 98.8169C311.515 98.5923 311.166 98.2993 310.927 97.938C310.692 97.5718 310.575 97.1836 310.575 96.7734H311.447C311.476 97.1836 311.605 97.5083 311.835 97.7476C312.064 97.9819 312.345 98.1479 312.677 98.2456C313.014 98.3433 313.346 98.3921 313.673 98.3921C314.123 98.3921 314.499 98.3262 314.801 98.1943C315.104 98.0625 315.333 97.8892 315.49 97.6743C315.646 97.4595 315.724 97.2275 315.724 96.9785ZM321.576 91.0752V91.793H317.606V91.0752H321.576ZM319.064 89.0391H319.936V97.0737C319.936 97.4399 319.984 97.7158 320.082 97.9014C320.18 98.0869 320.307 98.2114 320.463 98.2749C320.619 98.3384 320.788 98.3701 320.968 98.3701C321.1 98.3701 321.227 98.3628 321.349 98.3481C321.471 98.3286 321.581 98.3091 321.679 98.2896L321.715 99.0293C321.608 99.0635 321.469 99.0903 321.298 99.1099C321.127 99.1343 320.956 99.1465 320.785 99.1465C320.448 99.1465 320.15 99.0854 319.892 98.9634C319.633 98.8364 319.43 98.6216 319.284 98.3188C319.137 98.0112 319.064 97.5938 319.064 97.0664V89.0391ZM324.286 92.3862V99H323.415V91.0752H324.264L324.286 92.3862ZM327.091 91.0166L327.069 91.8223C326.972 91.8076 326.876 91.7954 326.784 91.7856C326.691 91.7759 326.591 91.771 326.483 91.771C326.103 91.771 325.768 91.8418 325.48 91.9834C325.197 92.1201 324.958 92.313 324.762 92.562C324.567 92.8062 324.418 93.0942 324.315 93.4263C324.213 93.7534 324.154 94.105 324.14 94.481L323.817 94.6055C323.817 94.0879 323.871 93.6069 323.979 93.1626C324.086 92.7183 324.25 92.3301 324.469 91.998C324.694 91.6611 324.975 91.3999 325.312 91.2144C325.653 91.0239 326.054 90.9287 326.513 90.9287C326.625 90.9287 326.735 90.9385 326.842 90.958C326.955 90.9727 327.038 90.9922 327.091 91.0166ZM330.951 98.209L333.419 91.0752H334.364L331.01 100.274C330.941 100.455 330.854 100.655 330.746 100.875C330.644 101.095 330.507 101.305 330.336 101.505C330.17 101.71 329.96 101.876 329.706 102.003C329.457 102.135 329.152 102.201 328.791 102.201C328.698 102.201 328.578 102.188 328.432 102.164C328.29 102.145 328.188 102.125 328.124 102.105L328.117 101.366C328.17 101.38 328.249 101.393 328.351 101.402C328.454 101.412 328.524 101.417 328.563 101.417C328.881 101.417 329.147 101.363 329.362 101.256C329.582 101.148 329.765 100.987 329.911 100.772C330.058 100.562 330.187 100.299 330.299 99.9814L330.951 98.209ZM328.644 91.0752L331.171 97.8794L331.405 98.7949L330.768 99.1538L327.692 91.0752H328.644ZM340.224 92.7158V99H339.345V91.0752H340.187L340.224 92.7158ZM340.062 94.5469L339.638 94.3271C339.667 93.8584 339.755 93.4189 339.901 93.0088C340.053 92.5986 340.263 92.2373 340.531 91.9248C340.8 91.6123 341.122 91.3682 341.498 91.1924C341.874 91.0166 342.301 90.9287 342.78 90.9287C343.166 90.9287 343.515 90.9824 343.827 91.0898C344.145 91.1924 344.413 91.356 344.633 91.5806C344.857 91.8003 345.031 92.0884 345.153 92.4448C345.275 92.8013 345.336 93.2285 345.336 93.7266V99H344.464V93.7559C344.464 93.2285 344.381 92.8159 344.215 92.5181C344.054 92.2202 343.827 92.0078 343.534 91.8809C343.246 91.7539 342.912 91.6904 342.531 91.6904C342.082 91.6904 341.701 91.7832 341.388 91.9688C341.081 92.1494 340.829 92.3862 340.634 92.6792C340.443 92.9673 340.302 93.2773 340.209 93.6094C340.116 93.9365 340.067 94.249 340.062 94.5469ZM345.329 93.8584L344.743 93.873C344.767 93.4873 344.855 93.1187 345.006 92.7671C345.163 92.4155 345.375 92.103 345.644 91.8296C345.912 91.5513 346.232 91.3315 346.603 91.1704C346.979 91.0093 347.401 90.9287 347.87 90.9287C348.28 90.9287 348.646 90.9849 348.969 91.0972C349.291 91.2046 349.562 91.3779 349.782 91.6172C350.006 91.8516 350.177 92.1519 350.294 92.5181C350.412 92.8843 350.47 93.3237 350.47 93.8364V99H349.591V93.8291C349.591 93.2676 349.508 92.833 349.342 92.5254C349.181 92.2129 348.957 91.9956 348.668 91.8735C348.38 91.7515 348.043 91.6904 347.658 91.6904C347.277 91.6953 346.942 91.7661 346.654 91.9028C346.366 92.0347 346.125 92.2104 345.929 92.4302C345.739 92.645 345.592 92.877 345.49 93.126C345.392 93.375 345.338 93.6191 345.329 93.8584ZM355.758 99.1465C355.241 99.1465 354.765 99.0513 354.33 98.8608C353.9 98.6704 353.524 98.4019 353.202 98.0552C352.885 97.7085 352.638 97.2983 352.462 96.8247C352.292 96.3462 352.206 95.8237 352.206 95.2573V94.9424C352.206 94.332 352.296 93.7803 352.477 93.2871C352.658 92.7939 352.907 92.3716 353.224 92.02C353.542 91.6685 353.903 91.3999 354.308 91.2144C354.718 91.0239 355.148 90.9287 355.597 90.9287C356.1 90.9287 356.547 91.019 356.938 91.1997C357.328 91.3755 357.655 91.627 357.919 91.9541C358.188 92.2764 358.39 92.6597 358.527 93.104C358.664 93.5435 358.732 94.0293 358.732 94.5615V95.0962H352.733V94.3491H357.86V94.2466C357.851 93.8022 357.76 93.3872 357.589 93.0015C357.423 92.6108 357.174 92.2935 356.842 92.0493C356.51 91.8052 356.095 91.6831 355.597 91.6831C355.226 91.6831 354.884 91.7612 354.572 91.9175C354.264 92.0737 353.998 92.2983 353.773 92.5913C353.554 92.8794 353.383 93.2236 353.261 93.624C353.144 94.0195 353.085 94.459 353.085 94.9424V95.2573C353.085 95.6968 353.148 96.1069 353.275 96.4878C353.407 96.8638 353.593 97.1958 353.832 97.4839C354.076 97.772 354.364 97.9966 354.696 98.1577C355.028 98.3188 355.395 98.3994 355.795 98.3994C356.264 98.3994 356.679 98.314 357.04 98.1431C357.401 97.9673 357.726 97.6914 358.014 97.3154L358.563 97.7402C358.393 97.9941 358.178 98.2285 357.919 98.4434C357.665 98.6582 357.36 98.8291 357.003 98.9561C356.647 99.083 356.232 99.1465 355.758 99.1465ZM363.522 99.1465C363.004 99.1465 362.528 99.0513 362.094 98.8608C361.664 98.6704 361.288 98.4019 360.966 98.0552C360.648 97.7085 360.402 97.2983 360.226 96.8247C360.055 96.3462 359.97 95.8237 359.97 95.2573V94.9424C359.97 94.332 360.06 93.7803 360.241 93.2871C360.421 92.7939 360.67 92.3716 360.988 92.02C361.305 91.6685 361.667 91.3999 362.072 91.2144C362.482 91.0239 362.912 90.9287 363.361 90.9287C363.864 90.9287 364.311 91.019 364.701 91.1997C365.092 91.3755 365.419 91.627 365.683 91.9541C365.951 92.2764 366.154 92.6597 366.291 93.104C366.427 93.5435 366.496 94.0293 366.496 94.5615V95.0962H360.497V94.3491H365.624V94.2466C365.614 93.8022 365.524 93.3872 365.353 93.0015C365.187 92.6108 364.938 92.2935 364.606 92.0493C364.274 91.8052 363.859 91.6831 363.361 91.6831C362.99 91.6831 362.648 91.7612 362.335 91.9175C362.028 92.0737 361.762 92.2983 361.537 92.5913C361.317 92.8794 361.146 93.2236 361.024 93.624C360.907 94.0195 360.849 94.459 360.849 94.9424V95.2573C360.849 95.6968 360.912 96.1069 361.039 96.4878C361.171 96.8638 361.356 97.1958 361.596 97.4839C361.84 97.772 362.128 97.9966 362.46 98.1577C362.792 98.3188 363.158 98.3994 363.559 98.3994C364.027 98.3994 364.442 98.314 364.804 98.1431C365.165 97.9673 365.49 97.6914 365.778 97.3154L366.327 97.7402C366.156 97.9941 365.941 98.2285 365.683 98.4434C365.429 98.6582 365.124 98.8291 364.767 98.9561C364.411 99.083 363.996 99.1465 363.522 99.1465ZM371.22 91.0752V91.793H367.25V91.0752H371.22ZM368.708 89.0391H369.579V97.0737C369.579 97.4399 369.628 97.7158 369.726 97.9014C369.823 98.0869 369.95 98.2114 370.106 98.2749C370.263 98.3384 370.431 98.3701 370.612 98.3701C370.744 98.3701 370.871 98.3628 370.993 98.3481C371.115 98.3286 371.225 98.3091 371.322 98.2896L371.359 99.0293C371.251 99.0635 371.112 99.0903 370.941 99.1099C370.771 99.1343 370.6 99.1465 370.429 99.1465C370.092 99.1465 369.794 99.0854 369.535 98.9634C369.276 98.8364 369.074 98.6216 368.927 98.3188C368.781 98.0112 368.708 97.5938 368.708 97.0664V89.0391ZM377.804 96.9785C377.804 96.7637 377.75 96.5513 377.643 96.3413C377.536 96.1313 377.328 95.9385 377.021 95.7627C376.718 95.5869 376.271 95.438 375.68 95.3159C375.241 95.2183 374.848 95.1084 374.501 94.9863C374.159 94.8643 373.871 94.7178 373.637 94.5469C373.402 94.376 373.224 94.1709 373.102 93.9316C372.98 93.6924 372.919 93.4092 372.919 93.082C372.919 92.7891 372.982 92.5132 373.109 92.2544C373.241 91.9907 373.427 91.7612 373.666 91.5659C373.91 91.3657 374.203 91.2095 374.545 91.0972C374.892 90.9849 375.28 90.9287 375.709 90.9287C376.32 90.9287 376.842 91.0337 377.277 91.2437C377.716 91.4487 378.051 91.7295 378.28 92.0859C378.515 92.4424 378.632 92.8452 378.632 93.2944H377.76C377.76 93.021 377.68 92.7622 377.519 92.5181C377.362 92.2739 377.13 92.0737 376.823 91.9175C376.52 91.7612 376.149 91.6831 375.709 91.6831C375.255 91.6831 374.887 91.7515 374.604 91.8882C374.32 92.0249 374.113 92.1982 373.981 92.4082C373.854 92.6182 373.791 92.8354 373.791 93.0601C373.791 93.2358 373.817 93.397 373.871 93.5435C373.93 93.6851 374.032 93.8169 374.179 93.939C374.33 94.061 374.545 94.1758 374.823 94.2832C375.102 94.3906 375.463 94.4956 375.907 94.5981C376.547 94.7397 377.069 94.9131 377.475 95.1182C377.885 95.3184 378.188 95.5674 378.383 95.8652C378.578 96.1582 378.676 96.5146 378.676 96.9346C378.676 97.2617 378.607 97.562 378.471 97.8354C378.334 98.104 378.136 98.3359 377.877 98.5312C377.624 98.7266 377.316 98.8779 376.955 98.9854C376.598 99.0928 376.198 99.1465 375.753 99.1465C375.084 99.1465 374.518 99.0366 374.054 98.8169C373.595 98.5923 373.246 98.2993 373.007 97.938C372.772 97.5718 372.655 97.1836 372.655 96.7734H373.527C373.556 97.1836 373.686 97.5083 373.915 97.7476C374.145 97.9819 374.425 98.1479 374.757 98.2456C375.094 98.3433 375.426 98.3921 375.753 98.3921C376.203 98.3921 376.579 98.3262 376.881 98.1943C377.184 98.0625 377.414 97.8892 377.57 97.6743C377.726 97.4595 377.804 97.2275 377.804 96.9785ZM392.218 93.9316V97.7256C392.096 97.9062 391.886 98.1064 391.588 98.3262C391.291 98.5459 390.89 98.7388 390.387 98.9048C389.884 99.0659 389.259 99.1465 388.512 99.1465C387.887 99.1465 387.313 99.0342 386.791 98.8096C386.269 98.585 385.814 98.2603 385.429 97.8354C385.048 97.4058 384.752 96.8906 384.542 96.29C384.337 95.6895 384.235 95.0156 384.235 94.2686V92.9795C384.235 92.2471 384.33 91.5879 384.521 91.002C384.711 90.4111 384.987 89.9058 385.348 89.4858C385.709 89.0659 386.144 88.7461 386.652 88.5264C387.165 88.3018 387.738 88.1895 388.373 88.1895C389.164 88.1895 389.831 88.3262 390.373 88.5996C390.915 88.873 391.337 89.249 391.64 89.7275C391.947 90.2012 392.138 90.7383 392.211 91.3389H391.31C391.242 90.9141 391.1 90.5234 390.885 90.167C390.67 89.8057 390.358 89.5151 389.948 89.2954C389.542 89.0757 389.018 88.9658 388.373 88.9658C387.855 88.9658 387.394 89.061 386.989 89.2515C386.588 89.4419 386.251 89.7129 385.978 90.0645C385.705 90.416 385.497 90.8384 385.355 91.3315C385.214 91.8198 385.143 92.3643 385.143 92.9648V94.2686C385.143 94.8936 385.221 95.4575 385.377 95.9604C385.539 96.4634 385.768 96.8955 386.066 97.2568C386.364 97.6182 386.72 97.8965 387.135 98.0918C387.55 98.2822 388.012 98.3774 388.52 98.3774C389.062 98.3774 389.523 98.3262 389.904 98.2236C390.285 98.1211 390.59 97.999 390.819 97.8574C391.054 97.7109 391.222 97.5742 391.325 97.4473V94.7007H388.461V93.9316H392.218ZM395.463 92.3862V99H394.591V91.0752H395.441L395.463 92.3862ZM398.268 91.0166L398.246 91.8223C398.148 91.8076 398.053 91.7954 397.96 91.7856C397.868 91.7759 397.768 91.771 397.66 91.771C397.279 91.771 396.945 91.8418 396.657 91.9834C396.374 92.1201 396.134 92.313 395.939 92.562C395.744 92.8062 395.595 93.0942 395.492 93.4263C395.39 93.7534 395.331 94.105 395.316 94.481L394.994 94.6055C394.994 94.0879 395.048 93.6069 395.155 93.1626C395.263 92.7183 395.426 92.3301 395.646 91.998C395.871 91.6611 396.151 91.3999 396.488 91.2144C396.83 91.0239 397.23 90.9287 397.689 90.9287C397.802 90.9287 397.912 90.9385 398.019 90.958C398.131 90.9727 398.214 90.9922 398.268 91.0166ZM404.171 97.5791V93.4922C404.171 93.1162 404.093 92.7915 403.937 92.5181C403.781 92.2446 403.551 92.0347 403.249 91.8882C402.946 91.7417 402.572 91.6685 402.128 91.6685C401.718 91.6685 401.352 91.7417 401.029 91.8882C400.712 92.0298 400.46 92.2227 400.275 92.4668C400.094 92.7061 400.004 92.9722 400.004 93.2651L399.125 93.2578C399.125 92.96 399.198 92.6719 399.345 92.3936C399.491 92.1152 399.699 91.8662 399.967 91.6465C400.236 91.4268 400.556 91.2534 400.927 91.1265C401.303 90.9946 401.715 90.9287 402.165 90.9287C402.731 90.9287 403.229 91.0239 403.659 91.2144C404.093 91.4048 404.433 91.6904 404.677 92.0713C404.921 92.4521 405.043 92.9307 405.043 93.5068V97.3374C405.043 97.6108 405.062 97.894 405.102 98.187C405.146 98.48 405.207 98.7217 405.285 98.9121V99H404.354C404.296 98.8242 404.25 98.6045 404.215 98.3408C404.186 98.0723 404.171 97.8184 404.171 97.5791ZM404.376 94.3857L404.391 95.0596H402.67C402.221 95.0596 401.818 95.1011 401.461 95.1841C401.11 95.2622 400.812 95.3794 400.568 95.5356C400.324 95.687 400.136 95.8701 400.004 96.085C399.877 96.2998 399.813 96.5439 399.813 96.8174C399.813 97.1006 399.884 97.3594 400.026 97.5938C400.172 97.8281 400.377 98.0161 400.641 98.1577C400.91 98.2944 401.227 98.3628 401.593 98.3628C402.082 98.3628 402.511 98.2725 402.882 98.0918C403.258 97.9111 403.568 97.6743 403.812 97.3813C404.057 97.0884 404.22 96.7686 404.303 96.4219L404.684 96.9272C404.621 97.1714 404.503 97.4229 404.333 97.6816C404.167 97.9355 403.949 98.1748 403.681 98.3994C403.412 98.6191 403.095 98.7998 402.729 98.9414C402.367 99.0781 401.957 99.1465 401.498 99.1465C400.98 99.1465 400.529 99.0488 400.143 98.8535C399.762 98.6582 399.464 98.3921 399.25 98.0552C399.04 97.7134 398.935 97.3276 398.935 96.8979C398.935 96.5073 399.018 96.1582 399.184 95.8506C399.35 95.5381 399.589 95.2744 399.901 95.0596C400.219 94.8398 400.6 94.6738 401.044 94.5615C401.493 94.4443 401.996 94.3857 402.553 94.3857H404.376ZM412.543 97.4619V87.75H413.422V99H412.602L412.543 97.4619ZM407.042 95.1182V94.9644C407.042 94.3491 407.113 93.7949 407.255 93.3018C407.396 92.8037 407.599 92.3789 407.863 92.0273C408.131 91.6709 408.454 91.3999 408.83 91.2144C409.206 91.0239 409.63 90.9287 410.104 90.9287C410.568 90.9287 410.978 91.0044 411.334 91.1558C411.691 91.3071 411.996 91.5244 412.25 91.8076C412.509 92.0908 412.716 92.4277 412.873 92.8184C413.034 93.209 413.151 93.6436 413.224 94.1221V96.0776C413.166 96.5269 413.058 96.9395 412.902 97.3154C412.746 97.6865 412.538 98.0112 412.279 98.2896C412.021 98.563 411.708 98.7754 411.342 98.9268C410.98 99.0732 410.563 99.1465 410.089 99.1465C409.621 99.1465 409.198 99.0488 408.822 98.8535C408.446 98.6582 408.126 98.3823 407.863 98.0259C407.599 97.6646 407.396 97.2373 407.255 96.7441C407.113 96.251 407.042 95.709 407.042 95.1182ZM407.921 94.9644V95.1182C407.921 95.582 407.968 96.0117 408.061 96.4072C408.153 96.8027 408.295 97.147 408.485 97.4399C408.676 97.7329 408.917 97.9624 409.21 98.1284C409.503 98.2944 409.85 98.3774 410.25 98.3774C410.753 98.3774 411.176 98.2822 411.518 98.0918C411.859 97.8965 412.133 97.6401 412.338 97.3228C412.543 97.0005 412.692 96.6489 412.785 96.2681V93.9902C412.726 93.7314 412.641 93.4678 412.528 93.1992C412.416 92.9307 412.262 92.6841 412.067 92.4595C411.876 92.23 411.632 92.0469 411.334 91.9102C411.042 91.7686 410.685 91.6978 410.265 91.6978C409.86 91.6978 409.511 91.7808 409.218 91.9468C408.925 92.1128 408.681 92.3447 408.485 92.6426C408.295 92.9355 408.153 93.2798 408.061 93.6753C407.968 94.0708 407.921 94.5005 407.921 94.9644ZM420.805 97.1689V91.0752H421.684V99H420.841L420.805 97.1689ZM420.966 95.7041L421.42 95.6895C421.42 96.1875 421.361 96.6465 421.244 97.0664C421.127 97.4863 420.944 97.8525 420.695 98.165C420.446 98.4775 420.124 98.7192 419.728 98.8901C419.333 99.061 418.856 99.1465 418.3 99.1465C417.914 99.1465 417.56 99.0928 417.238 98.9854C416.92 98.873 416.647 98.6973 416.417 98.458C416.188 98.2188 416.01 97.9087 415.883 97.5278C415.761 97.147 415.7 96.6855 415.7 96.1436V91.0752H416.571V96.1582C416.571 96.583 416.618 96.937 416.71 97.2202C416.808 97.5034 416.94 97.7305 417.106 97.9014C417.277 98.0723 417.472 98.1943 417.692 98.2676C417.912 98.3408 418.148 98.3774 418.402 98.3774C419.047 98.3774 419.555 98.2529 419.926 98.0039C420.302 97.7549 420.568 97.4277 420.724 97.0225C420.885 96.6123 420.966 96.1729 420.966 95.7041ZM428.795 97.5791V93.4922C428.795 93.1162 428.717 92.7915 428.561 92.5181C428.405 92.2446 428.175 92.0347 427.873 91.8882C427.57 91.7417 427.196 91.6685 426.752 91.6685C426.342 91.6685 425.976 91.7417 425.653 91.8882C425.336 92.0298 425.084 92.2227 424.899 92.4668C424.718 92.7061 424.628 92.9722 424.628 93.2651L423.749 93.2578C423.749 92.96 423.822 92.6719 423.969 92.3936C424.115 92.1152 424.323 91.8662 424.591 91.6465C424.86 91.4268 425.18 91.2534 425.551 91.1265C425.927 90.9946 426.339 90.9287 426.789 90.9287C427.355 90.9287 427.853 91.0239 428.283 91.2144C428.717 91.4048 429.057 91.6904 429.301 92.0713C429.545 92.4521 429.667 92.9307 429.667 93.5068V97.3374C429.667 97.6108 429.687 97.894 429.726 98.187C429.77 98.48 429.831 98.7217 429.909 98.9121V99H428.979C428.92 98.8242 428.874 98.6045 428.839 98.3408C428.81 98.0723 428.795 97.8184 428.795 97.5791ZM429 94.3857L429.015 95.0596H427.294C426.845 95.0596 426.442 95.1011 426.085 95.1841C425.734 95.2622 425.436 95.3794 425.192 95.5356C424.948 95.687 424.76 95.8701 424.628 96.085C424.501 96.2998 424.438 96.5439 424.438 96.8174C424.438 97.1006 424.508 97.3594 424.65 97.5938C424.796 97.8281 425.001 98.0161 425.265 98.1577C425.534 98.2944 425.851 98.3628 426.217 98.3628C426.706 98.3628 427.135 98.2725 427.506 98.0918C427.882 97.9111 428.192 97.6743 428.437 97.3813C428.681 97.0884 428.844 96.7686 428.927 96.4219L429.308 96.9272C429.245 97.1714 429.127 97.4229 428.957 97.6816C428.791 97.9355 428.573 98.1748 428.305 98.3994C428.036 98.6191 427.719 98.7998 427.353 98.9414C426.991 99.0781 426.581 99.1465 426.122 99.1465C425.604 99.1465 425.153 99.0488 424.767 98.8535C424.386 98.6582 424.088 98.3921 423.874 98.0552C423.664 97.7134 423.559 97.3276 423.559 96.8979C423.559 96.5073 423.642 96.1582 423.808 95.8506C423.974 95.5381 424.213 95.2744 424.525 95.0596C424.843 94.8398 425.224 94.6738 425.668 94.5615C426.117 94.4443 426.62 94.3857 427.177 94.3857H429ZM435.014 91.0752V91.793H431.044V91.0752H435.014ZM432.501 89.0391H433.373V97.0737C433.373 97.4399 433.422 97.7158 433.52 97.9014C433.617 98.0869 433.744 98.2114 433.9 98.2749C434.057 98.3384 434.225 98.3701 434.406 98.3701C434.538 98.3701 434.665 98.3628 434.787 98.3481C434.909 98.3286 435.019 98.3091 435.116 98.2896L435.153 99.0293C435.045 99.0635 434.906 99.0903 434.735 99.1099C434.564 99.1343 434.394 99.1465 434.223 99.1465C433.886 99.1465 433.588 99.0854 433.329 98.9634C433.07 98.8364 432.868 98.6216 432.721 98.3188C432.575 98.0112 432.501 97.5938 432.501 97.0664V89.0391ZM439.914 99.1465C439.396 99.1465 438.92 99.0513 438.485 98.8608C438.056 98.6704 437.68 98.4019 437.357 98.0552C437.04 97.7085 436.793 97.2983 436.618 96.8247C436.447 96.3462 436.361 95.8237 436.361 95.2573V94.9424C436.361 94.332 436.452 93.7803 436.632 93.2871C436.813 92.7939 437.062 92.3716 437.379 92.02C437.697 91.6685 438.058 91.3999 438.463 91.2144C438.874 91.0239 439.303 90.9287 439.752 90.9287C440.255 90.9287 440.702 91.019 441.093 91.1997C441.483 91.3755 441.811 91.627 442.074 91.9541C442.343 92.2764 442.545 92.6597 442.682 93.104C442.819 93.5435 442.887 94.0293 442.887 94.5615V95.0962H436.889V94.3491H442.016V94.2466C442.006 93.8022 441.916 93.3872 441.745 93.0015C441.579 92.6108 441.33 92.2935 440.998 92.0493C440.666 91.8052 440.25 91.6831 439.752 91.6831C439.381 91.6831 439.04 91.7612 438.727 91.9175C438.419 92.0737 438.153 92.2983 437.929 92.5913C437.709 92.8794 437.538 93.2236 437.416 93.624C437.299 94.0195 437.24 94.459 437.24 94.9424V95.2573C437.24 95.6968 437.304 96.1069 437.431 96.4878C437.562 96.8638 437.748 97.1958 437.987 97.4839C438.231 97.772 438.52 97.9966 438.852 98.1577C439.184 98.3188 439.55 98.3994 439.95 98.3994C440.419 98.3994 440.834 98.314 441.195 98.1431C441.557 97.9673 441.881 97.6914 442.169 97.3154L442.719 97.7402C442.548 97.9941 442.333 98.2285 442.074 98.4434C441.82 98.6582 441.515 98.8291 441.159 98.9561C440.802 99.083 440.387 99.1465 439.914 99.1465ZM444.535 98.4653C444.535 98.2944 444.589 98.1504 444.696 98.0332C444.809 97.9111 444.96 97.8501 445.15 97.8501C445.346 97.8501 445.5 97.9087 445.612 98.0259C445.724 98.1431 445.78 98.2896 445.78 98.4653C445.78 98.6313 445.724 98.7729 445.612 98.8901C445.5 99.0073 445.346 99.0659 445.15 99.0659C444.96 99.0659 444.809 99.0073 444.696 98.8901C444.589 98.7729 444.535 98.6313 444.535 98.4653Z" fill="black"/>
</svg>
