<svg width="717" height="112" viewBox="0 0 717 112" fill="none" xmlns="http://www.w3.org/2000/svg">
<path d="M0 0H717V112H0V0Z" fill="white"/>
<path d="M104.872 54.5293V55.2617C104.872 56.3359 104.729 57.3027 104.443 58.1621C104.156 59.015 103.749 59.7409 103.222 60.3398C102.695 60.9388 102.067 61.3978 101.337 61.7168C100.608 62.0358 99.7976 62.1953 98.9057 62.1953C98.0268 62.1953 97.2195 62.0358 96.4838 61.7168C95.7547 61.3978 95.1231 60.9388 94.5893 60.3398C94.0554 59.7409 93.642 59.015 93.3491 58.1621C93.0561 57.3027 92.9096 56.3359 92.9096 55.2617V54.5293C92.9096 53.4486 93.0561 52.4818 93.3491 51.6289C93.642 50.776 94.0522 50.0501 94.5795 49.4512C95.1069 48.8457 95.7351 48.3835 96.4643 48.0645C97.2 47.7454 98.0073 47.5859 98.8862 47.5859C99.7781 47.5859 100.589 47.7454 101.318 48.0645C102.047 48.3835 102.675 48.8457 103.203 49.4512C103.736 50.0501 104.147 50.776 104.433 51.6289C104.726 52.4818 104.872 53.4486 104.872 54.5293ZM102.158 55.2617V54.5098C102.158 53.735 102.086 53.0547 101.943 52.4688C101.8 51.8763 101.588 51.3783 101.308 50.9746C101.028 50.571 100.683 50.2682 100.273 50.0664C99.8627 49.8581 99.4005 49.7539 98.8862 49.7539C98.3653 49.7539 97.9031 49.8581 97.4995 50.0664C97.1023 50.2682 96.7638 50.571 96.4838 50.9746C96.2039 51.3783 95.989 51.8763 95.8393 52.4688C95.6961 53.0547 95.6245 53.735 95.6245 54.5098V55.2617C95.6245 56.0299 95.6961 56.7103 95.8393 57.3027C95.989 57.8952 96.2039 58.3965 96.4838 58.8066C96.7703 59.2103 97.1153 59.5163 97.519 59.7246C97.9226 59.9329 98.3849 60.0371 98.9057 60.0371C99.4265 60.0371 99.8888 59.9329 100.292 59.7246C100.696 59.5163 101.035 59.2103 101.308 58.8066C101.588 58.3965 101.8 57.8952 101.943 57.3027C102.086 56.7103 102.158 56.0299 102.158 55.2617ZM113.242 59.4902V51.4336H115.839V62H113.398L113.242 59.4902ZM113.574 57.3027L114.374 57.2832C114.374 57.9928 114.296 58.6471 114.14 59.2461C113.984 59.8451 113.74 60.3659 113.408 60.8086C113.082 61.2448 112.669 61.5866 112.167 61.834C111.666 62.0749 111.074 62.1953 110.39 62.1953C109.869 62.1953 109.394 62.1237 108.964 61.9805C108.535 61.8307 108.164 61.5996 107.851 61.2871C107.545 60.9681 107.307 60.5612 107.138 60.0664C106.969 59.5651 106.884 58.9629 106.884 58.2598V51.4336H109.462V58.2793C109.462 58.6309 109.501 58.9238 109.58 59.1582C109.664 59.3926 109.778 59.5846 109.921 59.7344C110.071 59.8776 110.244 59.9818 110.439 60.0469C110.641 60.1055 110.856 60.1348 111.083 60.1348C111.708 60.1348 112.2 60.0111 112.558 59.7637C112.923 59.5098 113.183 59.1712 113.339 58.748C113.496 58.3184 113.574 57.8366 113.574 57.3027ZM120.703 53.5918V62H118.124V51.4336H120.566L120.703 53.5918ZM123.915 51.3652L123.876 53.7676C123.733 53.7415 123.57 53.722 123.388 53.709C123.212 53.696 123.046 53.6895 122.89 53.6895C122.493 53.6895 122.145 53.7448 121.845 53.8555C121.546 53.9596 121.295 54.1126 121.093 54.3145C120.898 54.5163 120.748 54.7637 120.644 55.0566C120.54 55.3431 120.481 55.6686 120.468 56.0332L119.912 55.9648C119.912 55.2943 119.98 54.6725 120.117 54.0996C120.253 53.5267 120.452 53.0254 120.712 52.5957C120.973 52.166 121.298 51.834 121.689 51.5996C122.086 51.3587 122.542 51.2383 123.056 51.2383C123.199 51.2383 123.352 51.2513 123.515 51.2773C123.684 51.2969 123.818 51.3262 123.915 51.3652ZM136.122 47.7812V62H133.447V47.7812H136.122ZM140.537 47.7812V49.9004H129.081V47.7812H140.537ZM145.956 62.1953C145.156 62.1953 144.436 62.0651 143.798 61.8047C143.16 61.5443 142.617 61.1829 142.167 60.7207C141.725 60.252 141.383 59.7083 141.142 59.0898C140.908 58.4648 140.79 57.7943 140.79 57.0781V56.6875C140.79 55.8737 140.908 55.1348 141.142 54.4707C141.376 53.8001 141.708 53.224 142.138 52.7422C142.568 52.2604 143.082 51.8893 143.681 51.6289C144.28 51.3685 144.941 51.2383 145.664 51.2383C146.412 51.2383 147.073 51.3652 147.646 51.6191C148.219 51.8665 148.697 52.2181 149.081 52.6738C149.466 53.1296 149.755 53.6764 149.951 54.3145C150.146 54.946 150.244 55.6458 150.244 56.4141V57.498H141.962V55.7207H147.705V55.5254C147.692 55.1152 147.613 54.7409 147.47 54.4023C147.327 54.0573 147.106 53.7839 146.806 53.582C146.507 53.3737 146.119 53.2695 145.644 53.2695C145.26 53.2695 144.925 53.3542 144.638 53.5234C144.358 53.6862 144.124 53.9206 143.935 54.2266C143.753 54.526 143.616 54.8841 143.525 55.3008C143.434 55.7174 143.388 56.1797 143.388 56.6875V57.0781C143.388 57.5208 143.447 57.931 143.564 58.3086C143.688 58.6862 143.867 59.015 144.101 59.2949C144.342 59.5684 144.628 59.7832 144.96 59.9395C145.299 60.0892 145.683 60.1641 146.113 60.1641C146.653 60.1641 147.141 60.0599 147.578 59.8516C148.02 59.6367 148.404 59.321 148.73 58.9043L150.029 60.252C149.807 60.5775 149.508 60.89 149.13 61.1895C148.759 61.4889 148.31 61.7331 147.783 61.9219C147.255 62.1042 146.647 62.1953 145.956 62.1953ZM157.792 59.7539V54.8809C157.792 54.5228 157.731 54.2135 157.607 53.9531C157.483 53.6927 157.294 53.4909 157.04 53.3477C156.787 53.2044 156.464 53.1328 156.074 53.1328C155.729 53.1328 155.426 53.1914 155.165 53.3086C154.912 53.4258 154.716 53.5918 154.58 53.8066C154.443 54.015 154.374 54.2559 154.374 54.5293H151.787C151.787 54.0931 151.891 53.6797 152.099 53.2891C152.307 52.8919 152.604 52.5404 152.988 52.2344C153.378 51.9219 153.844 51.6777 154.384 51.502C154.931 51.3262 155.543 51.2383 156.22 51.2383C157.021 51.2383 157.734 51.375 158.359 51.6484C158.99 51.9154 159.485 52.319 159.843 52.8594C160.208 53.3997 160.39 54.0801 160.39 54.9004V59.5098C160.39 60.0371 160.423 60.4896 160.488 60.8672C160.559 61.2383 160.664 61.5605 160.8 61.834V62H158.173C158.05 61.7331 157.955 61.3945 157.89 60.9844C157.825 60.5677 157.792 60.1576 157.792 59.7539ZM158.154 55.5645L158.173 57.0977H156.542C156.139 57.0977 155.784 57.14 155.478 57.2246C155.172 57.3027 154.921 57.4199 154.726 57.5762C154.531 57.7259 154.384 57.9082 154.287 58.123C154.189 58.3314 154.14 58.569 154.14 58.8359C154.14 59.0964 154.199 59.3307 154.316 59.5391C154.44 59.7474 154.615 59.9134 154.843 60.0371C155.078 60.1543 155.351 60.2129 155.664 60.2129C156.119 60.2129 156.516 60.1217 156.855 59.9395C157.193 59.7507 157.457 59.5228 157.646 59.2559C157.835 58.9889 157.936 58.735 157.949 58.4941L158.691 59.6074C158.6 59.8743 158.463 60.1576 158.281 60.457C158.098 60.7565 157.864 61.0365 157.578 61.2969C157.291 61.5573 156.946 61.7721 156.542 61.9414C156.139 62.1107 155.67 62.1953 155.136 62.1953C154.453 62.1953 153.841 62.0586 153.3 61.7852C152.76 61.5117 152.333 61.1374 152.021 60.6621C151.708 60.1868 151.552 59.6465 151.552 59.041C151.552 58.4811 151.656 57.9863 151.865 57.5566C152.073 57.127 152.382 56.7656 152.792 56.4727C153.203 56.1732 153.71 55.9486 154.316 55.7988C154.928 55.6426 155.628 55.5645 156.415 55.5645H158.154ZM165.283 53.6016V62H162.705V51.4336H165.136L165.283 53.6016ZM164.902 56.3359H164.111C164.111 55.6003 164.199 54.9232 164.374 54.3047C164.557 53.6862 164.824 53.1491 165.175 52.6934C165.527 52.2311 165.96 51.873 166.474 51.6191C166.995 51.3652 167.597 51.2383 168.281 51.2383C168.756 51.2383 169.192 51.3099 169.589 51.4531C169.986 51.5898 170.328 51.8079 170.615 52.1074C170.908 52.4004 171.132 52.7845 171.289 53.2598C171.445 53.7285 171.523 54.2917 171.523 54.9492V62H168.945V55.2129C168.945 54.7181 168.873 54.3307 168.73 54.0508C168.593 53.7708 168.395 53.5755 168.134 53.4648C167.874 53.3477 167.561 53.2891 167.197 53.2891C166.793 53.2891 166.445 53.3704 166.152 53.5332C165.865 53.6895 165.628 53.9076 165.439 54.1875C165.257 54.4674 165.12 54.7897 165.029 55.1543C164.944 55.5189 164.902 55.9128 164.902 56.3359ZM171.328 55.8574L170.263 56.0527C170.27 55.3887 170.361 54.7669 170.537 54.1875C170.712 53.6016 170.97 53.0905 171.308 52.6543C171.653 52.2116 172.08 51.8665 172.587 51.6191C173.102 51.3652 173.694 51.2383 174.365 51.2383C174.886 51.2383 175.354 51.3132 175.771 51.4629C176.194 51.6061 176.555 51.8372 176.855 52.1562C177.154 52.4688 177.382 52.8757 177.539 53.377C177.701 53.8783 177.783 54.4902 177.783 55.2129V62H175.185V55.2031C175.185 54.6888 175.113 54.2949 174.97 54.0215C174.833 53.748 174.635 53.5592 174.374 53.4551C174.114 53.3444 173.808 53.2891 173.456 53.2891C173.098 53.2891 172.786 53.3574 172.519 53.4941C172.259 53.6243 172.037 53.8066 171.855 54.041C171.679 54.2754 171.546 54.5488 171.455 54.8613C171.37 55.1673 171.328 55.4993 171.328 55.8574Z" fill="#5CC6CD"/>
<rect x="91.9959" y="68.9343" width="580.655" height="4.95293" transform="rotate(0.109739 91.9959 68.9343)" fill="#5CC6CD"/>
<path d="M42.4999 49.8747C42.4997 47.9893 42.9681 46.1334 43.863 44.4739C44.758 42.8144 46.0514 41.4034 47.6269 40.3678C49.2025 39.3322 51.0107 38.7045 52.889 38.5411C54.7674 38.3777 56.6568 38.6837 58.3875 39.4317C60.1182 40.1797 61.6359 41.3461 62.8039 42.8261C63.972 44.3061 64.7539 46.0533 65.0793 47.9104C65.4046 49.7675 65.2632 51.6764 64.6679 53.4653C64.0725 55.2543 63.0417 56.8672 61.6684 58.1589C64.258 59.4156 66.5064 61.2782 68.223 63.5887C69.9395 65.8993 71.0735 68.5898 71.5289 71.4319C71.579 71.7482 71.5664 72.0712 71.4917 72.3826C71.417 72.694 71.2817 72.9876 71.0936 73.2467C70.9054 73.5058 70.668 73.7253 70.395 73.8926C70.1221 74.06 69.8188 74.1719 69.5025 74.2221C69.1863 74.2722 68.8632 74.2596 68.5519 74.1849C68.2405 74.1102 67.9469 73.9749 67.6878 73.7867C67.4287 73.5986 67.2092 73.3612 67.0419 73.0882C66.8745 72.8152 66.7625 72.512 66.7124 72.1957C66.2249 69.1417 64.6647 66.3615 62.3118 64.3544C59.9589 62.3473 56.9676 61.2447 53.8749 61.2447C50.7822 61.2447 47.7909 62.3473 45.438 64.3544C43.0851 66.3615 41.5249 69.1417 41.0374 72.1957C40.987 72.512 40.8749 72.8152 40.7073 73.0881C40.5398 73.361 40.3201 73.5982 40.0609 73.7863C39.8016 73.9743 39.5079 74.1094 39.1964 74.1839C38.885 74.2584 38.5619 74.2708 38.2456 74.2204C37.9294 74.1701 37.6262 74.0579 37.3532 73.8904C37.0803 73.7228 36.8431 73.5031 36.6551 73.2439C36.4671 72.9847 36.332 72.6909 36.2575 72.3795C36.183 72.068 36.1705 71.745 36.2209 71.4287C36.677 68.5876 37.8114 65.8984 39.5279 63.5889C41.2444 61.2795 43.4924 59.418 46.0814 58.1622C44.9493 57.0992 44.0474 55.8153 43.4314 54.3898C42.8153 52.9643 42.4983 51.4276 42.4999 49.8747ZM71.7499 44.9997C73.6382 45.001 75.4855 45.5504 77.0676 46.5813C78.6497 47.6122 79.8985 49.0801 80.6624 50.807C81.4264 52.5338 81.6727 54.4453 81.3713 56.3094C81.07 58.1735 80.234 59.91 78.9649 61.3082C80.9431 62.2903 82.7008 63.6646 84.1312 65.3474C85.5615 67.0303 86.6345 68.9866 87.2849 71.0972C87.4137 71.5069 87.4319 71.9434 87.3374 72.3624C87.243 72.7814 87.0394 73.168 86.7473 73.4829C86.4552 73.7977 86.085 74.0297 85.6743 74.1553C85.2635 74.2808 84.8269 74.2955 84.4086 74.1977C83.9908 74.1004 83.6059 73.8947 83.2927 73.6015C82.9795 73.3083 82.749 72.9378 82.6244 72.5272C82.0419 70.6429 80.9805 68.942 79.5438 67.5907C78.1071 66.2395 76.3443 65.2842 74.4279 64.8182C73.8957 64.6897 73.4222 64.3858 73.0838 63.9554C72.7454 63.525 72.5617 62.9932 72.5624 62.4457V61.3017C72.5621 60.8479 72.6885 60.403 72.9274 60.0172C73.1662 59.6313 73.5081 59.3198 73.9144 59.1177C74.8997 58.6294 75.6909 57.8223 76.1596 56.8276C76.6283 55.8328 76.7469 54.7088 76.4962 53.6382C76.2455 52.5675 75.6401 51.613 74.7785 50.9298C73.9169 50.2466 72.8495 49.8748 71.7499 49.8747C71.1034 49.8747 70.4834 49.6179 70.0263 49.1608C69.5692 48.7036 69.3124 48.0837 69.3124 47.4372C69.3124 46.7907 69.5692 46.1707 70.0263 45.7136C70.4834 45.2565 71.1034 44.9997 71.7499 44.9997ZM53.8749 43.3747C53.0093 43.3551 52.1485 43.5087 51.3431 43.8264C50.5376 44.144 49.8038 44.6194 49.1846 45.2246C48.5654 45.8298 48.0734 46.5526 47.7374 47.3506C47.4014 48.1485 47.2282 49.0056 47.2279 49.8714C47.2277 50.7372 47.4005 51.5944 47.7361 52.3925C48.0717 53.1906 48.5634 53.9137 49.1823 54.5192C49.8011 55.1247 50.5348 55.6004 51.34 55.9185C52.1453 56.2366 53.006 56.3906 53.8716 56.3714C55.57 56.3339 57.1861 55.633 58.3741 54.4187C59.5621 53.2045 60.2275 51.5734 60.2279 49.8747C60.2284 48.1759 59.5638 46.5445 58.3764 45.3297C57.189 44.1148 55.5732 43.4131 53.8749 43.3747Z" fill="#5CC6CD"/>
</svg>
