<svg width="293" height="111" viewBox="0 0 293 111" fill="none" xmlns="http://www.w3.org/2000/svg">
<g clip-path="url(#clip0_367_3824)">
<rect width="304" height="111" fill="#BDBDBD"/>
<g opacity="0.25">
<g clip-path="url(#clip1_367_3824)">
<path d="M2.09442 92.82L9.30519 80.0753L22.0078 87.4843L2.09442 92.82ZM-4.68793 72.0715L5.8392 69.2507L-1.7496 83.0374L-4.68793 72.0715ZM7.06627 68.9219L-1.39701 84.3533L0.953542 93.1257L16.3663 66.43L7.06627 68.9219Z" fill="#FAFAFA"/>
</g>
<g clip-path="url(#clip2_367_3824)">
<path fill-rule="evenodd" clip-rule="evenodd" d="M73.2806 51.9188L85.5885 55.2763L88.4731 66.0416L79.4933 75.1049L67.1849 71.7457L64.3003 60.9805L73.2801 51.9171L73.2806 51.9188ZM74.851 57.7796C73.3309 58.1869 72.0349 59.1814 71.248 60.5442C70.4612 61.9071 70.248 63.5267 70.6553 65.0468C71.0626 66.5668 72.057 67.8628 73.4199 68.6497C74.7828 69.4365 76.4024 69.6498 77.9224 69.2425L78.2205 69.1626C79.8187 68.7344 81.1829 67.6878 82.0117 66.2547L82.0932 66.1135L80.6231 65.2648L80.5416 65.406C79.939 66.4503 78.9462 67.2126 77.7817 67.525L77.4837 67.6049C76.3979 67.8958 75.241 67.7435 74.2676 67.1815C73.2941 66.6195 72.5838 65.6937 72.2928 64.608C72.0019 63.5222 72.1542 62.3653 72.7162 61.3919C73.2783 60.4184 74.204 59.7081 75.2898 59.4171L75.5878 59.3373C76.7521 59.0253 77.9931 59.1895 79.0375 59.7925L79.1787 59.874L80.0274 58.4039L79.8862 58.3224C79.1762 57.9126 78.3924 57.6467 77.5795 57.5399C76.7667 57.433 75.9408 57.4874 75.149 57.6997L74.851 57.7796Z" fill="#FAFAFA"/>
</g>
<g clip-path="url(#clip3_367_3824)">
<path fill-rule="evenodd" clip-rule="evenodd" d="M52.8045 66.7358C51.5873 62.1934 45.1019 59.984 38.3189 61.8015C31.5359 63.619 27.024 68.7751 28.2412 73.3175C29.326 77.3661 34.5952 79.5525 40.5292 78.6968L41.2323 81.3207L45.4218 80.1972L44.7228 77.5882C45.6863 77.2143 46.6151 76.7562 47.4983 76.2193L50.0554 78.9585L54.7895 77.6881L50.6473 73.6407C52.5496 71.5289 53.4255 69.0535 52.8045 66.7358ZM33.2324 72.6383C32.4003 69.5328 35.9049 65.8952 41.0606 64.5138C46.2162 63.1323 50.4823 63.8349 51.5277 67.7361C51.7966 68.6951 51.771 69.7128 51.4543 70.6571C51.1377 71.6014 50.5444 72.4288 49.7517 73.0317C49.6524 72.9985 49.5514 72.9706 49.4491 72.9482C49.0211 72.8761 48.5887 72.8333 48.1549 72.8202C48.1549 72.8202 51.7437 71.5671 50.7668 67.9212C49.7898 64.2753 45.9396 65.2336 45.9396 65.2336L37.5267 67.4879L39.8832 76.2824C36.5107 76.2129 33.8304 74.8701 33.2324 72.6383ZM45.7214 71.0267L43.1837 71.7076L42.5546 69.3563L45.0917 68.6765C45.2441 68.623 45.4062 68.6028 45.5671 68.6171C45.7279 68.6314 45.8839 68.6799 46.0245 68.7594C46.1651 68.8389 46.2871 68.9475 46.3823 69.078C46.4775 69.2085 46.5437 69.3578 46.5765 69.516C46.6232 69.6713 46.638 69.8345 46.62 69.9957C46.6019 70.1569 46.5514 70.3127 46.4715 70.4539C46.3916 70.5951 46.284 70.7186 46.1551 70.817C46.0261 70.9154 45.8786 70.9868 45.7214 71.0267ZM43.9699 74.7821L45.0955 74.4805C45.202 74.4537 45.3129 74.4491 45.4213 74.4672C45.5297 74.4852 45.6332 74.5254 45.7253 74.5854C45.9409 74.7046 46.1409 74.8499 46.3208 75.0182C45.6342 75.289 44.9333 75.5223 44.2214 75.717L43.9699 74.7821Z" fill="#FAFAFA"/>
</g>
<g clip-path="url(#clip4_367_3824)">
<path d="M35.9939 23.6488C39.0763 23.3619 40.4607 25.1598 40.9812 27.2895L40.9686 27.2427L44.3145 45.0633L27.3431 50.877L27.3548 50.8738C25.9005 51.2009 22.6696 51.9161 21.3203 47.4887L22.1392 44.1351L27.4039 50.8231L27.7761 41.1705L27.7208 41.1978L27.7379 41.1682L37.5272 41.6292L32.7611 33.1527L41.2141 30.3111L32.9561 26.5815L35.9908 23.6371L35.9939 23.6488ZM22.6533 32.4386C25.191 28.0604 29.1255 24.8247 31.312 26.1068C33.4804 27.3687 32.8137 32.0856 30.2728 36.4521C27.6852 40.8313 23.8522 44.165 21.6689 42.8946C19.4825 41.6125 20.0891 36.8115 22.6416 32.4418L22.6533 32.4386Z" fill="#FAFAFA"/>
</g>
<path d="M69.6508 19.6576C69.6508 19.6576 62.1861 23.8015 67.2042 27.1832C68.6867 28.1775 67.5731 29.7296 67.5731 29.7296C67.5731 29.7296 70.0471 27.4996 68.2122 25.9854C66.5116 24.5982 65.3471 23.9951 69.6508 19.6576ZM64.7984 22.4622C68.5327 17.4499 65.4479 15.6688 65.4479 15.6688C67.4647 19.2655 63.3333 21.6262 62.3765 24.4651C61.7157 26.3972 63.8266 27.7247 66.5561 29.1621C65.1928 27.3962 61.7993 26.4751 64.7984 22.4622ZM64.8808 35.2149C61.5477 37.1861 67.9041 37.7019 71.9541 34.5231C71.4626 34.4668 70.9734 34.3722 70.4982 34.2362C69.0046 35.0251 67.3859 35.534 65.7121 35.7443C64.1297 35.9677 64.8808 35.2149 64.8808 35.2149ZM70.5769 31.5825C68.6491 32.5754 66.5602 33.248 64.4123 33.5602C62.8393 33.8187 63.6446 32.8006 63.6446 32.8006C60.0219 35.1879 66.5958 35.0186 71.6842 31.9251C71.3105 31.8874 70.9235 31.7529 70.5769 31.5825ZM75.6115 34.3705C75.6115 34.3705 76.4255 34.7416 75.1581 35.5325C72.7044 37.0425 64.407 39.5291 61.8215 39.1437C60.8939 39.0036 62.3265 38.0807 62.7895 37.8438C63.0397 37.7015 63.3025 37.606 63.5715 37.5339C62.4782 37.1499 57.9158 40.4284 61.4989 40.045C71.2286 39.0677 78.318 34.7862 75.6115 34.3705ZM70.8834 29.5446C71.1631 29.2315 71.4755 28.9472 71.8059 28.6831C71.8059 28.6831 70.1212 29.4605 68.3989 30.0975C66.5775 30.7861 64.7006 31.3141 62.7915 31.6752C59.9456 32.0492 63.9243 29.8673 63.9243 29.8673C62.6376 30.2121 61.4559 30.8547 60.4632 31.735C58.3787 33.5472 66.883 31.8326 70.8834 29.5446ZM72.6946 32.0932C72.6837 32.1462 72.6697 32.1876 72.6323 32.2352C78.0819 29.1327 74.886 25.8144 72.3389 27.5374C72.2056 27.6483 72.102 27.7764 72.0546 27.927C72.2027 27.8246 72.3539 27.734 72.52 27.6519C73.8484 26.995 76.4463 28.6433 72.6946 32.0932ZM74.2915 37.4447C70.9337 38.9963 67.3436 40.0084 63.6679 40.4668C63.6679 40.4668 64.325 40.7671 67.1208 40.206C71.4037 39.3467 77.7592 37.1925 77.3785 35.1633C77.4167 35.1656 77.3132 35.9956 74.2915 37.4447Z" fill="#FAFAFA"/>
<g clip-path="url(#clip5_367_3824)">
<path d="M2.17726 40.1442L4.37117 48.3319M5.45237 39.2666L7.64627 47.4544M0.379103 43.2587L8.56687 41.0647M1.25667 46.5338L9.44443 44.3399M1.91484 48.9901L1.34474 49.4956C0.732576 50.0389 -0.00833433 50.4165 -0.807583 50.5927C-1.60683 50.7689 -2.43786 50.7378 -3.2217 50.5024C-4.00554 50.2669 -4.71614 49.8349 -5.28597 49.2474C-5.8558 48.6599 -6.26593 47.9365 -6.47739 47.1458L-6.62482 46.5956C-6.83652 45.8052 -6.84271 44.9738 -6.64278 44.1803C-6.44284 43.3869 -6.04344 42.6577 -5.48247 42.062C-4.9215 41.4663 -4.21759 41.0238 -3.43755 40.7766C-2.65752 40.5294 -1.82725 40.4857 -1.02556 40.6496L-0.279068 40.8023M-8.50986 52.6609L-11.1426 42.8356L-2.85297 34.4715L8.50808 37.5703L11.1408 47.3956L2.85118 55.7597L-8.50986 52.6609Z" stroke="#FAFAFA" stroke-width="1.69532"/>
</g>
<g clip-path="url(#clip6_367_3824)">
<path d="M62.3753 -9.83468L64.8826 -0.477235L69.5613 -1.73089M59.8905 -0.393255L61.3736 0.46301M48.1937 2.74089C48.2768 3.05111 48.4797 3.31561 48.7579 3.47619C49.036 3.63677 49.3665 3.68028 49.6768 3.59716L52.0161 2.97033C52.3263 2.88721 52.5908 2.68426 52.7514 2.40612C52.912 2.12799 52.9555 1.79745 52.8724 1.48723L52.2456 -0.852126C52.1624 -1.16234 51.9595 -1.42684 51.6813 -1.58742C51.4032 -1.748 51.0727 -1.79151 50.7625 -1.70839L48.4231 -1.08156C48.1129 -0.998439 47.7823 -1.04195 47.5042 -1.20254C47.2261 -1.36312 47.0231 -1.62761 46.94 -1.93783L46.3132 -4.27719C46.23 -4.58741 46.2736 -4.91794 46.4341 -5.19607C46.5947 -5.47421 46.8592 -5.67716 47.1694 -5.76028L49.5088 -6.38711C49.819 -6.47024 50.1495 -6.42672 50.4277 -6.26614C50.7058 -6.10556 50.9088 -5.84107 50.9919 -5.53085M56.5269 -8.2676C57.1473 -8.43385 57.8084 -8.34682 58.3647 -8.02566C58.9209 -7.70449 59.3268 -7.17551 59.4931 -6.55507L60.7467 -1.87635C60.913 -1.25591 60.8259 -0.594847 60.5048 -0.0385787C60.1836 0.51769 59.6546 0.923595 59.0342 1.08984C58.4138 1.25609 57.7527 1.16905 57.1964 0.847893C56.6402 0.526731 56.2343 -0.00225357 56.068 -0.622691L54.8144 -5.30141C54.6481 -5.92185 54.7351 -6.58292 55.0563 -7.13918C55.3775 -7.69545 55.9064 -8.10136 56.5269 -8.2676Z" stroke="#FAFAFA" stroke-width="2.42189" stroke-linecap="round" stroke-linejoin="round"/>
</g>
<g clip-path="url(#clip7_367_3824)">
<path d="M7.85913 -2.74915L31.2527 -9.01744L37.521 14.3762L14.1274 20.6445L7.85913 -2.74915ZM34.1097 9.31027C33.6532 8.28864 32.7179 7.57811 30.4322 7.29418C29.6247 7.15012 28.7647 7.12983 28.3829 6.65232C28.208 6.35443 28.1473 6.18263 28.1539 5.97715C28.1314 5.30829 28.8264 4.91939 29.4583 4.93814C29.8698 4.95325 30.299 5.15164 30.6447 5.56049C31.476 4.63151 31.476 4.63151 32.0615 4.00554C31.6886 3.66667 31.5107 3.52524 31.2866 3.3983C30.4884 2.87566 29.5765 2.74388 28.2541 3.13061L27.5902 3.40149C26.9744 3.73888 26.4407 4.25798 26.1859 4.82771C25.4119 6.38384 26.3202 8.49106 27.9082 9.03714C29.5051 9.67486 31.5092 9.37188 32.0088 10.242C32.5483 11.3198 31.5643 11.9752 30.4607 12.1299C29.6232 12.1662 29.0795 11.8877 28.4011 11.286L26.8918 12.7884C27.2219 13.2014 27.5104 13.3424 27.971 13.6578C30.1257 14.915 34.3423 13.6911 34.4062 10.8846C34.411 10.7893 34.456 10.1347 34.0474 9.25697L34.1097 9.31027ZM23.4614 4.59449L21.2702 5.18162C21.7764 7.07066 22.2707 8.95035 22.7776 10.8423C23.0994 12.0432 23.4562 13.1291 23.3512 13.5209C23.2095 14.2786 22.3579 14.4149 21.9501 14.3977C21.5129 14.3101 21.2465 14.0994 20.9178 13.7811C20.8289 13.6952 20.7593 13.6188 20.7428 13.6232L19.2577 15.1965C19.7195 15.7309 20.2949 16.143 20.9445 16.3293C21.9111 16.6031 23.0741 16.4639 24.1762 15.8865C24.8804 15.4617 25.4169 14.8322 25.5729 14.0382C25.8272 12.9984 25.4241 11.9155 25.086 10.673C24.5612 8.66777 24.0128 6.66782 23.4722 4.65012L23.4614 4.59449Z" fill="#FAFAFA"/>
</g>
<g clip-path="url(#clip8_367_3824)">
<path fill-rule="evenodd" clip-rule="evenodd" d="M-5.76589 25.9749L-13.038 25.9092L-19.566 9.52734L-2.02083 4.82612L0.517104 22.275L-5.76589 25.9749ZM-13.5695 16.1279L-12.8275 18.1522L-5.6369 16.2255L-5.1568 18.9803L-7.30314 20.2261L-7.30509 20.2266L-9.78236 20.2218L-10.3737 18.6073L-12.4568 19.1655L-11.2934 22.3452L-6.72755 22.3859L-2.78692 20.0659L-3.82603 14.1136L-3.92448 13.5435L-4.6756 9.24307L-15.0682 12.0278L-14.3231 14.0523L-6.39263 11.9273L-6.01236 14.1029L-13.5695 16.1279Z" fill="#FAFAFA"/>
</g>
<g clip-path="url(#clip9_367_3824)">
<path d="M168.527 45.2679L175.738 32.5232L188.44 39.9322L168.527 45.2679ZM161.744 24.5194L172.272 21.6987L164.683 35.4854L161.744 24.5194ZM173.499 21.3699L165.035 36.8013L167.386 45.5736L182.799 18.8779L173.499 21.3699Z" fill="#FAFAFA"/>
</g>
<g clip-path="url(#clip10_367_3824)">
<path fill-rule="evenodd" clip-rule="evenodd" d="M239.713 4.36669L252.021 7.72422L254.905 18.4895L245.926 27.5528L233.617 24.1936L230.733 13.4284L239.712 4.36506L239.713 4.36669ZM241.283 10.2275C239.763 10.6348 238.467 11.6293 237.68 12.9921C236.894 14.355 236.68 15.9746 237.088 17.4947C237.495 19.0147 238.489 20.3107 239.852 21.0976C241.215 21.8844 242.835 22.0977 244.355 21.6904L244.653 21.6105C246.251 21.1823 247.615 20.1357 248.444 18.7026L248.525 18.5614L247.055 17.7127L246.974 17.8539C246.371 18.8983 245.379 19.6605 244.214 19.973L243.916 20.0528C242.83 20.3437 241.673 20.1914 240.7 19.6294C239.726 19.0674 239.016 18.1416 238.725 17.0559C238.434 15.9701 238.587 14.8133 239.149 13.8398C239.711 12.8663 240.636 12.156 241.722 11.865L242.02 11.7852C243.184 11.4732 244.425 11.6374 245.47 12.2404L245.611 12.3219L246.46 10.8518L246.319 10.7703C245.608 10.3605 244.825 10.0946 244.012 9.9878C243.199 9.88096 242.373 9.93527 241.581 10.1476L241.283 10.2275Z" fill="#FAFAFA"/>
</g>
<g clip-path="url(#clip11_367_3824)">
<path fill-rule="evenodd" clip-rule="evenodd" d="M219.237 19.1838C218.02 14.6413 211.534 12.4319 204.751 14.2494C197.968 16.0669 193.456 21.223 194.673 25.7655C195.758 29.814 201.027 32.0005 206.961 31.1448L207.665 33.7687L211.854 32.6452L211.155 30.0362C212.119 29.6622 213.047 29.2042 213.931 28.6672L216.488 31.4064L221.222 30.136L217.08 26.0887C218.982 23.9768 219.858 21.5015 219.237 19.1838ZM199.665 25.0863C198.833 21.9808 202.337 18.3432 207.493 16.9617C212.648 15.5803 216.915 16.2829 217.96 20.1841C218.229 21.1431 218.203 22.1608 217.887 23.1051C217.57 24.0494 216.977 24.8767 216.184 25.4796C216.085 25.4464 215.984 25.4186 215.881 25.3962C215.453 25.324 215.021 25.2812 214.587 25.2681C214.587 25.2681 218.176 24.015 217.199 20.3691C216.222 16.7232 212.372 17.6816 212.372 17.6816L203.959 19.9358L206.315 28.7303C202.943 28.6608 200.263 27.318 199.665 25.0863ZM212.154 23.4746L209.616 24.1555L208.987 21.8042L211.524 21.1244C211.676 21.071 211.838 21.0507 211.999 21.065C212.16 21.0793 212.316 21.1279 212.457 21.2074C212.597 21.2868 212.719 21.3955 212.815 21.526C212.91 21.6564 212.976 21.8058 213.009 21.9639C213.056 22.1192 213.07 22.2824 213.052 22.4436C213.034 22.6048 212.984 22.7607 212.904 22.9019C212.824 23.043 212.716 23.1665 212.587 23.265C212.458 23.3634 212.311 23.4347 212.154 23.4746ZM210.402 27.2301L211.528 26.9285C211.634 26.9016 211.745 26.8971 211.854 26.9151C211.962 26.9331 212.065 26.9734 212.158 27.0333C212.373 27.1525 212.573 27.2979 212.753 27.4661C212.066 27.737 211.366 27.9703 210.654 28.165L210.402 27.2301Z" fill="#FAFAFA"/>
</g>
<g clip-path="url(#clip12_367_3824)">
<path d="M140.892 35.5928C133.141 37.6696 127.74 42.6558 128.834 46.735C129.927 50.8143 137.097 52.4339 144.848 50.3571C152.599 48.2803 157.999 43.2923 156.906 39.2131C155.813 35.1338 148.642 33.516 140.892 35.5928ZM141.089 36.3297C148.607 34.3152 155.237 35.9322 156.169 39.4105C157.101 42.8889 152.164 47.6069 144.651 49.6202C137.132 51.6347 130.502 50.0159 129.57 46.5376C128.638 43.0593 133.576 38.343 141.089 36.3297ZM139.777 38.2497L140.318 45.9464L141.901 45.5221L141.595 41.1097C142.884 40.7644 143.404 40.5706 143.705 40.7596C144.018 40.955 143.97 41.2744 144.225 44.8985L145.83 44.4684C145.571 40.7205 145.675 39.8821 144.875 39.4637C144.112 39.0635 142.872 39.502 141.504 39.8685L141.361 37.8252L139.777 38.2497ZM133.659 41.9764L134.201 49.6783L135.795 49.2512L135.651 47.2053C137.434 46.7276 138.577 46.5606 139.343 45.3274C140.197 43.9826 139.996 42.0498 138.939 41.339C138.388 40.9658 137.646 40.908 136.727 41.1541L133.659 41.9764ZM146.109 38.6404L146.649 46.343L148.245 45.9152L148.101 43.8693C149.976 43.3669 151.043 43.1976 151.794 41.9914C152.647 40.6466 152.447 38.7135 151.39 38.0028C150.839 37.6296 150.097 37.5718 149.177 37.8182L146.109 38.6404ZM136.466 42.4605C137.47 42.2218 138.095 42.2798 138.19 43.5943C138.318 45.4442 137.06 45.5868 135.571 45.9857L135.345 42.7629C135.757 42.6524 136.131 42.54 136.466 42.4605ZM148.917 39.1243C149.922 38.8851 150.542 38.9447 150.636 40.2595C150.766 42.136 149.466 42.2626 148.016 42.6509L147.79 39.4281C148.205 39.3169 148.583 39.2035 148.917 39.1243Z" fill="#FAFAFA"/>
</g>
<g clip-path="url(#clip13_367_3824)">
<path d="M119.76 59.2376C117.426 61.5681 113.692 62.7441 109.428 62.1315C106.08 61.6468 102.957 60.1578 100.473 57.8613C101.429 58.2947 102.495 58.5734 103.602 58.778C108.036 59.5582 111.932 58.3765 114.247 55.9259C109.493 53.9527 105.08 50.9104 101.726 48.3613C101.059 47.976 100.498 47.4244 99.9432 46.9461C111.524 51.4276 111.586 53.3418 102.446 45.0094C109.714 49.255 115.901 51.1072 115.901 51.1072C116.117 51.1624 116.244 51.216 116.391 51.2517C116.43 50.928 116.454 50.5957 116.451 50.2579C116.482 46.6767 114.404 43.1339 111.257 40.6049C117.441 42.3955 122.216 47.5848 122.252 53.0037C122.251 53.1418 122.25 53.2798 122.315 53.4756C125.822 56.0837 126.045 59.7223 125.531 59.1582C123.366 56.7419 120.943 58.3189 119.76 59.2376Z" fill="#FAFAFA"/>
</g>
<g clip-path="url(#clip14_367_3824)">
<path d="M202.426 -23.9033C205.509 -24.1901 206.893 -22.3923 207.413 -20.2626L207.401 -20.3094L210.747 -2.48876L193.775 3.32489L193.787 3.32175C192.333 3.64877 189.102 4.36403 187.753 -0.0634024L188.572 -3.41699L193.836 3.27099L194.208 -6.38163L194.153 -6.35426L194.17 -6.38393L203.959 -5.92294L199.193 -14.3994L207.646 -17.241L199.388 -20.9706L202.423 -23.915L202.426 -23.9033ZM189.086 -15.1135C191.623 -19.4917 195.558 -22.7274 197.744 -21.4453C199.913 -20.1834 199.246 -15.4665 196.705 -11.0999C194.118 -6.72084 190.285 -3.38705 188.101 -4.65746C185.915 -5.93957 186.521 -10.7406 189.074 -15.1103L189.086 -15.1135Z" fill="#FAFAFA"/>
</g>
<g clip-path="url(#clip15_367_3824)">
<path d="M168.61 -7.40794L170.803 0.779821M171.885 -8.2855L174.079 -0.0977403M166.811 -4.29344L174.999 -6.48735M167.689 -1.01834L175.877 -3.21224M168.347 1.43799L167.777 1.94353C167.165 2.48677 166.424 2.86444 165.625 3.04065C164.825 3.21685 163.994 3.18574 163.211 2.95028C162.427 2.71481 161.716 2.2828 161.146 1.69532C160.577 1.10783 160.166 0.384389 159.955 -0.406266L159.807 -0.956484C159.596 -1.74689 159.59 -2.57829 159.79 -3.37175C159.989 -4.16522 160.389 -4.89442 160.95 -5.49013C161.511 -6.08584 162.215 -6.5283 162.995 -6.77549C163.775 -7.02268 164.605 -7.06641 165.407 -6.90253L166.153 -6.74977M157.922 5.10884L155.29 -4.71647L163.579 -13.0806L174.94 -9.98184L177.573 -0.156526L169.283 8.20759L157.922 5.10884Z" stroke="#FAFAFA" stroke-width="1.69532"/>
</g>
<g clip-path="url(#clip16_367_3824)">
<path d="M117.68 -1.91016L142.243 -8.49187L148.825 16.0714L124.261 22.6531L117.68 -1.91016ZM137.728 14.4521C138.769 15.6066 140.422 16.2608 142.578 15.683C144.761 15.098 146.095 13.5266 145.536 11.4387C145.02 9.51456 143.684 8.95102 141.493 8.63149L140.854 8.53943C139.744 8.38332 139.244 8.2101 139.062 7.52779C138.912 6.96829 139.218 6.41826 139.9 6.23543C140.555 6.05992 141.068 6.22949 141.654 6.83305L143.124 5.16683C142.022 4.05789 140.823 3.83819 139.362 4.22943C137.302 4.78157 136.329 6.44629 136.794 8.17936C137.298 10.0625 138.641 10.6534 140.496 10.9169L141.135 11.009C142.324 11.1877 143.028 11.3061 143.24 12.0976C143.416 12.7526 142.93 13.3948 141.975 13.6507C140.842 13.9542 140.03 13.5429 139.319 12.8558L137.728 14.4521ZM134.343 5.69151L127.519 7.51976L128.068 9.56671L130.115 9.01823L132.766 18.9118L135.154 18.2719L132.503 8.37834L134.891 7.73845L134.343 5.69151Z" fill="#FAFAFA"/>
</g>
<g clip-path="url(#clip17_367_3824)">
<path d="M113.47 13.2588L112.261 12.956L112.198 12.7221L112.797 11.6839C112.883 11.5356 112.82 11.3017 112.672 11.2161L112.524 11.1304L111.377 11.0616C111.346 10.9446 111.314 10.8277 111.197 10.859L111.648 9.73523C111.734 9.58692 111.671 9.35298 111.406 9.2987C111.406 9.2987 111.289 9.33004 111.258 9.21307L110.025 9.29255C109.994 9.17558 109.877 9.20692 109.846 9.08995L110.031 7.91188L109.937 7.56097C109.789 7.47535 109.672 7.50669 109.555 7.53803L108.386 7.85144C108.386 7.85144 108.354 7.73448 108.237 7.76582L108.158 6.53345C108.095 6.29952 107.947 6.21389 107.83 6.24523L107.713 6.27657L106.606 6.82392C106.574 6.70696 106.457 6.7383 106.309 6.65267L105.996 5.48299C105.933 5.24905 105.785 5.16343 105.551 5.22611L105.434 5.25745L104.507 6.0074L104.39 6.03874L103.842 4.93174C103.78 4.69781 103.514 4.64352 103.429 4.79183L103.312 4.82317L102.564 5.77571C102.447 5.80705 102.33 5.8384 102.299 5.72143L101.666 4.76274C101.517 4.67711 101.369 4.59149 101.135 4.65417C101.135 4.65417 101.018 4.68551 101.05 4.80248L100.333 5.87199L100.099 5.93467L99.2637 5.15563C99.084 4.95304 98.8501 5.01572 98.6161 5.0784L98.5305 5.22671L98.2277 6.43613L97.9938 6.49882L96.9556 5.89943C96.8073 5.81381 96.5734 5.87649 96.4878 6.0248L96.4021 6.17311L96.3333 7.31984C96.2163 7.35119 96.0994 7.38253 96.1307 7.4995L95.0069 7.04842C94.7416 6.99413 94.5077 7.05682 94.4534 7.32209L94.4848 7.43906L94.5642 8.67143C94.5642 8.67143 94.4473 8.70277 94.3616 8.85108L93.1836 8.66528C93.0353 8.57965 92.8327 8.7593 92.747 8.90761L93.0918 10.1943C93.1231 10.3112 93.0062 10.3426 93.0375 10.4595L91.8051 10.539C91.5399 10.4847 91.4542 10.633 91.5169 10.867L91.5483 10.9839L92.0956 12.0909C91.9786 12.1223 92.01 12.2393 91.893 12.2706L90.7233 12.584C90.4894 12.6467 90.4038 12.795 90.4665 13.0289L90.4978 13.1459L91.2477 14.0733L91.3104 14.3072L90.2034 14.8545C89.9695 14.9172 89.9152 15.1825 89.9466 15.2995L89.9779 15.4164L90.9304 16.1641C90.9618 16.2811 90.9931 16.3981 90.8761 16.4294L90.0658 17.148C89.9801 17.2963 89.8945 17.4446 89.9572 17.6786C89.9572 17.6786 89.9885 17.7955 90.1055 17.7642L91.1437 18.3636L91.2064 18.5975L90.4273 19.4331C90.2247 19.6127 90.2874 19.8467 90.3188 19.9636L90.4671 20.0493L91.7078 20.469L91.7705 20.7029L91.1711 21.7411C91.0855 21.8894 91.1482 22.1234 91.2965 22.209L91.4448 22.2946L92.5915 22.3634C92.6229 22.4804 92.6542 22.5974 92.7712 22.566L92.3201 23.6898C92.2345 23.8381 92.2972 24.0721 92.5624 24.1264C92.5624 24.1264 92.6794 24.095 92.7107 24.212L93.9431 24.1325C93.9745 24.2495 94.0914 24.2181 94.1228 24.3351L93.937 25.5132C93.8513 25.6615 94.031 25.8641 94.1793 25.9497L95.4659 25.605C95.5829 25.5736 95.6143 25.6906 95.7312 25.6592L95.8107 26.8916C95.8734 27.1255 96.0217 27.2112 96.1387 27.1798L96.2556 27.1485L97.3626 26.6011C97.394 26.7181 97.5109 26.6868 97.6592 26.7724L97.9727 27.9421C98.0353 28.176 98.1837 28.2616 98.4176 28.1989L98.5346 28.1676L99.4619 27.4177L99.5789 27.3863L100.126 28.4933C100.189 28.7272 100.454 28.7815 100.54 28.6332L100.657 28.6019L101.404 27.6493C101.521 27.618 101.638 27.5867 101.67 27.7036L102.303 28.6623C102.451 28.7479 102.599 28.8336 102.833 28.7709C102.833 28.7709 102.95 28.7395 102.919 28.6226L103.635 27.5531L103.869 27.4904L104.705 28.2694C104.853 28.355 105.118 28.4093 105.204 28.261L105.29 28.1127L105.624 27.0203L105.858 26.9576L106.896 27.557C107.044 27.6426 107.278 27.5799 107.364 27.4316L107.449 27.2833L107.518 26.1366C107.635 26.1052 107.752 26.0739 107.721 25.9569L108.845 26.408C108.993 26.4936 109.227 26.4309 109.281 26.1656C109.281 26.1656 109.25 26.0487 109.367 26.0173L109.287 24.785C109.404 24.7536 109.373 24.6367 109.49 24.6053L110.668 24.7911C110.816 24.8767 111.019 24.6971 111.104 24.5488L110.76 23.2621L110.931 22.9655L112.163 22.886C112.397 22.8234 112.483 22.675 112.452 22.5581L112.42 22.4411L111.873 21.3341L112.044 21.0375L113.214 20.7241C113.448 20.6614 113.533 20.5131 113.471 20.2791L113.439 20.1622L112.689 19.2348C112.658 19.1179 112.775 19.0865 112.744 18.9696L113.851 18.4222C114.085 18.3595 114.139 18.0942 113.991 18.0086L113.959 17.8917L113.007 17.144L113.061 16.8787L114.02 16.2457C114.105 16.0974 114.191 15.9491 114.128 15.7151C114.128 15.7151 114.097 15.5982 113.98 15.6295L112.825 15.0615L112.762 14.8275L113.541 13.992C113.744 13.8123 113.681 13.5784 113.47 13.2588C113.501 13.3758 113.501 13.3758 113.47 13.2588ZM108.997 23.233C108.615 23.2101 108.287 22.9219 108.193 22.571C108.215 22.1887 108.504 21.8608 108.855 21.7667C109.237 21.7897 109.565 22.0779 109.659 22.4288C109.784 22.8967 109.496 23.2246 108.997 23.233ZM108.167 21.0733C107.785 21.0504 107.497 21.3784 107.591 21.7293L107.562 23.4922C106.634 24.2421 105.527 24.7895 104.241 25.1342C102.954 25.479 101.722 25.5585 100.395 25.287L99.6057 23.7435C99.3947 23.4239 99.0981 23.2527 98.7785 23.4637L97.469 24.1907C97.1723 24.0194 96.8444 23.7312 96.5478 23.56L103.566 21.6795C103.683 21.6481 103.683 21.6481 103.651 21.5312L102.993 19.0748C102.962 18.9579 102.962 18.9579 102.845 18.9892L100.857 19.522L100.449 18.0014L102.671 17.4059C102.905 17.3433 103.724 17.1239 104.389 18.1995C104.6 18.5191 105.03 19.6574 105.358 19.9456C105.569 20.2652 106.373 20.9273 106.958 20.7706L110.584 19.799C110.444 20.2126 110.273 20.5092 110.016 20.9541L108.167 21.0733ZM99.0545 25.8971C98.7349 26.1081 98.3213 25.9682 98.079 25.5316C97.868 25.2121 98.0079 24.7985 98.4444 24.5561C98.881 24.3138 99.1776 24.4851 99.4199 24.9216C99.5139 25.2725 99.374 25.6861 99.0545 25.8971ZM93.4808 15.8569C93.6918 16.1764 93.7002 16.6756 93.3806 16.8866C93.0611 17.0976 92.5618 17.106 92.3508 16.7865C92.1399 16.4669 92.1315 15.9677 92.451 15.7567C92.8875 15.5144 93.2698 15.5373 93.4808 15.8569ZM93.1635 17.9477L94.5274 16.9555C94.8469 16.7445 94.8699 16.3622 94.6589 16.0427L94.1199 15.4349L95.2896 15.1215L96.7626 20.619L94.4233 21.2458C93.759 20.1701 93.3599 19.1488 93.1635 17.9477ZM99.5883 15.7247L99.1495 14.0872L102.074 13.3037C102.191 13.2723 103.158 13.1386 103.346 13.8404C103.503 14.4252 102.863 14.8472 102.279 15.0039L99.5883 15.7247ZM110.492 14.3076L110.648 14.8925L109.713 15.1432C109.596 15.1745 109.596 15.1745 109.627 15.2915L109.721 15.6424C109.972 16.5782 109.449 16.9688 108.982 17.0942C108.514 17.2195 107.983 17.111 107.804 16.9084C107.162 15.4505 106.632 15.3419 105.773 14.9451C106.435 14.1409 107.152 13.0714 106.869 12.0187C106.556 10.849 105.549 10.3666 104.987 10.141C104.043 9.89254 103.193 9.99496 102.959 10.0576L94.0695 12.4396C94.9801 10.6912 96.3669 9.3167 98.1444 8.46433L99.5105 9.35194C99.8071 9.52319 100.158 9.42917 100.446 9.10121L101.302 7.61811C103.884 7.42781 106.397 8.38425 108.279 10.2619L107.962 12.3528C107.939 12.735 108.15 13.0546 108.532 13.0775L110.241 13.3719L110.492 14.3076ZM98.9777 7.36348C99.1489 7.06686 99.6168 6.9415 99.9134 7.11275C100.21 7.284 100.335 7.75187 100.164 8.04849C99.9073 8.49342 99.5564 8.58745 99.1114 8.33057C98.8148 8.15931 98.8378 7.77707 98.9777 7.36348ZM108.804 11.7511C108.827 11.3689 109.263 11.1265 109.645 11.1495C110.028 11.1724 110.27 11.609 110.247 11.9912C110.224 12.3735 109.787 12.6158 109.405 12.5928C109.023 12.5699 108.781 12.1334 108.804 11.7511Z" fill="#FAFAFA"/>
</g>
<g clip-path="url(#clip18_367_3824)">
<path d="M305.343 -13.9406C297.592 -11.8639 292.192 -6.87765 293.285 -2.79839C294.378 1.28087 301.549 2.90042 309.299 0.823653C317.05 -1.25311 322.45 -6.24109 321.357 -10.3203C320.264 -14.3996 313.094 -16.0174 305.343 -13.9406ZM305.541 -13.2037C313.059 -15.2182 319.688 -13.6012 320.62 -10.1229C321.552 -6.64456 316.615 -1.92654 309.102 0.0867565C301.584 2.10123 294.954 0.482497 294.022 -2.99584C293.09 -6.47418 298.027 -11.1904 305.541 -13.2037ZM304.228 -11.2837L304.769 -3.58706L306.353 -4.01135L306.047 -8.42373C307.335 -8.76904 307.855 -8.96283 308.157 -8.77382C308.469 -8.57839 308.422 -8.25902 308.676 -4.6349L310.282 -5.06507C310.022 -8.81291 310.126 -9.65138 309.326 -10.0697C308.563 -10.47 307.323 -10.0314 305.956 -9.66493L305.812 -11.7083L304.228 -11.2837ZM298.11 -7.55705L298.652 0.144897L300.246 -0.282209L300.102 -2.32817C301.885 -2.80582 303.028 -2.97286 303.795 -4.20603C304.648 -5.5508 304.447 -7.48367 303.391 -8.19444C302.839 -8.56761 302.097 -8.6254 301.179 -8.37929L298.11 -7.55705ZM310.56 -10.893L311.1 -3.19039L312.696 -3.6182L312.552 -5.66416C314.427 -6.16649 315.494 -6.33578 316.245 -7.54202C317.098 -8.88679 316.898 -10.8199 315.842 -11.5307C315.29 -11.9038 314.548 -11.9616 313.629 -11.7153L310.56 -10.893ZM300.917 -7.0729C301.921 -7.31163 302.546 -7.25364 302.641 -5.93914C302.769 -4.0892 301.511 -3.94664 300.022 -3.54774L299.796 -6.77051C300.208 -6.88099 300.582 -6.99347 300.917 -7.0729ZM313.368 -10.4091C314.373 -10.6483 314.993 -10.5887 315.087 -9.27395C315.217 -7.3974 313.917 -7.27088 312.468 -6.88256L312.242 -10.1053C312.657 -10.2165 313.034 -10.3299 313.368 -10.4091Z" fill="#FAFAFA"/>
</g>
<path d="M284.211 9.70421C281.877 12.0346 278.142 13.2107 273.879 12.598C270.531 12.1134 267.408 10.6244 264.924 8.32791C265.88 8.76125 266.946 9.04001 268.053 9.24461C272.487 10.0248 276.383 8.84306 278.698 6.39253C273.944 4.41927 269.531 1.37695 266.177 -1.1721C265.51 -1.55742 264.949 -2.10902 264.394 -2.5873C275.975 1.8942 276.037 3.80833 266.897 -4.524C274.165 -0.278379 280.352 1.57382 280.352 1.57382C280.568 1.62895 280.695 1.68262 280.842 1.71832C280.881 1.39456 280.905 1.06224 280.902 0.724484C280.933 -2.8567 278.855 -6.39949 275.708 -8.9285C281.892 -7.13792 286.667 -1.94858 286.703 3.47029C286.702 3.60836 286.701 3.74643 286.766 3.94214C290.273 6.55028 290.496 10.1889 289.982 9.62476C287.817 7.20845 285.394 8.78547 284.211 9.70421Z" fill="#FAFAFA"/>
<path d="M95.4082 116.743C95.4082 116.743 87.9436 120.887 92.9617 124.269C94.4442 125.263 93.3306 126.815 93.3306 126.815C93.3306 126.815 95.8045 124.585 93.9696 123.071C92.269 121.684 91.1045 121.081 95.4082 116.743ZM90.5559 119.548C94.2901 114.535 91.2053 112.754 91.2053 112.754C93.2221 116.351 89.0907 118.712 88.1339 121.551C87.4732 123.483 89.584 124.81 92.3135 126.248C90.9502 124.482 87.5568 123.561 90.5559 119.548ZM90.6382 132.3C87.3051 134.272 93.6615 134.787 97.7115 131.609C97.2201 131.552 96.7309 131.458 96.2557 131.322C94.762 132.111 93.1433 132.62 91.4696 132.83C89.8872 133.053 90.6382 132.3 90.6382 132.3ZM96.3344 128.668C94.4065 129.661 92.3176 130.333 90.1698 130.646C88.5968 130.904 89.4021 129.886 89.4021 129.886C85.7793 132.273 92.3533 132.104 97.4417 129.011C97.068 128.973 96.6809 128.838 96.3344 128.668ZM101.369 131.456C101.369 131.456 102.183 131.827 100.916 132.618C98.4618 134.128 90.1644 136.615 87.5789 136.229C86.6513 136.089 88.0839 135.166 88.547 134.929C88.7972 134.787 89.0599 134.692 89.329 134.619C88.2357 134.235 83.6733 137.514 87.2563 137.131C96.9861 136.153 104.075 131.872 101.369 131.456ZM96.6408 126.63C96.9205 126.317 97.233 126.033 97.5634 125.769C97.5634 125.769 95.8786 126.546 94.1563 127.183C92.335 127.872 90.458 128.4 88.5489 128.761C85.703 129.135 89.6817 126.953 89.6817 126.953C88.3951 127.298 87.2133 127.94 86.2206 128.82C84.1362 130.633 92.6404 128.918 96.6408 126.63ZM98.452 129.179C98.4412 129.232 98.4272 129.273 98.3898 129.321C103.839 126.218 100.643 122.9 98.0963 124.623C97.9631 124.734 97.8595 124.862 97.8121 125.012C97.9602 124.91 98.1114 124.819 98.2774 124.737C99.6058 124.081 102.204 125.729 98.452 129.179ZM100.049 134.53C96.6912 136.082 93.1011 137.094 89.4253 137.552C89.4253 137.552 90.0825 137.853 92.8782 137.292C97.1612 136.432 103.517 134.278 103.136 132.249C103.174 132.251 103.071 133.081 100.049 134.53Z" fill="#FAFAFA"/>
<g clip-path="url(#clip19_367_3824)">
<path d="M88.1326 87.2508L90.6399 96.6082L95.3187 95.3546M85.6478 96.6922L87.1309 97.5485M73.951 99.8264C74.0341 100.137 74.2371 100.401 74.5152 100.562C74.7933 100.722 75.1239 100.766 75.4341 100.683L77.7734 100.056C78.0837 99.9727 78.3482 99.7697 78.5087 99.4916C78.6693 99.2135 78.7128 98.8829 78.6297 98.5727L78.0029 96.2334C77.9198 95.9231 77.7168 95.6586 77.4387 95.4981C77.1605 95.3375 76.83 95.294 76.5198 95.3771L74.1804 96.0039C73.8702 96.087 73.5397 96.0435 73.2615 95.8829C72.9834 95.7224 72.7804 95.4579 72.6973 95.1477L72.0705 92.8083C71.9874 92.4981 72.0309 92.1675 72.1915 91.8894C72.352 91.6113 72.6165 91.4083 72.9268 91.3252L75.2661 90.6984C75.5763 90.6152 75.9069 90.6588 76.185 90.8193C76.4631 90.9799 76.6661 91.2444 76.7492 91.5546M82.2842 88.8179C82.9046 88.6516 83.5657 88.7387 84.122 89.0598C84.6782 89.381 85.0842 89.91 85.2504 90.5304L86.5041 95.2091C86.6703 95.8296 86.5833 96.4906 86.2621 97.0469C85.9409 97.6032 85.412 98.0091 84.7915 98.1753C84.1711 98.3416 83.51 98.2545 82.9538 97.9334C82.3975 97.6122 81.9916 97.0832 81.8253 96.4628L80.5717 91.7841C80.4054 91.1636 80.4925 90.5026 80.8136 89.9463C81.1348 89.39 81.6638 88.9841 82.2842 88.8179Z" stroke="#FAFAFA" stroke-width="2.42189" stroke-linecap="round" stroke-linejoin="round"/>
</g>
<g clip-path="url(#clip20_367_3824)">
<path d="M33.6166 94.3364L57.0102 88.0681L63.2785 111.462L39.8849 117.73L33.6166 94.3364ZM59.8672 106.396C59.4106 105.374 58.4753 104.664 56.1897 104.38C55.3822 104.236 54.5222 104.215 54.1403 103.738C53.9654 103.44 53.9048 103.268 53.9114 103.063C53.8889 102.394 54.5839 102.005 55.2157 102.024C55.6272 102.039 56.0565 102.237 56.4021 102.646C57.2334 101.717 57.2334 101.717 57.8189 101.091C57.4461 100.752 57.2682 100.611 57.044 100.484C56.2458 99.9612 55.334 99.8294 54.0116 100.216L53.3476 100.487C52.7318 100.824 52.1981 101.343 51.9433 101.913C51.1693 103.469 52.0776 105.577 53.6657 106.123C55.2626 106.76 57.2667 106.457 57.7662 107.328C58.3057 108.405 57.3217 109.061 56.2182 109.215C55.3806 109.252 54.8369 108.973 54.1586 108.371L52.6493 109.874C52.9794 110.287 53.2679 110.428 53.7285 110.743C55.8831 112 60.0997 110.777 60.1636 107.97C60.1684 107.875 60.2135 107.22 59.8048 106.342L59.8672 106.396ZM49.2189 101.68L47.0277 102.267C47.5339 104.156 48.0281 106.036 48.5351 107.928C48.8568 109.129 49.2136 110.215 49.1086 110.606C48.9669 111.364 48.1154 111.5 47.7075 111.483C47.2704 111.396 47.0039 111.185 46.6752 110.867C46.5864 110.781 46.5168 110.704 46.5002 110.709L45.0152 112.282C45.477 112.816 46.0523 113.228 46.7019 113.415C47.6685 113.689 48.8316 113.549 49.9337 112.972C50.6379 112.547 51.1744 111.918 51.3304 111.124C51.5846 110.084 51.1816 109.001 50.8434 107.759C50.3187 105.753 49.7703 103.753 49.2296 101.736L49.2189 101.68Z" fill="#FAFAFA"/>
</g>
<g clip-path="url(#clip21_367_3824)">
<path d="M9.34766 100.839L11.8605 100.166L12.1421 101.217L10.68 101.608L10.9615 102.659L12.4236 102.267L12.7052 103.318L10.1923 103.992L9.34766 100.839ZM12.3625 100.031L14.8763 99.3578L15.1213 100.272L13.6592 100.664L13.7081 100.846L15.1702 100.454L15.7333 102.556L13.2194 103.229L12.9624 102.27L14.4245 101.879L14.3754 101.695L12.9133 102.087L12.3625 100.031ZM15.3793 99.223L17.8912 98.55L18.1362 99.4643L16.6741 99.8561L16.7229 100.038L18.185 99.6466L18.7481 101.748L16.2362 102.421L15.9792 101.462L17.4413 101.07L17.3922 100.887L15.9301 101.279L15.3793 99.223Z" fill="#FAFAFA"/>
<path fill-rule="evenodd" clip-rule="evenodd" d="M19.9915 123.06L12.7194 122.995L6.19135 106.613L23.7366 101.912L26.2745 119.361L19.9915 123.06ZM12.1879 113.213L12.9299 115.238L20.1205 113.311L20.6006 116.066L18.4542 117.312L18.4523 117.312L15.975 117.307L15.3836 115.693L13.3006 116.251L14.464 119.431L19.0298 119.471L22.9705 117.151L21.9314 111.199L21.8329 110.629L21.0818 106.329L10.6892 109.113L11.4343 111.138L19.3648 109.013L19.745 111.188L12.1879 113.213Z" fill="#FAFAFA"/>
</g>
<g clip-path="url(#clip22_367_3824)">
<path fill-rule="evenodd" clip-rule="evenodd" d="M265.47 101.452L277.778 104.81L280.663 115.575L271.683 124.638L259.375 121.279L256.49 110.514L265.47 101.451L265.47 101.452ZM267.041 107.313C265.521 107.72 264.225 108.715 263.438 110.078C262.651 111.44 262.438 113.06 262.845 114.58C263.252 116.1 264.247 117.396 265.61 118.183C266.973 118.97 268.592 119.183 270.112 118.776L270.41 118.696C272.008 118.268 273.373 117.221 274.201 115.788L274.283 115.647L272.813 114.798L272.731 114.939C272.129 115.984 271.136 116.746 269.971 117.058L269.673 117.138C268.588 117.429 267.431 117.277 266.457 116.715C265.484 116.153 264.774 115.227 264.483 114.141C264.192 113.056 264.344 111.899 264.906 110.925C265.468 109.952 266.394 109.241 267.48 108.951L267.778 108.871C268.942 108.559 270.183 108.723 271.227 109.326L271.368 109.407L272.217 107.937L272.076 107.856C271.366 107.446 270.582 107.18 269.769 107.073C268.956 106.966 268.131 107.021 267.339 107.233L267.041 107.313Z" fill="#FAFAFA"/>
</g>
<g clip-path="url(#clip23_367_3824)">
<path fill-rule="evenodd" clip-rule="evenodd" d="M244.994 116.269C243.777 111.727 237.291 109.517 230.508 111.335C223.725 113.152 219.214 118.309 220.431 122.851C221.516 126.9 226.785 129.086 232.719 128.23L233.422 130.854L237.611 129.731L236.912 127.122C237.876 126.748 238.805 126.29 239.688 125.753L242.245 128.492L246.979 127.222L242.837 123.174C244.739 121.062 245.615 118.587 244.994 116.269ZM225.422 122.172C224.59 119.066 228.094 115.429 233.25 114.047C238.406 112.666 242.672 113.368 243.717 117.27C243.986 118.229 243.961 119.246 243.644 120.191C243.327 121.135 242.734 121.962 241.941 122.565C241.842 122.532 241.741 122.504 241.639 122.482C241.211 122.409 240.778 122.367 240.344 122.354C240.344 122.354 243.933 121.101 242.956 117.455C241.979 113.809 238.129 114.767 238.129 114.767L229.716 117.021L232.073 125.816C228.7 125.746 226.02 124.403 225.422 122.172ZM237.911 120.56L235.373 121.241L234.744 118.89L237.281 118.21C237.434 118.156 237.596 118.136 237.757 118.151C237.918 118.165 238.073 118.213 238.214 118.293C238.355 118.372 238.477 118.481 238.572 118.611C238.667 118.742 238.733 118.891 238.766 119.049C238.813 119.205 238.828 119.368 238.81 119.529C238.792 119.69 238.741 119.846 238.661 119.987C238.581 120.128 238.474 120.252 238.345 120.35C238.216 120.449 238.068 120.52 237.911 120.56ZM236.16 124.316L237.285 124.014C237.392 123.987 237.503 123.983 237.611 124.001C237.719 124.019 237.823 124.059 237.915 124.119C238.13 124.238 238.33 124.383 238.51 124.552C237.824 124.822 237.123 125.056 236.411 125.25L236.16 124.316Z" fill="#FAFAFA"/>
</g>
<g clip-path="url(#clip24_367_3824)">
<path d="M228.184 73.1822C231.266 72.8953 232.65 74.6932 233.171 76.8229L233.158 76.7761L236.504 94.5967L219.533 100.41L219.544 100.407C218.09 100.734 214.859 101.45 213.51 97.0221L214.329 93.6685L219.594 100.356L219.966 90.7038L219.91 90.7312L219.928 90.7016L229.717 91.1625L224.951 82.6861L233.404 79.8445L225.146 76.1149L228.18 73.1705L228.184 73.1822ZM214.843 81.972C217.381 77.5937 221.315 74.3581 223.502 75.6402C225.67 76.9021 225.003 81.619 222.462 85.9855C219.875 90.3646 216.042 93.6984 213.859 92.428C211.672 91.1459 212.279 86.3448 214.831 81.9751L214.843 81.972Z" fill="#FAFAFA"/>
</g>
<path d="M261.841 69.191C261.841 69.191 254.376 73.3349 259.394 76.7166C260.877 77.711 259.763 79.263 259.763 79.263C259.763 79.263 262.237 77.033 260.402 75.5188C258.701 74.1316 257.537 73.5285 261.841 69.191ZM256.988 71.9956C260.723 66.9833 257.638 65.2023 257.638 65.2023C259.654 68.7989 255.523 71.1596 254.566 73.9985C253.906 75.9307 256.016 77.2581 258.746 78.6956C257.383 76.9297 253.989 76.0086 256.988 71.9956ZM257.071 84.7483C253.738 86.7196 260.094 87.2354 264.144 84.0566C263.652 84.0002 263.163 83.9056 262.688 83.7697C261.194 84.5585 259.576 85.0675 257.902 85.2778C256.32 85.5012 257.071 84.7483 257.071 84.7483ZM262.767 81.1159C260.839 82.1089 258.75 82.7814 256.602 83.0937C255.029 83.3522 255.834 82.334 255.834 82.334C252.212 84.7214 258.786 84.5521 263.874 81.4586C263.5 81.4208 263.113 81.2863 262.767 81.1159ZM267.801 83.904C267.801 83.904 268.615 84.2751 267.348 85.066C264.894 86.576 256.597 89.0625 254.011 88.6771C253.084 88.5371 254.516 87.6141 254.979 87.3772C255.23 87.235 255.492 87.1395 255.761 87.0674C254.668 86.6834 250.106 89.9619 253.689 89.5785C263.418 88.6011 270.508 84.3196 267.801 83.904ZM263.073 79.0781C263.353 78.765 263.665 78.4806 263.996 78.2166C263.996 78.2166 262.311 78.994 260.589 79.631C258.767 80.3196 256.89 80.8476 254.981 81.2087C252.135 81.5826 256.114 79.4008 256.114 79.4008C254.827 79.7455 253.646 80.3881 252.653 81.2684C250.569 83.0806 259.073 81.366 263.073 79.0781ZM264.884 81.6266C264.874 81.6797 264.86 81.721 264.822 81.7687C270.272 78.6662 267.076 75.3478 264.529 77.0709C264.395 77.1818 264.292 77.3098 264.244 77.4604C264.393 77.3581 264.544 77.2674 264.71 77.1853C266.038 76.5285 268.636 78.1767 264.884 81.6266ZM266.481 86.9781C263.124 88.5297 259.533 89.5418 255.858 90.0002C255.858 90.0002 256.515 90.3005 259.311 89.7395C263.594 88.8802 269.949 86.7259 269.568 84.6967C269.607 84.699 269.503 85.5291 266.481 86.9781Z" fill="#FAFAFA"/>
<g clip-path="url(#clip25_367_3824)">
<path d="M194.367 89.6776L196.561 97.8653M197.642 88.8L199.836 96.9878M192.569 92.7921L200.756 90.5982M193.446 96.0672L201.634 93.8733M194.104 98.5235L193.534 99.0291C192.922 99.5723 192.181 99.95 191.382 100.126C190.583 100.302 189.752 100.271 188.968 100.036C188.184 99.8003 187.473 99.3683 186.904 98.7808C186.334 98.1934 185.924 97.4699 185.712 96.6793L185.565 96.129C185.353 95.3386 185.347 94.5072 185.547 93.7138C185.747 92.9203 186.146 92.1911 186.707 91.5954C187.268 90.9997 187.972 90.5572 188.752 90.31C189.532 90.0628 190.362 90.0191 191.164 90.183L191.91 90.3358M183.68 102.194L181.047 92.3691L189.337 84.0049L200.698 87.1037L203.33 96.929L195.041 105.293L183.68 102.194Z" stroke="#FAFAFA" stroke-width="1.69532"/>
</g>
<g clip-path="url(#clip26_367_3824)">
<path d="M143.437 95.1754L168 88.5937L174.582 113.157L150.019 119.739L143.437 95.1754ZM163.486 111.538C164.526 112.692 166.179 113.346 168.335 112.769C170.518 112.184 171.852 110.612 171.293 108.524C170.777 106.6 169.442 106.037 167.25 105.717L166.611 105.625C165.502 105.469 165.002 105.296 164.819 104.613C164.669 104.054 164.975 103.504 165.657 103.321C166.312 103.145 166.826 103.315 167.412 103.919L168.881 102.252C167.78 101.143 166.58 100.924 165.12 101.315C163.059 101.867 162.087 103.532 162.551 105.265C163.055 107.148 164.399 107.739 166.253 108.002L166.892 108.094C168.081 108.273 168.786 108.392 168.998 109.183C169.173 109.838 168.687 110.48 167.732 110.736C166.599 111.04 165.787 110.628 165.076 109.941L163.486 111.538ZM160.1 102.777L153.277 104.605L153.825 106.652L155.872 106.104L158.523 115.997L160.911 115.357L158.26 105.464L160.648 104.824L160.1 102.777Z" fill="#FAFAFA"/>
</g>
<g clip-path="url(#clip27_367_3824)">
<path d="M139.227 110.344L138.018 110.042L137.955 109.808L138.555 108.769C138.64 108.621 138.578 108.387 138.429 108.302L138.281 108.216L137.134 108.147C137.103 108.03 137.072 107.913 136.955 107.945L137.406 106.821C137.491 106.672 137.429 106.439 137.163 106.384C137.163 106.384 137.046 106.416 137.015 106.299L135.783 106.378C135.751 106.261 135.634 106.292 135.603 106.175L135.789 104.997L135.695 104.646C135.547 104.561 135.43 104.592 135.313 104.624L134.143 104.937C134.143 104.937 134.112 104.82 133.995 104.851L133.915 103.619C133.852 103.385 133.704 103.299 133.587 103.331L133.47 103.362L132.363 103.909C132.332 103.792 132.215 103.824 132.067 103.738L131.753 102.569C131.69 102.335 131.542 102.249 131.308 102.312L131.191 102.343L130.264 103.093L130.147 103.124L129.6 102.017C129.537 101.783 129.272 101.729 129.186 101.877L129.069 101.909L128.321 102.861C128.204 102.893 128.087 102.924 128.056 102.807L127.423 101.848C127.275 101.763 127.126 101.677 126.893 101.74C126.893 101.74 126.776 101.771 126.807 101.888L126.091 102.958L125.857 103.02L125.021 102.241C124.841 102.039 124.607 102.101 124.374 102.164L124.288 102.312L123.985 103.522L123.751 103.584L122.713 102.985C122.565 102.899 122.331 102.962 122.245 103.11L122.16 103.259L122.091 104.405C121.974 104.437 121.857 104.468 121.888 104.585L120.764 104.134C120.499 104.08 120.265 104.142 120.211 104.408L120.242 104.525L120.322 105.757C120.322 105.757 120.205 105.788 120.119 105.937L118.941 105.751C118.793 105.665 118.59 105.845 118.504 105.993L118.849 107.28C118.881 107.397 118.764 107.428 118.795 107.545L117.563 107.625C117.297 107.57 117.212 107.719 117.274 107.953L117.306 108.069L117.853 109.176C117.736 109.208 117.767 109.325 117.65 109.356L116.481 109.67C116.247 109.732 116.161 109.881 116.224 110.114L116.255 110.231L117.005 111.159L117.068 111.393L115.961 111.94C115.727 112.003 115.673 112.268 115.704 112.385L115.735 112.502L116.688 113.25C116.719 113.367 116.75 113.484 116.634 113.515L115.823 114.234C115.738 114.382 115.652 114.53 115.715 114.764C115.715 114.764 115.746 114.881 115.863 114.85L116.901 115.449L116.964 115.683L116.185 116.519C115.982 116.698 116.045 116.932 116.076 117.049L116.224 117.135L117.465 117.555L117.528 117.788L116.929 118.827C116.843 118.975 116.906 119.209 117.054 119.295L117.202 119.38L118.349 119.449C118.38 119.566 118.412 119.683 118.529 119.652L118.077 120.775C117.992 120.924 118.055 121.158 118.32 121.212C118.32 121.212 118.437 121.181 118.468 121.298L119.7 121.218C119.732 121.335 119.849 121.304 119.88 121.421L119.694 122.599C119.609 122.747 119.788 122.95 119.937 123.035L121.223 122.69C121.34 122.659 121.372 122.776 121.489 122.745L121.568 123.977C121.631 124.211 121.779 124.297 121.896 124.265L122.013 124.234L123.12 123.687C123.151 123.804 123.268 123.772 123.417 123.858L123.73 125.028C123.793 125.262 123.941 125.347 124.175 125.284L124.292 125.253L125.219 124.503L125.336 124.472L125.884 125.579C125.946 125.813 126.212 125.867 126.297 125.719L126.414 125.687L127.162 124.735C127.279 124.704 127.396 124.672 127.427 124.789L128.06 125.748C128.208 125.833 128.357 125.919 128.591 125.856C128.591 125.856 128.708 125.825 128.676 125.708L129.393 124.639L129.627 124.576L130.462 125.355C130.61 125.441 130.876 125.495 130.961 125.347L131.047 125.198L131.381 124.106L131.615 124.043L132.653 124.642C132.802 124.728 133.035 124.665 133.121 124.517L133.207 124.369L133.276 123.222C133.393 123.191 133.509 123.159 133.478 123.042L134.602 123.494C134.75 123.579 134.984 123.516 135.038 123.251C135.038 123.251 135.007 123.134 135.124 123.103L135.045 121.87C135.162 121.839 135.13 121.722 135.247 121.691L136.425 121.877C136.574 121.962 136.776 121.783 136.862 121.634L136.517 120.348L136.688 120.051L137.921 119.972C138.155 119.909 138.24 119.761 138.209 119.644L138.178 119.527L137.63 118.42L137.801 118.123L138.971 117.81C139.205 117.747 139.291 117.599 139.228 117.365L139.197 117.248L138.447 116.32C138.415 116.203 138.532 116.172 138.501 116.055L139.608 115.508C139.842 115.445 139.896 115.18 139.748 115.094L139.717 114.977L138.764 114.229L138.818 113.964L139.777 113.331C139.863 113.183 139.948 113.035 139.886 112.801C139.886 112.801 139.854 112.684 139.737 112.715L138.582 112.147L138.519 111.913L139.298 111.077C139.501 110.898 139.438 110.664 139.227 110.344C139.259 110.461 139.259 110.461 139.227 110.344ZM134.754 120.319C134.372 120.296 134.044 120.007 133.95 119.657C133.973 119.274 134.261 118.946 134.612 118.852C134.994 118.875 135.322 119.163 135.416 119.514C135.542 119.982 135.253 120.31 134.754 120.319ZM133.925 118.159C133.542 118.136 133.254 118.464 133.348 118.815L133.319 120.578C132.392 121.328 131.285 121.875 129.998 122.22C128.712 122.565 127.479 122.644 126.153 122.373L125.363 120.829C125.152 120.509 124.855 120.338 124.536 120.549L123.226 121.276C122.93 121.105 122.602 120.817 122.305 120.645L129.323 118.765C129.44 118.734 129.44 118.734 129.409 118.617L128.751 116.16C128.719 116.043 128.719 116.043 128.602 116.075L126.614 116.608L126.206 115.087L128.429 114.491C128.663 114.429 129.482 114.209 130.146 115.285C130.357 115.605 130.787 116.743 131.115 117.031C131.326 117.351 132.13 118.013 132.715 117.856L136.341 116.885C136.201 117.298 136.03 117.595 135.773 118.04L133.925 118.159ZM124.812 122.983C124.492 123.194 124.079 123.054 123.836 122.617C123.625 122.298 123.765 121.884 124.202 121.642C124.638 121.399 124.935 121.571 125.177 122.007C125.271 122.358 125.131 122.772 124.812 122.983ZM119.238 112.942C119.449 113.262 119.458 113.761 119.138 113.972C118.818 114.183 118.319 114.192 118.108 113.872C117.897 113.552 117.889 113.053 118.208 112.842C118.645 112.6 119.027 112.623 119.238 112.942ZM118.921 115.033L120.285 114.041C120.604 113.83 120.627 113.448 120.416 113.128L119.877 112.52L121.047 112.207L122.52 117.704L120.181 118.331C119.516 117.256 119.117 116.234 118.921 115.033ZM125.346 112.81L124.907 111.173L127.831 110.389C127.948 110.358 128.915 110.224 129.103 110.926C129.26 111.511 128.621 111.933 128.036 112.089L125.346 112.81ZM136.249 111.393L136.406 111.978L135.47 112.229C135.353 112.26 135.353 112.26 135.384 112.377L135.478 112.728C135.729 113.664 135.207 114.054 134.739 114.18C134.271 114.305 133.741 114.196 133.561 113.994C132.92 112.536 132.389 112.427 131.53 112.031C132.193 111.226 132.909 110.157 132.627 109.104C132.313 107.935 131.307 107.452 130.745 107.227C129.801 106.978 128.95 107.08 128.716 107.143L119.827 109.525C120.737 107.777 122.124 106.402 123.902 105.55L125.268 106.437C125.564 106.609 125.915 106.515 126.204 106.187L127.06 104.704C129.642 104.513 132.154 105.47 134.037 107.347L133.719 109.438C133.696 109.821 133.907 110.14 134.29 110.163L135.998 110.457L136.249 111.393ZM124.735 104.449C124.906 104.152 125.374 104.027 125.671 104.198C125.967 104.37 126.093 104.837 125.922 105.134C125.665 105.579 125.314 105.673 124.869 105.416C124.572 105.245 124.595 104.863 124.735 104.449ZM134.561 108.837C134.584 108.454 135.02 108.212 135.403 108.235C135.785 108.258 136.027 108.694 136.004 109.077C135.981 109.459 135.545 109.701 135.163 109.678C134.78 109.655 134.538 109.219 134.561 108.837Z" fill="#FAFAFA"/>
</g>
<g clip-path="url(#clip28_367_3824)">
<path d="M254.565 39.6987L257.072 49.0562L261.751 47.8025M252.08 49.1402L253.563 49.9964M240.383 52.2743C240.466 52.5845 240.669 52.849 240.948 53.0096C241.226 53.1702 241.556 53.2137 241.866 53.1306L244.206 52.5037C244.516 52.4206 244.781 52.2177 244.941 51.9395C245.102 51.6614 245.145 51.3309 245.062 51.0207L244.435 48.6813C244.352 48.3711 244.149 48.1066 243.871 47.946C243.593 47.7854 243.262 47.7419 242.952 47.825L240.613 48.4519C240.303 48.535 239.972 48.4915 239.694 48.3309C239.416 48.1703 239.213 47.9058 239.13 47.5956L238.503 45.2562C238.42 44.946 238.463 44.6155 238.624 44.3373C238.784 44.0592 239.049 43.8563 239.359 43.7731L241.698 43.1463C242.009 43.0632 242.339 43.1067 242.617 43.2673C242.896 43.4279 243.098 43.6923 243.182 44.0026M248.717 41.2658C249.337 41.0996 249.998 41.1866 250.554 41.5078C251.111 41.8289 251.517 42.3579 251.683 42.9783L252.936 47.6571C253.103 48.2775 253.016 48.9386 252.694 49.4948C252.373 50.0511 251.844 50.457 251.224 50.6233C250.603 50.7895 249.942 50.7025 249.386 50.3813C248.83 50.0601 248.424 49.5312 248.258 48.9107L247.004 44.232C246.838 43.6116 246.925 42.9505 247.246 42.3942C247.567 41.838 248.096 41.4321 248.717 41.2658Z" stroke="#FAFAFA" stroke-width="2.42189" stroke-linecap="round" stroke-linejoin="round"/>
</g>
<g clip-path="url(#clip29_367_3824)">
<path d="M115.566 69.4216C114.64 69.6703 113.737 69.9988 112.868 70.4035L112.96 70.3643C110.71 71.4143 110.516 72.4023 110.948 74.0126L111.517 76.1394L117.099 74.6439L117.289 75.3526L109.614 77.4091L109.549 77.4254C108.742 77.6417 108.036 78.1312 107.549 78.8103C107.063 79.4894 106.828 80.3162 106.883 81.1495L106.885 81.173C106.863 82.0898 106.982 83.1049 107.252 84.1147C107.523 85.1245 107.928 86.0628 108.443 86.9141L108.405 86.845C109.244 88.3908 110.507 89.3135 112.126 88.8797L114.045 88.3654L113.362 85.8155C113.137 84.8941 113.278 83.9214 113.754 83.1012C114.23 82.281 115.005 81.6767 115.917 81.4149L121.494 79.9204C122.235 79.7159 122.864 79.227 123.246 78.5602C123.628 77.8933 123.73 77.1027 123.531 76.3606L123.525 76.3352L122.101 71.022C121.856 70.3023 121.366 69.6917 120.717 69.2975C120.067 68.9032 119.299 68.7504 118.548 68.866L118.534 68.8686C117.565 68.9631 116.606 69.1383 115.667 69.3925L115.562 69.4204L115.567 69.4191L115.566 69.4216ZM113.006 71.9409L113.023 71.9364C113.233 71.8801 113.455 71.8873 113.661 71.9572C113.867 72.0271 114.048 72.1565 114.181 72.3291C114.313 72.5016 114.392 72.7096 114.406 72.9267C114.421 73.1439 114.371 73.3604 114.262 73.549C114.153 73.7376 113.991 73.8899 113.796 73.9864C113.601 74.083 113.382 74.1197 113.166 74.0917C112.951 74.0637 112.748 73.9724 112.584 73.8293C112.42 73.6863 112.302 73.4978 112.245 73.2877L112.243 73.2799C112.087 72.699 112.429 72.1019 113.006 71.9409Z" fill="#FAFAFA"/>
<path d="M123.558 73.6726L124.222 76.1504C124.46 77.0786 124.329 78.0629 123.856 78.8966C123.384 79.7303 122.607 80.3485 121.688 80.6216L116.109 82.1166C115.37 82.3309 114.744 82.8256 114.365 83.495C113.986 84.1644 113.883 84.9556 114.079 85.6996L115.503 91.0148C115.908 92.5266 117.462 93.0642 119.053 93.1038C119.959 93.1505 120.96 93.0494 121.955 92.7828C122.95 92.5161 123.867 92.1031 124.689 91.5738L124.627 91.6101C125.922 90.8275 127.089 89.6364 126.657 88.0261L126.087 85.8973L120.512 87.391L120.322 86.6824L128.688 84.4409C130.309 84.0063 130.611 82.7127 130.72 80.8645C130.766 79.9433 130.661 78.9256 130.39 77.9128C130.119 76.9001 129.7 75.9664 129.164 75.1292L129.2 75.1925C128.367 73.6857 127.273 72.6772 125.652 73.1116L123.558 73.6726ZM124.029 87.9707L124.046 87.9663C124.256 87.9099 124.479 87.9172 124.685 87.9872C124.891 88.0572 125.072 88.1867 125.204 88.3595C125.337 88.5322 125.415 88.7404 125.43 88.9577C125.444 89.175 125.393 89.3916 125.284 89.5802C125.176 89.7687 125.013 89.9208 124.818 90.0171C124.623 90.1134 124.403 90.1496 124.187 90.1212C123.971 90.0928 123.769 90.001 123.605 89.8574C123.441 89.7139 123.324 89.525 123.268 89.3146L123.265 89.3039C123.109 88.7239 123.451 88.1288 124.029 87.9707Z" fill="#FAFAFA"/>
</g>
<g clip-path="url(#clip30_367_3824)">
<path d="M200.049 46.7843L223.442 40.516L229.711 63.9096L206.317 70.1779L200.049 46.7843ZM226.299 58.8437C225.843 57.8221 224.908 57.1116 222.622 56.8276C221.814 56.6836 220.954 56.6633 220.573 56.1858C220.398 55.8879 220.337 55.7161 220.344 55.5106C220.321 54.8417 221.016 54.4528 221.648 54.4716C222.059 54.4867 222.489 54.6851 222.834 55.0939C223.666 54.165 223.666 54.165 224.251 53.539C223.878 53.2001 223.7 53.0587 223.476 52.9317C222.678 52.4091 221.766 52.2773 220.444 52.6641L219.78 52.9349C219.164 53.2723 218.63 53.7914 218.376 54.3612C217.602 55.9173 218.51 58.0245 220.098 58.5706C221.695 59.2083 223.699 58.9053 224.198 59.7754C224.738 60.8532 223.754 61.5086 222.65 61.6633C221.813 61.6997 221.269 61.4212 220.591 60.8194L219.082 62.3218C219.412 62.7349 219.7 62.8759 220.161 63.1913C222.315 64.4484 226.532 63.2246 226.596 60.4181C226.601 60.3228 226.646 59.6682 226.237 58.7904L226.299 58.8437ZM215.651 54.1279L213.46 54.7151C213.966 56.6041 214.46 58.4838 214.967 60.3758C215.289 61.5766 215.646 62.6626 215.541 63.0543C215.399 63.8121 214.548 63.9483 214.14 63.9312C213.703 63.8436 213.436 63.6329 213.107 63.3146C213.019 63.2287 212.949 63.1522 212.932 63.1567L211.447 64.7299C211.909 65.2643 212.485 65.6764 213.134 65.8628C214.101 66.1366 215.264 65.9973 216.366 65.4199C217.07 64.9952 217.607 64.3656 217.763 63.5716C218.017 62.5319 217.614 61.4489 217.276 60.2065C216.751 58.2012 216.203 56.2013 215.662 54.1836L215.651 54.1279Z" fill="#FAFAFA"/>
</g>
<g clip-path="url(#clip31_367_3824)">
<path d="M175.78 53.2872L178.293 52.6138L178.574 53.6646L177.112 54.0564L177.394 55.1071L178.856 54.7154L179.137 55.7661L176.624 56.4394L175.78 53.2872ZM178.795 52.4793L181.308 51.8057L181.553 52.72L180.091 53.1118L180.14 53.2941L181.602 52.9023L182.165 55.0038L179.652 55.6774L179.395 54.7183L180.857 54.3265L180.808 54.1433L179.345 54.535L178.795 52.4793ZM181.811 51.671L184.323 50.9979L184.568 51.9122L183.106 52.304L183.155 52.4863L184.617 52.0945L185.18 54.196L182.668 54.8691L182.411 53.9099L183.873 53.5182L183.824 53.3349L182.362 53.7267L181.811 51.671Z" fill="#FAFAFA"/>
<path fill-rule="evenodd" clip-rule="evenodd" d="M186.424 75.5083L179.152 75.4427L172.624 59.0608L190.169 54.3596L192.707 71.8085L186.424 75.5083ZM178.62 65.6613L179.362 67.6857L186.553 65.7589L187.033 68.5137L184.886 69.7595L184.884 69.7601L182.407 69.7552L181.816 68.1408L179.733 68.6989L180.896 71.8787L185.462 71.9194L189.403 69.5994L188.364 63.6471L188.265 63.0769L187.514 58.7765L177.121 61.5612L177.867 63.5858L185.797 61.4608L186.177 63.6364L178.62 65.6613Z" fill="#FAFAFA"/>
</g>
<g clip-path="url(#clip32_367_3824)">
<path d="M137.099 63.6515L144.618 84.2027L153.67 84.2847L161.489 79.6792L157.728 58.124L137.101 63.6511L137.099 63.6515ZM155.487 66.1055L145.606 68.7531L146.55 71.335L155.962 68.8132L157.377 76.9307L152.473 79.818L146.79 79.7675L145.342 75.8084L147.934 75.1138L148.671 77.126L151.754 77.1303L151.76 77.1272L154.429 75.5799L153.83 72.1517L144.881 74.5497L142.092 66.9271L155.028 63.4612L155.487 66.1055Z" fill="#FAFAFA"/>
</g>
<path d="M309.968 106.79C307.634 109.12 303.9 110.296 299.636 109.684C296.288 109.199 293.166 107.71 290.682 105.413C291.638 105.847 292.703 106.126 293.811 106.33C298.245 107.11 302.14 105.929 304.455 103.478C299.701 101.505 295.288 98.4624 291.935 95.9134C291.267 95.5281 290.706 94.9765 290.151 94.4982C301.733 98.9797 301.794 100.894 292.654 92.5615C299.922 96.8071 306.11 98.6593 306.11 98.6593C306.325 98.7144 306.452 98.7681 306.6 98.8038C306.638 98.4801 306.662 98.1477 306.659 97.81C306.69 94.2288 304.613 90.686 301.465 88.157C307.649 89.9476 312.425 95.1369 312.46 100.556C312.459 100.694 312.459 100.832 312.524 101.028C316.031 103.636 316.254 107.274 315.739 106.71C313.574 104.294 311.151 105.871 309.968 106.79Z" fill="#FAFAFA"/>
<g clip-path="url(#clip33_367_3824)">
<path d="M303.678 60.8109L302.469 60.5081L302.406 60.2742L303.006 59.236C303.091 59.0877 303.029 58.8538 302.88 58.7682L302.732 58.6825L301.585 58.6137C301.554 58.4967 301.523 58.3798 301.406 58.4111L301.857 57.2873C301.942 57.139 301.88 56.9051 301.614 56.8508C301.614 56.8508 301.497 56.8821 301.466 56.7652L300.234 56.8446C300.202 56.7277 300.085 56.759 300.054 56.642L300.24 55.464L300.146 55.1131C299.997 55.0274 299.88 55.0588 299.764 55.0901L298.594 55.4035C298.594 55.4035 298.562 55.2866 298.446 55.3179L298.366 54.0855C298.303 53.8516 298.155 53.766 298.038 53.7973L297.921 53.8287L296.814 54.376C296.783 54.2591 296.666 54.2904 296.517 54.2048L296.204 53.0351C296.141 52.8011 295.993 52.7155 295.759 52.7782L295.642 52.8095L294.715 53.5595L294.598 53.5908L294.051 52.4838C293.988 52.2499 293.723 52.1956 293.637 52.3439L293.52 52.3753L292.772 53.3278C292.655 53.3591 292.538 53.3905 292.507 53.2735L291.874 52.3148C291.726 52.2292 291.577 52.1436 291.343 52.2063C291.343 52.2063 291.226 52.2376 291.258 52.3546L290.541 53.4241L290.308 53.4868L289.472 52.7077C289.292 52.5051 289.058 52.5678 288.824 52.6305L288.739 52.7788L288.436 53.9882L288.202 54.0509L287.164 53.4515C287.016 53.3659 286.782 53.4286 286.696 53.5769L286.61 53.7252L286.542 54.8719C286.425 54.9033 286.308 54.9346 286.339 55.0516L285.215 54.6005C284.95 54.5462 284.716 54.6089 284.662 54.8742L284.693 54.9912L284.773 56.2235C284.773 56.2235 284.656 56.2549 284.57 56.4032L283.392 56.2174C283.244 56.1317 283.041 56.3114 282.955 56.4597L283.3 57.7464C283.331 57.8633 283.214 57.8947 283.246 58.0116L282.013 58.0911C281.748 58.0368 281.663 58.1851 281.725 58.4191L281.757 58.536L282.304 59.643C282.187 59.6744 282.218 59.7913 282.101 59.8227L280.932 60.1361C280.698 60.1988 280.612 60.3471 280.675 60.581L280.706 60.698L281.456 61.6253L281.519 61.8593L280.412 62.4066C280.178 62.4693 280.124 62.7346 280.155 62.8516L280.186 62.9685L281.139 63.7162C281.17 63.8332 281.201 63.9502 281.084 63.9815L280.274 64.7001C280.188 64.8484 280.103 64.9967 280.166 65.2307C280.166 65.2307 280.197 65.3476 280.314 65.3163L281.352 65.9157L281.415 66.1496L280.636 66.9852C280.433 67.1648 280.496 67.3988 280.527 67.5157L280.675 67.6014L281.916 68.0211L281.979 68.255L281.379 69.2932C281.294 69.4415 281.356 69.6754 281.505 69.7611L281.653 69.8467L282.8 69.9155C282.831 70.0325 282.863 70.1495 282.979 70.1181L282.528 71.2419C282.443 71.3902 282.505 71.6242 282.771 71.6784C282.771 71.6784 282.888 71.6471 282.919 71.7641L284.151 71.6846C284.183 71.8016 284.3 71.7702 284.331 71.8872L284.145 73.0653C284.06 73.2136 284.239 73.4162 284.388 73.5018L285.674 73.157C285.791 73.1257 285.823 73.2427 285.94 73.2113L286.019 74.4437C286.082 74.6776 286.23 74.7633 286.347 74.7319L286.464 74.7006L287.571 74.1532C287.602 74.2702 287.719 74.2389 287.868 74.3245L288.181 75.4942C288.244 75.7281 288.392 75.8137 288.626 75.751L288.743 75.7197L289.67 74.9697L289.787 74.9384L290.335 76.0454C290.397 76.2793 290.663 76.3336 290.748 76.1853L290.865 76.154L291.613 75.2014C291.73 75.1701 291.847 75.1388 291.878 75.2557L292.511 76.2144C292.659 76.3 292.808 76.3857 293.042 76.323C293.042 76.323 293.159 76.2916 293.127 76.1747L293.844 75.1052L294.078 75.0425L294.913 75.8215C295.061 75.9071 295.327 75.9614 295.412 75.8131L295.498 75.6648L295.832 74.5724L296.066 74.5097L297.104 75.1091C297.252 75.1947 297.486 75.132 297.572 74.9837L297.658 74.8354L297.726 73.6886C297.843 73.6573 297.96 73.626 297.929 73.509L299.053 73.9601C299.201 74.0457 299.435 73.983 299.489 73.7177C299.489 73.7177 299.458 73.6008 299.575 73.5694L299.496 72.3371C299.613 72.3057 299.581 72.1888 299.698 72.1574L300.876 72.3432C301.025 72.4288 301.227 72.2492 301.313 72.1009L300.968 70.8142L301.139 70.5176L302.372 70.4381C302.606 70.3754 302.691 70.2271 302.66 70.1102L302.628 69.9932L302.081 68.8862L302.252 68.5896L303.422 68.2762C303.656 68.2135 303.742 68.0652 303.679 67.8312L303.648 67.7143L302.898 66.7869C302.866 66.67 302.983 66.6386 302.952 66.5216L304.059 65.9743C304.293 65.9116 304.347 65.6463 304.199 65.5607L304.168 65.4437L303.215 64.696L303.269 64.4308L304.228 63.7978C304.314 63.6495 304.399 63.5012 304.337 63.2672C304.337 63.2672 304.305 63.1503 304.188 63.1816L303.033 62.6136L302.97 62.3796L303.749 61.5441C303.952 61.3644 303.889 61.1305 303.678 60.8109C303.71 60.9279 303.71 60.9279 303.678 60.8109ZM299.205 70.7851C298.823 70.7622 298.495 70.474 298.401 70.1231C298.424 69.7408 298.712 69.4129 299.063 69.3188C299.445 69.3418 299.773 69.63 299.867 69.9809C299.993 70.4488 299.704 70.7767 299.205 70.7851ZM298.376 68.6254C297.993 68.6025 297.705 68.9304 297.799 69.2813L297.77 71.0443C296.843 71.7942 295.736 72.3416 294.449 72.6863C293.162 73.0311 291.93 73.1106 290.604 72.8391L289.814 71.2956C289.603 70.976 289.306 70.8048 288.987 71.0158L287.677 71.7428C287.381 71.5715 287.053 71.2833 286.756 71.1121L293.774 69.2316C293.891 69.2002 293.891 69.2002 293.86 69.0833L293.202 66.6269C293.17 66.51 293.17 66.51 293.053 66.5413L291.065 67.0741L290.657 65.5535L292.88 64.958C293.114 64.8953 293.933 64.676 294.597 65.7516C294.808 66.0712 295.238 67.2095 295.566 67.4977C295.777 67.8173 296.581 68.4794 297.166 68.3227L300.792 67.3511C300.652 67.7647 300.481 68.0613 300.224 68.5062L298.376 68.6254ZM289.263 73.4492C288.943 73.6602 288.53 73.5202 288.287 73.0837C288.076 72.7642 288.216 72.3506 288.653 72.1082C289.089 71.8659 289.386 72.0371 289.628 72.4737C289.722 72.8246 289.582 73.2382 289.263 73.4492ZM283.689 63.409C283.9 63.7285 283.908 64.2277 283.589 64.4387C283.269 64.6497 282.77 64.6581 282.559 64.3386C282.348 64.019 282.34 63.5198 282.659 63.3088C283.096 63.0665 283.478 63.0894 283.689 63.409ZM283.372 65.4998L284.736 64.5076C285.055 64.2966 285.078 63.9143 284.867 63.5948L284.328 62.987L285.498 62.6736L286.971 68.1711L284.632 68.7979C283.967 67.7222 283.568 66.7009 283.372 65.4998ZM289.797 63.2768L289.358 61.6393L292.282 60.8558C292.399 60.8244 293.366 60.6906 293.554 61.3925C293.711 61.9773 293.072 62.3993 292.487 62.556L289.797 63.2768ZM300.7 61.8597L300.857 62.4446L299.921 62.6953C299.804 62.7266 299.804 62.7266 299.835 62.8436L299.929 63.1945C300.18 64.1303 299.658 64.5209 299.19 64.6463C298.722 64.7716 298.191 64.6631 298.012 64.4605C297.37 63.0026 296.84 62.894 295.981 62.4972C296.643 61.693 297.36 60.6235 297.078 59.5708C296.764 58.4011 295.758 57.9187 295.196 57.6931C294.251 57.4446 293.401 57.5471 293.167 57.6097L284.278 59.9917C285.188 58.2433 286.575 56.8688 288.353 56.0164L289.719 56.904C290.015 57.0753 290.366 56.9813 290.655 56.6533L291.511 55.1702C294.093 54.9799 296.605 55.9363 298.488 57.814L298.17 59.9049C298.147 60.2871 298.358 60.6067 298.74 60.6296L300.449 60.924L300.7 61.8597ZM289.186 54.9156C289.357 54.619 289.825 54.4936 290.122 54.6648C290.418 54.8361 290.544 55.304 290.372 55.6006C290.116 56.0455 289.765 56.1395 289.32 55.8827C289.023 55.7114 289.046 55.3292 289.186 54.9156ZM299.012 59.3032C299.035 58.921 299.471 58.6786 299.854 58.7016C300.236 58.7245 300.478 59.1611 300.455 59.5433C300.432 59.9256 299.996 60.1679 299.614 60.1449C299.231 60.122 298.989 59.6855 299.012 59.3032Z" fill="#FAFAFA"/>
</g>
<g clip-path="url(#clip34_367_3824)">
<path d="M280.017 19.8884C279.091 20.1371 278.188 20.4656 277.319 20.8703L277.411 20.8311C275.161 21.8811 274.967 22.8691 275.399 24.4794L275.968 26.6063L281.55 25.1107L281.74 25.8194L274.065 27.8759L274 27.8922C273.193 28.1085 272.487 28.598 272 29.2771C271.514 29.9562 271.279 30.783 271.334 31.6163L271.336 31.6398C271.314 32.5566 271.433 33.5717 271.703 34.5815C271.974 35.5913 272.379 36.5296 272.894 37.3809L272.856 37.3118C273.695 38.8576 274.958 39.7803 276.577 39.3465L278.496 38.8322L277.813 36.2823C277.588 35.3609 277.729 34.3882 278.205 33.568C278.681 32.7478 279.456 32.1435 280.368 31.8817L285.945 30.3872C286.686 30.1827 287.315 29.6938 287.697 29.027C288.079 28.3601 288.181 27.5695 287.982 26.8274L287.976 26.802L286.552 21.4888C286.307 20.7691 285.817 20.1585 285.168 19.7643C284.518 19.37 283.75 19.2172 282.999 19.3328L282.985 19.3355C282.016 19.4299 281.057 19.6051 280.118 19.8593L280.013 19.8873L280.018 19.8859L280.017 19.8884ZM277.457 22.4077L277.474 22.4032C277.684 22.3469 277.906 22.3542 278.112 22.424C278.318 22.4939 278.499 22.6233 278.632 22.7959C278.764 22.9684 278.843 23.1764 278.857 23.3935C278.872 23.6107 278.822 23.8272 278.713 24.0158C278.604 24.2045 278.442 24.3567 278.247 24.4533C278.052 24.5498 277.833 24.5865 277.617 24.5585C277.402 24.5305 277.199 24.4393 277.035 24.2962C276.871 24.1531 276.753 23.9646 276.696 23.7545L276.694 23.7468C276.538 23.1658 276.88 22.5687 277.457 22.4077Z" fill="#FAFAFA"/>
<path d="M288.009 24.1391L288.673 26.6169C288.911 27.5452 288.78 28.5295 288.307 29.3631C287.835 30.1968 287.058 30.8151 286.139 31.0881L280.56 32.5831C279.821 32.7975 279.195 33.2921 278.816 33.9616C278.437 34.631 278.334 35.4221 278.53 36.1661L279.954 41.4813C280.359 42.9932 281.913 43.5308 283.504 43.5703C284.41 43.617 285.411 43.516 286.406 43.2493C287.401 42.9826 288.318 42.5697 289.14 42.0404L289.078 42.0766C290.373 41.2941 291.54 40.1029 291.108 38.4927L290.538 36.3638L284.963 37.8575L284.773 37.1489L293.138 34.9075C294.76 34.4729 295.061 33.1793 295.171 31.331C295.217 30.4099 295.112 29.3921 294.841 28.3794C294.57 27.3666 294.151 26.433 293.615 25.5958L293.651 25.6591C292.818 24.1522 291.724 23.1438 290.103 23.5781L288.009 24.1391ZM288.48 38.4372L288.497 38.4328C288.707 38.3764 288.93 38.3837 289.136 38.4537C289.342 38.5237 289.523 38.6533 289.655 38.826C289.788 38.9988 289.866 39.207 289.88 39.4242C289.895 39.6415 289.844 39.8581 289.735 40.0467C289.626 40.2353 289.464 40.3873 289.269 40.4837C289.074 40.58 288.854 40.6162 288.638 40.5878C288.422 40.5593 288.22 40.4675 288.056 40.324C287.892 40.1804 287.775 39.9915 287.718 39.7812L287.716 39.7705C287.56 39.1905 287.902 38.5953 288.48 38.4372Z" fill="#FAFAFA"/>
</g>
</g>
</g>
<defs>
<clipPath id="clip0_367_3824">
<rect width="304" height="111" fill="white"/>
</clipPath>
<clipPath id="clip1_367_3824">
<rect width="21.797" height="21.797" fill="white" transform="translate(-4.68793 72.0715) rotate(-15)"/>
</clipPath>
<clipPath id="clip2_367_3824">
<rect width="25.4298" height="25.4298" fill="white" transform="translate(60.8142 54.5202) rotate(-15)"/>
</clipPath>
<clipPath id="clip3_367_3824">
<rect width="29.0626" height="29.0626" fill="white" transform="translate(23.071 63.3798) rotate(-15)"/>
</clipPath>
<clipPath id="clip4_367_3824">
<rect width="29.0626" height="29.0626" fill="white" transform="translate(13.3552 27.1197) rotate(-15)"/>
</clipPath>
<clipPath id="clip5_367_3824">
<rect width="25.4298" height="25.4298" fill="white" transform="translate(-15.5734 36.1248) rotate(-15)"/>
</clipPath>
<clipPath id="clip6_367_3824">
<rect width="29.0626" height="29.0626" fill="white" transform="translate(39.9833 -13.8641) rotate(-15)"/>
</clipPath>
<clipPath id="clip7_367_3824">
<rect width="24.2188" height="24.2188" fill="white" transform="translate(7.85913 -2.74915) rotate(-15)"/>
</clipPath>
<clipPath id="clip8_367_3824">
<rect width="24.2188" height="24.2188" fill="white" transform="translate(-23.7222 5.71307) rotate(-15)"/>
</clipPath>
<clipPath id="clip9_367_3824">
<rect width="21.797" height="21.797" fill="white" transform="translate(161.744 24.5194) rotate(-15)"/>
</clipPath>
<clipPath id="clip10_367_3824">
<rect width="25.4298" height="25.4298" fill="white" transform="translate(227.247 6.96814) rotate(-15)"/>
</clipPath>
<clipPath id="clip11_367_3824">
<rect width="29.0626" height="29.0626" fill="white" transform="translate(189.503 15.8278) rotate(-15)"/>
</clipPath>
<clipPath id="clip12_367_3824">
<rect width="29.0626" height="29.0626" fill="white" transform="translate(125.171 33.0656) rotate(-15)"/>
</clipPath>
<clipPath id="clip13_367_3824">
<rect width="29.0626" height="29.0626" fill="white" transform="translate(93.5896 41.5278) rotate(-15)"/>
</clipPath>
<clipPath id="clip14_367_3824">
<rect width="29.0626" height="29.0626" fill="white" transform="translate(179.787 -20.4324) rotate(-15)"/>
</clipPath>
<clipPath id="clip15_367_3824">
<rect width="25.4298" height="25.4298" fill="white" transform="translate(150.859 -11.4273) rotate(-15)"/>
</clipPath>
<clipPath id="clip16_367_3824">
<rect width="33.9064" height="33.9064" fill="white" transform="translate(112.489 -4.90707) rotate(-15)"/>
</clipPath>
<clipPath id="clip17_367_3824">
<rect width="29.0626" height="29.0626" fill="white" transform="translate(84.1871 6.43735) rotate(-15)"/>
</clipPath>
<clipPath id="clip18_367_3824">
<rect width="29.0626" height="29.0626" fill="white" transform="translate(289.622 -16.4679) rotate(-15)"/>
</clipPath>
<clipPath id="clip19_367_3824">
<rect width="29.0626" height="29.0626" fill="white" transform="translate(65.7407 83.2214) rotate(-15)"/>
</clipPath>
<clipPath id="clip20_367_3824">
<rect width="24.2188" height="24.2188" fill="white" transform="translate(33.6166 94.3364) rotate(-15)"/>
</clipPath>
<clipPath id="clip21_367_3824">
<rect width="24.2188" height="24.2188" fill="white" transform="translate(2.03516 102.799) rotate(-15)"/>
</clipPath>
<clipPath id="clip22_367_3824">
<rect width="25.4298" height="25.4298" fill="white" transform="translate(253.004 104.054) rotate(-15)"/>
</clipPath>
<clipPath id="clip23_367_3824">
<rect width="29.0626" height="29.0626" fill="white" transform="translate(215.261 112.913) rotate(-15)"/>
</clipPath>
<clipPath id="clip24_367_3824">
<rect width="29.0626" height="29.0626" fill="white" transform="translate(205.545 76.6532) rotate(-15)"/>
</clipPath>
<clipPath id="clip25_367_3824">
<rect width="25.4298" height="25.4298" fill="white" transform="translate(176.616 85.6582) rotate(-15)"/>
</clipPath>
<clipPath id="clip26_367_3824">
<rect width="33.9064" height="33.9064" fill="white" transform="translate(138.246 92.1785) rotate(-15)"/>
</clipPath>
<clipPath id="clip27_367_3824">
<rect width="29.0626" height="29.0626" fill="white" transform="translate(109.944 103.523) rotate(-15)"/>
</clipPath>
<clipPath id="clip28_367_3824">
<rect width="29.0626" height="29.0626" fill="white" transform="translate(232.173 35.6693) rotate(-15)"/>
</clipPath>
<clipPath id="clip29_367_3824">
<rect width="24.2188" height="24.2188" fill="white" transform="translate(104.135 72.4844) rotate(-15)"/>
</clipPath>
<clipPath id="clip30_367_3824">
<rect width="24.2188" height="24.2188" fill="white" transform="translate(200.049 46.7843) rotate(-15)"/>
</clipPath>
<clipPath id="clip31_367_3824">
<rect width="24.2188" height="24.2188" fill="white" transform="translate(168.467 55.2465) rotate(-15)"/>
</clipPath>
<clipPath id="clip32_367_3824">
<rect width="24.2188" height="24.2188" fill="white" transform="translate(135.716 64.0221) rotate(-15)"/>
</clipPath>
<clipPath id="clip33_367_3824">
<rect width="29.0626" height="29.0626" fill="white" transform="translate(274.395 53.9894) rotate(-15)"/>
</clipPath>
<clipPath id="clip34_367_3824">
<rect width="24.2188" height="24.2188" fill="white" transform="translate(268.586 22.9509) rotate(-15)"/>
</clipPath>
</defs>
</svg>
