<svg width="717" height="112" viewBox="0 0 717 112" fill="none" xmlns="http://www.w3.org/2000/svg">
<path d="M0 0H717V112H0V0Z" fill="white"/>
<path d="M99.0131 43.9395L94.9604 56H92.1186L97.4311 41.7812H99.2475L99.0131 43.9395ZM102.402 56L98.3295 43.9395L98.0854 41.7812H99.9116L105.253 56H102.402ZM102.216 50.7168V52.8359H94.5893V50.7168H102.216ZM110.859 54.1641C111.223 54.1641 111.549 54.0924 111.835 53.9492C112.122 53.806 112.35 53.6042 112.519 53.3438C112.695 53.0833 112.789 52.7806 112.802 52.4355H115.234C115.221 53.1517 115.019 53.793 114.628 54.3594C114.238 54.9258 113.717 55.375 113.066 55.707C112.421 56.0326 111.699 56.1953 110.898 56.1953C110.084 56.1953 109.374 56.0586 108.769 55.7852C108.164 55.5117 107.659 55.1309 107.255 54.6426C106.858 54.1543 106.559 53.5879 106.357 52.9434C106.162 52.2988 106.064 51.6087 106.064 50.873V50.5605C106.064 49.8249 106.162 49.1348 106.357 48.4902C106.559 47.8457 106.858 47.2793 107.255 46.791C107.659 46.3027 108.164 45.9219 108.769 45.6484C109.374 45.375 110.081 45.2383 110.888 45.2383C111.741 45.2383 112.49 45.4043 113.134 45.7363C113.785 46.0684 114.293 46.5371 114.658 47.1426C115.029 47.748 115.221 48.4609 115.234 49.2812H112.802C112.789 48.9036 112.705 48.5651 112.548 48.2656C112.392 47.9661 112.171 47.7253 111.884 47.543C111.598 47.3607 111.249 47.2695 110.839 47.2695C110.403 47.2695 110.039 47.3607 109.746 47.543C109.459 47.7253 109.234 47.9759 109.072 48.2949C108.915 48.6074 108.805 48.959 108.74 49.3496C108.681 49.7337 108.652 50.1374 108.652 50.5605V50.873C108.652 51.3027 108.681 51.7129 108.74 52.1035C108.805 52.4941 108.915 52.8457 109.072 53.1582C109.234 53.4642 109.459 53.7083 109.746 53.8906C110.039 54.0729 110.41 54.1641 110.859 54.1641ZM119.531 40.9902V56H116.953V40.9902H119.531ZM126.152 45.4336L121.552 50.5996L119.062 53.1289L118.242 51.127L120.165 48.7051L123.037 45.4336H126.152ZM123.515 56L120.244 51.0781L121.962 49.4082L126.503 56H123.515ZM130.048 47.6895V56H127.47V45.4336H129.892L130.048 47.6895ZM129.638 50.3359H128.876C128.883 49.5677 128.987 48.8711 129.189 48.2461C129.391 47.6211 129.674 47.084 130.039 46.6348C130.41 46.1855 130.849 45.8405 131.357 45.5996C131.865 45.3587 132.431 45.2383 133.056 45.2383C133.564 45.2383 134.023 45.3099 134.433 45.4531C134.843 45.5964 135.195 45.8242 135.488 46.1367C135.787 46.4492 136.015 46.8594 136.171 47.3672C136.334 47.8685 136.415 48.487 136.415 49.2227V56H133.818V49.2031C133.818 48.7214 133.746 48.3405 133.603 48.0605C133.466 47.7806 133.264 47.582 132.997 47.4648C132.737 47.3477 132.415 47.2891 132.031 47.2891C131.634 47.2891 131.285 47.3704 130.986 47.5332C130.693 47.6895 130.445 47.9076 130.244 48.1875C130.048 48.4674 129.899 48.7897 129.794 49.1543C129.69 49.5189 129.638 49.9128 129.638 50.3359ZM138.232 50.8242V50.6191C138.232 49.8444 138.343 49.1315 138.564 48.4805C138.785 47.8229 139.108 47.2533 139.531 46.7715C139.954 46.2897 140.471 45.9154 141.083 45.6484C141.695 45.375 142.392 45.2383 143.173 45.2383C143.968 45.2383 144.671 45.375 145.283 45.6484C145.901 45.9154 146.422 46.2897 146.845 46.7715C147.268 47.2533 147.591 47.8229 147.812 48.4805C148.033 49.1315 148.144 49.8444 148.144 50.6191V50.8242C148.144 51.5924 148.033 52.3053 147.812 52.9629C147.591 53.6139 147.268 54.1836 146.845 54.6719C146.422 55.1536 145.904 55.528 145.292 55.7949C144.68 56.0618 143.981 56.1953 143.193 56.1953C142.412 56.1953 141.712 56.0618 141.093 55.7949C140.475 55.528 139.954 55.1536 139.531 54.6719C139.108 54.1836 138.785 53.6139 138.564 52.9629C138.343 52.3053 138.232 51.5924 138.232 50.8242ZM140.81 50.6191V50.8242C140.81 51.2865 140.856 51.7194 140.947 52.123C141.038 52.5267 141.178 52.8815 141.367 53.1875C141.555 53.4935 141.8 53.7344 142.099 53.9102C142.405 54.0794 142.77 54.1641 143.193 54.1641C143.609 54.1641 143.968 54.0794 144.267 53.9102C144.567 53.7344 144.811 53.4935 144.999 53.1875C145.195 52.8815 145.338 52.5267 145.429 52.123C145.52 51.7194 145.566 51.2865 145.566 50.8242V50.6191C145.566 50.1634 145.52 49.737 145.429 49.3398C145.338 48.9362 145.195 48.5814 144.999 48.2754C144.811 47.9629 144.563 47.7188 144.257 47.543C143.958 47.3607 143.596 47.2695 143.173 47.2695C142.757 47.2695 142.399 47.3607 142.099 47.543C141.8 47.7188 141.555 47.9629 141.367 48.2754C141.178 48.5814 141.038 48.9362 140.947 49.3398C140.856 49.737 140.81 50.1634 140.81 50.6191ZM152.958 53.4609L155.273 45.4336H156.914L156.425 48.207L154.091 56H152.675L152.958 53.4609ZM151.679 45.4336L153.417 53.4805L153.574 56H151.943L149.169 45.4336H151.679ZM159.062 53.3633L160.761 45.4336H163.261L160.507 56H158.876L159.062 53.3633ZM157.167 45.4336L159.462 53.3828L159.765 56H158.349L155.996 48.207L155.517 45.4336H157.167ZM167.519 41V56H164.931V41H167.519ZM174.726 56.1953C173.925 56.1953 173.206 56.0651 172.568 55.8047C171.93 55.5443 171.386 55.1829 170.937 54.7207C170.494 54.252 170.152 53.7083 169.912 53.0898C169.677 52.4648 169.56 51.7943 169.56 51.0781V50.6875C169.56 49.8737 169.677 49.1348 169.912 48.4707C170.146 47.8001 170.478 47.224 170.908 46.7422C171.337 46.2604 171.852 45.8893 172.451 45.6289C173.05 45.3685 173.71 45.2383 174.433 45.2383C175.182 45.2383 175.843 45.3652 176.415 45.6191C176.988 45.8665 177.467 46.2181 177.851 46.6738C178.235 47.1296 178.525 47.6764 178.72 48.3145C178.915 48.946 179.013 49.6458 179.013 50.4141V51.498H170.732V49.7207H176.474V49.5254C176.461 49.1152 176.383 48.7409 176.24 48.4023C176.096 48.0573 175.875 47.7839 175.576 47.582C175.276 47.3737 174.889 47.2695 174.414 47.2695C174.029 47.2695 173.694 47.3542 173.408 47.5234C173.128 47.6862 172.893 47.9206 172.705 48.2266C172.522 48.526 172.386 48.8841 172.294 49.3008C172.203 49.7174 172.158 50.1797 172.158 50.6875V51.0781C172.158 51.5208 172.216 51.931 172.333 52.3086C172.457 52.6862 172.636 53.015 172.871 53.2949C173.111 53.5684 173.398 53.7832 173.73 53.9395C174.068 54.0892 174.453 54.1641 174.882 54.1641C175.423 54.1641 175.911 54.0599 176.347 53.8516C176.79 53.6367 177.174 53.321 177.499 52.9043L178.798 54.252C178.577 54.5775 178.277 54.89 177.9 55.1895C177.529 55.4889 177.08 55.7331 176.552 55.9219C176.025 56.1042 175.416 56.1953 174.726 56.1953ZM187.08 53.7539V41H189.677V56H187.333L187.08 53.7539ZM180.292 50.8438V50.6387C180.292 49.8314 180.384 49.099 180.566 48.4414C180.755 47.7773 181.028 47.2077 181.386 46.7324C181.744 46.2572 182.177 45.8893 182.685 45.6289C183.199 45.3685 183.782 45.2383 184.433 45.2383C185.065 45.2383 185.615 45.3652 186.083 45.6191C186.559 45.873 186.962 46.2344 187.294 46.7031C187.633 47.1719 187.903 47.7285 188.105 48.373C188.307 49.0111 188.453 49.7142 188.544 50.4824V51.0391C188.453 51.7878 188.307 52.4746 188.105 53.0996C187.903 53.7246 187.633 54.2715 187.294 54.7402C186.962 55.2025 186.559 55.5605 186.083 55.8145C185.608 56.0684 185.052 56.1953 184.414 56.1953C183.769 56.1953 183.19 56.0618 182.675 55.7949C182.167 55.528 181.734 55.1536 181.376 54.6719C181.025 54.1901 180.755 53.6237 180.566 52.9727C180.384 52.3216 180.292 51.612 180.292 50.8438ZM182.88 50.6387V50.8438C182.88 51.2995 182.919 51.7259 182.997 52.123C183.076 52.5202 183.203 52.8717 183.378 53.1777C183.554 53.4772 183.779 53.7116 184.052 53.8809C184.332 54.0501 184.671 54.1348 185.068 54.1348C185.576 54.1348 185.992 54.0241 186.318 53.8027C186.65 53.5749 186.907 53.2656 187.089 52.875C187.272 52.4779 187.389 52.0319 187.441 51.5371V50.0039C187.415 49.6133 187.346 49.252 187.236 48.9199C187.132 48.5879 186.982 48.3014 186.787 48.0605C186.598 47.8197 186.363 47.6309 186.083 47.4941C185.803 47.3574 185.471 47.2891 185.087 47.2891C184.69 47.2891 184.352 47.377 184.072 47.5527C183.792 47.722 183.564 47.9596 183.388 48.2656C183.212 48.5716 183.082 48.9264 182.997 49.3301C182.919 49.7337 182.88 50.1699 182.88 50.6387ZM198.73 45.4336H201.074V55.6777C201.074 56.6348 200.865 57.4453 200.449 58.1094C200.039 58.7799 199.462 59.2878 198.72 59.6328C197.978 59.9844 197.115 60.1602 196.132 60.1602C195.709 60.1602 195.25 60.1016 194.755 59.9844C194.267 59.8672 193.795 59.6816 193.339 59.4277C192.89 59.1803 192.516 58.8581 192.216 58.4609L193.378 56.9375C193.73 57.3477 194.127 57.6569 194.57 57.8652C195.012 58.0801 195.491 58.1875 196.005 58.1875C196.526 58.1875 196.969 58.0898 197.333 57.8945C197.705 57.7057 197.988 57.4258 198.183 57.0547C198.385 56.6901 198.486 56.2409 198.486 55.707V47.8457L198.73 45.4336ZM191.591 50.8438V50.6387C191.591 49.8314 191.689 49.099 191.884 48.4414C192.08 47.7773 192.359 47.2077 192.724 46.7324C193.095 46.2572 193.541 45.8893 194.062 45.6289C194.589 45.3685 195.182 45.2383 195.839 45.2383C196.536 45.2383 197.122 45.3652 197.597 45.6191C198.079 45.873 198.476 46.2344 198.789 46.7031C199.108 47.1719 199.355 47.7285 199.531 48.373C199.713 49.0111 199.853 49.7142 199.951 50.4824V51.0391C199.859 51.7878 199.713 52.4746 199.511 53.0996C199.316 53.7246 199.055 54.2715 198.73 54.7402C198.404 55.2025 198.001 55.5605 197.519 55.8145C197.037 56.0684 196.471 56.1953 195.82 56.1953C195.169 56.1953 194.583 56.0618 194.062 55.7949C193.541 55.528 193.095 55.1536 192.724 54.6719C192.359 54.1901 192.08 53.6237 191.884 52.9727C191.689 52.3216 191.591 51.612 191.591 50.8438ZM194.169 50.6387V50.8438C194.169 51.2995 194.215 51.7259 194.306 52.123C194.397 52.5202 194.537 52.8717 194.726 53.1777C194.915 53.4772 195.152 53.7116 195.439 53.8809C195.725 54.0501 196.067 54.1348 196.464 54.1348C196.998 54.1348 197.434 54.0241 197.773 53.8027C198.118 53.5749 198.378 53.2656 198.554 52.875C198.736 52.4779 198.854 52.0319 198.906 51.5371V50.0039C198.873 49.6133 198.802 49.252 198.691 48.9199C198.587 48.5879 198.44 48.3014 198.251 48.0605C198.063 47.8197 197.822 47.6309 197.529 47.4941C197.236 47.3574 196.887 47.2891 196.484 47.2891C196.093 47.2891 195.751 47.377 195.458 47.5527C195.165 47.722 194.925 47.9596 194.736 48.2656C194.547 48.5716 194.404 48.9264 194.306 49.3301C194.215 49.7337 194.169 50.1699 194.169 50.6387ZM208.144 56.1953C207.343 56.1953 206.624 56.0651 205.986 55.8047C205.348 55.5443 204.804 55.1829 204.355 54.7207C203.912 54.252 203.57 53.7083 203.33 53.0898C203.095 52.4648 202.978 51.7943 202.978 51.0781V50.6875C202.978 49.8737 203.095 49.1348 203.33 48.4707C203.564 47.8001 203.896 47.224 204.326 46.7422C204.755 46.2604 205.27 45.8893 205.869 45.6289C206.468 45.3685 207.128 45.2383 207.851 45.2383C208.6 45.2383 209.261 45.3652 209.833 45.6191C210.406 45.8665 210.885 46.2181 211.269 46.6738C211.653 47.1296 211.943 47.6764 212.138 48.3145C212.333 48.946 212.431 49.6458 212.431 50.4141V51.498H204.15V49.7207H209.892V49.5254C209.879 49.1152 209.801 48.7409 209.658 48.4023C209.514 48.0573 209.293 47.7839 208.994 47.582C208.694 47.3737 208.307 47.2695 207.831 47.2695C207.447 47.2695 207.112 47.3542 206.826 47.5234C206.546 47.6862 206.311 47.9206 206.122 48.2266C205.94 48.526 205.803 48.8841 205.712 49.3008C205.621 49.7174 205.576 50.1797 205.576 50.6875V51.0781C205.576 51.5208 205.634 51.931 205.751 52.3086C205.875 52.6862 206.054 53.015 206.289 53.2949C206.529 53.5684 206.816 53.7832 207.148 53.9395C207.486 54.0892 207.871 54.1641 208.3 54.1641C208.841 54.1641 209.329 54.0599 209.765 53.8516C210.208 53.6367 210.592 53.321 210.917 52.9043L212.216 54.252C211.995 54.5775 211.695 54.89 211.318 55.1895C210.947 55.4889 210.497 55.7331 209.97 55.9219C209.443 56.1042 208.834 56.1953 208.144 56.1953ZM216.728 47.6016V56H214.15V45.4336H216.581L216.728 47.6016ZM216.347 50.3359H215.556C215.556 49.6003 215.644 48.9232 215.82 48.3047C216.002 47.6862 216.269 47.1491 216.621 46.6934C216.972 46.2311 217.405 45.873 217.919 45.6191C218.44 45.3652 219.042 45.2383 219.726 45.2383C220.201 45.2383 220.637 45.3099 221.035 45.4531C221.432 45.5898 221.774 45.8079 222.06 46.1074C222.353 46.4004 222.578 46.7845 222.734 47.2598C222.89 47.7285 222.968 48.2917 222.968 48.9492V56H220.39V49.2129C220.39 48.7181 220.318 48.3307 220.175 48.0508C220.039 47.7708 219.84 47.5755 219.58 47.4648C219.319 47.3477 219.007 47.2891 218.642 47.2891C218.238 47.2891 217.89 47.3704 217.597 47.5332C217.311 47.6895 217.073 47.9076 216.884 48.1875C216.702 48.4674 216.565 48.7897 216.474 49.1543C216.389 49.5189 216.347 49.9128 216.347 50.3359ZM222.773 49.8574L221.708 50.0527C221.715 49.3887 221.806 48.7669 221.982 48.1875C222.158 47.6016 222.415 47.0905 222.753 46.6543C223.098 46.2116 223.525 45.8665 224.033 45.6191C224.547 45.3652 225.139 45.2383 225.81 45.2383C226.331 45.2383 226.8 45.3132 227.216 45.4629C227.639 45.6061 228.001 45.8372 228.3 46.1562C228.6 46.4688 228.828 46.8757 228.984 47.377C229.147 47.8783 229.228 48.4902 229.228 49.2129V56H226.63V49.2031C226.63 48.6888 226.559 48.2949 226.415 48.0215C226.279 47.748 226.08 47.5592 225.82 47.4551C225.559 47.3444 225.253 47.2891 224.902 47.2891C224.544 47.2891 224.231 47.3574 223.964 47.4941C223.704 47.6243 223.483 47.8066 223.3 48.041C223.124 48.2754 222.991 48.5488 222.9 48.8613C222.815 49.1673 222.773 49.4993 222.773 49.8574ZM236.289 56.1953C235.488 56.1953 234.768 56.0651 234.13 55.8047C233.492 55.5443 232.949 55.1829 232.499 54.7207C232.057 54.252 231.715 53.7083 231.474 53.0898C231.24 52.4648 231.122 51.7943 231.122 51.0781V50.6875C231.122 49.8737 231.24 49.1348 231.474 48.4707C231.708 47.8001 232.04 47.224 232.47 46.7422C232.9 46.2604 233.414 45.8893 234.013 45.6289C234.612 45.3685 235.273 45.2383 235.996 45.2383C236.744 45.2383 237.405 45.3652 237.978 45.6191C238.551 45.8665 239.029 46.2181 239.414 46.6738C239.798 47.1296 240.087 47.6764 240.283 48.3145C240.478 48.946 240.576 49.6458 240.576 50.4141V51.498H232.294V49.7207H238.037V49.5254C238.024 49.1152 237.945 48.7409 237.802 48.4023C237.659 48.0573 237.438 47.7839 237.138 47.582C236.839 47.3737 236.451 47.2695 235.976 47.2695C235.592 47.2695 235.257 47.3542 234.97 47.5234C234.69 47.6862 234.456 47.9206 234.267 48.2266C234.085 48.526 233.948 48.8841 233.857 49.3008C233.766 49.7174 233.72 50.1797 233.72 50.6875V51.0781C233.72 51.5208 233.779 51.931 233.896 52.3086C234.02 52.6862 234.199 53.015 234.433 53.2949C234.674 53.5684 234.96 53.7832 235.292 53.9395C235.631 54.0892 236.015 54.1641 236.445 54.1641C236.985 54.1641 237.473 54.0599 237.91 53.8516C238.352 53.6367 238.736 53.321 239.062 52.9043L240.361 54.252C240.139 54.5775 239.84 54.89 239.462 55.1895C239.091 55.4889 238.642 55.7331 238.115 55.9219C237.587 56.1042 236.979 56.1953 236.289 56.1953ZM244.833 47.6895V56H242.255V45.4336H244.677L244.833 47.6895ZM244.423 50.3359H243.662C243.668 49.5677 243.772 48.8711 243.974 48.2461C244.176 47.6211 244.459 47.084 244.824 46.6348C245.195 46.1855 245.634 45.8405 246.142 45.5996C246.65 45.3587 247.216 45.2383 247.841 45.2383C248.349 45.2383 248.808 45.3099 249.218 45.4531C249.628 45.5964 249.98 45.8242 250.273 46.1367C250.572 46.4492 250.8 46.8594 250.956 47.3672C251.119 47.8685 251.201 48.487 251.201 49.2227V56H248.603V49.2031C248.603 48.7214 248.531 48.3405 248.388 48.0605C248.251 47.7806 248.05 47.582 247.783 47.4648C247.522 47.3477 247.2 47.2891 246.816 47.2891C246.419 47.2891 246.07 47.3704 245.771 47.5332C245.478 47.6895 245.231 47.9076 245.029 48.1875C244.833 48.4674 244.684 48.7897 244.58 49.1543C244.475 49.5189 244.423 49.9128 244.423 50.3359ZM258.476 45.4336V47.2891H252.421V45.4336H258.476ZM254.042 42.8359H256.63V52.9531C256.63 53.2656 256.673 53.5065 256.757 53.6758C256.842 53.8451 256.969 53.959 257.138 54.0176C257.307 54.0762 257.509 54.1055 257.744 54.1055C257.913 54.1055 258.069 54.0957 258.212 54.0762C258.356 54.0566 258.476 54.0371 258.574 54.0176L258.583 55.9512C258.369 56.0228 258.124 56.0814 257.851 56.127C257.584 56.1725 257.281 56.1953 256.943 56.1953C256.363 56.1953 255.856 56.0977 255.419 55.9023C254.983 55.7005 254.645 55.3783 254.404 54.9355C254.163 54.4863 254.042 53.8939 254.042 53.1582V42.8359ZM266.005 53.1094C266.005 52.888 265.947 52.6895 265.83 52.5137C265.712 52.3379 265.491 52.1784 265.165 52.0352C264.846 51.8854 264.378 51.7454 263.759 51.6152C263.212 51.498 262.708 51.3516 262.246 51.1758C261.783 51 261.386 50.7884 261.054 50.541C260.722 50.2871 260.462 49.9909 260.273 49.6523C260.091 49.3073 259.999 48.9102 259.999 48.4609C259.999 48.0247 260.094 47.6146 260.283 47.2305C260.471 46.8398 260.745 46.498 261.103 46.2051C261.461 45.9056 261.897 45.6712 262.412 45.502C262.926 45.3262 263.505 45.2383 264.15 45.2383C265.048 45.2383 265.82 45.3848 266.464 45.6777C267.115 45.9707 267.613 46.3743 267.958 46.8887C268.303 47.3965 268.476 47.9694 268.476 48.6074H265.898C265.898 48.3275 265.833 48.0736 265.703 47.8457C265.579 47.6178 265.387 47.4355 265.126 47.2988C264.866 47.1556 264.537 47.084 264.14 47.084C263.782 47.084 263.479 47.1426 263.232 47.2598C262.991 47.377 262.809 47.5299 262.685 47.7188C262.561 47.9076 262.499 48.1159 262.499 48.3438C262.499 48.513 262.532 48.666 262.597 48.8027C262.669 48.9329 262.783 49.0534 262.939 49.1641C263.095 49.2747 263.307 49.3757 263.574 49.4668C263.847 49.5579 264.182 49.6458 264.58 49.7305C265.367 49.8867 266.054 50.0951 266.64 50.3555C267.233 50.6094 267.695 50.9479 268.027 51.3711C268.359 51.7943 268.525 52.3346 268.525 52.9922C268.525 53.4609 268.424 53.8906 268.222 54.2812C268.02 54.6654 267.727 55.0007 267.343 55.2871C266.959 55.5736 266.5 55.7982 265.966 55.9609C265.432 56.1172 264.83 56.1953 264.16 56.1953C263.19 56.1953 262.369 56.0228 261.699 55.6777C261.028 55.3262 260.52 54.8835 260.175 54.3496C259.83 53.8092 259.658 53.2493 259.658 52.6699H262.128C262.148 53.0801 262.259 53.4089 262.46 53.6562C262.662 53.9036 262.916 54.0827 263.222 54.1934C263.535 54.2975 263.863 54.3496 264.208 54.3496C264.599 54.3496 264.928 54.2975 265.195 54.1934C265.462 54.0827 265.664 53.9362 265.8 53.7539C265.937 53.5651 266.005 53.3503 266.005 53.1094Z" fill="#F5D174"/>
<rect x="91.9959" y="62.9343" width="580.655" height="4.95293" transform="rotate(0.109739 91.9959 62.9343)" fill="#F5D174"/>
<path d="M44.5 65.375C43.8271 65.375 43.2626 65.147 42.8066 64.691C42.3506 64.235 42.1234 63.6713 42.125 63C42.125 62.3271 42.353 61.7626 42.809 61.3066C43.265 60.8506 43.8287 60.6234 44.5 60.625C45.1729 60.625 45.7374 60.853 46.1934 61.309C46.6494 61.765 46.8766 62.3287 46.875 63C46.875 63.6729 46.647 64.2374 46.191 64.6934C45.735 65.1494 45.1713 65.3766 44.5 65.375ZM44.5 55.875C43.8271 55.875 43.2626 55.647 42.8066 55.191C42.3506 54.735 42.1234 54.1713 42.125 53.5C42.125 52.8271 42.353 52.2626 42.809 51.8066C43.265 51.3506 43.8287 51.1234 44.5 51.125C45.1729 51.125 45.7374 51.353 46.1934 51.809C46.6494 52.265 46.8766 52.8287 46.875 53.5C46.875 54.1729 46.647 54.7374 46.191 55.1934C45.735 55.6494 45.1713 55.8766 44.5 55.875ZM44.5 46.375C43.8271 46.375 43.2626 46.147 42.8066 45.691C42.3506 45.235 42.1234 44.6713 42.125 44C42.125 43.3271 42.353 42.7626 42.809 42.3066C43.265 41.8506 43.8287 41.6234 44.5 41.625C45.1729 41.625 45.7374 41.853 46.1934 42.309C46.6494 42.765 46.8766 43.3287 46.875 44C46.875 44.6729 46.647 45.2374 46.191 45.6934C45.735 46.1494 45.1713 46.3766 44.5 46.375ZM51.625 65.375V60.625H84.875V65.375H51.625ZM51.625 55.875V51.125H84.875V55.875H51.625ZM51.625 46.375V41.625H84.875V46.375H51.625Z" fill="#F5D174"/>
</svg>
