<svg width="717" height="112" viewBox="0 0 717 112" fill="none" xmlns="http://www.w3.org/2000/svg">
<path d="M0 0H717V112H0V0Z" fill="white"/>
<path d="M97.6069 60H94.5405L94.56 57.8906H97.6069C98.4337 57.8906 99.1271 57.7083 99.687 57.3438C100.247 56.9727 100.67 56.4421 100.956 55.752C101.243 55.0553 101.386 54.222 101.386 53.252V52.5195C101.386 51.7708 101.305 51.11 101.142 50.5371C100.979 49.9642 100.738 49.4824 100.419 49.0918C100.107 48.7012 99.7195 48.4049 99.2573 48.2031C98.795 48.0013 98.2644 47.9004 97.6655 47.9004H94.4819V45.7812H97.6655C98.616 45.7812 99.4819 45.9408 100.263 46.2598C101.051 46.5788 101.731 47.0378 102.304 47.6367C102.884 48.2292 103.326 48.9388 103.632 49.7656C103.945 50.5924 104.101 51.5169 104.101 52.5391V53.252C104.101 54.2676 103.945 55.1921 103.632 56.0254C103.326 56.8522 102.884 57.5618 102.304 58.1543C101.731 58.7467 101.048 59.2025 100.253 59.5215C99.4591 59.8405 98.5769 60 97.6069 60ZM96.0444 45.7812V60H93.3588V45.7812H96.0444ZM110.937 60.1953C110.136 60.1953 109.417 60.0651 108.779 59.8047C108.141 59.5443 107.597 59.1829 107.148 58.7207C106.705 58.252 106.363 57.7083 106.122 57.0898C105.888 56.4648 105.771 55.7943 105.771 55.0781V54.6875C105.771 53.8737 105.888 53.1348 106.122 52.4707C106.357 51.8001 106.689 51.224 107.119 50.7422C107.548 50.2604 108.063 49.8893 108.662 49.6289C109.261 49.3685 109.921 49.2383 110.644 49.2383C111.393 49.2383 112.053 49.3652 112.626 49.6191C113.199 49.8665 113.678 50.2181 114.062 50.6738C114.446 51.1296 114.736 51.6764 114.931 52.3145C115.126 52.946 115.224 53.6458 115.224 54.4141V55.498H106.943V53.7207H112.685V53.5254C112.672 53.1152 112.594 52.7409 112.451 52.4023C112.307 52.0573 112.086 51.7839 111.787 51.582C111.487 51.3737 111.1 51.2695 110.624 51.2695C110.24 51.2695 109.905 51.3542 109.619 51.5234C109.339 51.6862 109.104 51.9206 108.915 52.2266C108.733 52.526 108.596 52.8841 108.505 53.3008C108.414 53.7174 108.369 54.1797 108.369 54.6875V55.0781C108.369 55.5208 108.427 55.931 108.544 56.3086C108.668 56.6862 108.847 57.015 109.081 57.2949C109.322 57.5684 109.609 57.7832 109.941 57.9395C110.279 58.0892 110.664 58.1641 111.093 58.1641C111.634 58.1641 112.122 58.0599 112.558 57.8516C113.001 57.6367 113.385 57.321 113.71 56.9043L115.009 58.252C114.788 58.5775 114.488 58.89 114.111 59.1895C113.74 59.4889 113.29 59.7331 112.763 59.9219C112.236 60.1042 111.627 60.1953 110.937 60.1953ZM119.531 51.4648V64.0625H116.943V49.4336H119.335L119.531 51.4648ZM126.318 54.6094V54.8145C126.318 55.5827 126.227 56.2956 126.044 56.9531C125.869 57.6042 125.608 58.1738 125.263 58.6621C124.918 59.1439 124.488 59.5215 123.974 59.7949C123.466 60.0618 122.88 60.1953 122.216 60.1953C121.565 60.1953 120.999 60.0716 120.517 59.8242C120.035 59.5703 119.628 59.2122 119.296 58.75C118.964 58.2878 118.697 57.7507 118.496 57.1387C118.3 56.5202 118.154 55.8464 118.056 55.1172V54.4629C118.154 53.6882 118.3 52.985 118.496 52.3535C118.697 51.7155 118.964 51.1654 119.296 50.7031C119.628 50.2344 120.032 49.873 120.507 49.6191C120.989 49.3652 121.552 49.2383 122.197 49.2383C122.867 49.2383 123.456 49.3652 123.964 49.6191C124.479 49.873 124.912 50.2376 125.263 50.7129C125.615 51.1882 125.878 51.7546 126.054 52.4121C126.23 53.0697 126.318 53.8021 126.318 54.6094ZM123.73 54.8145V54.6094C123.73 54.1406 123.688 53.7077 123.603 53.3105C123.518 52.9069 123.388 52.5553 123.212 52.2559C123.037 51.9499 122.809 51.7122 122.529 51.543C122.249 51.3737 121.91 51.2891 121.513 51.2891C121.116 51.2891 120.774 51.3542 120.488 51.4844C120.201 51.6146 119.967 51.8001 119.785 52.041C119.602 52.2819 119.459 52.5684 119.355 52.9004C119.257 53.2259 119.192 53.5872 119.16 53.9844V55.6055C119.218 56.0872 119.332 56.5202 119.501 56.9043C119.671 57.2884 119.918 57.5944 120.244 57.8223C120.576 58.0501 121.005 58.1641 121.533 58.1641C121.93 58.1641 122.268 58.0762 122.548 57.9004C122.828 57.7246 123.056 57.4837 123.232 57.1777C123.408 56.8652 123.535 56.5072 123.613 56.1035C123.691 55.6999 123.73 55.2702 123.73 54.8145ZM130.937 45V60H128.349V45H130.937ZM132.939 54.8242V54.6191C132.939 53.8444 133.05 53.1315 133.271 52.4805C133.492 51.8229 133.815 51.2533 134.238 50.7715C134.661 50.2897 135.178 49.9154 135.79 49.6484C136.402 49.375 137.099 49.2383 137.88 49.2383C138.675 49.2383 139.378 49.375 139.99 49.6484C140.608 49.9154 141.129 50.2897 141.552 50.7715C141.975 51.2533 142.298 51.8229 142.519 52.4805C142.74 53.1315 142.851 53.8444 142.851 54.6191V54.8242C142.851 55.5924 142.74 56.3053 142.519 56.9629C142.298 57.6139 141.975 58.1836 141.552 58.6719C141.129 59.1536 140.611 59.528 139.999 59.7949C139.387 60.0618 138.688 60.1953 137.9 60.1953C137.119 60.1953 136.419 60.0618 135.8 59.7949C135.182 59.528 134.661 59.1536 134.238 58.6719C133.815 58.1836 133.492 57.6139 133.271 56.9629C133.05 56.3053 132.939 55.5924 132.939 54.8242ZM135.517 54.6191V54.8242C135.517 55.2865 135.563 55.7194 135.654 56.123C135.745 56.5267 135.885 56.8815 136.074 57.1875C136.262 57.4935 136.507 57.7344 136.806 57.9102C137.112 58.0794 137.477 58.1641 137.9 58.1641C138.317 58.1641 138.675 58.0794 138.974 57.9102C139.274 57.7344 139.518 57.4935 139.706 57.1875C139.902 56.8815 140.045 56.5267 140.136 56.123C140.227 55.7194 140.273 55.2865 140.273 54.8242V54.6191C140.273 54.1634 140.227 53.737 140.136 53.3398C140.045 52.9362 139.902 52.5814 139.706 52.2754C139.518 51.9629 139.27 51.7188 138.964 51.543C138.665 51.3607 138.303 51.2695 137.88 51.2695C137.464 51.2695 137.106 51.3607 136.806 51.543C136.507 51.7188 136.262 51.9629 136.074 52.2754C135.885 52.5814 135.745 52.9362 135.654 53.3398C135.563 53.737 135.517 54.1634 135.517 54.6191ZM147.665 58.8281L150.497 49.4336H153.261L149.023 61.6016C148.925 61.862 148.798 62.1452 148.642 62.4512C148.492 62.7572 148.29 63.0469 148.037 63.3203C147.783 63.6003 147.464 63.8281 147.08 64.0039C146.702 64.1797 146.243 64.2676 145.703 64.2676C145.468 64.2676 145.26 64.2513 145.078 64.2188C144.895 64.1862 144.703 64.1439 144.501 64.0918V62.1582C144.567 62.1647 144.641 62.168 144.726 62.168C144.817 62.1745 144.895 62.1777 144.96 62.1777C145.338 62.1777 145.65 62.1322 145.898 62.041C146.145 61.9564 146.344 61.8164 146.494 61.6211C146.65 61.4323 146.78 61.1849 146.884 60.8789L147.665 58.8281ZM146.269 49.4336L148.662 57.2168L149.081 59.9414L147.304 60.2637L143.486 49.4336H146.269ZM157.08 51.6016V60H154.501V49.4336H156.933L157.08 51.6016ZM156.699 54.3359H155.908C155.908 53.6003 155.996 52.9232 156.171 52.3047C156.354 51.6862 156.621 51.1491 156.972 50.6934C157.324 50.2311 157.757 49.873 158.271 49.6191C158.792 49.3652 159.394 49.2383 160.078 49.2383C160.553 49.2383 160.989 49.3099 161.386 49.4531C161.783 49.5898 162.125 49.8079 162.412 50.1074C162.705 50.4004 162.929 50.7845 163.085 51.2598C163.242 51.7285 163.32 52.2917 163.32 52.9492V60H160.742V53.2129C160.742 52.7181 160.67 52.3307 160.527 52.0508C160.39 51.7708 160.192 51.5755 159.931 51.4648C159.671 51.3477 159.358 51.2891 158.994 51.2891C158.59 51.2891 158.242 51.3704 157.949 51.5332C157.662 51.6895 157.425 51.9076 157.236 52.1875C157.053 52.4674 156.917 52.7897 156.826 53.1543C156.741 53.5189 156.699 53.9128 156.699 54.3359ZM163.124 53.8574L162.06 54.0527C162.067 53.3887 162.158 52.7669 162.333 52.1875C162.509 51.6016 162.766 51.0905 163.105 50.6543C163.45 50.2116 163.876 49.8665 164.384 49.6191C164.899 49.3652 165.491 49.2383 166.162 49.2383C166.682 49.2383 167.151 49.3132 167.568 49.4629C167.991 49.6061 168.352 49.8372 168.652 50.1562C168.951 50.4688 169.179 50.8757 169.335 51.377C169.498 51.8783 169.58 52.4902 169.58 53.2129V60H166.982V53.2031C166.982 52.6888 166.91 52.2949 166.767 52.0215C166.63 51.748 166.432 51.5592 166.171 51.4551C165.911 51.3444 165.605 51.2891 165.253 51.2891C164.895 51.2891 164.583 51.3574 164.316 51.4941C164.055 51.6243 163.834 51.8066 163.652 52.041C163.476 52.2754 163.343 52.5488 163.251 52.8613C163.167 53.1673 163.124 53.4993 163.124 53.8574ZM176.64 60.1953C175.839 60.1953 175.12 60.0651 174.482 59.8047C173.844 59.5443 173.3 59.1829 172.851 58.7207C172.408 58.252 172.067 57.7083 171.826 57.0898C171.591 56.4648 171.474 55.7943 171.474 55.0781V54.6875C171.474 53.8737 171.591 53.1348 171.826 52.4707C172.06 51.8001 172.392 51.224 172.822 50.7422C173.251 50.2604 173.766 49.8893 174.365 49.6289C174.964 49.3685 175.624 49.2383 176.347 49.2383C177.096 49.2383 177.757 49.3652 178.33 49.6191C178.902 49.8665 179.381 50.2181 179.765 50.6738C180.149 51.1296 180.439 51.6764 180.634 52.3145C180.83 52.946 180.927 53.6458 180.927 54.4141V55.498H172.646V53.7207H178.388V53.5254C178.375 53.1152 178.297 52.7409 178.154 52.4023C178.011 52.0573 177.789 51.7839 177.49 51.582C177.19 51.3737 176.803 51.2695 176.328 51.2695C175.943 51.2695 175.608 51.3542 175.322 51.5234C175.042 51.6862 174.807 51.9206 174.619 52.2266C174.436 52.526 174.3 52.8841 174.208 53.3008C174.117 53.7174 174.072 54.1797 174.072 54.6875V55.0781C174.072 55.5208 174.13 55.931 174.247 56.3086C174.371 56.6862 174.55 57.015 174.785 57.2949C175.025 57.5684 175.312 57.7832 175.644 57.9395C175.983 58.0892 176.367 58.1641 176.796 58.1641C177.337 58.1641 177.825 58.0599 178.261 57.8516C178.704 57.6367 179.088 57.321 179.414 56.9043L180.712 58.252C180.491 58.5775 180.192 58.89 179.814 59.1895C179.443 59.4889 178.994 59.7331 178.466 59.9219C177.939 60.1042 177.33 60.1953 176.64 60.1953ZM185.185 51.6895V60H182.607V49.4336H185.029L185.185 51.6895ZM184.775 54.3359H184.013C184.02 53.5677 184.124 52.8711 184.326 52.2461C184.527 51.6211 184.811 51.084 185.175 50.6348C185.546 50.1855 185.986 49.8405 186.494 49.5996C187.001 49.3587 187.568 49.2383 188.193 49.2383C188.701 49.2383 189.16 49.3099 189.57 49.4531C189.98 49.5964 190.331 49.8242 190.624 50.1367C190.924 50.4492 191.152 50.8594 191.308 51.3672C191.471 51.8685 191.552 52.487 191.552 53.2227V60H188.955V53.2031C188.955 52.7214 188.883 52.3405 188.74 52.0605C188.603 51.7806 188.401 51.582 188.134 51.4648C187.874 51.3477 187.552 51.2891 187.167 51.2891C186.77 51.2891 186.422 51.3704 186.122 51.5332C185.83 51.6895 185.582 51.9076 185.38 52.1875C185.185 52.4674 185.035 52.7897 184.931 53.1543C184.827 53.5189 184.775 53.9128 184.775 54.3359ZM198.828 49.4336V51.2891H192.773V49.4336H198.828ZM194.394 46.8359H196.982V56.9531C196.982 57.2656 197.024 57.5065 197.109 57.6758C197.193 57.8451 197.32 57.959 197.49 58.0176C197.659 58.0762 197.861 58.1055 198.095 58.1055C198.264 58.1055 198.421 58.0957 198.564 58.0762C198.707 58.0566 198.828 58.0371 198.925 58.0176L198.935 59.9512C198.72 60.0228 198.476 60.0814 198.203 60.127C197.936 60.1725 197.633 60.1953 197.294 60.1953C196.715 60.1953 196.207 60.0977 195.771 59.9023C195.335 59.7005 194.996 59.3783 194.755 58.9355C194.514 58.4863 194.394 57.8939 194.394 57.1582V46.8359ZM211.347 57.7539V52.8809C211.347 52.5228 211.285 52.2135 211.162 51.9531C211.038 51.6927 210.849 51.4909 210.595 51.3477C210.341 51.2044 210.019 51.1328 209.628 51.1328C209.283 51.1328 208.981 51.1914 208.72 51.3086C208.466 51.4258 208.271 51.5918 208.134 51.8066C207.997 52.015 207.929 52.2559 207.929 52.5293H205.341C205.341 52.0931 205.445 51.6797 205.654 51.2891C205.862 50.8919 206.158 50.5404 206.542 50.2344C206.933 49.9219 207.399 49.6777 207.939 49.502C208.486 49.3262 209.098 49.2383 209.775 49.2383C210.576 49.2383 211.289 49.375 211.914 49.6484C212.545 49.9154 213.04 50.319 213.398 50.8594C213.762 51.3997 213.945 52.0801 213.945 52.9004V57.5098C213.945 58.0371 213.977 58.4896 214.042 58.8672C214.114 59.2383 214.218 59.5605 214.355 59.834V60H211.728C211.604 59.7331 211.51 59.3945 211.445 58.9844C211.38 58.5677 211.347 58.1576 211.347 57.7539ZM211.708 53.5645L211.728 55.0977H210.097C209.693 55.0977 209.339 55.14 209.033 55.2246C208.727 55.3027 208.476 55.4199 208.281 55.5762C208.085 55.7259 207.939 55.9082 207.841 56.123C207.744 56.3314 207.695 56.569 207.695 56.8359C207.695 57.0964 207.753 57.3307 207.871 57.5391C207.994 57.7474 208.17 57.9134 208.398 58.0371C208.632 58.1543 208.906 58.2129 209.218 58.2129C209.674 58.2129 210.071 58.1217 210.41 57.9395C210.748 57.7507 211.012 57.5228 211.201 57.2559C211.389 56.9889 211.49 56.735 211.503 56.4941L212.246 57.6074C212.154 57.8743 212.018 58.1576 211.835 58.457C211.653 58.7565 211.419 59.0365 211.132 59.2969C210.846 59.5573 210.501 59.7721 210.097 59.9414C209.693 60.1107 209.225 60.1953 208.691 60.1953C208.007 60.1953 207.395 60.0586 206.855 59.7852C206.315 59.5117 205.888 59.1374 205.576 58.6621C205.263 58.1868 205.107 57.6465 205.107 57.041C205.107 56.4811 205.211 55.9863 205.419 55.5566C205.628 55.127 205.937 54.7656 206.347 54.4727C206.757 54.1732 207.265 53.9486 207.871 53.7988C208.483 53.6426 209.182 53.5645 209.97 53.5645H211.708ZM218.798 51.6895V60H216.22V49.4336H218.642L218.798 51.6895ZM218.388 54.3359H217.626C217.633 53.5677 217.737 52.8711 217.939 52.2461C218.141 51.6211 218.424 51.084 218.789 50.6348C219.16 50.1855 219.599 49.8405 220.107 49.5996C220.615 49.3587 221.181 49.2383 221.806 49.2383C222.314 49.2383 222.773 49.3099 223.183 49.4531C223.593 49.5964 223.945 49.8242 224.238 50.1367C224.537 50.4492 224.765 50.8594 224.921 51.3672C225.084 51.8685 225.165 52.487 225.165 53.2227V60H222.568V53.2031C222.568 52.7214 222.496 52.3405 222.353 52.0605C222.216 51.7806 222.014 51.582 221.747 51.4648C221.487 51.3477 221.165 51.2891 220.781 51.2891C220.384 51.2891 220.035 51.3704 219.736 51.5332C219.443 51.6895 219.195 51.9076 218.994 52.1875C218.798 52.4674 218.649 52.7897 218.544 53.1543C218.44 53.5189 218.388 53.9128 218.388 54.3359ZM233.779 57.7539V45H236.376V60H234.033L233.779 57.7539ZM226.992 54.8438V54.6387C226.992 53.8314 227.083 53.099 227.265 52.4414C227.454 51.7773 227.727 51.2077 228.085 50.7324C228.443 50.2572 228.876 49.8893 229.384 49.6289C229.899 49.3685 230.481 49.2383 231.132 49.2383C231.764 49.2383 232.314 49.3652 232.783 49.6191C233.258 49.873 233.662 50.2344 233.994 50.7031C234.332 51.1719 234.602 51.7285 234.804 52.373C235.006 53.0111 235.152 53.7142 235.244 54.4824V55.0391C235.152 55.7878 235.006 56.4746 234.804 57.0996C234.602 57.7246 234.332 58.2715 233.994 58.7402C233.662 59.2025 233.258 59.5605 232.783 59.8145C232.307 60.0684 231.751 60.1953 231.113 60.1953C230.468 60.1953 229.889 60.0618 229.374 59.7949C228.867 59.528 228.434 59.1536 228.076 58.6719C227.724 58.1901 227.454 57.6237 227.265 56.9727C227.083 56.3216 226.992 55.612 226.992 54.8438ZM229.58 54.6387V54.8438C229.58 55.2995 229.619 55.7259 229.697 56.123C229.775 56.5202 229.902 56.8717 230.078 57.1777C230.253 57.4772 230.478 57.7116 230.751 57.8809C231.031 58.0501 231.37 58.1348 231.767 58.1348C232.275 58.1348 232.692 58.0241 233.017 57.8027C233.349 57.5749 233.606 57.2656 233.789 56.875C233.971 56.4779 234.088 56.0319 234.14 55.5371V54.0039C234.114 53.6133 234.046 53.252 233.935 52.9199C233.831 52.5879 233.681 52.3014 233.486 52.0605C233.297 51.8197 233.063 51.6309 232.783 51.4941C232.503 51.3574 232.171 51.2891 231.787 51.2891C231.389 51.2891 231.051 51.377 230.771 51.5527C230.491 51.722 230.263 51.9596 230.087 52.2656C229.912 52.5716 229.781 52.9264 229.697 53.3301C229.619 53.7337 229.58 54.1699 229.58 54.6387ZM251.796 45.7812H254.482V55.2246C254.482 56.3118 254.247 57.2266 253.779 57.9688C253.31 58.7044 252.672 59.2611 251.865 59.6387C251.057 60.0098 250.139 60.1953 249.111 60.1953C248.069 60.1953 247.141 60.0098 246.328 59.6387C245.514 59.2611 244.876 58.7044 244.414 57.9688C243.951 57.2266 243.72 56.3118 243.72 55.2246V45.7812H246.406V55.2246C246.406 55.8887 246.516 56.4323 246.738 56.8555C246.959 57.2721 247.272 57.5814 247.675 57.7832C248.079 57.985 248.557 58.0859 249.111 58.0859C249.671 58.0859 250.149 57.985 250.546 57.7832C250.95 57.5814 251.259 57.2721 251.474 56.8555C251.689 56.4323 251.796 55.8887 251.796 55.2246V45.7812ZM262.646 57.1094C262.646 56.888 262.587 56.6895 262.47 56.5137C262.353 56.3379 262.132 56.1784 261.806 56.0352C261.487 55.8854 261.018 55.7454 260.4 55.6152C259.853 55.498 259.348 55.3516 258.886 55.1758C258.424 55 258.027 54.7884 257.695 54.541C257.363 54.2871 257.102 53.9909 256.914 53.6523C256.731 53.3073 256.64 52.9102 256.64 52.4609C256.64 52.0247 256.734 51.6146 256.923 51.2305C257.112 50.8398 257.386 50.498 257.744 50.2051C258.102 49.9056 258.538 49.6712 259.052 49.502C259.567 49.3262 260.146 49.2383 260.79 49.2383C261.689 49.2383 262.46 49.3848 263.105 49.6777C263.756 49.9707 264.254 50.3743 264.599 50.8887C264.944 51.3965 265.117 51.9694 265.117 52.6074H262.539C262.539 52.3275 262.473 52.0736 262.343 51.8457C262.22 51.6178 262.027 51.4355 261.767 51.2988C261.507 51.1556 261.178 51.084 260.781 51.084C260.423 51.084 260.12 51.1426 259.872 51.2598C259.632 51.377 259.449 51.5299 259.326 51.7188C259.202 51.9076 259.14 52.1159 259.14 52.3438C259.14 52.513 259.173 52.666 259.238 52.8027C259.309 52.9329 259.423 53.0534 259.58 53.1641C259.736 53.2747 259.947 53.3757 260.214 53.4668C260.488 53.5579 260.823 53.6458 261.22 53.7305C262.008 53.8867 262.695 54.0951 263.281 54.3555C263.873 54.6094 264.335 54.9479 264.667 55.3711C264.999 55.7943 265.165 56.3346 265.165 56.9922C265.165 57.4609 265.065 57.8906 264.863 58.2812C264.661 58.6654 264.368 59.0007 263.984 59.2871C263.6 59.5736 263.141 59.7982 262.607 59.9609C262.073 60.1172 261.471 60.1953 260.8 60.1953C259.83 60.1953 259.01 60.0228 258.339 59.6777C257.669 59.3262 257.161 58.8835 256.816 58.3496C256.471 57.8092 256.298 57.2493 256.298 56.6699H258.769C258.789 57.0801 258.899 57.4089 259.101 57.6562C259.303 57.9036 259.557 58.0827 259.863 58.1934C260.175 58.2975 260.504 58.3496 260.849 58.3496C261.24 58.3496 261.568 58.2975 261.835 58.1934C262.102 58.0827 262.304 57.9362 262.441 57.7539C262.578 57.5651 262.646 57.3503 262.646 57.1094ZM272.949 57.7539V52.8809C272.949 52.5228 272.887 52.2135 272.763 51.9531C272.639 51.6927 272.451 51.4909 272.197 51.3477C271.943 51.2044 271.621 51.1328 271.23 51.1328C270.885 51.1328 270.582 51.1914 270.322 51.3086C270.068 51.4258 269.872 51.5918 269.736 51.8066C269.599 52.015 269.531 52.2559 269.531 52.5293H266.943C266.943 52.0931 267.047 51.6797 267.255 51.2891C267.464 50.8919 267.76 50.5404 268.144 50.2344C268.535 49.9219 269 49.6777 269.54 49.502C270.087 49.3262 270.699 49.2383 271.376 49.2383C272.177 49.2383 272.89 49.375 273.515 49.6484C274.147 49.9154 274.641 50.319 274.999 50.8594C275.364 51.3997 275.546 52.0801 275.546 52.9004V57.5098C275.546 58.0371 275.579 58.4896 275.644 58.8672C275.716 59.2383 275.82 59.5605 275.956 59.834V60H273.33C273.206 59.7331 273.111 59.3945 273.046 58.9844C272.981 58.5677 272.949 58.1576 272.949 57.7539ZM273.31 53.5645L273.33 55.0977H271.699C271.295 55.0977 270.94 55.14 270.634 55.2246C270.328 55.3027 270.078 55.4199 269.882 55.5762C269.687 55.7259 269.54 55.9082 269.443 56.123C269.345 56.3314 269.296 56.569 269.296 56.8359C269.296 57.0964 269.355 57.3307 269.472 57.5391C269.596 57.7474 269.772 57.9134 269.999 58.0371C270.234 58.1543 270.507 58.2129 270.82 58.2129C271.275 58.2129 271.673 58.1217 272.011 57.9395C272.35 57.7507 272.613 57.5228 272.802 57.2559C272.991 56.9889 273.092 56.735 273.105 56.4941L273.847 57.6074C273.756 57.8743 273.619 58.1576 273.437 58.457C273.255 58.7565 273.02 59.0365 272.734 59.2969C272.447 59.5573 272.102 59.7721 271.699 59.9414C271.295 60.1107 270.826 60.1953 270.292 60.1953C269.609 60.1953 268.997 60.0586 268.456 59.7852C267.916 59.5117 267.49 59.1374 267.177 58.6621C266.865 58.1868 266.708 57.6465 266.708 57.041C266.708 56.4811 266.813 55.9863 267.021 55.5566C267.229 55.127 267.539 54.7656 267.949 54.4727C268.359 54.1732 268.867 53.9486 269.472 53.7988C270.084 53.6426 270.784 53.5645 271.572 53.5645H273.31ZM284.589 49.4336H286.933V59.6777C286.933 60.6348 286.725 61.4453 286.308 62.1094C285.898 62.7799 285.322 63.2878 284.58 63.6328C283.837 63.9844 282.975 64.1602 281.992 64.1602C281.568 64.1602 281.109 64.1016 280.615 63.9844C280.126 63.8672 279.654 63.6816 279.199 63.4277C278.749 63.1803 278.375 62.8581 278.076 62.4609L279.238 60.9375C279.589 61.3477 279.986 61.6569 280.429 61.8652C280.872 62.0801 281.35 62.1875 281.865 62.1875C282.386 62.1875 282.828 62.0898 283.193 61.8945C283.564 61.7057 283.847 61.4258 284.042 61.0547C284.244 60.6901 284.345 60.2409 284.345 59.707V51.8457L284.589 49.4336ZM277.451 54.8438V54.6387C277.451 53.8314 277.548 53.099 277.744 52.4414C277.939 51.7773 278.219 51.2077 278.583 50.7324C278.955 50.2572 279.4 49.8893 279.921 49.6289C280.449 49.3685 281.041 49.2383 281.699 49.2383C282.395 49.2383 282.981 49.3652 283.456 49.6191C283.938 49.873 284.335 50.2344 284.648 50.7031C284.967 51.1719 285.214 51.7285 285.39 52.373C285.572 53.0111 285.712 53.7142 285.81 54.4824V55.0391C285.719 55.7878 285.572 56.4746 285.371 57.0996C285.175 57.7246 284.915 58.2715 284.589 58.7402C284.264 59.2025 283.86 59.5605 283.378 59.8145C282.897 60.0684 282.33 60.1953 281.679 60.1953C281.028 60.1953 280.442 60.0618 279.921 59.7949C279.4 59.528 278.955 59.1536 278.583 58.6719C278.219 58.1901 277.939 57.6237 277.744 56.9727C277.548 56.3216 277.451 55.612 277.451 54.8438ZM280.029 54.6387V54.8438C280.029 55.2995 280.074 55.7259 280.165 56.123C280.257 56.5202 280.397 56.8717 280.585 57.1777C280.774 57.4772 281.012 57.7116 281.298 57.8809C281.585 58.0501 281.927 58.1348 282.324 58.1348C282.858 58.1348 283.294 58.0241 283.632 57.8027C283.977 57.5749 284.238 57.2656 284.414 56.875C284.596 56.4779 284.713 56.0319 284.765 55.5371V54.0039C284.733 53.6133 284.661 53.252 284.55 52.9199C284.446 52.5879 284.3 52.3014 284.111 52.0605C283.922 51.8197 283.681 51.6309 283.388 51.4941C283.095 51.3574 282.747 51.2891 282.343 51.2891C281.953 51.2891 281.611 51.377 281.318 51.5527C281.025 51.722 280.784 51.9596 280.595 52.2656C280.406 52.5716 280.263 52.9264 280.165 53.3301C280.074 53.7337 280.029 54.1699 280.029 54.6387ZM294.003 60.1953C293.203 60.1953 292.483 60.0651 291.845 59.8047C291.207 59.5443 290.664 59.1829 290.214 58.7207C289.772 58.252 289.43 57.7083 289.189 57.0898C288.955 56.4648 288.837 55.7943 288.837 55.0781V54.6875C288.837 53.8737 288.955 53.1348 289.189 52.4707C289.423 51.8001 289.755 51.224 290.185 50.7422C290.615 50.2604 291.129 49.8893 291.728 49.6289C292.327 49.3685 292.988 49.2383 293.71 49.2383C294.459 49.2383 295.12 49.3652 295.693 49.6191C296.266 49.8665 296.744 50.2181 297.128 50.6738C297.512 51.1296 297.802 51.6764 297.997 52.3145C298.193 52.946 298.29 53.6458 298.29 54.4141V55.498H290.009V53.7207H295.751V53.5254C295.738 53.1152 295.66 52.7409 295.517 52.4023C295.374 52.0573 295.152 51.7839 294.853 51.582C294.553 51.3737 294.166 51.2695 293.691 51.2695C293.307 51.2695 292.971 51.3542 292.685 51.5234C292.405 51.6862 292.171 51.9206 291.982 52.2266C291.8 52.526 291.663 52.8841 291.572 53.3008C291.481 53.7174 291.435 54.1797 291.435 54.6875V55.0781C291.435 55.5208 291.494 55.931 291.611 56.3086C291.734 56.6862 291.914 57.015 292.148 57.2949C292.389 57.5684 292.675 57.7832 293.007 57.9395C293.346 58.0892 293.73 58.1641 294.16 58.1641C294.7 58.1641 295.188 58.0599 295.624 57.8516C296.067 57.6367 296.451 57.321 296.777 56.9043L298.076 58.252C297.854 58.5775 297.555 58.89 297.177 59.1895C296.806 59.4889 296.357 59.7331 295.83 59.9219C295.302 60.1042 294.693 60.1953 294.003 60.1953ZM314.619 57.8906V60H307.06V57.8906H314.619ZM307.88 45.7812V60H305.195V45.7812H307.88ZM313.632 51.6504V53.7109H307.06V51.6504H313.632ZM314.589 45.7812V47.9004H307.06V45.7812H314.589ZM318.31 49.4336L320.195 52.793L322.109 49.4336H324.912L321.806 54.6094L325.039 60H322.236L320.214 56.4746L318.183 60H315.38L318.603 54.6094L315.517 49.4336H318.31ZM332.226 57.7539V52.8809C332.226 52.5228 332.164 52.2135 332.04 51.9531C331.917 51.6927 331.728 51.4909 331.474 51.3477C331.22 51.2044 330.898 51.1328 330.507 51.1328C330.162 51.1328 329.859 51.1914 329.599 51.3086C329.345 51.4258 329.15 51.5918 329.013 51.8066C328.876 52.015 328.808 52.2559 328.808 52.5293H326.22C326.22 52.0931 326.324 51.6797 326.533 51.2891C326.741 50.8919 327.037 50.5404 327.421 50.2344C327.812 49.9219 328.277 49.6777 328.818 49.502C329.365 49.3262 329.977 49.2383 330.654 49.2383C331.455 49.2383 332.167 49.375 332.792 49.6484C333.424 49.9154 333.919 50.319 334.277 50.8594C334.641 51.3997 334.824 52.0801 334.824 52.9004V57.5098C334.824 58.0371 334.856 58.4896 334.921 58.8672C334.993 59.2383 335.097 59.5605 335.234 59.834V60H332.607C332.483 59.7331 332.389 59.3945 332.324 58.9844C332.259 58.5677 332.226 58.1576 332.226 57.7539ZM332.587 53.5645L332.607 55.0977H330.976C330.572 55.0977 330.218 55.14 329.912 55.2246C329.606 55.3027 329.355 55.4199 329.16 55.5762C328.964 55.7259 328.818 55.9082 328.72 56.123C328.622 56.3314 328.574 56.569 328.574 56.8359C328.574 57.0964 328.632 57.3307 328.749 57.5391C328.873 57.7474 329.049 57.9134 329.277 58.0371C329.511 58.1543 329.785 58.2129 330.097 58.2129C330.553 58.2129 330.95 58.1217 331.289 57.9395C331.627 57.7507 331.891 57.5228 332.08 57.2559C332.268 56.9889 332.369 56.735 332.382 56.4941L333.124 57.6074C333.033 57.8743 332.897 58.1576 332.714 58.457C332.532 58.7565 332.298 59.0365 332.011 59.2969C331.725 59.5573 331.38 59.7721 330.976 59.9414C330.572 60.1107 330.104 60.1953 329.57 60.1953C328.886 60.1953 328.274 60.0586 327.734 59.7852C327.193 59.5117 326.767 59.1374 326.455 58.6621C326.142 58.1868 325.986 57.6465 325.986 57.041C325.986 56.4811 326.09 55.9863 326.298 55.5566C326.507 55.127 326.816 54.7656 327.226 54.4727C327.636 54.1732 328.144 53.9486 328.749 53.7988C329.361 53.6426 330.061 53.5645 330.849 53.5645H332.587ZM339.716 51.6016V60H337.138V49.4336H339.57L339.716 51.6016ZM339.335 54.3359H338.544C338.544 53.6003 338.632 52.9232 338.808 52.3047C338.99 51.6862 339.257 51.1491 339.609 50.6934C339.96 50.2311 340.393 49.873 340.908 49.6191C341.428 49.3652 342.031 49.2383 342.714 49.2383C343.19 49.2383 343.626 49.3099 344.023 49.4531C344.42 49.5898 344.762 49.8079 345.048 50.1074C345.341 50.4004 345.566 50.7845 345.722 51.2598C345.878 51.7285 345.956 52.2917 345.956 52.9492V60H343.378V53.2129C343.378 52.7181 343.307 52.3307 343.164 52.0508C343.027 51.7708 342.828 51.5755 342.568 51.4648C342.307 51.3477 341.995 51.2891 341.63 51.2891C341.227 51.2891 340.878 51.3704 340.585 51.5332C340.299 51.6895 340.061 51.9076 339.872 52.1875C339.69 52.4674 339.553 52.7897 339.462 53.1543C339.378 53.5189 339.335 53.9128 339.335 54.3359ZM345.761 53.8574L344.697 54.0527C344.703 53.3887 344.794 52.7669 344.97 52.1875C345.146 51.6016 345.403 51.0905 345.742 50.6543C346.087 50.2116 346.513 49.8665 347.021 49.6191C347.535 49.3652 348.128 49.2383 348.798 49.2383C349.319 49.2383 349.788 49.3132 350.205 49.4629C350.628 49.6061 350.989 49.8372 351.289 50.1562C351.588 50.4688 351.816 50.8757 351.972 51.377C352.135 51.8783 352.216 52.4902 352.216 53.2129V60H349.619V53.2031C349.619 52.6888 349.547 52.2949 349.404 52.0215C349.267 51.748 349.068 51.5592 348.808 51.4551C348.548 51.3444 348.242 51.2891 347.89 51.2891C347.532 51.2891 347.22 51.3574 346.953 51.4941C346.692 51.6243 346.471 51.8066 346.289 52.041C346.113 52.2754 345.979 52.5488 345.888 52.8613C345.803 53.1673 345.761 53.4993 345.761 53.8574ZM357.109 51.4648V64.0625H354.521V49.4336H356.914L357.109 51.4648ZM363.896 54.6094V54.8145C363.896 55.5827 363.805 56.2956 363.622 56.9531C363.447 57.6042 363.186 58.1738 362.841 58.6621C362.496 59.1439 362.067 59.5215 361.552 59.7949C361.044 60.0618 360.458 60.1953 359.794 60.1953C359.143 60.1953 358.577 60.0716 358.095 59.8242C357.613 59.5703 357.206 59.2122 356.874 58.75C356.542 58.2878 356.275 57.7507 356.074 57.1387C355.878 56.5202 355.732 55.8464 355.634 55.1172V54.4629C355.732 53.6882 355.878 52.985 356.074 52.3535C356.275 51.7155 356.542 51.1654 356.874 50.7031C357.206 50.2344 357.61 49.873 358.085 49.6191C358.567 49.3652 359.13 49.2383 359.775 49.2383C360.445 49.2383 361.035 49.3652 361.542 49.6191C362.057 49.873 362.49 50.2376 362.841 50.7129C363.193 51.1882 363.456 51.7546 363.632 52.4121C363.808 53.0697 363.896 53.8021 363.896 54.6094ZM361.308 54.8145V54.6094C361.308 54.1406 361.266 53.7077 361.181 53.3105C361.096 52.9069 360.966 52.5553 360.79 52.2559C360.615 51.9499 360.387 51.7122 360.107 51.543C359.827 51.3737 359.488 51.2891 359.091 51.2891C358.694 51.2891 358.352 51.3542 358.066 51.4844C357.779 51.6146 357.545 51.8001 357.363 52.041C357.18 52.2819 357.037 52.5684 356.933 52.9004C356.835 53.2259 356.77 53.5872 356.738 53.9844V55.6055C356.796 56.0872 356.91 56.5202 357.08 56.9043C357.249 57.2884 357.496 57.5944 357.822 57.8223C358.154 58.0501 358.583 58.1641 359.111 58.1641C359.508 58.1641 359.846 58.0762 360.126 57.9004C360.406 57.7246 360.634 57.4837 360.81 57.1777C360.986 56.8652 361.113 56.5072 361.191 56.1035C361.269 55.6999 361.308 55.2702 361.308 54.8145ZM368.515 45V60H365.927V45H368.515ZM375.722 60.1953C374.921 60.1953 374.202 60.0651 373.564 59.8047C372.926 59.5443 372.382 59.1829 371.933 58.7207C371.49 58.252 371.149 57.7083 370.908 57.0898C370.673 56.4648 370.556 55.7943 370.556 55.0781V54.6875C370.556 53.8737 370.673 53.1348 370.908 52.4707C371.142 51.8001 371.474 51.224 371.904 50.7422C372.333 50.2604 372.848 49.8893 373.447 49.6289C374.046 49.3685 374.706 49.2383 375.429 49.2383C376.178 49.2383 376.839 49.3652 377.412 49.6191C377.984 49.8665 378.463 50.2181 378.847 50.6738C379.231 51.1296 379.521 51.6764 379.716 52.3145C379.912 52.946 380.009 53.6458 380.009 54.4141V55.498H371.728V53.7207H377.47V53.5254C377.457 53.1152 377.379 52.7409 377.236 52.4023C377.093 52.0573 376.871 51.7839 376.572 51.582C376.272 51.3737 375.885 51.2695 375.41 51.2695C375.025 51.2695 374.69 51.3542 374.404 51.5234C374.124 51.6862 373.889 51.9206 373.701 52.2266C373.518 52.526 373.382 52.8841 373.29 53.3008C373.199 53.7174 373.154 54.1797 373.154 54.6875V55.0781C373.154 55.5208 373.212 55.931 373.33 56.3086C373.453 56.6862 373.632 57.015 373.867 57.2949C374.108 57.5684 374.394 57.7832 374.726 57.9395C375.065 58.0892 375.449 58.1641 375.878 58.1641C376.419 58.1641 376.907 58.0599 377.343 57.8516C377.786 57.6367 378.17 57.321 378.496 56.9043L379.794 58.252C379.573 58.5775 379.274 58.89 378.896 59.1895C378.525 59.4889 378.076 59.7331 377.548 59.9219C377.021 60.1042 376.412 60.1953 375.722 60.1953ZM387.548 57.1094C387.548 56.888 387.49 56.6895 387.372 56.5137C387.255 56.3379 387.034 56.1784 386.708 56.0352C386.389 55.8854 385.921 55.7454 385.302 55.6152C384.755 55.498 384.251 55.3516 383.789 55.1758C383.326 55 382.929 54.7884 382.597 54.541C382.265 54.2871 382.005 53.9909 381.816 53.6523C381.634 53.3073 381.542 52.9102 381.542 52.4609C381.542 52.0247 381.637 51.6146 381.826 51.2305C382.014 50.8398 382.288 50.498 382.646 50.2051C383.004 49.9056 383.44 49.6712 383.955 49.502C384.469 49.3262 385.048 49.2383 385.693 49.2383C386.591 49.2383 387.363 49.3848 388.007 49.6777C388.658 49.9707 389.156 50.3743 389.501 50.8887C389.846 51.3965 390.019 51.9694 390.019 52.6074H387.441C387.441 52.3275 387.376 52.0736 387.246 51.8457C387.122 51.6178 386.93 51.4355 386.669 51.2988C386.409 51.1556 386.08 51.084 385.683 51.084C385.325 51.084 385.022 51.1426 384.775 51.2598C384.534 51.377 384.352 51.5299 384.228 51.7188C384.104 51.9076 384.042 52.1159 384.042 52.3438C384.042 52.513 384.075 52.666 384.14 52.8027C384.212 52.9329 384.326 53.0534 384.482 53.1641C384.638 53.2747 384.85 53.3757 385.117 53.4668C385.39 53.5579 385.725 53.6458 386.122 53.7305C386.91 53.8867 387.597 54.0951 388.183 54.3555C388.775 54.6094 389.238 54.9479 389.57 55.3711C389.902 55.7943 390.068 56.3346 390.068 56.9922C390.068 57.4609 389.967 57.8906 389.765 58.2812C389.563 58.6654 389.27 59.0007 388.886 59.2871C388.502 59.5736 388.043 59.7982 387.509 59.9609C386.975 60.1172 386.373 60.1953 385.703 60.1953C384.733 60.1953 383.912 60.0228 383.242 59.6777C382.571 59.3262 382.063 58.8835 381.718 58.3496C381.373 57.8092 381.201 57.2493 381.201 56.6699H383.671C383.691 57.0801 383.802 57.4089 384.003 57.6562C384.205 57.9036 384.459 58.0827 384.765 58.1934C385.078 58.2975 385.406 58.3496 385.751 58.3496C386.142 58.3496 386.471 58.2975 386.738 58.1934C387.005 58.0827 387.206 57.9362 387.343 57.7539C387.48 57.5651 387.548 57.3503 387.548 57.1094Z" fill="#F48A8A"/>
<rect x="92.0038" y="66.4868" width="580.655" height="8.04231" transform="rotate(0.109739 92.0038 66.4868)" fill="#F48A8A"/>
<path d="M47.7188 45.75C48.0751 45.75 48.4169 45.6084 48.6689 45.3564C48.9209 45.1044 49.0625 44.7626 49.0625 44.4062C49.0625 44.0499 48.9209 43.7081 48.6689 43.4561C48.4169 43.2041 48.0751 43.0625 47.7188 43.0625C47.3624 43.0625 47.0206 43.2041 46.7686 43.4561C46.5166 43.7081 46.375 44.0499 46.375 44.4062C46.375 44.7626 46.5166 45.1044 46.7686 45.3564C47.0206 45.6084 47.3624 45.75 47.7188 45.75ZM53.0938 44.4062C53.0938 44.7626 52.9522 45.1044 52.7002 45.3564C52.4482 45.6084 52.1064 45.75 51.75 45.75C51.3936 45.75 51.0518 45.6084 50.7998 45.3564C50.5478 45.1044 50.4062 44.7626 50.4062 44.4062C50.4062 44.0499 50.5478 43.7081 50.7998 43.4561C51.0518 43.2041 51.3936 43.0625 51.75 43.0625C52.1064 43.0625 52.4482 43.2041 52.7002 43.4561C52.9522 43.7081 53.0938 44.0499 53.0938 44.4062ZM55.7812 45.75C56.1376 45.75 56.4794 45.6084 56.7314 45.3564C56.9834 45.1044 57.125 44.7626 57.125 44.4062C57.125 44.0499 56.9834 43.7081 56.7314 43.4561C56.4794 43.2041 56.1376 43.0625 55.7812 43.0625C55.4249 43.0625 55.0831 43.2041 54.8311 43.4561C54.5791 43.7081 54.4375 44.0499 54.4375 44.4062C54.4375 44.7626 54.5791 45.1044 54.8311 45.3564C55.0831 45.6084 55.4249 45.75 55.7812 45.75Z" fill="#F16A6A" fill-opacity="0.78"/>
<path d="M46.375 37.6875C44.9495 37.6875 43.5823 38.2538 42.5743 39.2618C41.5663 40.2698 41 41.637 41 43.0625V69.9375C41 71.363 41.5663 72.7302 42.5743 73.7382C43.5823 74.7462 44.9495 75.3125 46.375 75.3125H78.625C80.0505 75.3125 81.4177 74.7462 82.4257 73.7382C83.4337 72.7302 84 71.363 84 69.9375V43.0625C84 41.637 83.4337 40.2698 82.4257 39.2618C81.4177 38.2538 80.0505 37.6875 78.625 37.6875H46.375ZM81.3125 43.0625V48.4375H43.6875V43.0625C43.6875 42.3497 43.9706 41.6662 44.4747 41.1622C44.9787 40.6581 45.6622 40.375 46.375 40.375H78.625C79.3378 40.375 80.0213 40.6581 80.5253 41.1622C81.0294 41.6662 81.3125 42.3497 81.3125 43.0625ZM46.375 72.625C45.6622 72.625 44.9787 72.3419 44.4747 71.8378C43.9706 71.3338 43.6875 70.6503 43.6875 69.9375V51.125H81.3125V69.9375C81.3125 70.6503 81.0294 71.3338 80.5253 71.8378C80.0213 72.3419 79.3378 72.625 78.625 72.625H46.375Z" fill="#F16A6A" fill-opacity="0.78"/>
</svg>
