<svg width="717" height="112" viewBox="0 0 717 112" fill="none" xmlns="http://www.w3.org/2000/svg">
<path d="M0 0H717V112H0V0Z" fill="white"/>
<path d="M96.0444 45.7812V60H93.3588V45.7812H96.0444ZM101.777 51.9238V54.043H95.3412V51.9238H101.777ZM102.529 45.7812V47.9004H95.3412V45.7812H102.529ZM110.234 57.4902V49.4336H112.831V60H110.39L110.234 57.4902ZM110.566 55.3027L111.367 55.2832C111.367 55.9928 111.289 56.6471 111.132 57.2461C110.976 57.8451 110.732 58.3659 110.4 58.8086C110.074 59.2448 109.661 59.5866 109.16 59.834C108.658 60.0749 108.066 60.1953 107.382 60.1953C106.861 60.1953 106.386 60.1237 105.956 59.9805C105.527 59.8307 105.156 59.5996 104.843 59.2871C104.537 58.9681 104.3 58.5612 104.13 58.0664C103.961 57.5651 103.876 56.9629 103.876 56.2598V49.4336H106.455V56.2793C106.455 56.6309 106.494 56.9238 106.572 57.1582C106.656 57.3926 106.77 57.5846 106.914 57.7344C107.063 57.8776 107.236 57.9818 107.431 58.0469C107.633 58.1055 107.848 58.1348 108.076 58.1348C108.701 58.1348 109.192 58.0111 109.55 57.7637C109.915 57.5098 110.175 57.1712 110.331 56.748C110.488 56.3184 110.566 55.8366 110.566 55.3027ZM120.117 49.4336V51.2891H114.062V49.4336H120.117ZM115.683 46.8359H118.271V56.9531C118.271 57.2656 118.313 57.5065 118.398 57.6758C118.483 57.8451 118.609 57.959 118.779 58.0176C118.948 58.0762 119.15 58.1055 119.384 58.1055C119.553 58.1055 119.71 58.0957 119.853 58.0762C119.996 58.0566 120.117 58.0371 120.214 58.0176L120.224 59.9512C120.009 60.0228 119.765 60.0814 119.492 60.127C119.225 60.1725 118.922 60.1953 118.583 60.1953C118.004 60.1953 117.496 60.0977 117.06 59.9023C116.624 59.7005 116.285 59.3783 116.044 58.9355C115.803 58.4863 115.683 57.8939 115.683 57.1582V46.8359ZM128.124 57.4902V49.4336H130.722V60H128.281L128.124 57.4902ZM128.456 55.3027L129.257 55.2832C129.257 55.9928 129.179 56.6471 129.023 57.2461C128.867 57.8451 128.622 58.3659 128.29 58.8086C127.965 59.2448 127.552 59.5866 127.05 59.834C126.549 60.0749 125.956 60.1953 125.273 60.1953C124.752 60.1953 124.277 60.1237 123.847 59.9805C123.417 59.8307 123.046 59.5996 122.734 59.2871C122.428 58.9681 122.19 58.5612 122.021 58.0664C121.852 57.5651 121.767 56.9629 121.767 56.2598V49.4336H124.345V56.2793C124.345 56.6309 124.384 56.9238 124.462 57.1582C124.547 57.3926 124.661 57.5846 124.804 57.7344C124.954 57.8776 125.126 57.9818 125.322 58.0469C125.524 58.1055 125.738 58.1348 125.966 58.1348C126.591 58.1348 127.083 58.0111 127.441 57.7637C127.805 57.5098 128.066 57.1712 128.222 56.748C128.378 56.3184 128.456 55.8366 128.456 55.3027ZM135.585 51.5918V60H133.007V49.4336H135.449L135.585 51.5918ZM138.798 49.3652L138.759 51.7676C138.616 51.7415 138.453 51.722 138.271 51.709C138.095 51.696 137.929 51.6895 137.773 51.6895C137.376 51.6895 137.027 51.7448 136.728 51.8555C136.428 51.9596 136.178 52.1126 135.976 52.3145C135.781 52.5163 135.631 52.7637 135.527 53.0566C135.423 53.3431 135.364 53.6686 135.351 54.0332L134.794 53.9648C134.794 53.2943 134.863 52.6725 134.999 52.0996C135.136 51.5267 135.335 51.0254 135.595 50.5957C135.856 50.166 136.181 49.834 136.572 49.5996C136.969 49.3587 137.425 49.2383 137.939 49.2383C138.082 49.2383 138.235 49.2513 138.398 49.2773C138.567 49.2969 138.701 49.3262 138.798 49.3652ZM144.765 60.1953C143.964 60.1953 143.245 60.0651 142.607 59.8047C141.969 59.5443 141.425 59.1829 140.976 58.7207C140.533 58.252 140.192 57.7083 139.951 57.0898C139.716 56.4648 139.599 55.7943 139.599 55.0781V54.6875C139.599 53.8737 139.716 53.1348 139.951 52.4707C140.185 51.8001 140.517 51.224 140.947 50.7422C141.376 50.2604 141.891 49.8893 142.49 49.6289C143.089 49.3685 143.749 49.2383 144.472 49.2383C145.221 49.2383 145.882 49.3652 146.455 49.6191C147.027 49.8665 147.506 50.2181 147.89 50.6738C148.274 51.1296 148.564 51.6764 148.759 52.3145C148.955 52.946 149.052 53.6458 149.052 54.4141V55.498H140.771V53.7207H146.513V53.5254C146.5 53.1152 146.422 52.7409 146.279 52.4023C146.136 52.0573 145.914 51.7839 145.615 51.582C145.315 51.3737 144.928 51.2695 144.453 51.2695C144.068 51.2695 143.733 51.3542 143.447 51.5234C143.167 51.6862 142.932 51.9206 142.744 52.2266C142.561 52.526 142.425 52.8841 142.333 53.3008C142.242 53.7174 142.197 54.1797 142.197 54.6875V55.0781C142.197 55.5208 142.255 55.931 142.372 56.3086C142.496 56.6862 142.675 57.015 142.91 57.2949C143.15 57.5684 143.437 57.7832 143.769 57.9395C144.108 58.0892 144.492 58.1641 144.921 58.1641C145.462 58.1641 145.95 58.0599 146.386 57.8516C146.829 57.6367 147.213 57.321 147.539 56.9043L148.837 58.252C148.616 58.5775 148.317 58.89 147.939 59.1895C147.568 59.4889 147.119 59.7331 146.591 59.9219C146.064 60.1042 145.455 60.1953 144.765 60.1953ZM161.425 54.8145H157.763V52.7051H161.425C162.024 52.7051 162.509 52.6074 162.88 52.4121C163.258 52.2103 163.535 51.9368 163.71 51.5918C163.886 51.2402 163.974 50.8398 163.974 50.3906C163.974 49.9544 163.886 49.5475 163.71 49.1699C163.535 48.7923 163.258 48.4863 162.88 48.252C162.509 48.0176 162.024 47.9004 161.425 47.9004H158.642V60H155.956V45.7812H161.425C162.532 45.7812 163.476 45.9798 164.257 46.377C165.045 46.7676 165.644 47.3112 166.054 48.0078C166.471 48.6979 166.679 49.4857 166.679 50.3711C166.679 51.2891 166.471 52.0801 166.054 52.7441C165.644 53.4082 165.045 53.9193 164.257 54.2773C163.476 54.6354 162.532 54.8145 161.425 54.8145ZM171.328 45V60H168.74V45H171.328ZM179.609 57.7539V52.8809C179.609 52.5228 179.547 52.2135 179.423 51.9531C179.3 51.6927 179.111 51.4909 178.857 51.3477C178.603 51.2044 178.281 51.1328 177.89 51.1328C177.545 51.1328 177.242 51.1914 176.982 51.3086C176.728 51.4258 176.533 51.5918 176.396 51.8066C176.259 52.015 176.191 52.2559 176.191 52.5293H173.603C173.603 52.0931 173.707 51.6797 173.915 51.2891C174.124 50.8919 174.42 50.5404 174.804 50.2344C175.195 49.9219 175.66 49.6777 176.201 49.502C176.747 49.3262 177.359 49.2383 178.037 49.2383C178.837 49.2383 179.55 49.375 180.175 49.6484C180.807 49.9154 181.302 50.319 181.66 50.8594C182.024 51.3997 182.206 52.0801 182.206 52.9004V57.5098C182.206 58.0371 182.239 58.4896 182.304 58.8672C182.376 59.2383 182.48 59.5605 182.617 59.834V60H179.99C179.866 59.7331 179.772 59.3945 179.706 58.9844C179.641 58.5677 179.609 58.1576 179.609 57.7539ZM179.97 53.5645L179.99 55.0977H178.359C177.955 55.0977 177.6 55.14 177.294 55.2246C176.988 55.3027 176.738 55.4199 176.542 55.5762C176.347 55.7259 176.201 55.9082 176.103 56.123C176.005 56.3314 175.956 56.569 175.956 56.8359C175.956 57.0964 176.015 57.3307 176.132 57.5391C176.256 57.7474 176.432 57.9134 176.66 58.0371C176.894 58.1543 177.167 58.2129 177.48 58.2129C177.936 58.2129 178.333 58.1217 178.671 57.9395C179.01 57.7507 179.274 57.5228 179.462 57.2559C179.651 56.9889 179.752 56.735 179.765 56.4941L180.507 57.6074C180.416 57.8743 180.279 58.1576 180.097 58.457C179.915 58.7565 179.68 59.0365 179.394 59.2969C179.108 59.5573 178.762 59.7721 178.359 59.9414C177.955 60.1107 177.486 60.1953 176.953 60.1953C176.269 60.1953 175.657 60.0586 175.117 59.7852C174.576 59.5117 174.15 59.1374 173.837 58.6621C173.525 58.1868 173.369 57.6465 173.369 57.041C173.369 56.4811 173.473 55.9863 173.681 55.5566C173.889 55.127 174.199 54.7656 174.609 54.4727C175.019 54.1732 175.527 53.9486 176.132 53.7988C176.744 53.6426 177.444 53.5645 178.232 53.5645H179.97ZM187.06 51.6895V60H184.482V49.4336H186.904L187.06 51.6895ZM186.65 54.3359H185.888C185.895 53.5677 185.999 52.8711 186.201 52.2461C186.402 51.6211 186.686 51.084 187.05 50.6348C187.421 50.1855 187.861 49.8405 188.369 49.5996C188.876 49.3587 189.443 49.2383 190.068 49.2383C190.576 49.2383 191.035 49.3099 191.445 49.4531C191.855 49.5964 192.206 49.8242 192.499 50.1367C192.799 50.4492 193.027 50.8594 193.183 51.3672C193.346 51.8685 193.427 52.487 193.427 53.2227V60H190.83V53.2031C190.83 52.7214 190.758 52.3405 190.615 52.0605C190.478 51.7806 190.276 51.582 190.009 51.4648C189.749 51.3477 189.427 51.2891 189.042 51.2891C188.645 51.2891 188.297 51.3704 187.997 51.5332C187.705 51.6895 187.457 51.9076 187.255 52.1875C187.06 52.4674 186.91 52.7897 186.806 53.1543C186.702 53.5189 186.65 53.9128 186.65 54.3359ZM201.513 57.1094C201.513 56.888 201.455 56.6895 201.337 56.5137C201.22 56.3379 200.999 56.1784 200.673 56.0352C200.354 55.8854 199.886 55.7454 199.267 55.6152C198.72 55.498 198.216 55.3516 197.753 55.1758C197.291 55 196.894 54.7884 196.562 54.541C196.23 54.2871 195.97 53.9909 195.781 53.6523C195.598 53.3073 195.507 52.9102 195.507 52.4609C195.507 52.0247 195.602 51.6146 195.79 51.2305C195.979 50.8398 196.253 50.498 196.611 50.2051C196.969 49.9056 197.405 49.6712 197.919 49.502C198.434 49.3262 199.013 49.2383 199.658 49.2383C200.556 49.2383 201.328 49.3848 201.972 49.6777C202.623 49.9707 203.121 50.3743 203.466 50.8887C203.811 51.3965 203.984 51.9694 203.984 52.6074H201.406C201.406 52.3275 201.341 52.0736 201.21 51.8457C201.087 51.6178 200.895 51.4355 200.634 51.2988C200.374 51.1556 200.045 51.084 199.648 51.084C199.29 51.084 198.987 51.1426 198.74 51.2598C198.499 51.377 198.317 51.5299 198.193 51.7188C198.069 51.9076 198.007 52.1159 198.007 52.3438C198.007 52.513 198.04 52.666 198.105 52.8027C198.177 52.9329 198.29 53.0534 198.447 53.1641C198.603 53.2747 198.815 53.3757 199.081 53.4668C199.355 53.5579 199.69 53.6458 200.087 53.7305C200.875 53.8867 201.562 54.0951 202.148 54.3555C202.74 54.6094 203.203 54.9479 203.535 55.3711C203.867 55.7943 204.033 56.3346 204.033 56.9922C204.033 57.4609 203.932 57.8906 203.73 58.2812C203.528 58.6654 203.235 59.0007 202.851 59.2871C202.467 59.5736 202.008 59.7982 201.474 59.9609C200.94 60.1172 200.338 60.1953 199.667 60.1953C198.697 60.1953 197.877 60.0228 197.206 59.6777C196.536 59.3262 196.028 58.8835 195.683 58.3496C195.338 57.8092 195.165 57.2493 195.165 56.6699H197.636C197.656 57.0801 197.766 57.4089 197.968 57.6562C198.17 57.9036 198.424 58.0827 198.73 58.1934C199.042 58.2975 199.371 58.3496 199.716 58.3496C200.107 58.3496 200.436 58.2975 200.703 58.1934C200.97 58.0827 201.171 57.9362 201.308 57.7539C201.445 57.5651 201.513 57.3503 201.513 57.1094Z" fill="#A585DA"/>
<rect x="92.0038" y="66.4868" width="580.655" height="9.09575" transform="rotate(0.109739 92.0038 66.4868)" fill="#A585DA"/>
<path d="M83 38.5625V74.4375H42V38.5625H49.6875V36H52.25V38.5625H72.75V36H75.3125V38.5625H83ZM44.5625 41.125V46.25H80.4375V41.125H75.3125V43.6875H72.75V41.125H52.25V43.6875H49.6875V41.125H44.5625ZM80.4375 71.875V48.8125H44.5625V71.875H80.4375ZM63.0205 60.3438L54.4321 68.9321L52.6304 67.1304L59.417 60.3438L52.6304 53.5571L54.4321 51.7554L63.0205 60.3438ZM64.6821 51.7554L73.2705 60.3438L64.6821 68.9321L62.8804 67.1304L69.667 60.3438L62.8804 53.5571L64.6821 51.7554Z" fill="#A585DA"/>
</svg>
