<svg width="569" height="569" viewBox="0 0 569 569" fill="none" xmlns="http://www.w3.org/2000/svg">
<path d="M50.0721 316.085C49.6738 311.021 49.3665 305.951 49.1218 300.892" stroke="black" stroke-width="2.30445" stroke-miterlimit="10"/>
<path d="M338.066 498.24H193.528" stroke="#CCDDE2" stroke-width="2.30445" stroke-miterlimit="10"/>
<path d="M380.263 136.155C380.263 136.155 422.858 116.041 458.995 155.285C470.802 168.11 478.859 185.129 479.428 202.688C479.686 211.256 478.305 219.794 475.36 227.844C472.361 236.06 466.978 241.5 462.842 248.817C456.497 260.1 469.761 262.097 476.879 267.565C481.61 271.23 486.097 275.199 490.313 279.446C499.814 288.935 508.174 299.501 515.224 310.929C529.183 333.693 537.588 359.423 539.759 386.037C541.904 412.279 540.26 440.775 526.803 464.087C520.328 475.313 510.575 486.323 498.581 491.558C482.649 498.505 464.754 498.244 447.729 498.244H411.501" stroke="#CCDDE2" stroke-width="2.30445" stroke-miterlimit="10"/>
<path d="M202.706 398.379C201.278 408.541 199.15 420.2 196.8 431.87L194.029 432.661C185.161 435.152 175.743 434.877 167.036 431.87L170.666 419.535L148.566 355.238C148.566 355.238 165.46 349.775 179.332 345.718L180.925 345.65C188.504 347.249 204.123 353.252 204.612 375.733C204.647 376.814 204.612 377.952 204.612 379.192C206.814 386.447 205.938 392.843 202.706 398.379Z" fill="#3FBDF1"/>
<path d="M150.688 153.631C150.47 153.076 150.044 152.629 149.501 152.386C148.957 152.142 148.339 152.121 147.781 152.328C147.468 152.422 147.178 152.583 146.933 152.8C146.057 153.511 145.857 154.757 145.829 155.941C145.749 158.643 145.596 161.352 145.397 164.043C145.397 164.225 145.368 164.43 145.368 164.612C145.243 166.78 145.334 169.409 144.412 171.298C144.353 171.442 144.252 171.565 144.122 171.651C143.815 171.793 143.49 171.486 143.291 171.207C142.722 170.376 142.153 169.563 141.584 168.715C141.135 168.038 140.628 167.304 139.843 167.087C138.677 166.763 137.567 167.793 136.924 168.84C134.847 172.254 134.648 177.847 137.863 180.709C141.078 183.571 133.88 189.199 128.725 191.566C127.862 192.051 126.958 192.459 126.022 192.783C125.977 192.783 127.883 193.21 127.837 193.227C123.826 194.624 119.647 195.483 115.41 195.782C110.38 196.118 105.476 195.486 101.908 193.301C102.062 192.732 103.279 188.749 103.353 188.18C103.615 186.194 103.803 184.226 103.922 182.229C104.138 178.479 104.121 174.723 103.979 170.985C103.461 157.534 105.857 146.234 111.41 144.51C111.849 144.378 112.269 144.193 112.662 143.958C115.166 142.575 116.503 139.656 115.353 136.902C115.274 136.714 115.183 136.532 115.103 136.333C115.013 136.137 114.911 135.947 114.796 135.764C125.641 132.396 133.004 134.734 140.446 138.808C141.863 139.94 143.194 141.174 144.429 142.501C147.343 145.663 149.485 149.457 150.688 153.585V153.631Z" fill="#3FBDF1"/>
<path d="M411.387 282.957H374.402V194.558C374.402 194.558 367.574 271.367 348.865 314.884H234.32C247.822 306.303 258.65 293.342 265.86 279.39C268.705 273.87 273.257 265.677 280.824 267.828C282.622 268.334 285.268 268.658 286.605 267.014C287.067 266.383 287.328 265.628 287.356 264.846C288.005 256.789 279.652 250.007 272.767 247.867C265.882 245.728 257.837 246.729 252.357 251.731C248.408 255.344 245.933 260.141 243.043 264.584C241.308 267.218 239.251 269.625 236.92 271.748C239.89 253.711 242.536 236.47 242.917 230.126C250.161 224.407 255.481 215.081 257.37 206.831C259.447 197.818 261.279 189.004 264.505 180.566L290.913 180.657C291.907 180.657 292.861 180.262 293.564 179.559C294.267 178.855 294.662 177.902 294.662 176.907V133.049C294.664 132.063 294.275 131.117 293.581 130.418C292.886 129.718 291.944 129.322 290.958 129.316L272.978 129.162C279.512 127.797 286.138 126.913 292.802 126.517C292.938 126.517 293.063 126.517 293.183 126.517C297.57 126.226 305.257 126.101 309.684 126.056C304.409 128.901 301.149 134.943 301.718 140.281C301.818 141.418 302.109 142.529 302.577 143.569C307.084 153.47 318.953 156.395 328.751 153.516C339.653 150.335 347.665 140.309 347.187 128.775C354.015 129.777 360.774 131.047 367.466 132.588C377.634 134.926 387.552 138.079 395.592 144.952C402.602 150.921 408.542 158.608 411.29 167.297C423.091 204.447 419.461 245.904 411.387 282.957Z" fill="#2E2E2E"/>
<path d="M243.213 230.127C242.383 243.703 240.243 257.268 237.922 270.799" stroke="black" stroke-width="2.30445" stroke-miterlimit="10"/>
<path d="M264.801 180.566C261.569 189.005 259.743 197.819 257.666 206.831C255.76 215.054 250.451 224.408 243.213 230.126C237.136 234.923 229.694 237.182 221.728 234.155C211.042 230.081 207.292 218.303 205.984 207.918C204.283 194.988 204.179 181.897 205.676 168.942C207.184 172.293 213.347 182.49 232.459 179.81C232.973 180.193 233.589 180.413 234.229 180.441L264.801 180.566Z" fill="#2E2E2E"/>
<path d="M254.07 151.395C258.519 150.257 261.228 154.536 260.568 157.791C259.492 163.099 251.856 165.188 247.31 165.284C243.669 165.358 234.792 164.397 231.173 163.976" stroke="black" stroke-width="2.30445" stroke-miterlimit="10"/>
<path d="M229.677 154.023C235.181 155.614 241.011 155.71 246.565 154.302C251.236 153.101 256.756 150.888 259.202 146.444C260.63 143.861 259.492 139.741 256.511 138.831C253.068 137.79 249.882 141.215 246.764 142.08C244.752 142.628 242.699 143.008 240.624 143.218C240.055 143.28 239.521 143.326 238.969 143.371C236.065 143.604 233.146 143.583 230.246 143.309C229.937 143.309 229.636 143.212 229.387 143.031C229.136 142.85 228.949 142.595 228.852 142.302C228.755 142.01 228.753 141.694 228.846 141.399C228.939 141.105 229.122 140.847 229.37 140.663L229.893 140.282" stroke="black" stroke-width="2.30445" stroke-miterlimit="10"/>
<path d="M264.801 180.566C261.569 189.004 259.743 197.818 257.666 206.831C254.161 221.961 239.213 240.812 221.728 234.143C211.042 230.069 207.292 218.291 205.984 207.906C203.935 191.826 204.106 175.308 207.122 159.365C209.625 146.232 214.069 132.44 226.849 125.982L232.846 122.983C234.277 122.26 235.933 122.126 237.461 122.609C238.989 123.092 240.267 124.154 241.023 125.566C241.483 126.445 241.727 127.42 241.734 128.411C241.74 128.556 241.728 128.702 241.7 128.844" stroke="black" stroke-width="2.30445" stroke-miterlimit="10"/>
<path d="M386.613 303.995C389.702 303.899 392.795 303.977 395.876 304.228C398.391 304.433 400.997 304.552 403.393 305.491C405.367 306.276 407.427 308.148 407.324 310.436C407.137 314.919 401.264 314.885 398.044 314.885" stroke="black" stroke-width="2.30445" stroke-miterlimit="10"/>
<path opacity="0.54" d="M331.351 299.721L358.129 231.116C358.46 229.787 358.484 228.399 358.198 227.059C357.912 225.718 357.325 224.461 356.48 223.383C355.635 222.304 354.555 221.432 353.322 220.833C352.089 220.235 350.736 219.926 349.366 219.93H243.031C240.648 219.935 238.336 220.742 236.466 222.22C234.596 223.697 233.277 225.76 232.721 228.078L203.372 296.665C203.054 297.989 203.04 299.368 203.331 300.698C203.623 302.029 204.212 303.276 205.055 304.345C205.898 305.415 206.973 306.28 208.198 306.874C209.423 307.468 210.767 307.777 212.129 307.778H321.036C323.407 307.776 325.71 306.983 327.579 305.523C329.448 304.063 330.776 302.021 331.351 299.721Z" fill="white"/>
<path d="M331.351 299.721L358.129 231.116C358.46 229.787 358.484 228.399 358.198 227.059C357.912 225.718 357.325 224.461 356.48 223.383C355.635 222.304 354.555 221.432 353.322 220.833C352.089 220.235 350.736 219.926 349.366 219.93H243.031C240.648 219.935 238.336 220.742 236.466 222.22C234.596 223.697 233.277 225.76 232.721 228.078L203.372 296.665C203.054 297.989 203.04 299.368 203.331 300.698C203.623 302.029 204.212 303.276 205.055 304.345C205.898 305.415 206.973 306.28 208.198 306.874C209.423 307.468 210.767 307.777 212.129 307.778H321.036C323.407 307.776 325.71 306.983 327.579 305.523C329.448 304.063 330.776 302.021 331.351 299.721Z" fill="#3FBDF1"/>
<path d="M331.351 299.721L358.129 231.116C358.46 229.787 358.484 228.399 358.198 227.059C357.912 225.718 357.325 224.461 356.48 223.383C355.635 222.304 354.555 221.432 353.322 220.833C352.089 220.235 350.736 219.926 349.366 219.93H243.031C240.648 219.935 238.336 220.742 236.466 222.22C234.596 223.697 233.277 225.76 232.721 228.078L203.372 296.665C203.054 297.989 203.04 299.368 203.331 300.698C203.623 302.029 204.212 303.276 205.055 304.345C205.898 305.415 206.973 306.28 208.198 306.874C209.423 307.468 210.767 307.777 212.129 307.778H321.036C323.407 307.776 325.71 306.983 327.579 305.523C329.448 304.063 330.776 302.021 331.351 299.721Z" stroke="black" stroke-width="2.30445" stroke-linecap="square" stroke-linejoin="round"/>
<path d="M327.431 296.944L352.137 233.654C352.443 232.429 352.466 231.151 352.204 229.915C351.942 228.68 351.402 227.521 350.624 226.526C349.847 225.531 348.853 224.726 347.718 224.173C346.583 223.619 345.337 223.332 344.074 223.333H245.95C243.748 223.332 241.608 224.073 239.878 225.437C238.148 226.801 236.928 228.707 236.414 230.849L209.392 294.127C209.101 295.349 209.09 296.62 209.36 297.845C209.63 299.071 210.174 300.22 210.952 301.205C211.729 302.191 212.72 302.987 213.849 303.535C214.978 304.083 216.217 304.368 217.472 304.369H317.917C320.105 304.371 322.229 303.641 323.953 302.296C325.677 300.95 326.901 299.066 327.431 296.944Z" fill="#3FBDF1"/>
<path d="M253.029 234.998C254.332 233.046 256.443 232.153 257.785 233.057C259.128 233.962 259.128 236.238 257.831 238.178C257.626 238.477 257.398 238.759 257.148 239.02L266.787 259.374C268.323 258.349 270.013 258.093 271.231 258.901C271.621 259.186 271.944 259.552 272.178 259.975C272.412 260.398 272.551 260.866 272.585 261.348L279.174 259.129L284.932 257.189L286.81 256.574C287.048 255.867 287.377 255.194 287.789 254.571C289.615 251.823 292.603 250.588 294.463 251.84C296.324 253.092 296.347 256.25 294.571 258.975L305.553 273.968C307.948 272.005 310.765 271.397 312.717 272.694C315.374 274.463 315.414 279.078 312.808 282.993C312.7 283.152 312.58 283.277 312.472 283.425L319.778 293.417L319.846 293.514C320.22 294.077 320.354 294.766 320.22 295.429C320.085 296.092 319.693 296.674 319.129 297.047C318.565 297.421 317.877 297.555 317.214 297.42C316.551 297.286 315.969 296.894 315.596 296.33L309.109 286.538C307.055 287.727 304.87 287.954 303.271 286.89C300.734 285.183 300.608 280.927 302.873 277.132L292.364 261.268C290.81 262.321 289.098 262.588 287.868 261.775C287.186 261.29 286.72 260.556 286.571 259.732L285.786 259.948L279.931 261.547L272.432 263.573C272.198 264.471 271.812 265.324 271.294 266.093C269.467 268.836 266.48 270.076 264.619 268.825C262.759 267.573 262.73 264.358 264.557 261.61C264.825 261.206 265.125 260.826 265.456 260.472L256.278 239.737C255.174 240.494 253.95 240.688 253.074 240.102C251.754 239.225 251.731 236.926 253.029 234.998Z" fill="#D7E8F0"/>
<path d="M322.851 236.088H337.076C337.726 236.087 338.362 235.898 338.906 235.542C339.451 235.186 339.88 234.681 340.143 234.085C340.22 233.906 340.263 233.713 340.268 233.516C340.266 233.128 340.111 232.756 339.836 232.482C339.56 232.208 339.188 232.054 338.8 232.054H323.681C324.393 233.243 324.034 234.911 322.851 236.088Z" fill="#D7E8F0"/>
<path d="M313.656 234.632C313.657 235.019 313.812 235.39 314.086 235.662C314.36 235.935 314.731 236.089 315.118 236.089H322.851C324.034 234.911 324.393 233.244 323.681 232.043H316.853C316.204 232.043 315.568 232.232 315.023 232.586C314.479 232.941 314.049 233.446 313.786 234.041C313.703 234.227 313.658 234.428 313.656 234.632Z" fill="#3FBDF1"/>
<path d="M317.212 236.09C317.253 236.168 317.301 236.242 317.354 236.312C318.367 237.7 320.569 237.831 322.276 236.585C322.478 236.435 322.669 236.27 322.845 236.09C324.028 234.912 324.387 233.245 323.676 232.044C323.639 231.966 323.593 231.891 323.539 231.823C322.532 230.429 320.33 230.309 318.623 231.544C318.421 231.696 318.231 231.864 318.054 232.044C316.87 233.228 316.512 234.884 317.212 236.09Z" fill="white"/>
<path d="M310.105 243.56C310.108 243.948 310.264 244.318 310.539 244.591C310.814 244.864 311.186 245.017 311.573 245.017H326.498C325.775 243.811 326.134 242.172 327.317 240.971H313.28C312.629 240.972 311.992 241.162 311.447 241.517C310.901 241.873 310.471 242.379 310.207 242.974C310.136 243.162 310.101 243.36 310.105 243.56Z" fill="#3FBDF1"/>
<path d="M326.475 245.017H333.497C334.146 245.017 334.781 244.829 335.325 244.475C335.869 244.122 336.3 243.618 336.564 243.025C336.644 242.846 336.688 242.652 336.694 242.456C336.695 242.264 336.658 242.073 336.585 241.896C336.511 241.718 336.404 241.556 336.268 241.42C336.132 241.284 335.97 241.177 335.793 241.104C335.615 241.03 335.424 240.993 335.232 240.994H327.295C326.111 242.154 325.753 243.81 326.475 245.017Z" fill="#D7E8F0"/>
<path d="M326.475 245.017C326.508 245.096 326.55 245.17 326.6 245.239C327.607 246.633 329.809 246.758 331.516 245.518C331.718 245.365 331.909 245.197 332.085 245.017C333.258 243.834 333.616 242.172 332.916 240.971C332.875 240.895 332.829 240.821 332.78 240.75C331.761 239.361 329.559 239.236 327.852 240.482C327.65 240.63 327.46 240.793 327.283 240.971C326.111 242.155 325.753 243.811 326.475 245.017Z" fill="white"/>
<path d="M321.485 253.882H330.418C331.069 253.881 331.705 253.692 332.25 253.338C332.795 252.984 333.226 252.479 333.491 251.885C333.569 251.705 333.612 251.512 333.616 251.316C333.616 250.926 333.461 250.552 333.186 250.276C332.911 250 332.538 249.843 332.148 249.842H322.333C323.038 251.043 322.674 252.699 321.485 253.882Z" fill="#3FBDF1"/>
<path d="M307.021 252.431C307.022 252.623 307.06 252.812 307.134 252.988C307.208 253.165 307.316 253.325 307.452 253.46C307.588 253.594 307.749 253.701 307.926 253.773C308.103 253.846 308.292 253.883 308.483 253.882H321.485C322.657 252.699 323.021 251.037 322.316 249.831H310.219C309.567 249.83 308.93 250.02 308.385 250.377C307.84 250.734 307.411 251.242 307.152 251.839C307.068 252.025 307.023 252.227 307.021 252.431Z" fill="#D7E8F0"/>
<path d="M315.863 253.882C315.905 253.96 315.952 254.034 316.006 254.104C317.013 255.498 319.209 255.618 320.922 254.377C321.124 254.227 321.314 254.062 321.491 253.882C322.663 252.699 323.027 251.037 322.321 249.831C322.284 249.752 322.238 249.678 322.185 249.609C321.166 248.226 318.97 248.107 317.257 249.341C317.056 249.491 316.866 249.654 316.688 249.831C315.516 251.014 315.152 252.681 315.863 253.882Z" fill="white"/>
<path d="M263.737 295.691H272.676C273.325 295.69 273.961 295.5 274.505 295.147C275.049 294.792 275.479 294.287 275.743 293.694C275.821 293.514 275.864 293.321 275.868 293.125C275.868 292.736 275.714 292.362 275.438 292.087C275.163 291.812 274.789 291.657 274.4 291.657H264.585C265.273 292.852 264.909 294.508 263.737 295.691Z" fill="#3FBDF1"/>
<path d="M228.266 294.241C228.266 294.432 228.305 294.621 228.379 294.798C228.452 294.974 228.56 295.134 228.696 295.269C228.832 295.404 228.993 295.51 229.17 295.583C229.347 295.655 229.537 295.692 229.728 295.692H263.737C264.909 294.508 265.273 292.847 264.568 291.646H231.464C230.813 291.646 230.176 291.834 229.631 292.19C229.087 292.546 228.658 293.053 228.397 293.649C228.315 293.836 228.271 294.036 228.266 294.241Z" fill="#D7E8F0"/>
<path d="M258.098 295.692C258.14 295.77 258.187 295.844 258.241 295.914C259.248 297.308 261.444 297.428 263.157 296.193C263.358 296.039 263.548 295.872 263.726 295.692C264.898 294.509 265.262 292.847 264.557 291.647C264.52 291.568 264.473 291.493 264.42 291.425C263.401 290.036 261.205 289.917 259.492 291.152C259.29 291.301 259.1 291.467 258.923 291.647C257.757 292.824 257.387 294.492 258.098 295.692Z" fill="white"/>
<path d="M38.7945 317.605C38.7945 317.605 20.0175 402.426 68.3198 420.144C116.622 437.863 247.1 421.22 192.874 360.018C138.648 298.817 38.7945 317.605 38.7945 317.605Z" fill="#2E2E2E"/>
<path d="M273.166 129.163C279.731 127.793 286.386 126.906 293.081 126.506C293.223 126.506 293.342 126.506 293.467 126.506C297.866 126.216 305.57 126.09 309.968 126.045" stroke="black" stroke-width="2.30445" stroke-miterlimit="10"/>
<path d="M240.624 143.201C240.579 143.23 240.55 143.264 240.505 143.292" stroke="black" stroke-width="2.30445" stroke-miterlimit="10"/>
<path d="M315.482 107.54C312.125 109.304 308.267 108.109 306.788 105.105" stroke="black" stroke-width="2.30445" stroke-miterlimit="10"/>
<path d="M295.994 64.6663C295.842 67.2768 296.512 69.8692 297.909 72.0792C299.307 74.2898 301.361 76.007 303.783 76.9908C304.296 76.0502 305.03 75.2497 305.923 74.6579C309.695 72.2169 309.024 78.7376 319.266 77.0192C333.462 74.6238 337.081 79.5684 337.081 79.5684C337.394 80.0008 336.512 82.823 336.387 83.3408C335.818 86.3736 335.249 89.3893 334.731 92.4448C334.397 94.2958 334.06 96.1354 333.719 97.9641C333.977 97.7138 334.251 97.4799 334.538 97.2643C336.871 93.6227 340.29 89.5372 344.017 92.8716C344.766 93.5658 345.339 94.4278 345.69 95.3866C347.397 100.024 344.131 103.005 340.313 104.792C339.306 105.402 338.236 105.899 337.121 106.277C337.309 107.449 338.088 112.121 338.088 112.132C338.168 112.61 347.648 106.767 348.439 106.055C349.868 104.166 350.969 102.05 351.699 99.7963C354.646 90.4989 354.146 78.4816 348.211 70.8342C346.737 68.9394 347.722 67.847 348.148 66.0034C348.169 65.9038 348.159 65.8008 348.12 65.7075C348.082 65.6136 348.016 65.534 347.931 65.4782C347.847 65.4225 347.747 65.3934 347.646 65.3946C347.545 65.3963 347.446 65.4276 347.363 65.4856C344.165 67.4942 338.379 65.4401 338.379 65.4401C319.602 54.1623 309.98 61.1385 305.377 61.4912C303.51 61.6193 301.656 61.0918 300.136 60.0005C299.869 60.5285 299.462 60.9734 298.962 61.2881C298.46 61.6028 297.883 61.7752 297.291 61.7871L297.109 62.7658C296.97 63.5095 296.575 64.1815 295.994 64.6663Z" fill="#3FBDF1"/>
<path d="M303.795 77.0136C301.372 76.0304 299.318 74.3131 297.92 72.1026C296.524 69.892 295.854 67.2996 296.005 64.6891C296.061 63.6865 296.205 62.6907 296.438 61.7132L296.603 61.7473C296.827 61.798 297.057 61.815 297.285 61.7985C297.877 61.7872 298.455 61.6147 298.956 61.3001C299.457 60.9854 299.863 60.5399 300.13 60.0119C300.287 59.7183 300.397 59.4013 300.455 59.073L301.331 54.3106C301.331 54.3106 304.176 58.1626 308.728 57.8042C313.28 57.4457 322.902 50.4699 341.73 61.753C341.73 61.753 346.248 63.4202 349.446 61.4116C349.529 61.3541 349.627 61.3223 349.728 61.3211C349.83 61.32 349.929 61.349 350.014 61.4048C350.098 61.4605 350.164 61.5402 350.203 61.6335C350.242 61.7274 350.251 61.8304 350.231 61.9294C349.804 63.7673 350.089 65.2524 351.562 67.1471C357.497 74.7945 357.998 86.8118 355.05 96.1092C353.76 99.9625 351.468 103.403 348.41 106.078C347.619 106.789 338.14 112.633 338.06 112.155C338.06 112.155 337.28 107.472 337.093 106.3L337.047 106.033L337.315 105.953C338.329 105.639 339.321 105.259 340.285 104.815C344.103 103.028 347.386 100.047 345.662 95.4094C345.311 94.4512 344.737 93.5891 343.989 92.8944C340.262 89.56 336.842 93.6455 334.509 97.2871C334.058 97.9784 333.688 98.7192 333.406 99.4948C333.497 98.9941 333.588 98.5047 333.684 98.004C334.026 96.1718 334.363 94.3322 334.697 92.4847C335.266 89.4462 335.795 86.4305 336.353 83.3807C336.455 82.8629 337.36 80.0407 337.047 79.6082C337.047 79.6082 333.428 74.6636 319.232 77.0591C308.99 78.7661 309.661 72.2568 305.889 74.6978C304.996 75.2895 304.262 76.0907 303.749 77.0307C303.591 77.3374 303.45 77.6526 303.328 77.9752C303.308 78.0156 303.291 78.0577 303.277 78.1004C303.021 78.8059 302.788 79.5172 302.56 80.2114C300.432 86.9768 299.027 94.2827 299.778 101.39C300.694 110.004 306.97 120.132 316.956 119.273C320.098 118.905 323.162 118.045 326.037 116.724" stroke="black" stroke-width="2.30445" stroke-miterlimit="10"/>
<path d="M304.884 95.3741C305.861 95.3462 306.626 94.3664 306.593 93.1852C306.56 92.0039 305.741 91.069 304.764 91.0969C303.787 91.1242 303.022 92.104 303.055 93.2853C303.089 94.4665 303.907 95.4014 304.884 95.3741Z" fill="black"/>
<path d="M318.255 98.9678C319.232 98.94 319.997 97.9601 319.964 96.7795C319.93 95.5982 319.112 94.6628 318.135 94.6907C317.158 94.7186 316.393 95.6984 316.426 96.879C316.46 98.0603 317.278 98.9957 318.255 98.9678Z" fill="black"/>
<path d="M312.483 99.7559C312.483 99.7559 307.311 100.894 307.835 98.2424C307.994 97.4117 309.291 89.2522 309.291 89.2522C309.291 89.2522 306.879 84.393 300.569 85.5253" stroke="black" stroke-width="2.30445" stroke-miterlimit="10"/>
<path d="M314.805 88.5262C314.805 88.5262 323.004 87.1321 326.145 93.6813" stroke="black" stroke-width="2.30445" stroke-miterlimit="10"/>
<path d="M310.059 125.975C303.601 129.389 300.153 137.606 302.856 143.552C307.362 153.458 319.226 156.371 329.03 153.509C339.932 150.323 347.943 140.274 347.466 128.752" stroke="black" stroke-width="2.30445" stroke-miterlimit="10"/>
<path d="M349.161 314.879C367.887 271.362 374.686 194.553 374.686 194.553V301.718C374.686 303.447 375.026 305.159 375.687 306.756C376.348 308.353 377.318 309.804 378.54 311.026C379.762 312.248 381.213 313.218 382.81 313.879C384.407 314.54 386.119 314.88 387.847 314.879H429.384C430.942 314.904 432.453 314.352 433.628 313.33C434.803 312.309 435.56 310.889 435.752 309.343C435.835 308.492 435.739 307.632 435.47 306.82C435.201 306.008 434.765 305.262 434.19 304.628C433.614 303.995 432.913 303.49 432.13 303.144C431.348 302.799 430.501 302.622 429.646 302.623H412.633C411.955 302.621 411.286 302.464 410.677 302.164C410.069 301.864 409.537 301.429 409.121 300.893C408.706 300.356 408.42 299.732 408.283 299.067C408.146 298.402 408.162 297.716 408.331 297.058C418.573 256.659 424.906 209.239 411.575 167.275C408.821 158.615 402.886 150.899 395.876 144.936C387.83 138.063 377.913 134.91 367.75 132.578C361.048 131.041 354.286 129.77 347.466 128.765C347.445 128.772 347.423 128.772 347.403 128.765C347.357 128.765 347.312 128.765 347.283 128.765H347.238H347.175H347.084" stroke="black" stroke-width="2.30445" stroke-miterlimit="10"/>
<path d="M343.175 109.43L342.424 123.023C342.352 124.352 342.77 125.661 343.596 126.703C344.424 127.744 345.604 128.448 346.914 128.679H347.084C347.114 128.671 347.146 128.671 347.175 128.679H347.204H347.283" stroke="black" stroke-width="2.30445" stroke-miterlimit="10"/>
<path d="M347.403 128.742H347.283H347.238H347.204H347.175H347.084H346.914C345.604 128.51 344.424 127.807 343.596 126.765C342.77 125.723 342.352 124.414 342.424 123.086L343.175 109.493" stroke="black" stroke-width="2.30445" stroke-miterlimit="10"/>
<path d="M311.135 118.427C310.765 118.279 311.135 133.607 301.991 140.265" stroke="black" stroke-width="2.30445" stroke-miterlimit="10"/>
<path d="M188.715 314.883H159.422" stroke="black" stroke-width="2.30445" stroke-miterlimit="10"/>
<path d="M474.882 314.883H234.32" stroke="black" stroke-width="2.30445" stroke-miterlimit="10"/>
<path d="M103.985 170.966C104.267 176.705 104.062 182.458 103.37 188.161C102.483 194.864 96.2862 203.382 94.9433 210.011C93.0258 219.548 95.9277 229.403 99.9107 238.256C104.724 248.959 112.309 259.725 111.57 271.981C111.191 277.319 109.602 282.501 106.925 287.134C104.248 291.767 100.551 295.73 96.1155 298.724C90.0403 302.789 83.1002 305.38 75.8477 306.292C74.8349 306.411 73.805 306.508 72.7751 306.536C72.2061 306.536 71.6371 306.474 71.0681 306.428C51.779 304.795 31.9949 290.081 32.0404 269.597C32.0404 256.51 41.9865 246.268 43.665 233.568C44.6949 225.801 42.419 217.732 44.5243 210.193C47.9383 198.153 61.1334 191.587 66.9144 180.503C71.1705 172.32 71.8647 162.773 75.2332 154.192C79.9217 142.243 87.4098 128.587 97.6518 127.449C100.624 127.786 103.497 128.723 106.096 130.203C112.446 133.617 114.062 133.833 115.353 136.877C116.673 140.058 114.705 143.455 111.416 144.474C105.862 146.232 103.467 157.515 103.985 170.966Z" fill="#3FBDF1"/>
<path d="M109.567 132.055C126.238 127.224 136.833 134.331 144.412 142.524C151.991 150.718 151.638 160.021 151.638 160.021" stroke="black" stroke-width="2.30445" stroke-miterlimit="10"/>
<path d="M161.277 292.306C161.026 305.331 159.376 318.291 156.356 330.964" stroke="black" stroke-width="2.30445" stroke-miterlimit="10"/>
<path d="M202.706 398.379C196.601 408.882 182.12 416.342 164.401 420.985C132.958 429.224 91.3302 428.581 68.3312 420.137C20.0003 402.424 38.7887 317.603 38.7887 317.603C38.7887 317.603 122.381 301.87 178.12 346.053C183.444 350.262 188.387 354.933 192.891 360.011C199.053 366.981 202.837 373.36 204.624 379.186C206.814 386.447 205.938 392.842 202.706 398.379Z" stroke="black" stroke-width="2.30445" stroke-miterlimit="10"/>
<path d="M170.666 419.553C170.666 419.553 141.379 500.846 190.581 521.609C239.782 542.372 9.90055 545.137 60.644 521.609C111.387 498.081 82.2205 424.521 82.2205 424.521" stroke="black" stroke-width="2.30445" stroke-miterlimit="10"/>
<path d="M230.24 143.292C229.631 141.431 229.882 134.962 230.081 131.309C230.119 130.619 230.425 129.971 230.932 129.503C231.44 129.034 232.11 128.782 232.801 128.799L291.254 129.311C292.24 129.321 293.182 129.718 293.875 130.418C294.569 131.119 294.958 132.064 294.958 133.05V176.914C294.958 177.406 294.861 177.894 294.672 178.348C294.483 178.803 294.206 179.216 293.857 179.563C293.508 179.911 293.094 180.186 292.638 180.372C292.183 180.56 291.695 180.655 291.203 180.652L234.24 180.442C233.415 180.408 232.635 180.056 232.063 179.46C231.491 178.864 231.173 178.07 231.173 177.244V173.898C235.225 175.787 242.883 176.368 242.883 176.368C245.609 176.294 249.916 175.964 252.278 174.61C254.44 173.369 257.171 171.588 257.541 168.891C257.684 167.848 257.408 166.791 256.773 165.951C256.139 165.11 255.198 164.555 254.155 164.407C253.529 164.282 252.881 164.328 252.278 164.538" stroke="black" stroke-width="2.30445" stroke-miterlimit="10"/>
<path d="M287.288 264.847C287.261 265.63 286.997 266.386 286.531 267.015C285.194 268.66 282.548 268.335 280.75 267.829C273.188 265.678 268.648 273.872 265.791 279.391C258.576 293.343 247.754 306.305 234.252 314.885C233.375 315.454 232.482 315.989 231.577 316.513C218.382 324.126 201.284 322.709 188.521 314.806L204.84 274.719L206.456 276.011C216.311 283.789 228.442 279.425 236.841 271.749C239.172 269.626 241.229 267.219 242.963 264.586C245.854 260.142 248.329 255.345 252.283 251.732C257.757 246.73 265.769 245.752 272.688 247.868C279.607 249.985 287.914 256.79 287.288 264.847Z" fill="white"/>
<path d="M287.22 262.007C287.22 262.007 285.365 252.186 268.642 259.851" stroke="black" stroke-width="2.30445" stroke-miterlimit="10"/>
<path d="M277.917 250.219C277.917 250.219 267.493 246.885 261.689 254.851" stroke="black" stroke-width="2.30445" stroke-miterlimit="10"/>
<path d="M67.4948 306.447C70.2778 306.696 73.0795 306.649 75.8534 306.311C83.1042 305.387 90.0403 302.79 96.1155 298.726C100.551 295.732 104.247 291.769 106.925 287.136C109.602 282.502 111.191 277.321 111.57 271.983C112.309 259.721 104.742 248.956 99.9107 238.253C95.9277 229.393 93.0258 219.538 94.949 210.013C96.2862 203.379 102.471 194.866 103.365 188.157C104.059 182.454 104.269 176.702 103.99 170.962C103.473 157.505 105.862 146.211 111.416 144.493C114.705 143.474 116.679 140.072 115.353 136.897C114.084 133.847 112.451 133.665 106.096 130.211C89.5265 121.198 78.0042 138.001 71.6428 154.2C68.2686 162.786 67.5858 172.323 63.324 180.505C57.543 191.595 44.3193 198.144 40.9395 210.207C38.8285 217.74 41.1045 225.814 40.0803 233.57C38.4074 246.264 28.4784 256.501 28.4499 269.599C28.4044 290.077 48.2113 304.803 67.4948 306.447Z" stroke="black" stroke-width="2.30445" stroke-miterlimit="10"/>
<path d="M202.706 398.38C201.278 408.543 199.15 420.201 196.806 431.872C190.16 464.948 181.704 498.223 181.704 498.223" stroke="black" stroke-width="2.30445" stroke-miterlimit="10"/>
<path d="M204.601 379.187C204.629 377.946 204.647 376.808 204.601 375.727C204.095 352.398 187.32 346.822 180.106 345.485C179.029 345.274 177.94 345.135 176.845 345.069" stroke="black" stroke-width="2.30445" stroke-miterlimit="10"/>
<path d="M184.208 488.134C185.137 487.566 186.2 487.255 187.289 487.234C188.377 487.213 189.452 487.483 190.402 488.016C191.351 488.549 192.142 489.325 192.691 490.265C193.241 491.205 193.53 492.275 193.528 493.363C193.528 493.443 193.528 493.54 193.528 493.654C193.437 496.463 192.697 499.214 191.366 501.69C190.033 504.166 188.147 506.3 185.852 507.924L177.943 513.552" stroke="black" stroke-width="2.30445" stroke-miterlimit="10"/>
<path d="M94.363 217.534C95.4668 217.084 96.5934 216.686 97.7314 216.316C100.127 211.889 99.7571 202.199 99.5295 198.677L101.925 193.277C108.537 197.34 117.288 195.815 125.408 192.987C126.548 192.589 127.657 192.106 128.725 191.542C133.88 189.175 141.106 183.576 137.863 180.685C134.62 177.795 134.847 172.23 136.924 168.816C137.556 167.769 138.677 166.739 139.843 167.064C140.628 167.28 141.135 168.014 141.584 168.691C142.153 169.539 142.722 170.352 143.291 171.183C143.49 171.462 143.815 171.752 144.122 171.627C144.252 171.542 144.353 171.419 144.412 171.274C145.414 169.214 145.226 166.261 145.397 164.002C145.596 161.311 145.749 158.602 145.829 155.9C145.875 154.409 146.182 152.81 147.781 152.287C148.103 152.163 148.45 152.113 148.795 152.143C149.139 152.172 149.473 152.28 149.77 152.457C150.066 152.635 150.319 152.878 150.507 153.168C150.696 153.458 150.816 153.787 150.859 154.13C152.023 160.67 152.193 167.347 151.365 173.937C150.58 180.839 149.163 188.162 144.737 193.727C142.215 196.937 138.835 199.367 134.99 200.737C131.268 202.029 131.388 206.518 131.388 210.455V216.993C142.83 219.315 153.579 222.114 162.467 230.08C168.344 235.454 173.875 241.195 179.024 247.27C195.235 266.291 198.74 269.859 206.547 276.01C216.402 283.788 228.539 279.424 236.932 271.748C239.259 269.624 241.312 267.217 243.043 264.584C245.933 260.141 248.408 255.344 252.357 251.731C257.837 246.729 265.848 245.751 272.767 247.867C279.686 249.984 288.005 256.789 287.345 264.846C287.317 265.628 287.055 266.383 286.594 267.014C285.257 268.658 282.611 268.334 280.813 267.828C273.245 265.677 268.71 273.87 265.848 279.39C258.639 293.342 247.811 306.303 234.309 314.884C233.432 315.453 232.545 315.988 231.634 316.511C216.55 325.217 196.328 322.11 183.355 311.021L152.06 284.454" stroke="black" stroke-width="2.30445" stroke-miterlimit="10"/>
<path d="M97.7314 216.317C97.7314 216.317 112.679 211.697 131.388 217.011" stroke="black" stroke-width="2.30445" stroke-miterlimit="10"/>
<path d="M231.173 173.898C231.173 173.898 231.287 193.244 235.902 200.693" stroke="black" stroke-width="2.30445" stroke-miterlimit="10"/>
<path d="M246.337 85.35C242.787 91.4099 242.952 95.7115 243.873 102.693C243.95 103.288 243.856 103.891 243.604 104.435C243.352 104.979 242.951 105.441 242.447 105.767C241.944 106.093 241.36 106.27 240.76 106.278C240.161 106.285 239.571 106.124 239.06 105.811C218.576 94.0216 199.406 103.347 174.95 97.5721C165.972 95.4611 154.779 91.0969 147.104 84.0698C144.557 80.2876 143.198 75.8318 143.2 71.273C143.2 52.1601 169.312 36.6605 201.506 36.6605C222.143 36.6605 240.272 43.0276 250.639 52.621C250.639 52.621 250.639 52.621 250.667 52.6551C253.268 56.3946 254.688 60.829 254.741 65.3838C254.741 72.263 249.643 79.66 246.337 85.35Z" fill="#D7E8F0"/>
<path d="M254.65 65.3957V65.8794C254.531 72.5765 251.179 78.8014 247.202 84.1898C244.539 87.7973 241.381 91.7973 242.132 96.2185C242.462 98.1645 243.549 99.934 243.839 101.908C244.129 103.883 243.071 106.301 241.097 106.404C239.845 106.466 238.775 105.573 237.785 104.805C231.907 100.253 224.271 98.5457 216.846 98.2498C209.42 97.9539 202.006 98.9269 194.575 99.1374C183.867 99.4447 172.987 98.1076 163.092 94.0164C154.199 90.3066 146.091 84.2752 140.754 76.2466C135.513 68.3318 138.614 56.8492 144.202 49.97C149.448 43.5176 157.038 39.3866 164.828 36.479C185.773 28.6553 209.682 28.8431 230.343 37.4065C236.476 39.9215 242.394 43.2445 247.003 48.0354C251.498 52.7069 254.61 58.9319 254.65 65.3957Z" stroke="black" stroke-width="2.30445" stroke-miterlimit="10"/>
<path d="M168.697 73.009C173.14 73.009 176.743 69.4072 176.743 64.9633C176.743 60.52 173.14 56.9177 168.697 56.9177C164.254 56.9177 160.651 60.52 160.651 64.9633C160.651 69.4072 164.254 73.009 168.697 73.009Z" fill="white"/>
<path d="M194.712 73.009C199.155 73.009 202.757 69.4072 202.757 64.9633C202.757 60.52 199.155 56.9177 194.712 56.9177C190.268 56.9177 186.666 60.52 186.666 64.9633C186.666 69.4072 190.268 73.009 194.712 73.009Z" fill="white"/>
<path d="M221.233 73.009C225.676 73.009 229.279 69.4072 229.279 64.9633C229.279 60.52 225.676 56.9177 221.233 56.9177C216.79 56.9177 213.187 60.52 213.187 64.9633C213.187 69.4072 216.79 73.009 221.233 73.009Z" fill="white"/>
<g opacity="0.54">
<path opacity="0.54" d="M375.836 402.284L372.564 449.511C371.068 452.362 369.198 455.001 367.005 457.358C366.766 457.272 366.527 457.181 366.294 457.073C365.856 456.925 365.423 456.749 365.013 456.578C358.385 453.671 353.349 448.254 351.881 442.114C350.555 436.737 351.75 430.928 349.19 425.875C346.066 419.65 337.571 415.747 336.529 408.725C335.551 402.153 341.468 396.128 340.512 389.686C339.374 382.403 330.469 378.085 328.802 370.972C327.761 366.551 328.694 361.475 328.302 356.923C327.869 351.831 327.014 346.784 325.747 341.834C338.931 340.878 352.348 348.144 356.621 358.551C360.109 367.086 358.009 377.026 363.449 384.787C366.419 388.992 371.364 392.139 373.924 396.537C374.714 397.91 375.29 399.395 375.631 400.941C375.631 401.049 375.631 401.158 375.671 401.243C375.671 401.419 375.716 401.544 375.739 401.675C375.796 402.068 375.836 402.284 375.836 402.284Z" fill="#3FBDF1"/>
<path opacity="0.54" d="M375.859 402.243C375.859 402.243 375.819 402.05 375.773 401.674C375.812 401.824 375.84 401.976 375.859 402.129C375.867 402.147 375.871 402.166 375.871 402.186C375.871 402.206 375.867 402.225 375.859 402.243Z" fill="#3FBDF1"/>
</g>
<path d="M419.416 383.814C417.709 389.948 408.36 393.675 407.233 399.962C406.238 405.538 412.394 410.739 411.376 416.4C410.289 422.472 401.441 425.829 398.192 431.194C395.546 435.553 396.781 440.566 395.415 445.203C393.833 450.472 388.587 455.178 381.668 457.67C381.236 457.824 380.826 457.972 380.388 458.103C380.149 458.171 379.887 458.256 379.648 458.319C377.372 456.435 374.726 453.118 372.581 449.539L375.836 402.284C378.374 400.133 381.276 398.164 383.295 395.774C385.486 393.197 386.505 390.38 387.153 387.427H387.222V387.103C388.172 382.443 388.257 377.561 390.448 373.139C394.892 364.144 408.838 357.873 422.562 358.698C421.267 362.947 420.381 367.311 419.916 371.728C419.524 375.637 420.491 380.019 419.416 383.814Z" fill="#3FBDF1"/>
<path d="M387.244 387.062V387.387H387.176L387.244 387.062Z" fill="#3FBDF1"/>
<path d="M387.244 387.062L387.176 387.387C386.527 390.34 385.509 393.156 383.318 395.734C381.298 398.124 378.396 400.092 375.859 402.243C375.869 402.214 375.869 402.182 375.859 402.152C375.841 401.999 375.812 401.847 375.773 401.697C375.773 401.566 375.728 401.441 375.705 401.264C375.705 401.179 375.705 401.071 375.665 400.963C375.324 399.416 374.748 397.931 373.958 396.559C371.398 392.16 366.453 389.014 363.483 384.809C363.483 384.809 364.826 362.646 376.166 355.904C386.92 349.531 387.244 383.375 387.244 387.062Z" fill="#3FBDF1"/>
<path d="M387.244 387.062V387.387H387.176L387.244 387.062Z" fill="#3FBDF1"/>
<path d="M375.836 402.152V402.283C375.836 402.283 375.796 402.09 375.751 401.714C375.789 401.858 375.817 402.004 375.836 402.152Z" fill="#3FBDF1"/>
<path d="M374.823 402.282C377.349 400.132 380.285 398.134 382.311 395.75C388.001 389.042 385.805 380.467 389.452 373.11C393.89 364.125 407.848 357.861 421.566 358.68C420.264 362.928 419.376 367.291 418.915 371.71C418.505 375.648 419.484 380.023 418.408 383.835C416.662 389.969 407.347 393.691 406.215 399.978C405.208 405.548 411.381 410.749 410.363 416.405C409.276 422.482 400.434 425.839 397.179 431.199C394.522 435.563 395.768 440.565 394.391 445.213C392.724 450.818 386.92 455.768 379.358 458.107C379.119 458.187 378.857 458.272 378.613 458.335C376.337 456.451 373.691 453.134 371.54 449.549" stroke="black" stroke-width="2.30445" stroke-miterlimit="10"/>
<path d="M413.191 365.718C392.735 387.733 383.113 434.146 379.369 458.112C379.062 460.132 378.8 461.981 378.55 463.649" stroke="black" stroke-width="2.30445" stroke-miterlimit="10"/>
<path d="M415.08 477.146L405.697 532.674C405.474 534.195 404.719 535.588 403.568 536.606C402.416 537.623 400.941 538.2 399.404 538.234H350.197C348.645 538.198 347.157 537.609 346 536.573C344.844 535.537 344.096 534.122 343.892 532.583L335.215 477.14L415.08 477.146Z" stroke="black" stroke-width="2.30445" stroke-miterlimit="10"/>
<path d="M424.019 470.945C423.935 472.592 423.231 474.147 422.049 475.296C420.868 476.446 419.295 477.108 417.646 477.147H332.802C331.172 477.108 329.615 476.461 328.438 475.332C327.261 474.203 326.549 472.675 326.441 471.048C326.083 467.065 329.03 463.651 332.802 463.651H417.646C421.384 463.656 424.32 467.019 424.019 470.945Z" stroke="black" stroke-width="2.30445" stroke-miterlimit="10"/>
<path d="M365.998 457.345C369.639 453.732 374.1 445.675 376.075 439.097C377.702 433.675 374.84 428.093 374.18 422.528C373.156 413.817 377.48 404.451 372.923 396.553C370.379 392.149 365.435 389.02 362.464 384.803C356.996 377.036 359.096 367.102 355.602 358.584C351.329 348.165 337.918 340.899 324.74 341.867C325.999 346.819 326.854 351.866 327.294 356.956C327.687 361.508 326.725 366.584 327.784 370.999C329.451 378.112 338.396 382.419 339.494 389.708C340.461 396.149 334.538 402.181 335.511 408.741C336.558 415.774 345.042 419.66 348.177 425.896C350.726 430.955 349.531 436.759 350.851 442.13C352.507 448.844 358.373 454.745 365.998 457.345Z" stroke="black" stroke-width="2.30445" stroke-miterlimit="10"/>
<path d="M332.785 350.026C352.422 375.54 361.662 429.305 365.298 457.061C365.605 459.467 365.867 461.675 366.1 463.65" stroke="black" stroke-width="2.30445" stroke-miterlimit="10"/>
<path d="M362.453 384.803C362.453 384.803 363.802 362.64 375.136 355.903C386.47 349.166 386.232 386.919 386.232 386.919" stroke="black" stroke-width="2.30445" stroke-miterlimit="10"/>
<path d="M374.823 402.282C374.823 402.282 372.507 389.605 376.57 377.138" stroke="black" stroke-width="2.30445" stroke-miterlimit="10"/>
</svg>
