<svg width="717" height="112" viewBox="0 0 717 112" fill="none" xmlns="http://www.w3.org/2000/svg">
<path d="M0 0H717V112H0V0Z" fill="white"/>
<path d="M99.4623 45.7812V60H96.7866V45.7812H99.4623ZM103.876 45.7812V47.9004H92.4213V45.7812H103.876ZM109.296 60.1953C108.496 60.1953 107.776 60.0651 107.138 59.8047C106.5 59.5443 105.956 59.1829 105.507 58.7207C105.065 58.252 104.723 57.7083 104.482 57.0898C104.247 56.4648 104.13 55.7943 104.13 55.0781V54.6875C104.13 53.8737 104.247 53.1348 104.482 52.4707C104.716 51.8001 105.048 51.224 105.478 50.7422C105.908 50.2604 106.422 49.8893 107.021 49.6289C107.62 49.3685 108.281 49.2383 109.003 49.2383C109.752 49.2383 110.413 49.3652 110.986 49.6191C111.559 49.8665 112.037 50.2181 112.421 50.6738C112.805 51.1296 113.095 51.6764 113.29 52.3145C113.486 52.946 113.583 53.6458 113.583 54.4141V55.498H105.302V53.7207H111.044V53.5254C111.031 53.1152 110.953 52.7409 110.81 52.4023C110.667 52.0573 110.445 51.7839 110.146 51.582C109.846 51.3737 109.459 51.2695 108.984 51.2695C108.6 51.2695 108.264 51.3542 107.978 51.5234C107.698 51.6862 107.464 51.9206 107.275 52.2266C107.093 52.526 106.956 52.8841 106.865 53.3008C106.774 53.7174 106.728 54.1797 106.728 54.6875V55.0781C106.728 55.5208 106.787 55.931 106.904 56.3086C107.027 56.6862 107.206 57.015 107.441 57.2949C107.682 57.5684 107.968 57.7832 108.3 57.9395C108.639 58.0892 109.023 58.1641 109.453 58.1641C109.993 58.1641 110.481 58.0599 110.917 57.8516C111.36 57.6367 111.744 57.321 112.07 56.9043L113.369 58.252C113.147 58.5775 112.848 58.89 112.47 59.1895C112.099 59.4889 111.65 59.7331 111.122 59.9219C110.595 60.1042 109.986 60.1953 109.296 60.1953ZM119.648 58.1641C120.012 58.1641 120.338 58.0924 120.624 57.9492C120.911 57.806 121.139 57.6042 121.308 57.3438C121.484 57.0833 121.578 56.7806 121.591 56.4355H124.023C124.01 57.1517 123.808 57.793 123.417 58.3594C123.027 58.9258 122.506 59.375 121.855 59.707C121.21 60.0326 120.488 60.1953 119.687 60.1953C118.873 60.1953 118.164 60.0586 117.558 59.7852C116.953 59.5117 116.448 59.1309 116.044 58.6426C115.647 58.1543 115.348 57.5879 115.146 56.9434C114.951 56.2988 114.853 55.6087 114.853 54.873V54.5605C114.853 53.8249 114.951 53.1348 115.146 52.4902C115.348 51.8457 115.647 51.2793 116.044 50.791C116.448 50.3027 116.953 49.9219 117.558 49.6484C118.164 49.375 118.87 49.2383 119.677 49.2383C120.53 49.2383 121.279 49.4043 121.923 49.7363C122.574 50.0684 123.082 50.5371 123.447 51.1426C123.818 51.748 124.01 52.4609 124.023 53.2812H121.591C121.578 52.9036 121.494 52.5651 121.337 52.2656C121.181 51.9661 120.96 51.7253 120.673 51.543C120.387 51.3607 120.039 51.2695 119.628 51.2695C119.192 51.2695 118.828 51.3607 118.535 51.543C118.248 51.7253 118.024 51.9759 117.861 52.2949C117.705 52.6074 117.594 52.959 117.529 53.3496C117.47 53.7337 117.441 54.1374 117.441 54.5605V54.873C117.441 55.3027 117.47 55.7129 117.529 56.1035C117.594 56.4941 117.705 56.8457 117.861 57.1582C118.024 57.4642 118.248 57.7083 118.535 57.8906C118.828 58.0729 119.199 58.1641 119.648 58.1641ZM128.271 45V60H125.683V45H128.271ZM127.861 54.3359H127.099C127.099 53.6003 127.197 52.9232 127.392 52.3047C127.587 51.6862 127.864 51.1491 128.222 50.6934C128.58 50.2311 129.007 49.873 129.501 49.6191C130.003 49.3652 130.556 49.2383 131.162 49.2383C131.682 49.2383 132.154 49.3132 132.578 49.4629C133.007 49.6061 133.375 49.8372 133.681 50.1562C133.987 50.4753 134.221 50.8919 134.384 51.4062C134.553 51.9141 134.638 52.5326 134.638 53.2617V60H132.04V53.2422C132.04 52.7539 131.969 52.3698 131.826 52.0898C131.682 51.8034 131.477 51.5983 131.21 51.4746C130.95 51.3509 130.628 51.2891 130.244 51.2891C129.827 51.2891 129.469 51.3704 129.169 51.5332C128.87 51.6895 128.622 51.9076 128.427 52.1875C128.238 52.4674 128.095 52.7897 127.997 53.1543C127.906 53.5189 127.861 53.9128 127.861 54.3359ZM139.443 51.6895V60H136.865V49.4336H139.287L139.443 51.6895ZM139.033 54.3359H138.271C138.277 53.5677 138.382 52.8711 138.583 52.2461C138.785 51.6211 139.068 51.084 139.433 50.6348C139.804 50.1855 140.244 49.8405 140.751 49.5996C141.259 49.3587 141.826 49.2383 142.451 49.2383C142.958 49.2383 143.417 49.3099 143.828 49.4531C144.238 49.5964 144.589 49.8242 144.882 50.1367C145.182 50.4492 145.41 50.8594 145.566 51.3672C145.729 51.8685 145.81 52.487 145.81 53.2227V60H143.212V53.2031C143.212 52.7214 143.141 52.3405 142.997 52.0605C142.861 51.7806 142.659 51.582 142.392 51.4648C142.132 51.3477 141.809 51.2891 141.425 51.2891C141.028 51.2891 140.68 51.3704 140.38 51.5332C140.087 51.6895 139.84 51.9076 139.638 52.1875C139.443 52.4674 139.293 52.7897 139.189 53.1543C139.085 53.5189 139.033 53.9128 139.033 54.3359ZM147.626 54.8242V54.6191C147.626 53.8444 147.737 53.1315 147.958 52.4805C148.18 51.8229 148.502 51.2533 148.925 50.7715C149.348 50.2897 149.866 49.9154 150.478 49.6484C151.09 49.375 151.787 49.2383 152.568 49.2383C153.362 49.2383 154.065 49.375 154.677 49.6484C155.296 49.9154 155.817 50.2897 156.24 50.7715C156.663 51.2533 156.985 51.8229 157.206 52.4805C157.428 53.1315 157.539 53.8444 157.539 54.6191V54.8242C157.539 55.5924 157.428 56.3053 157.206 56.9629C156.985 57.6139 156.663 58.1836 156.24 58.6719C155.817 59.1536 155.299 59.528 154.687 59.7949C154.075 60.0618 153.375 60.1953 152.587 60.1953C151.806 60.1953 151.106 60.0618 150.488 59.7949C149.869 59.528 149.348 59.1536 148.925 58.6719C148.502 58.1836 148.18 57.6139 147.958 56.9629C147.737 56.3053 147.626 55.5924 147.626 54.8242ZM150.205 54.6191V54.8242C150.205 55.2865 150.25 55.7194 150.341 56.123C150.432 56.5267 150.572 56.8815 150.761 57.1875C150.95 57.4935 151.194 57.7344 151.494 57.9102C151.8 58.0794 152.164 58.1641 152.587 58.1641C153.004 58.1641 153.362 58.0794 153.662 57.9102C153.961 57.7344 154.205 57.4935 154.394 57.1875C154.589 56.8815 154.733 56.5267 154.824 56.123C154.915 55.7194 154.96 55.2865 154.96 54.8242V54.6191C154.96 54.1634 154.915 53.737 154.824 53.3398C154.733 52.9362 154.589 52.5814 154.394 52.2754C154.205 51.9629 153.958 51.7188 153.652 51.543C153.352 51.3607 152.991 51.2695 152.568 51.2695C152.151 51.2695 151.793 51.3607 151.494 51.543C151.194 51.7188 150.95 51.9629 150.761 52.2754C150.572 52.5814 150.432 52.9362 150.341 53.3398C150.25 53.737 150.205 54.1634 150.205 54.6191ZM162.148 45V60H159.56V45H162.148ZM164.15 54.8242V54.6191C164.15 53.8444 164.261 53.1315 164.482 52.4805C164.703 51.8229 165.025 51.2533 165.449 50.7715C165.872 50.2897 166.389 49.9154 167.001 49.6484C167.613 49.375 168.31 49.2383 169.091 49.2383C169.886 49.2383 170.589 49.375 171.201 49.6484C171.819 49.9154 172.34 50.2897 172.763 50.7715C173.186 51.2533 173.509 51.8229 173.73 52.4805C173.951 53.1315 174.062 53.8444 174.062 54.6191V54.8242C174.062 55.5924 173.951 56.3053 173.73 56.9629C173.509 57.6139 173.186 58.1836 172.763 58.6719C172.34 59.1536 171.822 59.528 171.21 59.7949C170.598 60.0618 169.899 60.1953 169.111 60.1953C168.33 60.1953 167.63 60.0618 167.011 59.7949C166.393 59.528 165.872 59.1536 165.449 58.6719C165.025 58.1836 164.703 57.6139 164.482 56.9629C164.261 56.3053 164.15 55.5924 164.15 54.8242ZM166.728 54.6191V54.8242C166.728 55.2865 166.774 55.7194 166.865 56.123C166.956 56.5267 167.096 56.8815 167.285 57.1875C167.473 57.4935 167.718 57.7344 168.017 57.9102C168.323 58.0794 168.688 58.1641 169.111 58.1641C169.527 58.1641 169.886 58.0794 170.185 57.9102C170.484 57.7344 170.729 57.4935 170.917 57.1875C171.113 56.8815 171.256 56.5267 171.347 56.123C171.438 55.7194 171.484 55.2865 171.484 54.8242V54.6191C171.484 54.1634 171.438 53.737 171.347 53.3398C171.256 52.9362 171.113 52.5814 170.917 52.2754C170.729 51.9629 170.481 51.7188 170.175 51.543C169.876 51.3607 169.514 51.2695 169.091 51.2695C168.675 51.2695 168.317 51.3607 168.017 51.543C167.718 51.7188 167.473 51.9629 167.285 52.2754C167.096 52.5814 166.956 52.9362 166.865 53.3398C166.774 53.737 166.728 54.1634 166.728 54.6191ZM182.656 49.4336H184.999V59.6777C184.999 60.6348 184.791 61.4453 184.374 62.1094C183.964 62.7799 183.388 63.2878 182.646 63.6328C181.904 63.9844 181.041 64.1602 180.058 64.1602C179.635 64.1602 179.176 64.1016 178.681 63.9844C178.193 63.8672 177.721 63.6816 177.265 63.4277C176.816 63.1803 176.442 62.8581 176.142 62.4609L177.304 60.9375C177.656 61.3477 178.053 61.6569 178.496 61.8652C178.938 62.0801 179.417 62.1875 179.931 62.1875C180.452 62.1875 180.895 62.0898 181.259 61.8945C181.63 61.7057 181.914 61.4258 182.109 61.0547C182.311 60.6901 182.412 60.2409 182.412 59.707V51.8457L182.656 49.4336ZM175.517 54.8438V54.6387C175.517 53.8314 175.615 53.099 175.81 52.4414C176.005 51.7773 176.285 51.2077 176.65 50.7324C177.021 50.2572 177.467 49.8893 177.988 49.6289C178.515 49.3685 179.108 49.2383 179.765 49.2383C180.462 49.2383 181.048 49.3652 181.523 49.6191C182.005 49.873 182.402 50.2344 182.714 50.7031C183.033 51.1719 183.281 51.7285 183.456 52.373C183.639 53.0111 183.779 53.7142 183.876 54.4824V55.0391C183.785 55.7878 183.639 56.4746 183.437 57.0996C183.242 57.7246 182.981 58.2715 182.656 58.7402C182.33 59.2025 181.927 59.5605 181.445 59.8145C180.963 60.0684 180.397 60.1953 179.746 60.1953C179.095 60.1953 178.509 60.0618 177.988 59.7949C177.467 59.528 177.021 59.1536 176.65 58.6719C176.285 58.1901 176.005 57.6237 175.81 56.9727C175.615 56.3216 175.517 55.612 175.517 54.8438ZM178.095 54.6387V54.8438C178.095 55.2995 178.141 55.7259 178.232 56.123C178.323 56.5202 178.463 56.8717 178.652 57.1777C178.841 57.4772 179.078 57.7116 179.365 57.8809C179.651 58.0501 179.993 58.1348 180.39 58.1348C180.924 58.1348 181.36 58.0241 181.699 57.8027C182.044 57.5749 182.304 57.2656 182.48 56.875C182.662 56.4779 182.779 56.0319 182.831 55.5371V54.0039C182.799 53.6133 182.727 53.252 182.617 52.9199C182.512 52.5879 182.366 52.3014 182.177 52.0605C181.988 51.8197 181.747 51.6309 181.455 51.4941C181.162 51.3574 180.813 51.2891 180.41 51.2891C180.019 51.2891 179.677 51.377 179.384 51.5527C179.091 51.722 178.85 51.9596 178.662 52.2656C178.473 52.5716 178.33 52.9264 178.232 53.3301C178.141 53.7337 178.095 54.1699 178.095 54.6387ZM190.058 49.4336V60H187.47V49.4336H190.058ZM187.294 46.6699C187.294 46.2858 187.425 45.9668 187.685 45.7129C187.952 45.459 188.31 45.332 188.759 45.332C189.208 45.332 189.563 45.459 189.824 45.7129C190.091 45.9668 190.224 46.2858 190.224 46.6699C190.224 47.0475 190.091 47.3633 189.824 47.6172C189.563 47.8711 189.208 47.998 188.759 47.998C188.31 47.998 187.952 47.8711 187.685 47.6172C187.425 47.3633 187.294 47.0475 187.294 46.6699ZM197.265 60.1953C196.464 60.1953 195.745 60.0651 195.107 59.8047C194.469 59.5443 193.925 59.1829 193.476 58.7207C193.033 58.252 192.692 57.7083 192.451 57.0898C192.216 56.4648 192.099 55.7943 192.099 55.0781V54.6875C192.099 53.8737 192.216 53.1348 192.451 52.4707C192.685 51.8001 193.017 51.224 193.447 50.7422C193.876 50.2604 194.391 49.8893 194.99 49.6289C195.589 49.3685 196.249 49.2383 196.972 49.2383C197.721 49.2383 198.382 49.3652 198.955 49.6191C199.527 49.8665 200.006 50.2181 200.39 50.6738C200.774 51.1296 201.064 51.6764 201.259 52.3145C201.455 52.946 201.552 53.6458 201.552 54.4141V55.498H193.271V53.7207H199.013V53.5254C199 53.1152 198.922 52.7409 198.779 52.4023C198.636 52.0573 198.414 51.7839 198.115 51.582C197.815 51.3737 197.428 51.2695 196.953 51.2695C196.568 51.2695 196.233 51.3542 195.947 51.5234C195.667 51.6862 195.432 51.9206 195.244 52.2266C195.061 52.526 194.925 52.8841 194.833 53.3008C194.742 53.7174 194.697 54.1797 194.697 54.6875V55.0781C194.697 55.5208 194.755 55.931 194.872 56.3086C194.996 56.6862 195.175 57.015 195.41 57.2949C195.65 57.5684 195.937 57.7832 196.269 57.9395C196.608 58.0892 196.992 58.1641 197.421 58.1641C197.962 58.1641 198.45 58.0599 198.886 57.8516C199.329 57.6367 199.713 57.321 200.039 56.9043L201.337 58.252C201.116 58.5775 200.817 58.89 200.439 59.1895C200.068 59.4889 199.619 59.7331 199.091 59.9219C198.564 60.1042 197.955 60.1953 197.265 60.1953ZM209.091 57.1094C209.091 56.888 209.033 56.6895 208.915 56.5137C208.798 56.3379 208.577 56.1784 208.251 56.0352C207.932 55.8854 207.464 55.7454 206.845 55.6152C206.298 55.498 205.794 55.3516 205.331 55.1758C204.869 55 204.472 54.7884 204.14 54.541C203.808 54.2871 203.548 53.9909 203.359 53.6523C203.177 53.3073 203.085 52.9102 203.085 52.4609C203.085 52.0247 203.18 51.6146 203.369 51.2305C203.557 50.8398 203.831 50.498 204.189 50.2051C204.547 49.9056 204.983 49.6712 205.497 49.502C206.012 49.3262 206.591 49.2383 207.236 49.2383C208.134 49.2383 208.906 49.3848 209.55 49.6777C210.201 49.9707 210.699 50.3743 211.044 50.8887C211.389 51.3965 211.562 51.9694 211.562 52.6074H208.984C208.984 52.3275 208.919 52.0736 208.789 51.8457C208.665 51.6178 208.473 51.4355 208.212 51.2988C207.952 51.1556 207.623 51.084 207.226 51.084C206.868 51.084 206.565 51.1426 206.318 51.2598C206.077 51.377 205.895 51.5299 205.771 51.7188C205.647 51.9076 205.585 52.1159 205.585 52.3438C205.585 52.513 205.618 52.666 205.683 52.8027C205.755 52.9329 205.869 53.0534 206.025 53.1641C206.181 53.2747 206.393 53.3757 206.66 53.4668C206.933 53.5579 207.268 53.6458 207.665 53.7305C208.453 53.8867 209.14 54.0951 209.726 54.3555C210.318 54.6094 210.781 54.9479 211.113 55.3711C211.445 55.7943 211.611 56.3346 211.611 56.9922C211.611 57.4609 211.51 57.8906 211.308 58.2812C211.106 58.6654 210.813 59.0007 210.429 59.2871C210.045 59.5736 209.586 59.7982 209.052 59.9609C208.518 60.1172 207.916 60.1953 207.246 60.1953C206.275 60.1953 205.455 60.0228 204.785 59.6777C204.114 59.3262 203.606 58.8835 203.261 58.3496C202.916 57.8092 202.744 57.2493 202.744 56.6699H205.214C205.234 57.0801 205.345 57.4089 205.546 57.6562C205.748 57.9036 206.002 58.0827 206.308 58.1934C206.621 58.2975 206.949 58.3496 207.294 58.3496C207.685 58.3496 208.014 58.2975 208.281 58.1934C208.548 58.0827 208.749 57.9362 208.886 57.7539C209.023 57.5651 209.091 57.3503 209.091 57.1094Z" fill="#82D795"/>
<rect x="92.0038" y="66.4868" width="580.655" height="7.41043" transform="rotate(0.109739 92.0038 66.4868)" fill="#82D795"/>
<path d="M58.4167 42.5833L62.25 38.75M54.5833 63.6667L69.9167 48.3333M62.25 73.25L66.0833 69.4167M70.875 69.4167C72.1458 69.4167 73.3646 68.9118 74.2632 68.0132C75.1618 67.1146 75.6667 65.8958 75.6667 64.625C75.6667 63.3542 75.1618 62.1354 74.2632 61.2368C73.3646 60.3382 72.1458 59.8333 70.875 59.8333C69.6042 59.8333 68.3854 60.3382 67.4868 61.2368C66.5882 62.1354 66.0833 63.3542 66.0833 64.625C66.0833 65.8958 66.5882 67.1146 67.4868 68.0132C68.3854 68.9118 69.6042 69.4167 70.875 69.4167ZM53.625 52.1667C54.8958 52.1667 56.1146 51.6618 57.0132 50.7632C57.9118 49.8646 58.4167 48.6458 58.4167 47.375C58.4167 46.1042 57.9118 44.8854 57.0132 43.9868C56.1146 43.0882 54.8958 42.5833 53.625 42.5833C52.3542 42.5833 51.1354 43.0882 50.2368 43.9868C49.3382 44.8854 48.8333 46.1042 48.8333 47.375C48.8333 48.6458 49.3382 49.8646 50.2368 50.7632C51.1354 51.6618 52.3542 52.1667 53.625 52.1667ZM49.7917 73.25C51.0625 73.25 52.2813 72.7452 53.1799 71.8466C54.0785 70.9479 54.5833 69.7292 54.5833 68.4583C54.5833 67.1875 54.0785 65.9687 53.1799 65.0701C52.2813 64.1715 51.0625 63.6667 49.7917 63.6667C48.5208 63.6667 47.3021 64.1715 46.4034 65.0701C45.5048 65.9687 45 67.1875 45 68.4583C45 69.7292 45.5048 70.9479 46.4034 71.8466C47.3021 72.7452 48.5208 73.25 49.7917 73.25ZM74.7083 48.3333C75.9792 48.3333 77.1979 47.8285 78.0966 46.9299C78.9952 46.0313 79.5 44.8125 79.5 43.5417C79.5 42.2708 78.9952 41.0521 78.0966 40.1534C77.1979 39.2548 75.9792 38.75 74.7083 38.75C73.4375 38.75 72.2187 39.2548 71.3201 40.1534C70.4215 41.0521 69.9167 42.2708 69.9167 43.5417C69.9167 44.8125 70.4215 46.0313 71.3201 46.9299C72.2187 47.8285 73.4375 48.3333 74.7083 48.3333Z" stroke="#83D795" stroke-width="3.83333" stroke-linecap="round" stroke-linejoin="round"/>
</svg>
