<svg width="40" height="40" viewBox="0 0 40 40" fill="none" xmlns="http://www.w3.org/2000/svg">
<mask id="path-1-outside-1_361_2783" maskUnits="userSpaceOnUse" x="-0.217896" y="0.0297852" width="40" height="40" fill="black">
<rect fill="white" x="-0.217896" y="0.0297852" width="40" height="40"/>
<path fill-rule="evenodd" clip-rule="evenodd" d="M19.5642 38.5939C29.9372 38.5939 38.3463 30.1849 38.3463 19.8119C38.3463 9.43881 29.9372 1.02979 19.5642 1.02979C9.19113 1.02979 0.782104 9.43881 0.782104 19.8119C0.782104 30.1849 9.19113 38.5939 19.5642 38.5939ZM35.3411 19.8119C35.3411 28.5252 28.2776 35.5888 19.5642 35.5888C10.8508 35.5888 3.78724 28.5252 3.78724 19.8119C3.78724 11.0985 10.8508 4.03492 19.5642 4.03492C28.2776 4.03492 35.3411 11.0985 35.3411 19.8119ZM16.5278 21.5649C16.1129 20.8462 15.194 20.6 14.4753 21.0149C13.7566 21.4298 13.5104 22.3488 13.9253 23.0674C14.4968 24.0573 15.3187 24.8792 16.3086 25.4507C17.2984 26.0222 18.4212 26.323 19.5641 26.323C20.7071 26.323 21.8299 26.0222 22.8197 25.4507C23.8095 24.8792 24.6314 24.0573 25.2029 23.0674C25.6178 22.3488 25.3716 21.4298 24.6529 21.0149C23.9343 20.6 23.0153 20.8462 22.6004 21.5649C22.2927 22.0979 21.8501 22.5404 21.3171 22.8482C20.7841 23.1559 20.1795 23.3179 19.5641 23.3179C18.9487 23.3179 18.3441 23.1559 17.8111 22.8482C17.2781 22.5404 16.8356 22.0979 16.5278 21.5649ZM10.7991 14.5529C10.7991 13.5848 11.584 12.7999 12.5521 12.7999H14.3051C15.2733 12.7999 16.0581 13.5848 16.0581 14.5529C16.0581 15.5211 15.2733 16.3059 14.3051 16.3059H12.5521C11.584 16.3059 10.7991 15.5211 10.7991 14.5529ZM24.8232 12.7999C23.855 12.7999 23.0702 13.5848 23.0702 14.5529C23.0702 15.5211 23.855 16.3059 24.8232 16.3059H26.5762C27.5443 16.3059 28.3292 15.5211 28.3292 14.5529C28.3292 13.5848 27.5443 12.7999 26.5762 12.7999H24.8232Z"/>
</mask>
<path fill-rule="evenodd" clip-rule="evenodd" d="M19.5642 38.5939C29.9372 38.5939 38.3463 30.1849 38.3463 19.8119C38.3463 9.43881 29.9372 1.02979 19.5642 1.02979C9.19113 1.02979 0.782104 9.43881 0.782104 19.8119C0.782104 30.1849 9.19113 38.5939 19.5642 38.5939ZM35.3411 19.8119C35.3411 28.5252 28.2776 35.5888 19.5642 35.5888C10.8508 35.5888 3.78724 28.5252 3.78724 19.8119C3.78724 11.0985 10.8508 4.03492 19.5642 4.03492C28.2776 4.03492 35.3411 11.0985 35.3411 19.8119ZM16.5278 21.5649C16.1129 20.8462 15.194 20.6 14.4753 21.0149C13.7566 21.4298 13.5104 22.3488 13.9253 23.0674C14.4968 24.0573 15.3187 24.8792 16.3086 25.4507C17.2984 26.0222 18.4212 26.323 19.5641 26.323C20.7071 26.323 21.8299 26.0222 22.8197 25.4507C23.8095 24.8792 24.6314 24.0573 25.2029 23.0674C25.6178 22.3488 25.3716 21.4298 24.6529 21.0149C23.9343 20.6 23.0153 20.8462 22.6004 21.5649C22.2927 22.0979 21.8501 22.5404 21.3171 22.8482C20.7841 23.1559 20.1795 23.3179 19.5641 23.3179C18.9487 23.3179 18.3441 23.1559 17.8111 22.8482C17.2781 22.5404 16.8356 22.0979 16.5278 21.5649ZM10.7991 14.5529C10.7991 13.5848 11.584 12.7999 12.5521 12.7999H14.3051C15.2733 12.7999 16.0581 13.5848 16.0581 14.5529C16.0581 15.5211 15.2733 16.3059 14.3051 16.3059H12.5521C11.584 16.3059 10.7991 15.5211 10.7991 14.5529ZM24.8232 12.7999C23.855 12.7999 23.0702 13.5848 23.0702 14.5529C23.0702 15.5211 23.855 16.3059 24.8232 16.3059H26.5762C27.5443 16.3059 28.3292 15.5211 28.3292 14.5529C28.3292 13.5848 27.5443 12.7999 26.5762 12.7999H24.8232Z" fill="#00E676"/>
<path d="M16.5278 21.5649L15.9022 21.9261H15.9022L16.5278 21.5649ZM13.9253 23.0674L14.5509 22.7063L13.9253 23.0674ZM22.8197 25.4507L23.1809 26.0763H23.1809L22.8197 25.4507ZM25.2029 23.0674L25.8285 23.4286V23.4286L25.2029 23.0674ZM24.6529 21.0149L25.0141 20.3893L25.0141 20.3893L24.6529 21.0149ZM22.6004 21.5649L23.226 21.9261L22.6004 21.5649ZM17.8111 22.8482L18.1723 22.2226L18.1723 22.2226L17.8111 22.8482ZM37.6239 19.8119C37.6239 29.786 29.5383 37.8716 19.5642 37.8716V39.3163C30.3362 39.3163 39.0687 30.5839 39.0687 19.8119H37.6239ZM19.5642 1.75217C29.5383 1.75217 37.6239 9.83777 37.6239 19.8119H39.0687C39.0687 9.03985 30.3362 0.307397 19.5642 0.307397V1.75217ZM1.50449 19.8119C1.50449 9.83777 9.59009 1.75217 19.5642 1.75217V0.307397C8.79216 0.307397 0.0597168 9.03985 0.0597168 19.8119H1.50449ZM19.5642 37.8716C9.59009 37.8716 1.50449 29.786 1.50449 19.8119H0.0597168C0.0597168 30.5839 8.79216 39.3163 19.5642 39.3163V37.8716ZM19.5642 36.3112C28.6765 36.3112 36.0635 28.9242 36.0635 19.8119H34.6187C34.6187 28.1263 27.8786 34.8664 19.5642 34.8664V36.3112ZM3.06485 19.8119C3.06485 28.9242 10.4519 36.3112 19.5642 36.3112V34.8664C11.2498 34.8664 4.50962 28.1263 4.50962 19.8119H3.06485ZM19.5642 3.31253C10.4519 3.31253 3.06485 10.6995 3.06485 19.8119H4.50962C4.50962 11.4975 11.2498 4.75731 19.5642 4.75731V3.31253ZM36.0635 19.8119C36.0635 10.6995 28.6765 3.31253 19.5642 3.31253V4.75731C27.8786 4.75731 34.6187 11.4975 34.6187 19.8119H36.0635ZM14.8365 21.6405C15.2096 21.4251 15.6868 21.5529 15.9022 21.9261L17.1534 21.2037C16.539 20.1395 15.1783 19.7749 14.1141 20.3893L14.8365 21.6405ZM14.5509 22.7063C14.3355 22.3331 14.4633 21.8559 14.8365 21.6405L14.1141 20.3893C13.0499 21.0037 12.6853 22.3645 13.2997 23.4286L14.5509 22.7063ZM16.6697 24.8251C15.7897 24.317 15.059 23.5863 14.5509 22.7063L13.2997 23.4286C13.9346 24.5283 14.8477 25.4414 15.9474 26.0763L16.6697 24.8251ZM19.5641 25.6006C18.548 25.6006 17.5497 25.3331 16.6697 24.8251L15.9474 26.0763C17.047 26.7112 18.2944 27.0454 19.5641 27.0454V25.6006ZM22.4585 24.8251C21.5785 25.3331 20.5802 25.6006 19.5641 25.6006V27.0454C20.8339 27.0454 22.0812 26.7112 23.1809 26.0763L22.4585 24.8251ZM24.5773 22.7062C24.0692 23.5863 23.3385 24.317 22.4585 24.8251L23.1809 26.0763C24.2805 25.4414 25.1936 24.5283 25.8285 23.4286L24.5773 22.7062ZM24.2917 21.6405C24.6649 21.8559 24.7927 22.3331 24.5773 22.7063L25.8285 23.4286C26.4429 22.3645 26.0783 21.0037 25.0141 20.3893L24.2917 21.6405ZM23.226 21.9261C23.4414 21.5529 23.9186 21.4251 24.2917 21.6405L25.0141 20.3893C23.9499 19.7749 22.5892 20.1395 21.9748 21.2037L23.226 21.9261ZM21.6783 23.4738C22.3211 23.1026 22.8549 22.5689 23.226 21.9261L21.9748 21.2037C21.7305 21.6268 21.3791 21.9782 20.9559 22.2226L21.6783 23.4738ZM19.5641 24.0403C20.3064 24.0403 21.0355 23.8449 21.6783 23.4738L20.9559 22.2226C20.5328 22.4669 20.0527 22.5955 19.5641 22.5955V24.0403ZM17.4499 23.4738C18.0927 23.8449 18.8219 24.0403 19.5641 24.0403V22.5955C19.0755 22.5955 18.5955 22.4669 18.1723 22.2226L17.4499 23.4738ZM15.9022 21.9261C16.2734 22.5689 16.8071 23.1026 17.4499 23.4738L18.1723 22.2226C17.7492 21.9782 17.3978 21.6268 17.1534 21.2037L15.9022 21.9261ZM12.5521 12.0775C11.185 12.0775 10.0767 13.1858 10.0767 14.5529H11.5215C11.5215 13.9837 11.9829 13.5223 12.5521 13.5223V12.0775ZM14.3051 12.0775H12.5521V13.5223H14.3051V12.0775ZM16.7805 14.5529C16.7805 13.1858 15.6722 12.0775 14.3051 12.0775V13.5223C14.8743 13.5223 15.3357 13.9837 15.3357 14.5529H16.7805ZM14.3051 17.0283C15.6722 17.0283 16.7805 15.92 16.7805 14.5529H15.3357C15.3357 15.1221 14.8743 15.5835 14.3051 15.5835V17.0283ZM12.5521 17.0283H14.3051V15.5835H12.5521V17.0283ZM10.0767 14.5529C10.0767 15.92 11.185 17.0283 12.5521 17.0283V15.5835C11.9829 15.5835 11.5215 15.1221 11.5215 14.5529H10.0767ZM23.7926 14.5529C23.7926 13.9837 24.254 13.5223 24.8232 13.5223V12.0775C23.4561 12.0775 22.3478 13.1858 22.3478 14.5529H23.7926ZM24.8232 15.5835C24.254 15.5835 23.7926 15.1221 23.7926 14.5529H22.3478C22.3478 15.92 23.4561 17.0283 24.8232 17.0283V15.5835ZM26.5762 15.5835H24.8232V17.0283H26.5762V15.5835ZM27.6068 14.5529C27.6068 15.1221 27.1454 15.5835 26.5762 15.5835V17.0283C27.9433 17.0283 29.0516 15.92 29.0516 14.5529H27.6068ZM26.5762 13.5223C27.1454 13.5223 27.6068 13.9837 27.6068 14.5529H29.0516C29.0516 13.1858 27.9433 12.0775 26.5762 12.0775V13.5223ZM24.8232 13.5223H26.5762V12.0775H24.8232V13.5223Z" fill="#00E676" mask="url(#path-1-outside-1_361_2783)"/>
</svg>
