
<svg
    width="302"
    height="113"
    viewBox="0 0 302 113"
    fill="none"
    xmlns="http://www.w3.org/2000/svg"
>
    <path
    d="M0.746094 0.832703H301.259V112.08H0.746094V0.832703Z"
    fill="white"
    />
    <g clip-path="url(#clip0_367_3822)">
    <rect
        width="300.513"
        height="111.248"
        transform="translate(0.746094 0.832703)"
        fill="#BDBDBD"
    />
    <g opacity="0.25">
        <g clip-path="url(#clip1_367_3822)">
        <path
            d="M2.84051 93.6527L10.0513 80.908L22.7539 88.317L2.84051 93.6527ZM-3.94183 72.9042L6.58529 70.0835L-1.00351 83.8702L-3.94183 72.9042ZM7.81236 69.7547L-0.650917 85.1861L1.69964 93.9584L17.1124 67.2627L7.81236 69.7547Z"
            fill="#FAFAFA"
        />
        </g>
        <g clip-path="url(#clip2_367_3822)">
        <path
            fill-rule="evenodd"
            clip-rule="evenodd"
            d="M74.0267 52.7515L86.3346 56.109L89.2192 66.8743L80.2394 75.9376L67.931 72.5785L65.0464 61.8132L74.0262 52.7499L74.0267 52.7515ZM75.5971 58.6123C74.077 59.0196 72.781 60.0141 71.9941 61.3769C71.2073 62.7398 70.9941 64.3594 71.4014 65.8795C71.8087 67.3995 72.8031 68.6956 74.166 69.4824C75.5289 70.2693 77.1485 70.4825 78.6685 70.0752L78.9666 69.9953C80.5648 69.5671 81.929 68.5206 82.7578 67.0875L82.8393 66.9463L81.3692 66.0975L81.2877 66.2387C80.6851 67.2831 79.6923 68.0453 78.5278 68.3578L78.2298 68.4376C77.144 68.7286 75.9871 68.5762 75.0137 68.0142C74.0402 67.4522 73.3299 66.5265 73.0389 65.4407C72.748 64.3549 72.9003 63.1981 73.4623 62.2246C74.0244 61.2511 74.9501 60.5408 76.0359 60.2499L76.3339 60.17C77.4982 59.858 78.7392 60.0222 79.7836 60.6252L79.9248 60.7067L80.7735 59.2367L80.6323 59.1551C79.9223 58.7454 79.1385 58.4795 78.3256 58.3726C77.5128 58.2658 76.6869 58.3201 75.8951 58.5324L75.5971 58.6123Z"
            fill="#FAFAFA"
        />
        </g>
        <g clip-path="url(#clip3_367_3822)">
        <path
            fill-rule="evenodd"
            clip-rule="evenodd"
            d="M53.5506 67.5685C52.3334 63.0261 45.8479 60.8167 39.065 62.6342C32.282 64.4517 27.7701 69.6078 28.9873 74.1503C30.0721 78.1988 35.3413 80.3852 41.2753 79.5296L41.9784 82.1535L46.1679 81.0299L45.4689 78.421C46.4324 78.047 47.3612 77.5889 48.2443 77.052L50.8015 79.7912L55.5356 78.5208L51.3934 74.4735C53.2957 72.3616 54.1716 69.8863 53.5506 67.5685ZM33.9785 73.471C33.1464 70.3655 36.651 66.728 41.8067 65.3465C46.9623 63.9651 51.2284 64.6677 52.2738 68.5688C52.5427 69.5278 52.5171 70.5455 52.2004 71.4898C51.8837 72.4342 51.2905 73.2615 50.4977 73.8644C50.3985 73.8312 50.2975 73.8033 50.1952 73.7809C49.7672 73.7088 49.3348 73.666 48.901 73.6529C48.901 73.6529 52.4898 72.3998 51.5129 68.7539C50.5359 65.108 46.6857 66.0663 46.6857 66.0663L38.2728 68.3206L40.6293 77.1151C37.2568 77.0456 34.5765 75.7028 33.9785 73.471ZM46.4675 71.8594L43.9298 72.5403L43.3007 70.189L45.8378 69.5092C45.9902 69.4557 46.1523 69.4355 46.3132 69.4498C46.474 69.4641 46.63 69.5126 46.7706 69.5921C46.9112 69.6716 47.0332 69.7802 47.1284 69.9107C47.2236 70.0412 47.2898 70.1905 47.3226 70.3487C47.3693 70.504 47.3841 70.6672 47.3661 70.8284C47.348 70.9896 47.2975 71.1455 47.2176 71.2866C47.1377 71.4278 47.0301 71.5513 46.9011 71.6497C46.7722 71.7482 46.6247 71.8195 46.4675 71.8594ZM44.716 75.6148L45.8415 75.3132C45.9481 75.2864 46.059 75.2818 46.1674 75.2999C46.2758 75.3179 46.3793 75.3582 46.4714 75.4181C46.687 75.5373 46.887 75.6826 47.0669 75.8509C46.3803 76.1217 45.6794 76.355 44.9675 76.5498L44.716 75.6148Z"
            fill="#FAFAFA"
        />
        </g>
        <g clip-path="url(#clip4_367_3822)">
        <path
            d="M36.74 24.4815C39.8224 24.1947 41.2068 25.9926 41.7272 28.1222L41.7147 28.0754L45.0606 45.896L28.0892 51.7097L28.1009 51.7066C26.6465 52.0336 23.4157 52.7488 22.0664 48.3214L22.8853 44.9678L28.15 51.6558L28.5222 42.0032L28.4669 42.0305L28.484 42.0009L38.2732 42.4619L33.5072 33.9855L41.9602 31.1438L33.7022 27.4142L36.7369 24.4698L36.74 24.4815ZM23.3994 33.2713C25.9371 28.8931 29.8716 25.6574 32.058 26.9396C34.2265 28.2014 33.5598 32.9183 31.0189 37.2849C28.4313 41.664 24.5983 44.9978 22.415 43.7274C20.2286 42.4452 20.8352 37.6442 23.3877 33.2745L23.3994 33.2713Z"
            fill="#FAFAFA"
        />
        </g>
        <path
        d="M70.3969 20.4903C70.3969 20.4903 62.9322 24.6342 67.9503 28.0159C69.4328 29.0102 68.3192 30.5623 68.3192 30.5623C68.3192 30.5623 70.7932 28.3323 68.9583 26.8181C67.2577 25.4309 66.0932 24.8278 70.3969 20.4903ZM65.5445 23.2949C69.2788 18.2826 66.194 16.5015 66.194 16.5015C68.2108 20.0982 64.0794 22.4589 63.1226 25.2978C62.4618 27.23 64.5727 28.5574 67.3022 29.9949C65.9389 28.2289 62.5454 27.3079 65.5445 23.2949ZM65.6269 36.0476C62.2938 38.0188 68.6501 38.5346 72.7002 35.3558C72.2087 35.2995 71.7195 35.2049 71.2443 35.069C69.7507 35.8578 68.1319 36.3668 66.4582 36.577C64.8758 36.8005 65.6269 36.0476 65.6269 36.0476ZM71.323 32.4152C69.3952 33.4081 67.3063 34.0807 65.1584 34.3929C63.5854 34.6514 64.3907 33.6333 64.3907 33.6333C60.768 36.0207 67.3419 35.8513 72.4303 32.7578C72.0566 32.7201 71.6696 32.5856 71.323 32.4152ZM76.3576 35.2032C76.3576 35.2032 77.1716 35.5743 75.9042 36.3653C73.4505 37.8752 65.1531 40.3618 62.5676 39.9764C61.64 39.8363 63.0726 38.9134 63.5356 38.6765C63.7858 38.5342 64.0486 38.4387 64.3176 38.3667C63.2243 37.9826 58.6619 41.2611 62.2449 40.8777C71.9747 39.9004 79.0641 35.6189 76.3576 35.2032ZM71.6295 30.3774C71.9091 30.0642 72.2216 29.7799 72.552 29.5159C72.552 29.5159 70.8673 30.2932 69.145 30.9303C67.3236 31.6189 65.4467 32.1469 63.5376 32.508C60.6917 32.8819 64.6704 30.7 64.6704 30.7C63.3837 31.0448 62.202 31.6874 61.2093 32.5677C59.1248 34.3799 67.6291 32.6653 71.6295 30.3774ZM73.4407 32.9259C73.4298 32.979 73.4158 33.0203 73.3784 33.0679C78.828 29.9655 75.6321 26.6471 73.085 28.3701C72.9517 28.4811 72.8481 28.6091 72.8007 28.7597C72.9488 28.6574 73.1 28.5667 73.2661 28.4846C74.5945 27.8278 77.1924 29.476 73.4407 32.9259ZM75.0376 38.2774C71.6798 39.829 68.0897 40.8411 64.414 41.2995C64.414 41.2995 65.0711 41.5998 67.8669 41.0387C72.1498 40.1795 78.5053 38.0252 78.1246 35.996C78.1628 35.9983 78.0593 36.8284 75.0376 38.2774Z"
        fill="#FAFAFA"
        />
        <g clip-path="url(#clip5_367_3822)">
        <path
            d="M2.92335 40.9769L5.11726 49.1646M6.19846 40.0993L8.39236 48.2871M1.1252 44.0914L9.31296 41.8975M2.00276 47.3665L10.1905 45.1726M2.66093 49.8228L2.09083 50.3283C1.47867 50.8716 0.737759 51.2492 -0.0614889 51.4255C-0.860737 51.6017 -1.69177 51.5706 -2.47561 51.3351C-3.25944 51.0996 -3.97005 50.6676 -4.53988 50.0801C-5.10971 49.4926 -5.51984 48.7692 -5.73129 47.9785L-5.87872 47.4283C-6.09043 46.6379 -6.09661 45.8065 -5.89668 45.0131C-5.69675 44.2196 -5.29734 43.4904 -4.73637 42.8947C-4.17541 42.299 -3.47149 41.8565 -2.69146 41.6093C-1.91142 41.3621 -1.08115 41.3184 -0.279466 41.4823L0.467025 41.635M-7.76377 53.4937L-10.3965 43.6683L-2.10687 35.3042L9.25417 38.403L11.8869 48.2283L3.59728 56.5924L-7.76377 53.4937Z"
            stroke="#FAFAFA"
            stroke-width="1.69532"
        />
        </g>
        <g clip-path="url(#clip6_367_3822)">
        <path
            d="M63.1214 -9.00198L65.6287 0.355468L70.3074 -0.898192M60.6366 0.439447L62.1197 1.29571M48.9398 3.5736C49.0229 3.88382 49.2258 4.14831 49.504 4.30889C49.7821 4.46947 50.1126 4.51299 50.4228 4.42986L52.7622 3.80303C53.0724 3.71991 53.3369 3.51696 53.4975 3.23882C53.6581 2.96069 53.7016 2.63016 53.6185 2.31994L52.9916 -0.0194236C52.9085 -0.329642 52.7056 -0.594134 52.4274 -0.754715C52.1493 -0.915296 51.8188 -0.958812 51.5086 -0.875689L49.1692 -0.248859C48.859 -0.165736 48.5284 -0.209252 48.2503 -0.369833C47.9722 -0.530414 47.7692 -0.794906 47.6861 -1.10512L47.0593 -3.44449C46.9761 -3.7547 47.0197 -4.08524 47.1802 -4.36337C47.3408 -4.64151 47.6053 -4.84446 47.9155 -4.92758L50.2549 -5.55441C50.5651 -5.63753 50.8956 -5.59402 51.1738 -5.43344C51.4519 -5.27286 51.6549 -5.00836 51.738 -4.69815M57.273 -7.4349C57.8934 -7.60115 58.5545 -7.51412 59.1107 -7.19295C59.667 -6.87179 60.0729 -6.34281 60.2392 -5.72237L61.4928 -1.04365C61.6591 -0.423211 61.572 0.237855 61.2509 0.794124C60.9297 1.35039 60.4007 1.7563 59.7803 1.92254C59.1599 2.08879 58.4988 2.00176 57.9425 1.6806C57.3863 1.35943 56.9803 0.830449 56.8141 0.210012L55.5604 -4.46871C55.3942 -5.08915 55.4812 -5.75021 55.8024 -6.30648C56.1236 -6.86275 56.6525 -7.26866 57.273 -7.4349Z"
            stroke="#FAFAFA"
            stroke-width="2.42189"
            stroke-linecap="round"
            stroke-linejoin="round"
        />
        </g>
        <g clip-path="url(#clip7_367_3822)">
        <path
            d="M8.60522 -1.91641L31.9988 -8.18471L38.2671 15.2089L14.8735 21.4772L8.60522 -1.91641ZM34.8558 10.143C34.3992 9.12137 33.464 8.41084 31.1783 8.12691C30.3708 7.98286 29.5108 7.96257 29.129 7.48505C28.9541 7.18716 28.8934 7.01536 28.9 6.80988C28.8775 6.14103 29.5725 5.75213 30.2044 5.77087C30.6158 5.78598 31.0451 5.98437 31.3908 6.39322C32.2221 5.46424 32.2221 5.46424 32.8076 4.83828C32.4347 4.49941 32.2568 4.35798 32.0327 4.23103C31.2345 3.70839 30.3226 3.57661 29.0002 3.96334L28.3363 4.23422C27.7205 4.57161 27.1868 5.09072 26.932 5.66045C26.158 7.21657 27.0663 9.3238 28.6543 9.86987C30.2512 10.5076 32.2553 10.2046 32.7549 11.0747C33.2944 12.1525 32.3104 12.8079 31.2068 12.9626C30.3693 12.999 29.8256 12.7205 29.1472 12.1187L27.6379 13.6211C27.968 14.0341 28.2565 14.1752 28.7171 14.4905C30.8718 15.7477 35.0884 14.5239 35.1523 11.7173C35.1571 11.622 35.2021 10.9675 34.7935 10.0897L34.8558 10.143ZM24.2075 5.42723L22.0163 6.01436C22.5225 7.90339 23.0168 9.78308 23.5237 11.675C23.8455 12.8759 24.2023 13.9619 24.0973 14.3536C23.9555 15.1114 23.104 15.2476 22.6962 15.2305C22.259 15.1428 21.9926 14.9322 21.6639 14.6138C21.575 14.528 21.5054 14.4515 21.4889 14.456L20.0038 16.0292C20.4656 16.5636 21.041 16.9757 21.6906 17.1621C22.6572 17.4359 23.8202 17.2966 24.9223 16.7192C25.6265 16.2944 26.163 15.6649 26.319 14.8709C26.5732 13.8312 26.1702 12.7482 25.8321 11.5057C25.3073 9.5005 24.7589 7.50056 24.2183 5.48286L24.2075 5.42723Z"
            fill="#FAFAFA"
        />
        </g>
        <g clip-path="url(#clip8_367_3822)">
        <path
            fill-rule="evenodd"
            clip-rule="evenodd"
            d="M-5.0198 26.8076L-12.2919 26.7419L-18.8199 10.3601L-1.27474 5.65885L1.2632 23.1078L-5.0198 26.8076ZM-12.8234 16.9606L-12.0814 18.9849L-4.8908 17.0582L-4.41071 19.813L-6.55705 21.0588L-6.559 21.0593L-9.03627 21.0545L-9.62765 19.4401L-11.7107 19.9982L-10.5473 23.1779L-5.98146 23.2186L-2.04082 20.8986L-3.07994 14.9464L-3.17839 14.3762L-3.92951 10.0758L-14.3221 12.8605L-13.577 14.885L-5.64654 12.7601L-5.26626 14.9357L-12.8234 16.9606Z"
            fill="#FAFAFA"
        />
        </g>
        <g clip-path="url(#clip9_367_3822)">
        <path
            d="M169.273 46.1006L176.484 33.3559L189.186 40.7649L169.273 46.1006ZM162.49 25.3521L173.018 22.5313L165.429 36.3181L162.49 25.3521ZM174.245 22.2026L165.781 37.6339L168.132 46.4063L183.545 19.7106L174.245 22.2026Z"
            fill="#FAFAFA"
        />
        </g>
        <g clip-path="url(#clip10_367_3822)">
        <path
            fill-rule="evenodd"
            clip-rule="evenodd"
            d="M240.459 5.1994L252.767 8.55692L255.651 19.3222L246.672 28.3855L234.363 25.0263L231.479 14.2611L240.459 5.19776L240.459 5.1994ZM242.029 11.0602C240.509 11.4675 239.213 12.462 238.426 13.8248C237.64 15.1877 237.426 16.8073 237.834 18.3274C238.241 19.8474 239.235 21.1434 240.598 21.9303C241.961 22.7171 243.581 22.9304 245.101 22.5231L245.399 22.4432C246.997 22.015 248.361 20.9685 249.19 19.5353L249.272 19.3942L247.802 18.5454L247.72 18.6866C247.117 19.731 246.125 20.4932 244.96 20.8057L244.662 20.8855C243.576 21.1764 242.419 21.0241 241.446 20.4621C240.472 19.9001 239.762 18.9744 239.471 17.8886C239.18 16.8028 239.333 15.646 239.895 14.6725C240.457 13.699 241.382 12.9887 242.468 12.6978L242.766 12.6179C243.93 12.3059 245.171 12.4701 246.216 13.0731L246.357 13.1546L247.206 11.6846L247.065 11.603C246.355 11.1933 245.571 10.9273 244.758 10.8205C243.945 10.7137 243.119 10.768 242.327 10.9803L242.029 11.0602Z"
            fill="#FAFAFA"
        />
        </g>
        <g clip-path="url(#clip11_367_3822)">
        <path
            fill-rule="evenodd"
            clip-rule="evenodd"
            d="M219.983 20.0165C218.766 15.474 212.28 13.2647 205.497 15.0822C198.714 16.8997 194.202 22.0558 195.42 26.5982C196.504 30.6468 201.774 32.8332 207.708 31.9775L208.411 34.6014L212.6 33.4779L211.901 30.8689C212.865 30.495 213.793 30.0369 214.677 29.5L217.234 32.2391L221.968 30.9688L217.826 26.9214C219.728 24.8095 220.604 22.3342 219.983 20.0165ZM200.411 25.919C199.579 22.8135 203.083 19.1759 208.239 17.7945C213.395 16.413 217.661 17.1156 218.706 21.0168C218.975 21.9758 218.949 22.9935 218.633 23.9378C218.316 24.8821 217.723 25.7094 216.93 26.3124C216.831 26.2791 216.73 26.2513 216.627 26.2289C216.199 26.1567 215.767 26.114 215.333 26.1009C215.333 26.1009 218.922 24.8478 217.945 21.2019C216.968 17.556 213.118 18.5143 213.118 18.5143L204.705 20.7685L207.062 29.5631C203.689 29.4936 201.009 28.1507 200.411 25.919ZM212.9 24.3073L210.362 24.9882L209.733 22.6369L212.27 21.9571C212.422 21.9037 212.585 21.8834 212.745 21.8977C212.906 21.9121 213.062 21.9606 213.203 22.0401C213.343 22.1196 213.465 22.2282 213.561 22.3587C213.656 22.4892 213.722 22.6385 213.755 22.7966C213.802 22.952 213.816 23.1151 213.798 23.2763C213.78 23.4375 213.73 23.5934 213.65 23.7346C213.57 23.8757 213.462 23.9992 213.333 24.0977C213.204 24.1961 213.057 24.2674 212.9 24.3073ZM211.148 28.0628L212.274 27.7612C212.38 27.7343 212.491 27.7298 212.6 27.7478C212.708 27.7659 212.812 27.8061 212.904 27.866C213.119 27.9852 213.319 28.1306 213.499 28.2988C212.813 28.5697 212.112 28.803 211.4 28.9977L211.148 28.0628Z"
            fill="#FAFAFA"
        />
        </g>
        <g clip-path="url(#clip12_367_3822)">
        <path
            d="M141.638 36.4255C133.887 38.5023 128.487 43.4885 129.58 47.5677C130.673 51.647 137.843 53.2666 145.594 51.1898C153.345 49.113 158.745 44.125 157.652 40.0458C156.559 35.9665 149.389 34.3487 141.638 36.4255ZM141.835 37.1624C149.354 35.1479 155.983 36.7649 156.915 40.2432C157.847 43.7216 152.91 48.4396 145.397 50.4529C137.878 52.4674 131.249 50.8486 130.317 47.3703C129.384 43.892 134.322 39.1757 141.835 37.1624ZM140.523 39.0824L141.064 46.7791L142.647 46.3548L142.341 41.9424C143.63 41.5971 144.15 41.4033 144.452 41.5923C144.764 41.7877 144.716 42.1071 144.971 45.7312L146.576 45.3011C146.317 41.5532 146.421 40.7148 145.621 40.2964C144.858 39.8962 143.618 40.3347 142.251 40.7012L142.107 38.6579L140.523 39.0824ZM134.405 42.8091L134.947 50.511L136.541 50.0839L136.397 48.038C138.18 47.5603 139.323 47.3933 140.09 46.1601C140.943 44.8153 140.742 42.8825 139.686 42.1717C139.134 41.7985 138.392 41.7407 137.473 41.9868L134.405 42.8091ZM146.855 39.4731L147.395 47.1757L148.991 46.7479L148.847 44.702C150.722 44.1996 151.789 44.0304 152.54 42.8241C153.393 41.4793 153.193 39.5462 152.137 38.8355C151.585 38.4623 150.843 38.4045 149.924 38.6509L146.855 39.4731ZM137.212 43.2932C138.216 43.0545 138.841 43.1125 138.936 44.427C139.064 46.2769 137.806 46.4195 136.317 46.8184L136.091 43.5956C136.503 43.4851 136.877 43.3727 137.212 43.2932ZM149.663 39.957C150.668 39.7178 151.288 39.7774 151.382 41.0922C151.512 42.9687 150.212 43.0953 148.763 43.4836L148.537 40.2608C148.951 40.1496 149.329 40.0362 149.663 39.957Z"
            fill="#FAFAFA"
        />
        </g>
        <g clip-path="url(#clip13_367_3822)">
        <path
            d="M120.506 60.0703C118.172 62.4008 114.438 63.5768 110.174 62.9642C106.826 62.4795 103.704 60.9905 101.219 58.694C102.176 59.1274 103.241 59.4061 104.349 59.6107C108.782 60.3909 112.678 59.2092 114.993 56.7587C110.239 54.7854 105.826 51.7431 102.473 49.194C101.805 48.8087 101.244 48.2571 100.689 47.7788C112.27 52.2603 112.332 54.1745 103.192 45.8421C110.46 50.0877 116.648 51.9399 116.648 51.9399C116.863 51.9951 116.99 52.0487 117.138 52.0844C117.176 51.7607 117.2 51.4284 117.197 51.0906C117.228 47.5094 115.15 43.9666 112.003 41.4376C118.187 43.2282 122.962 48.4175 122.998 53.8364C122.997 53.9745 122.997 54.1125 123.062 54.3083C126.569 56.9164 126.791 60.555 126.277 59.9909C124.112 57.5746 121.689 59.1516 120.506 60.0703Z"
            fill="#FAFAFA"
        />
        </g>
        <g clip-path="url(#clip14_367_3822)">
        <path
            d="M203.172 -23.0706C206.255 -23.3574 207.639 -21.5596 208.16 -19.4299L208.147 -19.4767L211.493 -1.65606L194.522 4.15759L194.533 4.15446C193.079 4.48147 189.848 5.19674 188.499 0.7693L189.318 -2.58428L194.582 4.1037L194.955 -5.54893L194.899 -5.52156L194.916 -5.55122L204.706 -5.09024L199.94 -13.5667L208.393 -16.4083L200.134 -20.1379L203.169 -23.0823L203.172 -23.0706ZM189.832 -14.2808C192.369 -18.659 196.304 -21.8947 198.49 -20.6126C200.659 -19.3507 199.992 -14.6338 197.451 -10.2672C194.864 -5.88814 191.031 -2.55435 188.847 -3.82476C186.661 -5.10686 187.268 -9.90794 189.82 -14.2776L189.832 -14.2808Z"
            fill="#FAFAFA"
        />
        </g>
        <g clip-path="url(#clip15_367_3822)">
        <path
            d="M169.356 -6.57524L171.55 1.61252M172.631 -7.4528L174.825 0.734962M167.558 -3.46074L175.745 -5.65464M168.435 -0.185634L176.623 -2.37954M169.093 2.2707L168.523 2.77623C167.911 3.31947 167.17 3.69714 166.371 3.87335C165.572 4.04956 164.741 4.01845 163.957 3.78298C163.173 3.54751 162.462 3.11551 161.892 2.52802C161.323 1.94054 160.912 1.21709 160.701 0.426437L160.554 -0.123782C160.342 -0.914187 160.336 -1.74558 160.536 -2.53905C160.736 -3.33251 161.135 -4.06172 161.696 -4.65743C162.257 -5.25314 162.961 -5.69559 163.741 -5.94279C164.521 -6.18998 165.351 -6.23371 166.153 -6.06983L166.899 -5.91707M158.669 5.94155L156.036 -3.88377L164.325 -12.2479L175.686 -9.14914L178.319 0.676177L170.03 9.0403L158.669 5.94155Z"
            stroke="#FAFAFA"
            stroke-width="1.69532"
        />
        </g>
        <g clip-path="url(#clip16_367_3822)">
        <path
            d="M118.426 -1.07745L142.989 -7.65917L149.571 16.9041L125.007 23.4858L118.426 -1.07745ZM138.475 15.2848C139.515 16.4393 141.168 17.0935 143.324 16.5157C145.507 15.9307 146.841 14.3593 146.282 12.2714C145.766 10.3473 144.431 9.78373 142.239 9.46419L141.6 9.37214C140.49 9.21603 139.99 9.04281 139.808 8.36049C139.658 7.80099 139.964 7.25096 140.646 7.06814C141.301 6.89263 141.815 7.06219 142.4 7.66576L143.87 5.99953C142.768 4.89059 141.569 4.67089 140.109 5.06214C138.048 5.61427 137.075 7.27899 137.54 9.01207C138.044 10.8953 139.387 11.4861 141.242 11.7496L141.881 11.8417C143.07 12.0204 143.774 12.1388 143.987 12.9303C144.162 13.5853 143.676 14.2275 142.721 14.4834C141.588 14.7869 140.776 14.3756 140.065 13.6885L138.475 15.2848ZM135.089 6.52421L128.266 8.35247L128.814 10.3994L130.861 9.85093L133.512 19.7445L135.9 19.1046L133.249 9.21104L135.637 8.57115L135.089 6.52421Z"
            fill="#FAFAFA"
        />
        </g>
        <g clip-path="url(#clip17_367_3822)">
        <path
            d="M114.216 14.0915L113.007 13.7888L112.944 13.5548L113.543 12.5166C113.629 12.3683 113.566 12.1344 113.418 12.0488L113.27 11.9631L112.123 11.8943C112.092 11.7773 112.06 11.6604 111.943 11.6917L112.394 10.5679C112.48 10.4196 112.417 10.1857 112.152 10.1314C112.152 10.1314 112.035 10.1627 112.004 10.0458L110.771 10.1253C110.74 10.0083 110.623 10.0396 110.592 9.92266L110.778 8.74458L110.684 8.39367C110.535 8.30805 110.418 8.33939 110.301 8.37073L109.132 8.68415C109.132 8.68415 109.1 8.56718 108.983 8.59852L108.904 7.36616C108.841 7.13222 108.693 7.04659 108.576 7.07794L108.459 7.10928L107.352 7.65663C107.321 7.53966 107.204 7.571 107.055 7.48537L106.742 6.31569C106.679 6.08176 106.531 5.99613 106.297 6.05881L106.18 6.09016L105.253 6.8401L105.136 6.87144L104.588 5.76445C104.526 5.53051 104.26 5.47622 104.175 5.62453L104.058 5.65587L103.31 6.60842C103.193 6.63976 103.076 6.6711 103.045 6.55413L102.412 5.59544C102.263 5.50982 102.115 5.42419 101.881 5.48687C101.881 5.48687 101.764 5.51821 101.796 5.63518L101.079 6.70469L100.845 6.76737L100.01 5.98834C99.8301 5.78574 99.5962 5.84842 99.3622 5.91111L99.2766 6.05942L98.9738 7.26884L98.7399 7.33152L97.7017 6.73213C97.5534 6.64651 97.3195 6.70919 97.2339 6.8575L97.1482 7.00581L97.0794 8.15255C96.9624 8.18389 96.8455 8.21523 96.8768 8.3322L95.753 7.88112C95.4877 7.82684 95.2538 7.88952 95.1995 8.1548L95.2309 8.27177L95.3103 9.50413C95.3103 9.50413 95.1934 9.53547 95.1077 9.68378L93.9297 9.49798C93.7813 9.41235 93.5788 9.59201 93.4931 9.74031L93.8379 11.027C93.8692 11.1439 93.7523 11.1753 93.7836 11.2922L92.5512 11.3717C92.286 11.3174 92.2003 11.4657 92.263 11.6997L92.2944 11.8166L92.8417 12.9236C92.7247 12.955 92.7561 13.072 92.6391 13.1033L91.4694 13.4167C91.2355 13.4794 91.1499 13.6277 91.2126 13.8616L91.2439 13.9786L91.9938 14.906L92.0565 15.1399L90.9495 15.6872C90.7156 15.7499 90.6613 16.0152 90.6926 16.1322L90.724 16.2491L91.6765 16.9968C91.7079 17.1138 91.7392 17.2308 91.6222 17.2621L90.8119 17.9807C90.7262 18.129 90.6406 18.2773 90.7033 18.5113C90.7033 18.5113 90.7346 18.6282 90.8516 18.5969L91.8898 19.1963L91.9525 19.4302L91.1734 20.2658C90.9708 20.4454 91.0335 20.6794 91.0648 20.7963L91.2132 20.882L92.4539 21.3017L92.5166 21.5356L91.9172 22.5738C91.8316 22.7221 91.8943 22.9561 92.0426 23.0417L92.1909 23.1273L93.3376 23.1961C93.369 23.3131 93.4003 23.4301 93.5173 23.3987L93.0662 24.5225C92.9806 24.6708 93.0433 24.9048 93.3085 24.9591C93.3085 24.9591 93.4255 24.9277 93.4568 25.0447L94.6892 24.9652C94.7205 25.0822 94.8375 25.0508 94.8689 25.1678L94.6831 26.3459C94.5974 26.4942 94.7771 26.6968 94.9254 26.7824L96.212 26.4377C96.329 26.4063 96.3604 26.5233 96.4773 26.4919L96.5568 27.7243C96.6195 27.9582 96.7678 28.0439 96.8848 28.0125L97.0017 27.9812L98.1087 27.4338C98.1401 27.5508 98.257 27.5195 98.4053 27.6051L98.7188 28.7748C98.7814 29.0087 98.9298 29.0943 99.1637 29.0316L99.2807 29.0003L100.208 28.2504L100.325 28.219L100.872 29.326C100.935 29.5599 101.2 29.6142 101.286 29.4659L101.403 29.4346L102.151 28.482C102.268 28.4507 102.385 28.4194 102.416 28.5363L103.049 29.495C103.197 29.5806 103.345 29.6663 103.579 29.6036C103.579 29.6036 103.696 29.5722 103.665 29.4553L104.381 28.3858L104.615 28.3231L105.451 29.1021C105.599 29.1877 105.864 29.242 105.95 29.0937L106.036 28.9454L106.37 27.853L106.604 27.7903L107.642 28.3897C107.79 28.4753 108.024 28.4126 108.11 28.2643L108.195 28.116L108.264 26.9693C108.381 26.9379 108.498 26.9066 108.467 26.7896L109.591 27.2407C109.739 27.3263 109.973 27.2636 110.027 26.9983C110.027 26.9983 109.996 26.8814 110.113 26.85L110.033 25.6177C110.15 25.5863 110.119 25.4694 110.236 25.438L111.414 25.6238C111.562 25.7094 111.765 25.5298 111.851 25.3815L111.506 24.0948L111.677 23.7982L112.909 23.7187C113.143 23.6561 113.229 23.5077 113.198 23.3908L113.166 23.2738L112.619 22.1668L112.79 21.8702L113.96 21.5568C114.194 21.4941 114.279 21.3458 114.217 21.1119L114.185 20.9949L113.435 20.0675C113.404 19.9506 113.521 19.9192 113.49 19.8023L114.597 19.2549C114.831 19.1922 114.885 18.9269 114.737 18.8413L114.705 18.7244L113.753 17.9767L113.807 17.7114L114.766 17.0784C114.851 16.9301 114.937 16.7818 114.874 16.5478C114.874 16.5478 114.843 16.4309 114.726 16.4622L113.571 15.8942L113.508 15.6602L114.287 14.8247C114.49 14.645 114.427 14.4111 114.216 14.0915C114.247 14.2085 114.247 14.2085 114.216 14.0915ZM109.743 24.0657C109.361 24.0428 109.033 23.7546 108.939 23.4037C108.962 23.0214 109.25 22.6935 109.601 22.5994C109.983 22.6224 110.311 22.9106 110.405 23.2615C110.53 23.7294 110.242 24.0573 109.743 24.0657ZM108.913 21.906C108.531 21.8831 108.243 22.2111 108.337 22.562L108.308 24.3249C107.381 25.0748 106.274 25.6222 104.987 25.9669C103.7 26.3117 102.468 26.3912 101.141 26.1197L100.352 24.5762C100.141 24.2566 99.8442 24.0854 99.5246 24.2964L98.215 25.0234C97.9184 24.8521 97.5905 24.5639 97.2938 24.3927L104.312 22.5122C104.429 22.4808 104.429 22.4808 104.398 22.3639L103.739 19.9075C103.708 19.7906 103.708 19.7906 103.591 19.8219L101.603 20.3547L101.195 18.8341L103.418 18.2386C103.652 18.176 104.47 17.9566 105.135 19.0322C105.346 19.3518 105.776 20.4901 106.104 20.7783C106.315 21.0979 107.119 21.76 107.704 21.6033L111.33 20.6317C111.19 21.0453 111.019 21.3419 110.762 21.7868L108.913 21.906ZM99.8006 26.7298C99.481 26.9408 99.0674 26.8009 98.8251 26.3643C98.6141 26.0448 98.754 25.6312 99.1905 25.3888C99.6271 25.1465 99.9237 25.3178 100.166 25.7543C100.26 26.1052 100.12 26.5188 99.8006 26.7298ZM94.2269 16.6896C94.4379 17.0091 94.4463 17.5083 94.1267 17.7193C93.8071 17.9303 93.3079 17.9387 93.0969 17.6192C92.8859 17.2996 92.8775 16.8004 93.1971 16.5894C93.6336 16.3471 94.0159 16.37 94.2269 16.6896ZM93.9096 18.7804L95.2734 17.7882C95.593 17.5772 95.616 17.1949 95.405 16.8754L94.866 16.2676L96.0357 15.9542L97.5087 21.4517L95.1694 22.0785C94.5051 21.0028 94.106 19.9815 93.9096 18.7804ZM100.334 16.5574L99.8956 14.9199L102.82 14.1364C102.937 14.105 103.904 13.9713 104.092 14.6731C104.249 15.2579 103.61 15.6799 103.025 15.8366L100.334 16.5574ZM111.238 15.1403L111.394 15.7252L110.459 15.9759C110.342 16.0072 110.342 16.0072 110.373 16.1242L110.467 16.4751C110.718 17.4109 110.196 17.8015 109.728 17.9269C109.26 18.0522 108.729 17.9437 108.55 17.7411C107.908 16.2832 107.378 16.1746 106.519 15.7778C107.181 14.9736 107.898 13.9041 107.616 12.8514C107.302 11.6817 106.295 11.1993 105.733 10.9737C104.789 10.7252 103.939 10.8277 103.705 10.8903L94.8156 13.2723C95.7262 11.5239 97.113 10.1494 98.8905 9.29703L100.257 10.1846C100.553 10.3559 100.904 10.2619 101.192 9.93391L102.049 8.45081C104.63 8.26051 107.143 9.21695 109.025 11.0946L108.708 13.1855C108.685 13.5677 108.896 13.8873 109.278 13.9102L110.987 14.2046L111.238 15.1403ZM99.7238 8.19618C99.895 7.89956 100.363 7.7742 100.66 7.94545C100.956 8.11671 101.082 8.58458 100.91 8.8812C100.653 9.32612 100.302 9.42015 99.8575 9.16327C99.5609 8.99202 99.5839 8.60977 99.7238 8.19618ZM109.55 12.5838C109.573 12.2016 110.009 11.9593 110.391 11.9822C110.774 12.0051 111.016 12.4417 110.993 12.8239C110.97 13.2062 110.534 13.4485 110.151 13.4256C109.769 13.4026 109.527 12.9661 109.55 12.5838Z"
            fill="#FAFAFA"
        />
        </g>
        <g clip-path="url(#clip18_367_3822)">
        <path
            d="M306.089 -13.1079C298.339 -11.0312 292.938 -6.04495 294.031 -1.96569C295.124 2.11357 302.295 3.73312 310.045 1.65636C317.796 -0.42041 323.196 -5.40838 322.103 -9.48765C321.01 -13.5669 313.84 -15.1847 306.089 -13.1079ZM306.287 -12.371C313.805 -14.3855 320.434 -12.7685 321.366 -9.29019C322.298 -5.81186 317.362 -1.09384 309.848 0.919459C302.33 2.93393 295.7 1.3152 294.768 -2.16314C293.836 -5.64147 298.773 -10.3577 306.287 -12.371ZM304.974 -10.451L305.515 -2.75436L307.099 -3.17865L306.793 -7.59103C308.081 -7.93633 308.601 -8.13013 308.903 -7.94112C309.216 -7.74568 309.168 -7.42632 309.422 -3.8022L311.028 -4.23236C310.768 -7.98021 310.872 -8.81868 310.072 -9.23701C309.31 -9.63725 308.069 -9.19869 306.702 -8.83223L306.558 -10.8756L304.974 -10.451ZM298.856 -6.72435L299.398 0.9776L300.992 0.550494L300.849 -1.49547C302.631 -1.97311 303.774 -2.14016 304.541 -3.37332C305.394 -4.7181 305.193 -6.65096 304.137 -7.36174C303.585 -7.73491 302.843 -7.7927 301.925 -7.54659L298.856 -6.72435ZM311.306 -10.0603L311.846 -2.35768L313.442 -2.7855L313.299 -4.83146C315.173 -5.33379 316.24 -5.50308 316.991 -6.70931C317.844 -8.05409 317.644 -9.98719 316.588 -10.698C316.036 -11.0711 315.294 -11.1289 314.375 -10.8826L311.306 -10.0603ZM301.664 -6.2402C302.667 -6.47892 303.293 -6.42094 303.387 -5.10643C303.515 -3.25649 302.257 -3.11394 300.768 -2.71504L300.542 -5.9378C300.954 -6.04828 301.328 -6.16076 301.664 -6.2402ZM314.115 -9.57643C315.119 -9.81562 315.739 -9.75599 315.833 -8.44125C315.963 -6.56469 314.663 -6.43817 313.214 -6.04985L312.988 -9.27262C313.403 -9.3838 313.78 -9.49722 314.115 -9.57643Z"
            fill="#FAFAFA"
        />
        </g>
        <g clip-path="url(#clip19_367_3822)">
        <path
            d="M284.957 10.5369C282.623 12.8673 278.889 14.0434 274.625 13.4307C271.277 12.9461 268.155 11.4571 265.67 9.16061C266.627 9.59395 267.692 9.87271 268.8 10.0773C273.233 10.8575 277.129 9.67576 279.444 7.22524C274.69 5.25197 270.277 2.20965 266.924 -0.3394C266.256 -0.724719 265.695 -1.27631 265.14 -1.75459C276.721 2.7269 276.783 4.64104 267.643 -3.6913C274.911 0.554323 281.099 2.40652 281.099 2.40652C281.314 2.46165 281.441 2.51532 281.589 2.55103C281.627 2.22726 281.651 1.89494 281.648 1.55719C281.679 -2.024 279.601 -5.56678 276.454 -8.0958C282.638 -6.30521 287.413 -1.11588 287.449 4.30299C287.448 4.44106 287.448 4.57913 287.513 4.77484C291.02 7.38299 291.242 11.0216 290.728 10.4575C288.563 8.04116 286.14 9.61818 284.957 10.5369Z"
            fill="#FAFAFA"
        />
        </g>
        <path
        d="M96.1543 117.576C96.1543 117.576 88.6897 121.72 93.7078 125.101C95.1903 126.096 94.0767 127.648 94.0767 127.648C94.0767 127.648 96.5506 125.418 94.7157 123.904C93.0151 122.516 91.8506 121.913 96.1543 117.576ZM91.302 120.38C95.0362 115.368 91.9514 113.587 91.9514 113.587C93.9682 117.184 89.8368 119.544 88.88 122.383C88.2193 124.315 90.3301 125.643 93.0596 127.08C91.6963 125.314 88.3028 124.393 91.302 120.38ZM91.3843 133.133C88.0512 135.104 94.4076 135.62 98.4576 132.441C97.9662 132.385 97.477 132.29 97.0017 132.154C95.5081 132.943 93.8894 133.452 92.2157 133.663C90.6333 133.886 91.3843 133.133 91.3843 133.133ZM97.0805 129.501C95.1526 130.494 93.0637 131.166 90.9159 131.478C89.3428 131.737 90.1482 130.719 90.1482 130.719C86.5254 133.106 93.0994 132.937 98.1878 129.843C97.8141 129.806 97.427 129.671 97.0805 129.501ZM102.115 132.289C102.115 132.289 102.929 132.66 101.662 133.451C99.2079 134.961 90.9105 137.447 88.325 137.062C87.3974 136.922 88.83 135.999 89.2931 135.762C89.5433 135.62 89.806 135.524 90.0751 135.452C88.9818 135.068 84.4194 138.347 88.0024 137.963C97.7322 136.986 104.822 132.704 102.115 132.289ZM97.3869 127.463C97.6666 127.15 97.979 126.865 98.3095 126.601C98.3095 126.601 96.6247 127.379 94.9024 128.016C93.0811 128.704 91.2041 129.232 89.295 129.593C86.4491 129.967 90.4278 127.786 90.4278 127.786C89.1412 128.13 87.9594 128.773 86.9667 129.653C84.8823 131.465 93.3865 129.751 97.3869 127.463ZM99.1981 130.011C99.1873 130.064 99.1733 130.106 99.1359 130.153C104.585 127.051 101.39 123.733 98.8424 125.456C98.7092 125.567 98.6056 125.695 98.5582 125.845C98.7063 125.743 98.8575 125.652 99.0235 125.57C100.352 124.913 102.95 126.561 99.1981 130.011ZM100.795 135.363C97.4372 136.914 93.8472 137.927 90.1714 138.385C90.1714 138.385 90.8286 138.685 93.6243 138.124C97.9072 137.265 104.263 135.111 103.882 133.081C103.92 133.084 103.817 133.914 100.795 135.363Z"
        fill="#FAFAFA"
        />
        <g clip-path="url(#clip20_367_3822)">
        <path
            d="M88.8787 88.0835L91.386 97.4409L96.0647 96.1873M86.3939 97.5249L87.877 98.3812M74.6971 100.659C74.7802 100.969 74.9832 101.234 75.2613 101.394C75.5394 101.555 75.87 101.598 76.1802 101.515L78.5195 100.889C78.8298 100.805 79.0942 100.602 79.2548 100.324C79.4154 100.046 79.4589 99.7156 79.3758 99.4054L78.749 97.0661C78.6658 96.7558 78.4629 96.4913 78.1848 96.3308C77.9066 96.1702 77.5761 96.1267 77.2659 96.2098L74.9265 96.8366C74.6163 96.9197 74.2858 96.8762 74.0076 96.7156C73.7295 96.5551 73.5265 96.2906 73.4434 95.9804L72.8166 93.641C72.7335 93.3308 72.777 93.0002 72.9376 92.7221C73.0981 92.444 73.3626 92.241 73.6729 92.1579L76.0122 91.5311C76.3224 91.4479 76.653 91.4915 76.9311 91.652C77.2092 91.8126 77.4122 92.0771 77.4953 92.3873M83.0303 89.6506C83.6507 89.4843 84.3118 89.5714 84.8681 89.8925C85.4243 90.2137 85.8302 90.7427 85.9965 91.3631L87.2502 96.0418C87.4164 96.6623 87.3294 97.3233 87.0082 97.8796C86.687 98.4359 86.1581 98.8418 85.5376 99.008C84.9172 99.1743 84.2561 99.0872 83.6998 98.7661C83.1436 98.4449 82.7377 97.9159 82.5714 97.2955L81.3178 92.6168C81.1515 91.9963 81.2386 91.3353 81.5597 90.779C81.8809 90.2227 82.4099 89.8168 83.0303 89.6506Z"
            stroke="#FAFAFA"
            stroke-width="2.42189"
            stroke-linecap="round"
            stroke-linejoin="round"
        />
        </g>
        <g clip-path="url(#clip21_367_3822)">
        <path
            d="M34.3627 95.1691L57.7563 88.9008L64.0246 112.294L40.631 118.563L34.3627 95.1691ZM60.6133 107.228C60.1567 106.207 59.2214 105.496 56.9358 105.212C56.1283 105.068 55.2682 105.048 54.8864 104.571C54.7115 104.273 54.6509 104.101 54.6575 103.895C54.6349 103.227 55.33 102.838 55.9618 102.856C56.3733 102.871 56.8026 103.07 57.1482 103.479C57.9795 102.55 57.9795 102.55 58.565 101.924C58.1922 101.585 58.0143 101.443 57.7901 101.317C56.9919 100.794 56.0801 100.662 54.7577 101.049L54.0937 101.32C53.4779 101.657 52.9442 102.176 52.6894 102.746C51.9154 104.302 52.8237 106.409 54.4118 106.955C56.0087 107.593 58.0128 107.29 58.5123 108.16C59.0518 109.238 58.0678 109.893 56.9642 110.048C56.1267 110.084 55.583 109.806 54.9047 109.204L53.3954 110.707C53.7254 111.12 54.014 111.261 54.4746 111.576C56.6292 112.833 60.8458 111.609 60.9097 108.803C60.9145 108.708 60.9595 108.053 60.5509 107.175L60.6133 107.228ZM49.965 102.513L47.7738 103.1C48.28 104.989 48.7742 106.869 49.2812 108.761C49.6029 109.961 49.9597 111.047 49.8547 111.439C49.713 112.197 48.8615 112.333 48.4536 112.316C48.0165 112.228 47.75 112.018 47.4213 111.699C47.3325 111.613 47.2629 111.537 47.2463 111.541L45.7613 113.115C46.2231 113.649 46.7984 114.061 47.448 114.248C48.4146 114.521 49.5777 114.382 50.6798 113.805C51.3839 113.38 51.9204 112.75 52.0765 111.956C52.3307 110.917 51.9277 109.834 51.5895 108.591C51.0648 106.586 50.5164 104.586 49.9757 102.568L49.965 102.513Z"
            fill="#FAFAFA"
        />
        </g>
        <g clip-path="url(#clip22_367_3822)">
        <path
            d="M10.0938 101.672L12.6066 100.999L12.8882 102.049L11.4261 102.441L11.7076 103.492L13.1697 103.1L13.4513 104.151L10.9384 104.824L10.0938 101.672ZM13.1086 100.864L15.6224 100.191L15.8674 101.105L14.4053 101.497L14.4542 101.679L15.9163 101.287L16.4794 103.389L13.9655 104.062L13.7085 103.103L15.1706 102.711L15.1215 102.528L13.6594 102.92L13.1086 100.864ZM16.1254 100.056L18.6373 99.3827L18.8823 100.297L17.4202 100.689L17.469 100.871L18.9311 100.479L19.4942 102.581L16.9823 103.254L16.7253 102.295L18.1874 101.903L18.1383 101.72L16.6762 102.111L16.1254 100.056Z"
            fill="#FAFAFA"
        />
        <path
            fill-rule="evenodd"
            clip-rule="evenodd"
            d="M20.7376 123.893L13.4655 123.827L6.93744 107.446L24.4826 102.744L27.0206 120.193L20.7376 123.893ZM12.934 114.046L13.676 116.07L20.8666 114.144L21.3467 116.898L19.2003 118.144L19.1984 118.145L16.7211 118.14L16.1297 116.526L14.0467 117.084L15.2101 120.263L19.7759 120.304L23.7166 117.984L22.6774 112.032L22.579 111.462L21.8279 107.161L11.4353 109.946L12.1804 111.971L20.1108 109.846L20.4911 112.021L12.934 114.046Z"
            fill="#FAFAFA"
        />
        </g>
        <g clip-path="url(#clip23_367_3822)">
        <path
            fill-rule="evenodd"
            clip-rule="evenodd"
            d="M266.216 102.285L278.524 105.642L281.409 116.408L272.429 125.471L260.121 122.112L257.236 111.347L266.216 102.283L266.216 102.285ZM267.787 108.146C266.267 108.553 264.971 109.547 264.184 110.91C263.397 112.273 263.184 113.893 263.591 115.413C263.998 116.933 264.993 118.229 266.356 119.016C267.719 119.803 269.338 120.016 270.858 119.609L271.156 119.529C272.755 119.1 274.119 118.054 274.948 116.621L275.029 116.48L273.559 115.631L273.477 115.772C272.875 116.816 271.882 117.579 270.718 117.891L270.42 117.971C269.334 118.262 268.177 118.11 267.203 117.548C266.23 116.986 265.52 116.06 265.229 114.974C264.938 113.888 265.09 112.731 265.652 111.758C266.214 110.784 267.14 110.074 268.226 109.783L268.524 109.703C269.688 109.391 270.929 109.556 271.973 110.159L272.115 110.24L272.963 108.77L272.822 108.689C272.112 108.279 271.328 108.013 270.515 107.906C269.703 107.799 268.877 107.853 268.085 108.066L267.787 108.146Z"
            fill="#FAFAFA"
        />
        </g>
        <g clip-path="url(#clip24_367_3822)">
        <path
            fill-rule="evenodd"
            clip-rule="evenodd"
            d="M245.74 117.102C244.523 112.56 238.038 110.35 231.255 112.168C224.472 113.985 219.96 119.141 221.177 123.684C222.262 127.732 227.531 129.919 233.465 129.063L234.168 131.687L238.358 130.563L237.658 127.954C238.622 127.58 239.551 127.122 240.434 126.585L242.991 129.325L247.725 128.054L243.583 124.007C245.485 121.895 246.361 119.42 245.74 117.102ZM226.168 123.004C225.336 119.899 228.841 116.261 233.996 114.88C239.152 113.498 243.418 114.201 244.463 118.102C244.732 119.061 244.707 120.079 244.39 121.023C244.073 121.968 243.48 122.795 242.687 123.398C242.588 123.365 242.487 123.337 242.385 123.314C241.957 123.242 241.524 123.199 241.091 123.186C241.091 123.186 244.679 121.933 243.702 118.287C242.726 114.641 238.875 115.6 238.875 115.6L230.462 117.854L232.819 126.649C229.446 126.579 226.766 125.236 226.168 123.004ZM238.657 121.393L236.119 122.074L235.49 119.722L238.027 119.043C238.18 118.989 238.342 118.969 238.503 118.983C238.664 118.998 238.82 119.046 238.96 119.126C239.101 119.205 239.223 119.314 239.318 119.444C239.413 119.575 239.479 119.724 239.512 119.882C239.559 120.037 239.574 120.201 239.556 120.362C239.538 120.523 239.487 120.679 239.407 120.82C239.327 120.961 239.22 121.085 239.091 121.183C238.962 121.282 238.814 121.353 238.657 121.393ZM236.906 125.148L238.031 124.847C238.138 124.82 238.249 124.815 238.357 124.833C238.465 124.851 238.569 124.892 238.661 124.952C238.877 125.071 239.077 125.216 239.256 125.384C238.57 125.655 237.869 125.888 237.157 126.083L236.906 125.148Z"
            fill="#FAFAFA"
        />
        </g>
        <g clip-path="url(#clip25_367_3822)">
        <path
            d="M228.93 74.0149C232.012 73.728 233.396 75.5259 233.917 77.6556L233.904 77.6088L237.25 95.4294L220.279 101.243L220.291 101.24C218.836 101.567 215.605 102.282 214.256 97.8548L215.075 94.5012L220.34 101.189L220.712 91.5365L220.657 91.5639L220.674 91.5343L230.463 91.9952L225.697 83.5188L234.15 80.6772L225.892 76.9476L228.927 74.0032L228.93 74.0149ZM215.589 82.8047C218.127 78.4264 222.061 75.1908 224.248 76.4729C226.416 77.7348 225.749 82.4517 223.209 86.8182C220.621 91.1973 216.788 94.5311 214.605 93.2607C212.418 91.9786 213.025 87.1775 215.577 82.8078L215.589 82.8047Z"
            fill="#FAFAFA"
        />
        </g>
        <path
        d="M262.587 70.0237C262.587 70.0237 255.122 74.1676 260.14 77.5493C261.623 78.5437 260.509 80.0957 260.509 80.0957C260.509 80.0957 262.983 77.8657 261.148 76.3516C259.448 74.9643 258.283 74.3612 262.587 70.0237ZM257.734 72.8283C261.469 67.816 258.384 66.035 258.384 66.035C260.401 69.6316 256.269 71.9923 255.312 74.8312C254.652 76.7634 256.762 78.0908 259.492 79.5283C258.129 77.7624 254.735 76.8413 257.734 72.8283ZM257.817 85.581C254.484 87.5523 260.84 88.0681 264.89 84.8893C264.399 84.8329 263.909 84.7383 263.434 84.6024C261.941 85.3912 260.322 85.9002 258.648 86.1105C257.066 86.3339 257.817 85.581 257.817 85.581ZM263.513 81.9486C261.585 82.9416 259.496 83.6141 257.348 83.9264C255.775 84.1849 256.581 83.1667 256.581 83.1667C252.958 85.5541 259.532 85.3848 264.62 82.2913C264.246 82.2535 263.859 82.119 263.513 81.9486ZM268.547 84.7367C268.547 84.7367 269.361 85.1078 268.094 85.8987C265.64 87.4087 257.343 89.8952 254.757 89.5098C253.83 89.3698 255.262 88.4468 255.725 88.2099C255.976 88.0677 256.238 87.9722 256.507 87.9001C255.414 87.5161 250.852 90.7946 254.435 90.4112C264.165 89.4338 271.254 85.1523 268.547 84.7367ZM263.819 79.9108C264.099 79.5977 264.411 79.3133 264.742 79.0493C264.742 79.0493 263.057 79.8267 261.335 80.4637C259.513 81.1523 257.637 81.6803 255.727 82.0414C252.882 82.4153 256.86 80.2335 256.86 80.2335C255.574 80.5782 254.392 81.2208 253.399 82.1011C251.315 83.9133 259.819 82.1987 263.819 79.9108ZM265.63 82.4593C265.62 82.5124 265.606 82.5538 265.568 82.6014C271.018 79.4989 267.822 76.1805 265.275 77.9036C265.142 78.0145 265.038 78.1425 264.991 78.2931C265.139 78.1908 265.29 78.1001 265.456 78.018C266.784 77.3612 269.382 79.0094 265.63 82.4593ZM267.227 87.8108C263.87 89.3624 260.28 90.3745 256.604 90.8329C256.604 90.8329 257.261 91.1332 260.057 90.5722C264.34 89.7129 270.695 87.5586 270.314 85.5294C270.353 85.5317 270.249 86.3618 267.227 87.8108Z"
        fill="#FAFAFA"
        />
        <g clip-path="url(#clip26_367_3822)">
        <path
            d="M195.113 90.5103L197.307 98.698M198.388 89.6327L200.582 97.8205M193.315 93.6248L201.502 91.4309M194.192 96.8999L202.38 94.706M194.85 99.3562L194.28 99.8618C193.668 100.405 192.927 100.783 192.128 100.959C191.329 101.135 190.498 101.104 189.714 100.869C188.93 100.633 188.219 100.201 187.65 99.6135C187.08 99.0261 186.67 98.3026 186.458 97.512L186.311 96.9617C186.099 96.1713 186.093 95.3399 186.293 94.5465C186.493 93.753 186.892 93.0238 187.453 92.4281C188.014 91.8324 188.718 91.3899 189.498 91.1427C190.278 90.8955 191.108 90.8518 191.91 91.0157L192.657 91.1685M184.426 103.027L181.793 93.2018L190.083 84.8376L201.444 87.9364L204.076 97.7617L195.787 106.126L184.426 103.027Z"
            stroke="#FAFAFA"
            stroke-width="1.69532"
        />
        </g>
        <g clip-path="url(#clip27_367_3822)">
        <path
            d="M144.183 96.0081L168.746 89.4264L175.328 113.99L150.765 120.571L144.183 96.0081ZM164.232 112.37C165.272 113.525 166.925 114.179 169.081 113.601C171.265 113.016 172.599 111.445 172.039 109.357C171.524 107.433 170.188 106.869 167.996 106.55L167.357 106.458C166.248 106.302 165.748 106.128 165.565 105.446C165.415 104.887 165.721 104.336 166.403 104.154C167.058 103.978 167.572 104.148 168.158 104.751L169.627 103.085C168.526 101.976 167.326 101.756 165.866 102.148C163.805 102.7 162.833 104.365 163.297 106.098C163.802 107.981 165.145 108.572 167 108.835L167.639 108.927C168.827 109.106 169.532 109.224 169.744 110.016C169.919 110.671 169.433 111.313 168.478 111.569C167.345 111.872 166.533 111.461 165.822 110.774L164.232 112.37ZM160.846 103.61L154.023 105.438L154.571 107.485L156.618 106.936L159.269 116.83L161.657 116.19L159.006 106.297L161.394 105.657L160.846 103.61Z"
            fill="#FAFAFA"
        />
        </g>
        <g clip-path="url(#clip28_367_3822)">
        <path
            d="M139.974 111.177L138.764 110.874L138.701 110.64L139.301 109.602C139.386 109.454 139.324 109.22 139.175 109.134L139.027 109.049L137.88 108.98C137.849 108.863 137.818 108.746 137.701 108.777L138.152 107.653C138.237 107.505 138.175 107.271 137.909 107.217C137.909 107.217 137.793 107.248 137.761 107.131L136.529 107.211C136.497 107.094 136.38 107.125 136.349 107.008L136.535 105.83L136.441 105.479C136.293 105.394 136.176 105.425 136.059 105.456L134.889 105.77C134.889 105.77 134.858 105.653 134.741 105.684L134.661 104.452C134.599 104.218 134.45 104.132 134.333 104.163L134.216 104.195L133.109 104.742C133.078 104.625 132.961 104.657 132.813 104.571L132.499 103.401C132.437 103.167 132.288 103.082 132.054 103.144L131.937 103.176L131.01 103.926L130.893 103.957L130.346 102.85C130.283 102.616 130.018 102.562 129.932 102.71L129.815 102.741L129.067 103.694C128.95 103.725 128.833 103.757 128.802 103.64L128.169 102.681C128.021 102.595 127.873 102.51 127.639 102.572C127.639 102.572 127.522 102.604 127.553 102.721L126.837 103.79L126.603 103.853L125.767 103.074C125.587 102.871 125.354 102.934 125.12 102.997L125.034 103.145L124.731 104.354L124.497 104.417L123.459 103.818C123.311 103.732 123.077 103.795 122.991 103.943L122.906 104.091L122.837 105.238C122.72 105.269 122.603 105.301 122.634 105.418L121.51 104.967C121.245 104.912 121.011 104.975 120.957 105.24L120.988 105.357L121.068 106.59C121.068 106.59 120.951 106.621 120.865 106.769L119.687 106.584C119.539 106.498 119.336 106.678 119.251 106.826L119.595 108.112C119.627 108.229 119.51 108.261 119.541 108.378L118.309 108.457C118.043 108.403 117.958 108.551 118.02 108.785L118.052 108.902L118.599 110.009C118.482 110.041 118.513 110.157 118.396 110.189L117.227 110.502C116.993 110.565 116.907 110.713 116.97 110.947L117.001 111.064L117.751 111.991L117.814 112.225L116.707 112.773C116.473 112.835 116.419 113.101 116.45 113.218L116.481 113.335L117.434 114.082C117.465 114.199 117.497 114.316 117.38 114.348L116.569 115.066C116.484 115.215 116.398 115.363 116.461 115.597C116.461 115.597 116.492 115.714 116.609 115.682L117.647 116.282L117.71 116.516L116.931 117.351C116.728 117.531 116.791 117.765 116.822 117.882L116.971 117.967L118.211 118.387L118.274 118.621L117.675 119.659C117.589 119.808 117.652 120.042 117.8 120.127L117.948 120.213L119.095 120.282C119.126 120.399 119.158 120.516 119.275 120.484L118.824 121.608C118.738 121.756 118.801 121.99 119.066 122.045C119.066 122.045 119.183 122.013 119.214 122.13L120.447 122.051C120.478 122.168 120.595 122.136 120.626 122.253L120.44 123.431C120.355 123.58 120.534 123.782 120.683 123.868L121.969 123.523C122.086 123.492 122.118 123.609 122.235 123.577L122.314 124.81C122.377 125.044 122.525 125.129 122.642 125.098L122.759 125.067L123.866 124.519C123.897 124.636 124.014 124.605 124.163 124.691L124.476 125.86C124.539 126.094 124.687 126.18 124.921 126.117L125.038 126.086L125.965 125.336L126.082 125.305L126.63 126.412C126.692 126.645 126.958 126.7 127.043 126.551L127.16 126.52L127.908 125.568C128.025 125.536 128.142 125.505 128.173 125.622L128.806 126.581C128.955 126.666 129.103 126.752 129.337 126.689C129.337 126.689 129.454 126.658 129.422 126.541L130.139 125.471L130.373 125.409L131.208 126.188C131.357 126.273 131.622 126.328 131.707 126.179L131.793 126.031L132.127 124.938L132.361 124.876L133.399 125.475C133.548 125.561 133.782 125.498 133.867 125.35L133.953 125.202L134.022 124.055C134.139 124.023 134.256 123.992 134.224 123.875L135.348 124.326C135.496 124.412 135.73 124.349 135.785 124.084C135.785 124.084 135.753 123.967 135.87 123.936L135.791 122.703C135.908 122.672 135.876 122.555 135.993 122.524L137.171 122.709C137.32 122.795 137.522 122.615 137.608 122.467L137.263 121.18L137.434 120.884L138.667 120.804C138.901 120.742 138.986 120.593 138.955 120.476L138.924 120.359L138.376 119.252L138.548 118.956L139.717 118.642C139.951 118.58 140.037 118.431 139.974 118.197L139.943 118.08L139.193 117.153C139.161 117.036 139.278 117.005 139.247 116.888L140.354 116.34C140.588 116.278 140.642 116.012 140.494 115.927L140.463 115.81L139.51 115.062L139.564 114.797L140.523 114.164C140.609 114.016 140.694 113.867 140.632 113.633C140.632 113.633 140.6 113.516 140.483 113.548L139.328 112.98L139.266 112.746L140.045 111.91C140.247 111.731 140.184 111.497 139.974 111.177C140.005 111.294 140.005 111.294 139.974 111.177ZM135.5 121.151C135.118 121.128 134.79 120.84 134.696 120.489C134.719 120.107 135.007 119.779 135.358 119.685C135.74 119.708 136.068 119.996 136.162 120.347C136.288 120.815 135.999 121.143 135.5 121.151ZM134.671 118.992C134.289 118.969 134 119.297 134.094 119.647L134.065 121.41C133.138 122.16 132.031 122.708 130.744 123.052C129.458 123.397 128.225 123.477 126.899 123.205L126.109 121.662C125.898 121.342 125.602 121.171 125.282 121.382L123.972 122.109C123.676 121.938 123.348 121.649 123.051 121.478L130.069 119.598C130.186 119.566 130.186 119.566 130.155 119.449L129.497 116.993C129.465 116.876 129.465 116.876 129.348 116.907L127.36 117.44L126.953 115.92L129.175 115.324C129.409 115.261 130.228 115.042 130.892 116.118C131.103 116.437 131.533 117.576 131.861 117.864C132.072 118.183 132.877 118.846 133.461 118.689L137.087 117.717C136.947 118.131 136.776 118.427 136.519 118.872L134.671 118.992ZM125.558 123.815C125.238 124.026 124.825 123.886 124.582 123.45C124.371 123.13 124.511 122.717 124.948 122.474C125.384 122.232 125.681 122.403 125.923 122.84C126.017 123.191 125.878 123.604 125.558 123.815ZM119.984 113.775C120.195 114.095 120.204 114.594 119.884 114.805C119.565 115.016 119.065 115.024 118.854 114.705C118.643 114.385 118.635 113.886 118.954 113.675C119.391 113.433 119.773 113.456 119.984 113.775ZM119.667 115.866L121.031 114.874C121.35 114.663 121.373 114.28 121.162 113.961L120.623 113.353L121.793 113.04L123.266 118.537L120.927 119.164C120.262 118.088 119.863 117.067 119.667 115.866ZM126.092 113.643L125.653 112.005L128.577 111.222C128.694 111.191 129.661 111.057 129.849 111.759C130.006 112.343 129.367 112.765 128.782 112.922L126.092 113.643ZM136.995 112.226L137.152 112.811L136.216 113.061C136.099 113.093 136.099 113.093 136.13 113.21L136.224 113.561C136.475 114.496 135.953 114.887 135.485 115.012C135.017 115.138 134.487 115.029 134.307 114.827C133.666 113.369 133.135 113.26 132.277 112.863C132.939 112.059 133.655 110.99 133.373 109.937C133.059 108.767 132.053 108.285 131.491 108.059C130.547 107.811 129.697 107.913 129.463 107.976L120.573 110.358C121.484 108.609 122.87 107.235 124.648 106.383L126.014 107.27C126.311 107.441 126.661 107.347 126.95 107.019L127.806 105.536C130.388 105.346 132.901 106.302 134.783 108.18L134.465 110.271C134.442 110.653 134.653 110.973 135.036 110.996L136.744 111.29L136.995 112.226ZM125.481 105.282C125.652 104.985 126.12 104.86 126.417 105.031C126.714 105.202 126.839 105.67 126.668 105.967C126.411 106.412 126.06 106.506 125.615 106.249C125.318 106.078 125.341 105.695 125.481 105.282ZM135.307 109.669C135.33 109.287 135.767 109.045 136.149 109.068C136.531 109.091 136.773 109.527 136.75 109.909C136.727 110.292 136.291 110.534 135.909 110.511C135.526 110.488 135.284 110.052 135.307 109.669Z"
            fill="#FAFAFA"
        />
        </g>
        <g clip-path="url(#clip29_367_3822)">
        <path
            d="M255.311 40.5314L257.818 49.8889L262.497 48.6352M252.826 49.9729L254.309 50.8291M241.129 53.107C241.213 53.4172 241.416 53.6817 241.694 53.8423C241.972 54.0029 242.302 54.0464 242.613 53.9633L244.952 53.3364C245.262 53.2533 245.527 53.0504 245.687 52.7722C245.848 52.4941 245.891 52.1636 245.808 51.8534L245.181 49.514C245.098 49.2038 244.895 48.9393 244.617 48.7787C244.339 48.6181 244.008 48.5746 243.698 48.6577L241.359 49.2846C241.049 49.3677 240.718 49.3242 240.44 49.1636C240.162 49.003 239.959 48.7385 239.876 48.4283L239.249 46.0889C239.166 45.7787 239.209 45.4482 239.37 45.17C239.531 44.8919 239.795 44.689 240.105 44.6058L242.445 43.979C242.755 43.8959 243.085 43.9394 243.363 44.1C243.642 44.2606 243.845 44.5251 243.928 44.8353M249.463 42.0985C250.083 41.9323 250.744 42.0193 251.3 42.3405C251.857 42.6616 252.263 43.1906 252.429 43.811L253.683 48.4898C253.849 49.1102 253.762 49.7713 253.441 50.3275C253.119 50.8838 252.59 51.2897 251.97 51.456C251.35 51.6222 250.688 51.5352 250.132 51.214C249.576 50.8929 249.17 50.3639 249.004 49.7434L247.75 45.0647C247.584 44.4443 247.671 43.7832 247.992 43.2269C248.313 42.6707 248.842 42.2648 249.463 42.0985Z"
            stroke="#FAFAFA"
            stroke-width="2.42189"
            stroke-linecap="round"
            stroke-linejoin="round"
        />
        </g>
        <g clip-path="url(#clip30_367_3822)">
        <path
            d="M116.312 70.2543C115.386 70.503 114.483 70.8315 113.614 71.2362L113.706 71.197C111.456 72.247 111.262 73.235 111.694 74.8453L112.264 76.9722L117.845 75.4766L118.035 76.1853L110.36 78.2418L110.295 78.2581C109.488 78.4744 108.782 78.9639 108.296 79.643C107.809 80.3221 107.574 81.1489 107.629 81.9822L107.631 82.0057C107.609 82.9225 107.728 83.9376 107.998 84.9474C108.269 85.9572 108.674 86.8955 109.189 87.7468L109.151 87.6777C109.99 89.2235 111.253 90.1462 112.872 89.7124L114.791 89.1981L114.108 86.6482C113.884 85.7268 114.024 84.7541 114.5 83.9339C114.976 83.1137 115.751 82.5094 116.663 82.2476L122.24 80.7531C122.981 80.5486 123.611 80.0597 123.992 79.3929C124.374 78.726 124.476 77.9354 124.277 77.1933L124.271 77.1679L122.847 71.8547C122.603 71.135 122.112 70.5244 121.463 70.1302C120.813 69.7359 120.045 69.5831 119.294 69.6987L119.28 69.7013C118.311 69.7958 117.352 69.971 116.413 70.2252L116.308 70.2531L116.313 70.2518L116.312 70.2543ZM113.752 72.7736L113.769 72.7691C113.979 72.7128 114.201 72.72 114.407 72.7899C114.614 72.8598 114.794 72.9892 114.927 73.1618C115.059 73.3343 115.138 73.5423 115.152 73.7594C115.167 73.9766 115.117 74.1931 115.008 74.3817C114.9 74.5703 114.738 74.7226 114.543 74.8191C114.348 74.9157 114.128 74.9524 113.912 74.9244C113.697 74.8964 113.494 74.8051 113.33 74.6621C113.166 74.519 113.048 74.3305 112.991 74.1204L112.989 74.1126C112.834 73.5317 113.175 72.9346 113.752 72.7736Z"
            fill="#FAFAFA"
        />
        <path
            d="M124.304 74.5053L124.968 76.9831C125.206 77.9113 125.075 78.8956 124.602 79.7293C124.13 80.563 123.353 81.1812 122.434 81.4543L116.855 82.9493C116.116 83.1636 115.49 83.6583 115.111 84.3277C114.732 84.9971 114.629 85.7883 114.825 86.5323L116.249 91.8475C116.654 93.3593 118.208 93.8969 119.799 93.9365C120.705 93.9832 121.706 93.8821 122.701 93.6155C123.696 93.3488 124.613 92.9358 125.435 92.4065L125.374 92.4428C126.668 91.6602 127.835 90.4691 127.403 88.8588L126.833 86.73L121.258 88.2237L121.068 87.5151L129.434 85.2736C131.056 84.839 131.357 83.5454 131.466 81.6972C131.512 80.776 131.408 79.7583 131.136 78.7455C130.865 77.7328 130.446 76.7991 129.91 75.9619L129.947 76.0252C129.113 74.5184 128.019 73.5099 126.398 73.9443L124.304 74.5053ZM124.776 88.8034L124.792 88.799C125.002 88.7426 125.225 88.7499 125.431 88.8199C125.637 88.8899 125.818 89.0194 125.95 89.1922C126.083 89.3649 126.161 89.5731 126.176 89.7904C126.19 90.0077 126.139 90.2243 126.031 90.4129C125.922 90.6014 125.759 90.7535 125.564 90.8498C125.369 90.9461 125.149 90.9823 124.933 90.9539C124.717 90.9255 124.515 90.8337 124.351 90.6901C124.187 90.5466 124.07 90.3577 124.014 90.1473L124.011 90.1366C123.855 89.5566 124.197 88.9615 124.776 88.8034Z"
            fill="#FAFAFA"
        />
        </g>
        <g clip-path="url(#clip31_367_3822)">
        <path
            d="M200.795 47.617L224.189 41.3487L230.457 64.7423L207.063 71.0106L200.795 47.617ZM227.046 59.6764C226.589 58.6548 225.654 57.9443 223.368 57.6603C222.561 57.5163 221.7 57.496 221.319 57.0185C221.144 56.7206 221.083 56.5488 221.09 56.3433C221.067 55.6744 221.762 55.2855 222.394 55.3043C222.806 55.3194 223.235 55.5178 223.58 55.9266C224.412 54.9977 224.412 54.9977 224.997 54.3717C224.624 54.0328 224.447 53.8914 224.222 53.7645C223.424 53.2418 222.512 53.11 221.19 53.4968L220.526 53.7676C219.91 54.105 219.376 54.6241 219.122 55.1939C218.348 56.75 219.256 58.8572 220.844 59.4033C222.441 60.041 224.445 59.738 224.945 60.6082C225.484 61.6859 224.5 62.3413 223.396 62.496C222.559 62.5324 222.015 62.2539 221.337 61.6521L219.828 63.1545C220.158 63.5676 220.446 63.7086 220.907 64.024C223.061 65.2811 227.278 64.0573 227.342 61.2508C227.347 61.1555 227.392 60.5009 226.983 59.6231L227.046 59.6764ZM216.397 54.9606L214.206 55.5478C214.712 57.4368 215.206 59.3165 215.713 61.2085C216.035 62.4093 216.392 63.4953 216.287 63.887C216.145 64.6448 215.294 64.781 214.886 64.7639C214.449 64.6763 214.182 64.4656 213.854 64.1473C213.765 64.0614 213.695 63.9849 213.679 63.9894L212.194 65.5626C212.655 66.097 213.231 66.5091 213.88 66.6955C214.847 66.9693 216.01 66.83 217.112 66.2526C217.816 65.8279 218.353 65.1983 218.509 64.4043C218.763 63.3646 218.36 62.2816 218.022 61.0392C217.497 59.0339 216.949 57.034 216.408 55.0163L216.397 54.9606Z"
            fill="#FAFAFA"
        />
        </g>
        <g clip-path="url(#clip32_367_3822)">
        <path
            d="M176.526 54.1199L179.039 53.4465L179.32 54.4973L177.858 54.8891L178.14 55.9398L179.602 55.5481L179.883 56.5988L177.371 57.2721L176.526 54.1199ZM179.541 53.312L182.055 52.6384L182.3 53.5528L180.837 53.9445L180.886 54.1268L182.348 53.735L182.911 55.8366L180.398 56.5101L180.141 55.551L181.603 55.1592L181.554 54.976L180.092 55.3677L179.541 53.312ZM182.558 52.5037L185.069 51.8306L185.314 52.7449L183.852 53.1367L183.901 53.319L185.363 52.9272L185.926 55.0287L183.414 55.7018L183.157 54.7426L184.62 54.3509L184.57 54.1676L183.108 54.5594L182.558 52.5037Z"
            fill="#FAFAFA"
        />
        <path
            fill-rule="evenodd"
            clip-rule="evenodd"
            d="M187.17 76.341L179.898 76.2754L173.37 59.8935L190.915 55.1923L193.453 72.6412L187.17 76.341ZM179.366 66.494L180.108 68.5184L187.299 66.5916L187.779 69.3464L185.633 70.5922L185.631 70.5928L183.153 70.5879L182.562 68.9735L180.479 69.5316L181.642 72.7114L186.208 72.7521L190.149 70.4321L189.11 64.4798L189.011 63.9096L188.26 59.6092L177.867 62.3939L178.613 64.4185L186.543 62.2935L186.923 64.4691L179.366 66.494Z"
            fill="#FAFAFA"
        />
        </g>
        <g clip-path="url(#clip33_367_3822)">
        <path
            d="M137.846 64.4842L145.364 85.0354L154.416 85.1174L162.235 80.5119L158.474 58.9567L137.847 64.4838L137.846 64.4842ZM156.233 66.9382L146.352 69.5858L147.296 72.1677L156.708 69.6459L158.123 77.7634L153.219 80.6507L147.536 80.6002L146.088 76.6411L148.68 75.9465L149.417 77.9587L152.5 77.963L152.506 77.9599L155.175 76.4126L154.576 72.9844L145.627 75.3824L142.838 67.7598L155.774 64.2939L156.233 66.9382Z"
            fill="#FAFAFA"
        />
        </g>
        <g clip-path="url(#clip34_367_3822)">
        <path
            d="M310.714 107.622C308.38 109.953 304.646 111.129 300.382 110.516C297.034 110.032 293.912 108.543 291.428 106.246C292.384 106.679 293.449 106.958 294.557 107.163C298.991 107.943 302.886 106.761 305.201 104.311C300.447 102.337 296.034 99.2952 292.681 96.7461C292.013 96.3608 291.452 95.8092 290.898 95.3309C302.479 99.8124 302.54 101.727 293.4 93.3942C300.668 97.6398 306.856 99.492 306.856 99.492C307.071 99.5472 307.198 99.6008 307.346 99.6365C307.385 99.3128 307.408 98.9804 307.406 98.6427C307.436 95.0615 305.359 91.5187 302.211 88.9897C308.395 90.7803 313.171 95.9696 313.206 101.389C313.205 101.527 313.205 101.665 313.27 101.86C316.777 104.468 317 108.107 316.485 107.543C314.321 105.127 311.897 106.704 310.714 107.622Z"
            fill="#FAFAFA"
        />
        </g>
        <g clip-path="url(#clip35_367_3822)">
        <path
            d="M304.424 61.6436L303.215 61.3409L303.152 61.1069L303.752 60.0688C303.837 59.9204 303.775 59.6865 303.626 59.6009L303.478 59.5153L302.331 59.4464C302.3 59.3295 302.269 59.2125 302.152 59.2438L302.603 58.12C302.688 57.9717 302.626 57.7378 302.36 57.6835C302.36 57.6835 302.243 57.7148 302.212 57.5979L300.98 57.6774C300.948 57.5604 300.831 57.5917 300.8 57.4748L300.986 56.2967L300.892 55.9458C300.744 55.8602 300.627 55.8915 300.51 55.9228L299.34 56.2363C299.34 56.2363 299.309 56.1193 299.192 56.1506L299.112 54.9183C299.049 54.6843 298.901 54.5987 298.784 54.63L298.667 54.6614L297.56 55.2087C297.529 55.0918 297.412 55.1231 297.264 55.0375L296.95 53.8678C296.887 53.6339 296.739 53.5482 296.505 53.6109L296.388 53.6423L295.461 54.3922L295.344 54.4236L294.797 53.3166C294.734 53.0826 294.469 53.0283 294.383 53.1766L294.266 53.208L293.518 54.1605C293.401 54.1919 293.284 54.2232 293.253 54.1062L292.62 53.1476C292.472 53.0619 292.323 52.9763 292.09 53.039C292.09 53.039 291.973 53.0703 292.004 53.1873L291.288 54.2568L291.054 54.3195L290.218 53.5404C290.038 53.3379 289.804 53.4005 289.571 53.4632L289.485 53.6115L289.182 54.8209L288.948 54.8836L287.91 54.2842C287.762 54.1986 287.528 54.2613 287.442 54.4096L287.357 54.5579L287.288 55.7047C287.171 55.736 287.054 55.7673 287.085 55.8843L285.961 55.4332C285.696 55.3789 285.462 55.4416 285.408 55.7069L285.439 55.8239L285.519 57.0562C285.519 57.0562 285.402 57.0876 285.316 57.2359L284.138 57.0501C283.99 56.9645 283.787 57.1441 283.701 57.2924L284.046 58.5791C284.078 58.696 283.961 58.7274 283.992 58.8443L282.76 58.9238C282.494 58.8695 282.409 59.0179 282.471 59.2518L282.503 59.3688L283.05 60.4758C282.933 60.5071 282.964 60.6241 282.847 60.6554L281.678 60.9688C281.444 61.0315 281.358 61.1798 281.421 61.4137L281.452 61.5307L282.202 62.4581L282.265 62.692L281.158 63.2394C280.924 63.302 280.87 63.5673 280.901 63.6843L280.932 63.8012L281.885 64.5489C281.916 64.6659 281.948 64.7829 281.831 64.8142L281.02 65.5328C280.935 65.6811 280.849 65.8294 280.912 66.0634C280.912 66.0634 280.943 66.1803 281.06 66.149L282.098 66.7484L282.161 66.9823L281.382 67.8179C281.179 67.9976 281.242 68.2315 281.273 68.3485L281.421 68.4341L282.662 68.8538L282.725 69.0878L282.126 70.1259C282.04 70.2742 282.103 70.5082 282.251 70.5938L282.399 70.6794L283.546 70.7483C283.577 70.8652 283.609 70.9822 283.726 70.9508L283.275 72.0746C283.189 72.2229 283.252 72.4569 283.517 72.5112C283.517 72.5112 283.634 72.4798 283.665 72.5968L284.898 72.5173C284.929 72.6343 285.046 72.6029 285.077 72.7199L284.891 73.898C284.806 74.0463 284.985 74.2489 285.134 74.3345L286.42 73.9898C286.537 73.9584 286.569 74.0754 286.686 74.044L286.765 75.2764C286.828 75.5103 286.976 75.596 287.093 75.5646L287.21 75.5333L288.317 74.9859C288.348 75.1029 288.465 75.0716 288.614 75.1572L288.927 76.3269C288.99 76.5608 289.138 76.6464 289.372 76.5838L289.489 76.5524L290.416 75.8025L290.533 75.7711L291.081 76.8781C291.143 77.1121 291.409 77.1663 291.494 77.018L291.611 76.9867L292.359 76.0342C292.476 76.0028 292.593 75.9715 292.624 76.0884L293.257 77.0471C293.405 77.1328 293.554 77.2184 293.788 77.1557C293.788 77.1557 293.905 77.1244 293.873 77.0074L294.59 75.9379L294.824 75.8752L295.659 76.6542C295.807 76.7399 296.073 76.7941 296.158 76.6458L296.244 76.4975L296.578 75.4051L296.812 75.3424L297.85 75.9418C297.999 76.0274 298.232 75.9647 298.318 75.8164L298.404 75.6681L298.473 74.5214C298.59 74.49 298.707 74.4587 298.675 74.3417L299.799 74.7928C299.947 74.8784 300.181 74.8157 300.235 74.5505C300.235 74.5505 300.204 74.4335 300.321 74.4021L300.242 73.1698C300.359 73.1384 300.327 73.0215 300.444 72.9901L301.622 73.1759C301.771 73.2616 301.973 73.0819 302.059 72.9336L301.714 71.6469L301.885 71.3503L303.118 71.2708C303.352 71.2082 303.437 71.0599 303.406 70.9429L303.375 70.8259L302.827 69.7189L302.998 69.4223L304.168 69.1089C304.402 69.0462 304.488 68.8979 304.425 68.664L304.394 68.547L303.644 67.6196C303.612 67.5027 303.729 67.4713 303.698 67.3544L304.805 66.807C305.039 66.7443 305.093 66.4791 304.945 66.3934L304.914 66.2765L303.961 65.5288L304.015 65.2635L304.974 64.6305C305.06 64.4822 305.145 64.3339 305.083 64.1C305.083 64.1 305.051 63.983 304.934 64.0143L303.779 63.4463L303.716 63.2123L304.496 62.3768C304.698 62.1971 304.635 61.9632 304.424 61.6436C304.456 61.7606 304.456 61.7606 304.424 61.6436ZM299.951 71.6179C299.569 71.5949 299.241 71.3067 299.147 70.9558C299.17 70.5735 299.458 70.2456 299.809 70.1516C300.191 70.1745 300.519 70.4627 300.613 70.8136C300.739 71.2815 300.45 71.6095 299.951 71.6179ZM299.122 69.4581C298.739 69.4352 298.451 69.7632 298.545 70.1141L298.516 71.877C297.589 72.6269 296.482 73.1743 295.195 73.519C293.909 73.8638 292.676 73.9433 291.35 73.6718L290.56 72.1283C290.349 71.8088 290.053 71.6375 289.733 71.8485L288.423 72.5755C288.127 72.4042 287.799 72.116 287.502 71.9448L294.52 70.0643C294.637 70.0329 294.637 70.0329 294.606 69.916L293.948 67.4596C293.916 67.3427 293.916 67.3427 293.799 67.374L291.811 67.9068L291.403 66.3862L293.626 65.7907C293.86 65.7281 294.679 65.5087 295.343 66.5843C295.554 66.9039 295.984 68.0422 296.312 68.3305C296.523 68.65 297.327 69.3121 297.912 69.1554L301.538 68.1838C301.398 68.5974 301.227 68.894 300.97 69.3389L299.122 69.4581ZM290.009 74.2819C289.689 74.4929 289.276 74.353 289.033 73.9164C288.822 73.5969 288.962 73.1833 289.399 72.9409C289.835 72.6986 290.132 72.8699 290.374 73.3064C290.468 73.6573 290.328 74.0709 290.009 74.2819ZM284.435 64.2417C284.646 64.5612 284.655 65.0605 284.335 65.2714C284.015 65.4824 283.516 65.4908 283.305 65.1713C283.094 64.8517 283.086 64.3525 283.405 64.1415C283.842 63.8992 284.224 63.9221 284.435 64.2417ZM284.118 66.3326L285.482 65.3403C285.801 65.1293 285.824 64.747 285.613 64.4275L285.074 63.8197L286.244 63.5063L287.717 69.0038L285.378 69.6306C284.713 68.5549 284.314 67.5336 284.118 66.3326ZM290.543 64.1096L290.104 62.472L293.028 61.6885C293.145 61.6571 294.112 61.5234 294.3 62.2252C294.457 62.81 293.818 63.232 293.233 63.3887L290.543 64.1096ZM301.446 62.6924L301.603 63.2773L300.667 63.528C300.55 63.5594 300.55 63.5594 300.581 63.6763L300.675 64.0272C300.926 64.963 300.404 65.3536 299.936 65.479C299.468 65.6043 298.938 65.4958 298.758 65.2932C298.117 63.8353 297.586 63.7267 296.727 63.3299C297.39 62.5257 298.106 61.4562 297.824 60.4035C297.51 59.2338 296.504 58.7514 295.942 58.5258C294.998 58.2773 294.147 58.3798 293.914 58.4425L285.024 60.8244C285.934 59.076 287.321 57.7015 289.099 56.8491L290.465 57.7367C290.762 57.908 291.112 57.814 291.401 57.486L292.257 56.0029C294.839 55.8126 297.351 56.7691 299.234 58.6467L298.916 60.7376C298.893 61.1198 299.104 61.4394 299.487 61.4623L301.195 61.7567L301.446 62.6924ZM289.932 55.7483C290.103 55.4517 290.571 55.3263 290.868 55.4976C291.164 55.6688 291.29 56.1367 291.119 56.4333C290.862 56.8782 290.511 56.9723 290.066 56.7154C289.769 56.5441 289.792 56.1619 289.932 55.7483ZM299.758 60.1359C299.781 59.7537 300.217 59.5114 300.6 59.5343C300.982 59.5572 301.224 59.9938 301.201 60.376C301.178 60.7583 300.742 61.0006 300.36 60.9777C299.977 60.9547 299.735 60.5182 299.758 60.1359Z"
            fill="#FAFAFA"
        />
        </g>
        <g clip-path="url(#clip36_367_3822)">
        <path
            d="M280.763 20.7211C279.837 20.9698 278.934 21.2984 278.065 21.7031L278.157 21.6638C275.907 22.7138 275.713 23.7019 276.145 25.3121L276.715 27.439L282.296 25.9435L282.486 26.6521L274.811 28.7086L274.746 28.7249C273.939 28.9412 273.233 29.4307 272.747 30.1098C272.26 30.789 272.025 31.6157 272.08 32.4491L272.082 32.4725C272.06 33.3894 272.179 34.4044 272.449 35.4143C272.72 36.4241 273.125 37.3624 273.64 38.2136L273.602 38.1445C274.441 39.6904 275.704 40.613 277.323 40.1792L279.242 39.6649L278.559 37.115C278.335 36.1936 278.475 35.221 278.951 34.4007C279.427 33.5805 280.202 32.9763 281.114 32.7144L286.691 31.22C287.432 31.0155 288.062 30.5265 288.443 29.8597C288.825 29.1929 288.927 28.4022 288.728 27.6601L288.722 27.6348L287.298 22.3215C287.054 21.6018 286.563 20.9913 285.914 20.597C285.264 20.2027 284.496 20.05 283.745 20.1655L283.731 20.1682C282.762 20.2627 281.803 20.4379 280.864 20.692L280.759 20.72L280.764 20.7187L280.763 20.7211ZM278.203 23.2404L278.22 23.236C278.43 23.1797 278.652 23.1869 278.858 23.2568C279.065 23.3267 279.245 23.456 279.378 23.6286C279.51 23.8012 279.589 24.0091 279.603 24.2263C279.618 24.4434 279.568 24.66 279.459 24.8486C279.351 25.0372 279.189 25.1894 278.994 25.286C278.799 25.3826 278.579 25.4192 278.363 25.3912C278.148 25.3633 277.945 25.272 277.781 25.1289C277.617 24.9858 277.499 24.7973 277.442 24.5873L277.44 24.5795C277.284 23.9985 277.626 23.4014 278.203 23.2404Z"
            fill="#FAFAFA"
        />
        <path
            d="M288.755 24.9719L289.419 27.4496C289.657 28.3779 289.526 29.3622 289.053 30.1958C288.581 31.0295 287.804 31.6478 286.885 31.9209L281.306 33.4158C280.567 33.6302 279.941 34.1249 279.562 34.7943C279.183 35.4637 279.08 36.2548 279.276 36.9988L280.7 42.3141C281.105 43.8259 282.659 44.3635 284.25 44.403C285.156 44.4497 286.157 44.3487 287.152 44.082C288.147 43.8154 289.064 43.4024 289.886 42.8731L289.824 42.9094C291.119 42.1268 292.286 40.9356 291.854 39.3254L291.284 37.1966L285.709 38.6903L285.519 37.9816L293.885 35.7402C295.506 35.3056 295.808 34.012 295.917 32.1637C295.963 31.2426 295.858 30.2248 295.587 29.2121C295.316 28.1993 294.897 27.2657 294.361 26.4285L294.397 26.4918C293.564 24.985 292.47 23.9765 290.849 24.4108L288.755 24.9719ZM289.226 39.27L289.243 39.2655C289.453 39.2092 289.676 39.2164 289.882 39.2864C290.088 39.3564 290.269 39.486 290.401 39.6587C290.534 39.8315 290.612 40.0397 290.627 40.257C290.641 40.4742 290.59 40.6909 290.481 40.8794C290.373 41.068 290.21 41.2201 290.015 41.3164C289.82 41.4127 289.6 41.4489 289.384 41.4205C289.168 41.3921 288.966 41.3003 288.802 41.1567C288.638 41.0131 288.521 40.8242 288.465 40.6139L288.462 40.6032C288.306 40.0232 288.648 39.428 289.226 39.27Z"
            fill="#FAFAFA"
        />
        </g>
    </g>
    </g>
    <defs>
    <clipPath id="clip0_367_3822">
        <rect
        width="300.513"
        height="111.248"
        fill="white"
        transform="translate(0.746094 0.832703)"
        />
    </clipPath>
    <clipPath id="clip1_367_3822">
        <rect
        width="21.797"
        height="21.797"
        fill="white"
        transform="translate(-3.94183 72.9042) rotate(-15)"
        />
    </clipPath>
    <clipPath id="clip2_367_3822">
        <rect
        width="25.4298"
        height="25.4298"
        fill="white"
        transform="translate(61.5603 55.353) rotate(-15)"
        />
    </clipPath>
    <clipPath id="clip3_367_3822">
        <rect
        width="29.0626"
        height="29.0626"
        fill="white"
        transform="translate(23.8171 64.2125) rotate(-15)"
        />
    </clipPath>
    <clipPath id="clip4_367_3822">
        <rect
        width="29.0626"
        height="29.0626"
        fill="white"
        transform="translate(14.1013 27.9524) rotate(-15)"
        />
    </clipPath>
    <clipPath id="clip5_367_3822">
        <rect
        width="25.4298"
        height="25.4298"
        fill="white"
        transform="translate(-14.8273 36.9575) rotate(-15)"
        />
    </clipPath>
    <clipPath id="clip6_367_3822">
        <rect
        width="29.0626"
        height="29.0626"
        fill="white"
        transform="translate(40.7294 -13.0314) rotate(-15)"
        />
    </clipPath>
    <clipPath id="clip7_367_3822">
        <rect
        width="24.2188"
        height="24.2188"
        fill="white"
        transform="translate(8.60522 -1.91641) rotate(-15)"
        />
    </clipPath>
    <clipPath id="clip8_367_3822">
        <rect
        width="24.2188"
        height="24.2188"
        fill="white"
        transform="translate(-22.9761 6.54581) rotate(-15)"
        />
    </clipPath>
    <clipPath id="clip9_367_3822">
        <rect
        width="21.797"
        height="21.797"
        fill="white"
        transform="translate(162.49 25.3521) rotate(-15)"
        />
    </clipPath>
    <clipPath id="clip10_367_3822">
        <rect
        width="25.4298"
        height="25.4298"
        fill="white"
        transform="translate(227.993 7.80084) rotate(-15)"
        />
    </clipPath>
    <clipPath id="clip11_367_3822">
        <rect
        width="29.0626"
        height="29.0626"
        fill="white"
        transform="translate(190.249 16.6605) rotate(-15)"
        />
    </clipPath>
    <clipPath id="clip12_367_3822">
        <rect
        width="29.0626"
        height="29.0626"
        fill="white"
        transform="translate(125.917 33.8983) rotate(-15)"
        />
    </clipPath>
    <clipPath id="clip13_367_3822">
        <rect
        width="29.0626"
        height="29.0626"
        fill="white"
        transform="translate(94.3357 42.3605) rotate(-15)"
        />
    </clipPath>
    <clipPath id="clip14_367_3822">
        <rect
        width="29.0626"
        height="29.0626"
        fill="white"
        transform="translate(180.534 -19.5997) rotate(-15)"
        />
    </clipPath>
    <clipPath id="clip15_367_3822">
        <rect
        width="25.4298"
        height="25.4298"
        fill="white"
        transform="translate(151.605 -10.5946) rotate(-15)"
        />
    </clipPath>
    <clipPath id="clip16_367_3822">
        <rect
        width="33.9064"
        height="33.9064"
        fill="white"
        transform="translate(113.235 -4.07437) rotate(-15)"
        />
    </clipPath>
    <clipPath id="clip17_367_3822">
        <rect
        width="29.0626"
        height="29.0626"
        fill="white"
        transform="translate(84.9332 7.27005) rotate(-15)"
        />
    </clipPath>
    <clipPath id="clip18_367_3822">
        <rect
        width="29.0626"
        height="29.0626"
        fill="white"
        transform="translate(290.368 -15.6352) rotate(-15)"
        />
    </clipPath>
    <clipPath id="clip19_367_3822">
        <rect
        width="29.0626"
        height="29.0626"
        fill="white"
        transform="translate(258.787 -7.17294) rotate(-15)"
        />
    </clipPath>
    <clipPath id="clip20_367_3822">
        <rect
        width="29.0626"
        height="29.0626"
        fill="white"
        transform="translate(66.4868 84.0541) rotate(-15)"
        />
    </clipPath>
    <clipPath id="clip21_367_3822">
        <rect
        width="24.2188"
        height="24.2188"
        fill="white"
        transform="translate(34.3627 95.1691) rotate(-15)"
        />
    </clipPath>
    <clipPath id="clip22_367_3822">
        <rect
        width="24.2188"
        height="24.2188"
        fill="white"
        transform="translate(2.78125 103.631) rotate(-15)"
        />
    </clipPath>
    <clipPath id="clip23_367_3822">
        <rect
        width="25.4298"
        height="25.4298"
        fill="white"
        transform="translate(253.75 104.886) rotate(-15)"
        />
    </clipPath>
    <clipPath id="clip24_367_3822">
        <rect
        width="29.0626"
        height="29.0626"
        fill="white"
        transform="translate(216.007 113.746) rotate(-15)"
        />
    </clipPath>
    <clipPath id="clip25_367_3822">
        <rect
        width="29.0626"
        height="29.0626"
        fill="white"
        transform="translate(206.291 77.4859) rotate(-15)"
        />
    </clipPath>
    <clipPath id="clip26_367_3822">
        <rect
        width="25.4298"
        height="25.4298"
        fill="white"
        transform="translate(177.362 86.4909) rotate(-15)"
        />
    </clipPath>
    <clipPath id="clip27_367_3822">
        <rect
        width="33.9064"
        height="33.9064"
        fill="white"
        transform="translate(138.992 93.0112) rotate(-15)"
        />
    </clipPath>
    <clipPath id="clip28_367_3822">
        <rect
        width="29.0626"
        height="29.0626"
        fill="white"
        transform="translate(110.691 104.356) rotate(-15)"
        />
    </clipPath>
    <clipPath id="clip29_367_3822">
        <rect
        width="29.0626"
        height="29.0626"
        fill="white"
        transform="translate(232.919 36.502) rotate(-15)"
        />
    </clipPath>
    <clipPath id="clip30_367_3822">
        <rect
        width="24.2188"
        height="24.2188"
        fill="white"
        transform="translate(104.881 73.3171) rotate(-15)"
        />
    </clipPath>
    <clipPath id="clip31_367_3822">
        <rect
        width="24.2188"
        height="24.2188"
        fill="white"
        transform="translate(200.795 47.617) rotate(-15)"
        />
    </clipPath>
    <clipPath id="clip32_367_3822">
        <rect
        width="24.2188"
        height="24.2188"
        fill="white"
        transform="translate(169.214 56.0792) rotate(-15)"
        />
    </clipPath>
    <clipPath id="clip33_367_3822">
        <rect
        width="24.2188"
        height="24.2188"
        fill="white"
        transform="translate(136.462 64.8548) rotate(-15)"
        />
    </clipPath>
    <clipPath id="clip34_367_3822">
        <rect
        width="29.0626"
        height="29.0626"
        fill="white"
        transform="translate(284.544 89.9126) rotate(-15)"
        />
    </clipPath>
    <clipPath id="clip35_367_3822">
        <rect
        width="29.0626"
        height="29.0626"
        fill="white"
        transform="translate(275.141 54.8221) rotate(-15)"
        />
    </clipPath>
    <clipPath id="clip36_367_3822">
        <rect
        width="24.2188"
        height="24.2188"
        fill="white"
        transform="translate(269.332 23.7836) rotate(-15)"
        />
    </clipPath>
    </defs>
</svg>
