<svg width="4255" height="5549" viewBox="0 0 4255 5549" fill="none" xmlns="http://www.w3.org/2000/svg">
<rect x="0.384033" width="4254.01" height="5549" fill="#2979FF"/>
<path d="M731.323 3462L696.771 3370.94H696.208C696.395 3372.86 696.56 3375.21 696.7 3377.98C696.841 3380.74 696.958 3383.77 697.052 3387.05C697.146 3390.29 697.193 3393.6 697.193 3396.98V3462H686.074V3359.12H703.808L736.39 3444.69H736.882L769.957 3359.12H787.55V3462H775.728V3396.13C775.728 3393.08 775.774 3390.03 775.868 3386.98C775.962 3383.89 776.079 3380.98 776.22 3378.26C776.361 3375.49 776.502 3373.1 776.642 3371.08H776.079L741.105 3462H731.323ZM842.792 3383.61C851.987 3383.61 858.813 3385.67 863.27 3389.8C867.727 3393.93 869.955 3400.52 869.955 3409.57V3462H861.44L859.188 3450.6H858.625C856.467 3453.41 854.215 3455.78 851.869 3457.71C849.524 3459.58 846.803 3461.01 843.706 3462C840.657 3462.94 836.904 3463.41 832.447 3463.41C827.756 3463.41 823.58 3462.59 819.921 3460.94C816.308 3459.3 813.447 3456.82 811.336 3453.49C809.271 3450.15 808.239 3445.93 808.239 3440.82C808.239 3433.12 811.289 3427.21 817.387 3423.08C823.486 3418.96 832.775 3416.7 845.255 3416.33L858.555 3415.77V3411.05C858.555 3404.39 857.124 3399.72 854.262 3397.05C851.4 3394.37 847.366 3393.04 842.158 3393.04C838.124 3393.04 834.277 3393.62 830.617 3394.8C826.958 3395.97 823.486 3397.35 820.202 3398.95L816.613 3390.08C820.085 3388.3 824.073 3386.77 828.577 3385.51C833.08 3384.24 837.819 3383.61 842.792 3383.61ZM858.414 3424L846.662 3424.49C837.045 3424.87 830.265 3426.44 826.325 3429.21C822.384 3431.97 820.413 3435.89 820.413 3440.96C820.413 3445.37 821.75 3448.63 824.425 3450.74C827.099 3452.85 830.641 3453.91 835.051 3453.91C841.9 3453.91 847.506 3452.01 851.869 3448.21C856.233 3444.41 858.414 3438.71 858.414 3431.11V3424ZM905.633 3352.5V3409.36C905.633 3411.24 905.563 3413.54 905.422 3416.26C905.281 3418.93 905.164 3421.3 905.07 3423.37H905.563C906.548 3422.15 907.979 3420.34 909.856 3417.95C911.779 3415.55 913.398 3413.63 914.711 3412.18L940.326 3384.87H954.049L923.015 3417.81L956.301 3462H942.226L914.993 3425.48L905.633 3434.06V3462H894.022V3352.5H905.633ZM999.438 3383.47C1006.01 3383.47 1011.64 3384.92 1016.33 3387.83C1021.02 3390.74 1024.61 3394.82 1027.09 3400.07C1029.58 3405.28 1030.82 3411.38 1030.82 3418.37V3425.62H977.553C977.694 3434.67 979.946 3441.57 984.309 3446.31C988.672 3451.05 994.817 3453.41 1002.75 3453.41C1007.63 3453.41 1011.94 3452.97 1015.69 3452.08C1019.45 3451.19 1023.34 3449.87 1027.38 3448.14V3458.41C1023.48 3460.15 1019.61 3461.41 1015.76 3462.21C1011.96 3463.01 1007.46 3463.41 1002.25 3463.41C994.841 3463.41 988.367 3461.91 982.831 3458.9C977.342 3455.85 973.073 3451.4 970.023 3445.53C966.974 3439.67 965.449 3432.49 965.449 3424C965.449 3415.7 966.833 3408.52 969.601 3402.47C972.416 3396.37 976.357 3391.68 981.423 3388.39C986.537 3385.11 992.542 3383.47 999.438 3383.47ZM999.298 3393.04C993.058 3393.04 988.085 3395.08 984.379 3399.16C980.673 3403.24 978.468 3408.94 977.764 3416.26H1018.58C1018.53 3411.66 1017.81 3407.63 1016.4 3404.15C1015.04 3400.64 1012.95 3397.92 1010.13 3395.99C1007.32 3394.02 1003.71 3393.04 999.298 3393.04ZM1113.02 3453.84C1114.94 3453.84 1116.91 3453.67 1118.93 3453.34C1120.95 3453.02 1122.59 3452.62 1123.86 3452.15V3461.23C1122.49 3461.84 1120.59 3462.35 1118.16 3462.77C1115.76 3463.2 1113.42 3463.41 1111.12 3463.41C1107.04 3463.41 1103.33 3462.7 1100 3461.3C1096.67 3459.84 1093.99 3457.4 1091.98 3453.98C1090.01 3450.55 1089.02 3445.81 1089.02 3439.76V3394.02H1078.04V3388.32L1089.09 3383.75L1093.74 3367H1100.77V3384.87H1123.36V3394.02H1100.77V3439.41C1100.77 3444.24 1101.88 3447.86 1104.08 3450.25C1106.33 3452.64 1109.31 3453.84 1113.02 3453.84ZM1151.16 3352.5V3385.22C1151.16 3387.1 1151.11 3389 1151.02 3390.92C1150.92 3392.8 1150.76 3394.54 1150.53 3396.13H1151.3C1152.9 3393.41 1154.91 3391.14 1157.35 3389.31C1159.84 3387.43 1162.65 3386.02 1165.8 3385.08C1168.94 3384.1 1172.27 3383.61 1175.79 3383.61C1181.98 3383.61 1187.14 3384.59 1191.27 3386.56C1195.45 3388.53 1198.57 3391.58 1200.63 3395.71C1202.74 3399.84 1203.8 3405.19 1203.8 3411.75V3462H1192.26V3412.53C1192.26 3406.1 1190.78 3401.29 1187.82 3398.1C1184.91 3394.91 1180.43 3393.32 1174.38 3393.32C1168.66 3393.32 1164.08 3394.42 1160.66 3396.62C1157.28 3398.78 1154.84 3401.97 1153.34 3406.2C1151.89 3410.42 1151.16 3415.58 1151.16 3421.68V3462H1139.48V3352.5H1151.16ZM1257.56 3383.47C1264.13 3383.47 1269.76 3384.92 1274.45 3387.83C1279.14 3390.74 1282.73 3394.82 1285.22 3400.07C1287.7 3405.28 1288.95 3411.38 1288.95 3418.37V3425.62H1235.68C1235.82 3434.67 1238.07 3441.57 1242.43 3446.31C1246.79 3451.05 1252.94 3453.41 1260.87 3453.41C1265.75 3453.41 1270.06 3452.97 1273.82 3452.08C1277.57 3451.19 1281.46 3449.87 1285.5 3448.14V3458.41C1281.6 3460.15 1277.73 3461.41 1273.89 3462.21C1270.09 3463.01 1265.58 3463.41 1260.38 3463.41C1252.96 3463.41 1246.49 3461.91 1240.95 3458.9C1235.46 3455.85 1231.2 3451.4 1228.15 3445.53C1225.1 3439.67 1223.57 3432.49 1223.57 3424C1223.57 3415.7 1224.96 3408.52 1227.72 3402.47C1230.54 3396.37 1234.48 3391.68 1239.55 3388.39C1244.66 3385.11 1250.66 3383.47 1257.56 3383.47ZM1257.42 3393.04C1251.18 3393.04 1246.21 3395.08 1242.5 3399.16C1238.8 3403.24 1236.59 3408.94 1235.89 3416.26H1276.7C1276.66 3411.66 1275.93 3407.63 1274.52 3404.15C1273.16 3400.64 1271.07 3397.92 1268.26 3395.99C1265.44 3394.02 1261.83 3393.04 1257.42 3393.04ZM1429.97 3383.47C1438.46 3383.47 1444.87 3385.69 1449.18 3390.15C1453.5 3394.56 1455.66 3401.67 1455.66 3411.47V3462H1444.12V3412.04C1444.12 3405.8 1442.76 3401.13 1440.03 3398.03C1437.36 3394.89 1433.37 3393.32 1428.07 3393.32C1420.61 3393.32 1415.19 3395.48 1411.82 3399.79C1408.44 3404.11 1406.75 3410.46 1406.75 3418.86V3462H1395.14V3412.04C1395.14 3407.86 1394.53 3404.39 1393.31 3401.62C1392.13 3398.85 1390.35 3396.79 1387.96 3395.43C1385.61 3394.02 1382.63 3393.32 1379.02 3393.32C1373.91 3393.32 1369.8 3394.37 1366.71 3396.48C1363.61 3398.6 1361.36 3401.74 1359.95 3405.91C1358.59 3410.04 1357.91 3415.13 1357.91 3421.18V3462H1346.23V3384.87H1355.66L1357.42 3395.78H1358.05C1359.6 3393.11 1361.55 3390.85 1363.89 3389.02C1366.24 3387.2 1368.87 3385.81 1371.77 3384.87C1374.68 3383.93 1377.78 3383.47 1381.06 3383.47C1386.93 3383.47 1391.83 3384.57 1395.77 3386.77C1399.76 3388.93 1402.64 3392.24 1404.43 3396.7H1405.06C1407.59 3392.24 1411.06 3388.93 1415.47 3386.77C1419.88 3384.57 1424.72 3383.47 1429.97 3383.47ZM1546.15 3423.3C1546.15 3429.63 1545.33 3435.28 1543.69 3440.26C1542.05 3445.23 1539.68 3449.43 1536.58 3452.85C1533.49 3456.28 1529.73 3458.9 1525.32 3460.73C1520.96 3462.52 1516.01 3463.41 1510.48 3463.41C1505.32 3463.41 1500.58 3462.52 1496.26 3460.73C1491.99 3458.9 1488.29 3456.28 1485.14 3452.85C1482.05 3449.43 1479.63 3445.23 1477.89 3440.26C1476.21 3435.28 1475.36 3429.63 1475.36 3423.3C1475.36 3414.85 1476.79 3407.67 1479.65 3401.76C1482.52 3395.8 1486.6 3391.28 1491.9 3388.18C1497.25 3385.04 1503.6 3383.47 1510.97 3383.47C1518.01 3383.47 1524.15 3385.04 1529.41 3388.18C1534.71 3391.32 1538.81 3395.87 1541.72 3401.83C1544.68 3407.74 1546.15 3414.9 1546.15 3423.3ZM1487.46 3423.3C1487.46 3429.49 1488.29 3434.86 1489.93 3439.41C1491.57 3443.96 1494.1 3447.48 1497.53 3449.97C1500.95 3452.45 1505.36 3453.7 1510.76 3453.7C1516.11 3453.7 1520.49 3452.45 1523.92 3449.97C1527.39 3447.48 1529.95 3443.96 1531.59 3439.41C1533.23 3434.86 1534.05 3429.49 1534.05 3423.3C1534.05 3417.15 1533.23 3411.85 1531.59 3407.39C1529.95 3402.89 1527.41 3399.42 1523.99 3396.98C1520.56 3394.54 1516.13 3393.32 1510.69 3393.32C1502.66 3393.32 1496.78 3395.97 1493.02 3401.27C1489.32 3406.57 1487.46 3413.91 1487.46 3423.3ZM1616.24 3440.89C1616.24 3445.81 1615 3449.97 1612.51 3453.34C1610.08 3456.68 1606.56 3459.19 1601.96 3460.87C1597.41 3462.56 1591.97 3463.41 1585.63 3463.41C1580.24 3463.41 1575.57 3462.99 1571.63 3462.14C1567.69 3461.3 1564.24 3460.1 1561.28 3458.55V3447.78C1564.43 3449.33 1568.18 3450.74 1572.54 3452.01C1576.91 3453.27 1581.36 3453.91 1585.91 3453.91C1592.58 3453.91 1597.41 3452.83 1600.41 3450.67C1603.41 3448.51 1604.91 3445.58 1604.91 3441.87C1604.91 3439.76 1604.3 3437.91 1603.08 3436.31C1601.91 3434.67 1599.92 3433.1 1597.1 3431.6C1594.29 3430.05 1590.39 3428.36 1585.42 3426.53C1580.5 3424.66 1576.23 3422.8 1572.61 3420.97C1569.05 3419.1 1566.28 3416.82 1564.31 3414.15C1562.39 3411.47 1561.43 3408 1561.43 3403.73C1561.43 3397.21 1564.05 3392.21 1569.31 3388.74C1574.61 3385.22 1581.55 3383.47 1590.14 3383.47C1594.78 3383.47 1599.12 3383.93 1603.16 3384.87C1607.24 3385.76 1611.04 3386.98 1614.56 3388.53L1610.61 3397.89C1607.42 3396.53 1604.02 3395.38 1600.41 3394.44C1596.8 3393.51 1593.12 3393.04 1589.36 3393.04C1583.97 3393.04 1579.82 3393.93 1576.91 3395.71C1574.04 3397.49 1572.61 3399.93 1572.61 3403.03C1572.61 3405.42 1573.27 3407.39 1574.58 3408.94C1575.94 3410.49 1578.1 3411.94 1581.06 3413.3C1584.01 3414.66 1587.91 3416.26 1592.74 3418.09C1597.57 3419.87 1601.75 3421.72 1605.27 3423.65C1608.79 3425.52 1611.48 3427.82 1613.36 3430.54C1615.28 3433.22 1616.24 3436.67 1616.24 3440.89ZM1659.95 3453.84C1661.87 3453.84 1663.84 3453.67 1665.86 3453.34C1667.87 3453.02 1669.52 3452.62 1670.78 3452.15V3461.23C1669.42 3461.84 1667.52 3462.35 1665.08 3462.77C1662.69 3463.2 1660.34 3463.41 1658.05 3463.41C1653.96 3463.41 1650.26 3462.7 1646.93 3461.3C1643.6 3459.84 1640.92 3457.4 1638.9 3453.98C1636.93 3450.55 1635.95 3445.81 1635.95 3439.76V3394.02H1624.97V3388.32L1636.02 3383.75L1640.66 3367H1647.7V3384.87H1670.29V3394.02H1647.7V3439.41C1647.7 3444.24 1648.8 3447.86 1651.01 3450.25C1653.26 3452.64 1656.24 3453.84 1659.95 3453.84ZM750.816 3619.3C750.816 3625.63 749.995 3631.28 748.353 3636.26C746.711 3641.23 744.342 3645.43 741.246 3648.85C738.149 3652.28 734.396 3654.9 729.986 3656.73C725.623 3658.52 720.674 3659.41 715.138 3659.41C709.977 3659.41 705.239 3658.52 700.923 3656.73C696.653 3654.9 692.947 3652.28 689.804 3648.85C686.708 3645.43 684.292 3641.23 682.556 3636.26C680.867 3631.28 680.022 3625.63 680.022 3619.3C680.022 3610.85 681.453 3603.67 684.315 3597.76C687.177 3591.8 691.258 3587.28 696.56 3584.18C701.908 3581.04 708.265 3579.47 715.63 3579.47C722.667 3579.47 728.813 3581.04 734.068 3584.18C739.369 3587.32 743.474 3591.87 746.383 3597.83C749.338 3603.74 750.816 3610.9 750.816 3619.3ZM692.126 3619.3C692.126 3625.49 692.947 3630.86 694.589 3635.41C696.231 3639.96 698.765 3643.48 702.189 3645.97C705.614 3648.45 710.024 3649.7 715.419 3649.7C720.767 3649.7 725.154 3648.45 728.579 3645.97C732.05 3643.48 734.607 3639.96 736.249 3635.41C737.891 3630.86 738.712 3625.49 738.712 3619.3C738.712 3613.15 737.891 3607.85 736.249 3603.39C734.607 3598.89 732.074 3595.42 728.649 3592.98C725.224 3590.54 720.791 3589.32 715.349 3589.32C707.326 3589.32 701.439 3591.97 697.686 3597.27C693.979 3602.57 692.126 3609.91 692.126 3619.3ZM834.699 3580.87V3658H825.128L823.439 3647.16H822.806C821.211 3649.84 819.147 3652.09 816.613 3653.92C814.08 3655.75 811.218 3657.11 808.028 3658C804.885 3658.94 801.53 3659.41 797.965 3659.41C791.866 3659.41 786.752 3658.42 782.624 3656.45C778.495 3654.48 775.376 3651.43 773.265 3647.3C771.2 3643.18 770.168 3637.87 770.168 3631.4V3580.87H781.991V3630.56C781.991 3636.98 783.445 3641.79 786.354 3644.98C789.262 3648.12 793.696 3649.7 799.654 3649.7C805.377 3649.7 809.928 3648.62 813.306 3646.46C816.731 3644.3 819.194 3641.13 820.695 3636.96C822.196 3632.74 822.947 3627.58 822.947 3621.48V3580.87H834.699ZM884.311 3649.84C886.234 3649.84 888.205 3649.67 890.222 3649.34C892.239 3649.02 893.881 3648.62 895.148 3648.15V3657.23C893.787 3657.84 891.887 3658.35 889.448 3658.77C887.055 3659.2 884.71 3659.41 882.411 3659.41C878.329 3659.41 874.623 3658.7 871.292 3657.3C867.961 3655.84 865.287 3653.4 863.27 3649.98C861.299 3646.55 860.314 3641.81 860.314 3635.76V3590.02H849.336V3584.32L860.384 3579.75L865.029 3563H872.066V3580.87H894.655V3590.02H872.066V3635.41C872.066 3640.24 873.169 3643.86 875.374 3646.25C877.625 3648.64 880.605 3649.84 884.311 3649.84ZM1014.71 3619.3C1014.71 3625.63 1013.89 3631.28 1012.25 3636.26C1010.6 3641.23 1008.23 3645.43 1005.14 3648.85C1002.04 3652.28 998.289 3654.9 993.879 3656.73C989.516 3658.52 984.567 3659.41 979.031 3659.41C973.87 3659.41 969.132 3658.52 964.816 3656.73C960.546 3654.9 956.84 3652.28 953.697 3648.85C950.601 3645.43 948.185 3641.23 946.449 3636.26C944.76 3631.28 943.915 3625.63 943.915 3619.3C943.915 3610.85 945.346 3603.67 948.208 3597.76C951.07 3591.8 955.151 3587.28 960.453 3584.18C965.801 3581.04 972.158 3579.47 979.523 3579.47C986.56 3579.47 992.706 3581.04 997.961 3584.18C1003.26 3587.32 1007.37 3591.87 1010.28 3597.83C1013.23 3603.74 1014.71 3610.9 1014.71 3619.3ZM956.019 3619.3C956.019 3625.49 956.84 3630.86 958.482 3635.41C960.124 3639.96 962.658 3643.48 966.082 3645.97C969.507 3648.45 973.917 3649.7 979.312 3649.7C984.66 3649.7 989.047 3648.45 992.472 3645.97C995.943 3643.48 998.5 3639.96 1000.14 3635.41C1001.78 3630.86 1002.61 3625.49 1002.61 3619.3C1002.61 3613.15 1001.78 3607.85 1000.14 3603.39C998.5 3598.89 995.967 3595.42 992.542 3592.98C989.117 3590.54 984.684 3589.32 979.242 3589.32C971.219 3589.32 965.332 3591.97 961.579 3597.27C957.872 3602.57 956.019 3609.91 956.019 3619.3ZM1069.25 3590.02H1050.04V3658H1038.35V3590.02H1024.7V3584.39L1038.35 3580.52V3575.38C1038.35 3568.91 1039.32 3563.66 1041.24 3559.62C1043.16 3555.54 1045.95 3552.54 1049.61 3550.61C1053.27 3548.69 1057.73 3547.73 1062.98 3547.73C1065.94 3547.73 1068.64 3547.99 1071.08 3548.5C1073.56 3549.02 1075.74 3549.6 1077.62 3550.26L1074.6 3559.48C1073 3558.96 1071.19 3558.49 1069.18 3558.07C1067.21 3557.6 1065.19 3557.37 1063.12 3557.37C1058.67 3557.37 1055.36 3558.82 1053.2 3561.73C1051.09 3564.59 1050.04 3569.1 1050.04 3575.24V3580.87H1069.25V3590.02ZM1108.73 3580.87H1121.25L1138.28 3625.63C1139.27 3628.26 1140.18 3630.79 1141.03 3633.23C1141.87 3635.62 1142.62 3637.92 1143.28 3640.13C1143.93 3642.33 1144.45 3644.47 1144.83 3646.53H1145.32C1145.98 3644.18 1146.91 3641.11 1148.13 3637.31C1149.35 3633.46 1150.67 3629.55 1152.07 3625.56L1168.19 3580.87H1180.79L1147.22 3669.33C1145.44 3674.07 1143.35 3678.2 1140.96 3681.72C1138.61 3685.23 1135.75 3687.93 1132.37 3689.81C1128.99 3691.73 1124.91 3692.69 1120.13 3692.69C1117.92 3692.69 1115.97 3692.55 1114.28 3692.27C1112.6 3692.04 1111.14 3691.75 1109.92 3691.43V3682.07C1110.95 3682.3 1112.2 3682.51 1113.65 3682.7C1115.15 3682.89 1116.7 3682.98 1118.3 3682.98C1121.2 3682.98 1123.71 3682.42 1125.83 3681.29C1127.98 3680.21 1129.84 3678.62 1131.38 3676.51C1132.93 3674.4 1134.27 3671.89 1135.4 3668.98L1139.62 3658.14L1108.73 3580.87ZM1259.6 3619.3C1259.6 3625.63 1258.78 3631.28 1257.14 3636.26C1255.5 3641.23 1253.13 3645.43 1250.03 3648.85C1246.93 3652.28 1243.18 3654.9 1238.77 3656.73C1234.41 3658.52 1229.46 3659.41 1223.92 3659.41C1218.76 3659.41 1214.02 3658.52 1209.71 3656.73C1205.44 3654.9 1201.73 3652.28 1198.59 3648.85C1195.49 3645.43 1193.08 3641.23 1191.34 3636.26C1189.65 3631.28 1188.81 3625.63 1188.81 3619.3C1188.81 3610.85 1190.24 3603.67 1193.1 3597.76C1195.96 3591.8 1200.04 3587.28 1205.35 3584.18C1210.69 3581.04 1217.05 3579.47 1224.42 3579.47C1231.45 3579.47 1237.6 3581.04 1242.85 3584.18C1248.15 3587.32 1252.26 3591.87 1255.17 3597.83C1258.12 3603.74 1259.6 3610.9 1259.6 3619.3ZM1200.91 3619.3C1200.91 3625.49 1201.73 3630.86 1203.37 3635.41C1205.02 3639.96 1207.55 3643.48 1210.98 3645.97C1214.4 3648.45 1218.81 3649.7 1224.2 3649.7C1229.55 3649.7 1233.94 3648.45 1237.36 3645.97C1240.84 3643.48 1243.39 3639.96 1245.03 3635.41C1246.68 3630.86 1247.5 3625.49 1247.5 3619.3C1247.5 3613.15 1246.68 3607.85 1245.03 3603.39C1243.39 3598.89 1240.86 3595.42 1237.43 3592.98C1234.01 3590.54 1229.58 3589.32 1224.13 3589.32C1216.11 3589.32 1210.22 3591.97 1206.47 3597.27C1202.77 3602.57 1200.91 3609.91 1200.91 3619.3ZM1343.48 3580.87V3658H1333.91L1332.23 3647.16H1331.59C1330 3649.84 1327.93 3652.09 1325.4 3653.92C1322.87 3655.75 1320 3657.11 1316.81 3658C1313.67 3658.94 1310.32 3659.41 1306.75 3659.41C1300.65 3659.41 1295.54 3658.42 1291.41 3656.45C1287.28 3654.48 1284.16 3651.43 1282.05 3647.3C1279.99 3643.18 1278.95 3637.87 1278.95 3631.4V3580.87H1290.78V3630.56C1290.78 3636.98 1292.23 3641.79 1295.14 3644.98C1298.05 3648.12 1302.48 3649.7 1308.44 3649.7C1314.16 3649.7 1318.71 3648.62 1322.09 3646.46C1325.52 3644.3 1327.98 3641.13 1329.48 3636.96C1330.98 3632.74 1331.73 3627.58 1331.73 3621.48V3580.87H1343.48ZM1403.23 3579.47C1404.78 3579.47 1406.4 3579.56 1408.09 3579.75C1409.77 3579.89 1411.28 3580.1 1412.59 3580.38L1411.11 3591.22C1409.84 3590.89 1408.44 3590.63 1406.89 3590.44C1405.34 3590.26 1403.89 3590.16 1402.53 3590.16C1399.43 3590.16 1396.5 3590.8 1393.73 3592.06C1391.01 3593.28 1388.62 3595.06 1386.55 3597.41C1384.49 3599.71 1382.87 3602.5 1381.7 3605.78C1380.52 3609.02 1379.94 3612.63 1379.94 3616.62V3658H1368.18V3580.87H1377.9L1379.16 3595.09H1379.66C1381.25 3592.23 1383.17 3589.62 1385.43 3587.28C1387.68 3584.88 1390.28 3582.98 1393.24 3581.58C1396.24 3580.17 1399.57 3579.47 1403.23 3579.47ZM715.208 3855.41C708.265 3855.41 702.142 3853.98 696.841 3851.11C691.54 3848.25 687.411 3843.89 684.456 3838.03C681.5 3832.16 680.022 3824.77 680.022 3815.86C680.022 3806.52 681.571 3798.9 684.667 3792.99C687.81 3787.03 692.126 3782.62 697.615 3779.76C703.104 3776.9 709.344 3775.47 716.334 3775.47C720.181 3775.47 723.887 3775.86 727.453 3776.66C731.065 3777.41 734.021 3778.37 736.32 3779.55L732.801 3789.33C730.455 3788.39 727.734 3787.55 724.638 3786.8C721.588 3786.04 718.727 3785.67 716.053 3785.67C710.704 3785.67 706.247 3786.82 702.682 3789.12C699.163 3791.42 696.513 3794.79 694.73 3799.25C692.994 3803.71 692.126 3809.2 692.126 3815.72C692.126 3821.96 692.971 3827.28 694.66 3831.69C696.395 3836.1 698.952 3839.48 702.33 3841.83C705.755 3844.12 710.024 3845.27 715.138 3845.27C719.219 3845.27 722.902 3844.85 726.186 3844.01C729.47 3843.12 732.449 3842.08 735.123 3840.91V3851.33C732.543 3852.64 729.658 3853.65 726.468 3854.35C723.324 3855.06 719.571 3855.41 715.208 3855.41ZM782.272 3775.61C791.467 3775.61 798.293 3777.67 802.75 3781.8C807.207 3785.93 809.435 3792.52 809.435 3801.57V3854H800.921L798.669 3842.6H798.106C795.948 3845.41 793.696 3847.78 791.35 3849.71C789.004 3851.58 786.283 3853.01 783.187 3854C780.137 3854.94 776.384 3855.41 771.927 3855.41C767.236 3855.41 763.061 3854.59 759.401 3852.94C755.789 3851.3 752.927 3848.82 750.816 3845.49C748.752 3842.15 747.72 3837.93 747.72 3832.82C747.72 3825.12 750.769 3819.21 756.868 3815.08C762.967 3810.96 772.256 3808.7 784.735 3808.33L798.035 3807.77V3803.05C798.035 3796.39 796.604 3791.72 793.743 3789.05C790.881 3786.37 786.846 3785.04 781.639 3785.04C777.604 3785.04 773.757 3785.62 770.098 3786.8C766.439 3787.97 762.967 3789.35 759.683 3790.95L756.094 3782.08C759.566 3780.3 763.553 3778.77 768.057 3777.51C772.561 3776.24 777.299 3775.61 782.272 3775.61ZM797.895 3816L786.143 3816.49C776.525 3816.87 769.746 3818.44 765.805 3821.21C761.864 3823.97 759.894 3827.89 759.894 3832.96C759.894 3837.37 761.231 3840.63 763.905 3842.74C766.579 3844.85 770.121 3845.91 774.531 3845.91C781.381 3845.91 786.987 3844.01 791.35 3840.21C795.713 3836.41 797.895 3830.71 797.895 3823.11V3816ZM869.744 3775.47C879.361 3775.47 887.032 3778.77 892.755 3785.39C898.479 3792 901.341 3801.95 901.341 3815.23C901.341 3824 900.027 3831.36 897.4 3837.32C894.773 3843.28 891.066 3847.78 886.281 3850.83C881.543 3853.88 875.937 3855.41 869.462 3855.41C865.381 3855.41 861.792 3854.87 858.696 3853.79C855.599 3852.71 852.949 3851.26 850.744 3849.43C848.539 3847.6 846.709 3845.6 845.255 3843.44H844.41C844.551 3845.27 844.715 3847.48 844.903 3850.06C845.137 3852.64 845.255 3854.89 845.255 3856.81V3888.48H833.503V3776.87H843.143L844.692 3788.27H845.255C846.756 3785.93 848.585 3783.79 850.744 3781.87C852.902 3779.9 855.529 3778.35 858.625 3777.22C861.768 3776.05 865.475 3775.47 869.744 3775.47ZM867.703 3785.32C862.355 3785.32 858.039 3786.35 854.755 3788.41C851.518 3790.48 849.148 3793.57 847.647 3797.7C846.146 3801.78 845.348 3806.92 845.255 3813.11V3815.37C845.255 3821.89 845.958 3827.4 847.366 3831.9C848.82 3836.41 851.189 3839.83 854.473 3842.18C857.804 3844.52 862.261 3845.7 867.844 3845.7C872.629 3845.7 876.617 3844.41 879.807 3841.83C882.997 3839.25 885.366 3835.66 886.914 3831.06C888.51 3826.41 889.307 3821.09 889.307 3815.08C889.307 3805.98 887.524 3798.76 883.959 3793.41C880.44 3788.02 875.022 3785.32 867.703 3785.32ZM971.642 3832.89C971.642 3837.81 970.399 3841.97 967.912 3845.34C965.472 3848.68 961.954 3851.19 957.356 3852.87C952.806 3854.56 947.364 3855.41 941.03 3855.41C935.635 3855.41 930.967 3854.99 927.026 3854.14C923.085 3853.3 919.637 3852.1 916.682 3850.55V3839.78C919.825 3841.33 923.578 3842.74 927.941 3844.01C932.304 3845.27 936.761 3845.91 941.312 3845.91C947.973 3845.91 952.806 3844.83 955.808 3842.67C958.811 3840.51 960.312 3837.58 960.312 3833.87C960.312 3831.76 959.702 3829.91 958.482 3828.31C957.309 3826.67 955.316 3825.1 952.501 3823.6C949.686 3822.05 945.792 3820.36 940.819 3818.53C935.893 3816.66 931.624 3814.8 928.011 3812.97C924.446 3811.1 921.678 3808.82 919.708 3806.15C917.784 3803.47 916.822 3800 916.822 3795.73C916.822 3789.21 919.45 3784.21 924.704 3780.74C930.005 3777.22 936.949 3775.47 945.534 3775.47C950.178 3775.47 954.518 3775.93 958.553 3776.87C962.634 3777.76 966.434 3778.98 969.953 3780.53L966.012 3789.89C962.822 3788.53 959.421 3787.38 955.808 3786.44C952.196 3785.51 948.513 3785.04 944.76 3785.04C939.365 3785.04 935.213 3785.93 932.304 3787.71C929.442 3789.49 928.011 3791.93 928.011 3795.03C928.011 3797.42 928.668 3799.39 929.982 3800.94C931.342 3802.49 933.5 3803.94 936.456 3805.3C939.412 3806.66 943.305 3808.26 948.138 3810.09C952.97 3811.87 957.145 3813.72 960.664 3815.65C964.182 3817.52 966.88 3819.82 968.756 3822.54C970.68 3825.22 971.642 3828.67 971.642 3832.89ZM1015.34 3845.84C1017.27 3845.84 1019.24 3845.67 1021.25 3845.34C1023.27 3845.02 1024.91 3844.62 1026.18 3844.15V3853.23C1024.82 3853.84 1022.92 3854.35 1020.48 3854.77C1018.09 3855.2 1015.74 3855.41 1013.44 3855.41C1009.36 3855.41 1005.65 3854.7 1002.32 3853.3C998.993 3851.84 996.319 3849.4 994.301 3845.98C992.331 3842.55 991.346 3837.81 991.346 3831.76V3786.02H980.368V3780.32L991.416 3775.75L996.061 3759H1003.1V3776.87H1025.69V3786.02H1003.1V3831.41C1003.1 3836.24 1004.2 3839.86 1006.41 3842.25C1008.66 3844.64 1011.64 3845.84 1015.34 3845.84ZM1108.3 3815.3C1108.3 3821.63 1107.48 3827.28 1105.84 3832.26C1104.2 3837.23 1101.83 3841.43 1098.73 3844.85C1095.64 3848.28 1091.88 3850.9 1087.47 3852.73C1083.11 3854.52 1078.16 3855.41 1072.62 3855.41C1067.46 3855.41 1062.73 3854.52 1058.41 3852.73C1054.14 3850.9 1050.43 3848.28 1047.29 3844.85C1044.19 3841.43 1041.78 3837.23 1040.04 3832.26C1038.35 3827.28 1037.51 3821.63 1037.51 3815.3C1037.51 3806.85 1038.94 3799.67 1041.8 3793.76C1044.66 3787.8 1048.75 3783.28 1054.05 3780.18C1059.39 3777.04 1065.75 3775.47 1073.12 3775.47C1080.15 3775.47 1086.3 3777.04 1091.55 3780.18C1096.86 3783.32 1100.96 3787.87 1103.87 3793.83C1106.83 3799.74 1108.3 3806.9 1108.3 3815.3ZM1049.61 3815.3C1049.61 3821.49 1050.43 3826.86 1052.08 3831.41C1053.72 3835.96 1056.25 3839.48 1059.68 3841.97C1063.1 3844.45 1067.51 3845.7 1072.91 3845.7C1078.25 3845.7 1082.64 3844.45 1086.07 3841.97C1089.54 3839.48 1092.09 3835.96 1093.74 3831.41C1095.38 3826.86 1096.2 3821.49 1096.2 3815.3C1096.2 3809.15 1095.38 3803.85 1093.74 3799.39C1092.09 3794.89 1089.56 3791.42 1086.14 3788.98C1082.71 3786.54 1078.28 3785.32 1072.84 3785.32C1064.81 3785.32 1058.93 3787.97 1055.17 3793.27C1051.47 3798.57 1049.61 3805.91 1049.61 3815.3ZM1165.02 3775.47C1174.17 3775.47 1181.09 3777.72 1185.78 3782.22C1190.47 3786.68 1192.82 3793.86 1192.82 3803.75V3854H1181.28V3804.53C1181.28 3798.1 1179.8 3793.29 1176.84 3790.1C1173.94 3786.91 1169.46 3785.32 1163.4 3785.32C1154.87 3785.32 1148.86 3787.73 1145.39 3792.57C1141.92 3797.4 1140.18 3804.41 1140.18 3813.61V3854H1128.5V3776.87H1137.93L1139.69 3787.99H1140.32C1141.96 3785.27 1144.05 3783 1146.59 3781.17C1149.12 3779.29 1151.96 3777.88 1155.1 3776.94C1158.24 3775.96 1161.55 3775.47 1165.02 3775.47ZM1246.58 3775.47C1253.15 3775.47 1258.78 3776.92 1263.47 3779.83C1268.16 3782.74 1271.75 3786.82 1274.24 3792.07C1276.73 3797.28 1277.97 3803.38 1277.97 3810.37V3817.62H1224.7C1224.84 3826.67 1227.09 3833.57 1231.45 3838.31C1235.82 3843.05 1241.96 3845.41 1249.89 3845.41C1254.77 3845.41 1259.09 3844.97 1262.84 3844.08C1266.59 3843.19 1270.49 3841.87 1274.52 3840.14V3850.41C1270.63 3852.15 1266.76 3853.41 1262.91 3854.21C1259.11 3855.01 1254.61 3855.41 1249.4 3855.41C1241.99 3855.41 1235.51 3853.91 1229.98 3850.9C1224.49 3847.85 1220.22 3843.4 1217.17 3837.53C1214.12 3831.67 1212.59 3824.49 1212.59 3816C1212.59 3807.7 1213.98 3800.52 1216.75 3794.47C1219.56 3788.37 1223.5 3783.68 1228.57 3780.39C1233.68 3777.11 1239.69 3775.47 1246.58 3775.47ZM1246.44 3785.04C1240.2 3785.04 1235.23 3787.08 1231.52 3791.16C1227.82 3795.24 1225.61 3800.94 1224.91 3808.26H1265.72C1265.68 3803.66 1264.95 3799.63 1263.54 3796.15C1262.18 3792.64 1260.09 3789.92 1257.28 3787.99C1254.46 3786.02 1250.85 3785.04 1246.44 3785.04ZM720.556 3971.47C730.174 3971.47 737.844 3974.77 743.568 3981.39C749.291 3988 752.153 3997.95 752.153 4011.23C752.153 4020 750.84 4027.36 748.212 4033.32C745.585 4039.28 741.879 4043.78 737.094 4046.83C732.355 4049.88 726.749 4051.41 720.275 4051.41C716.193 4051.41 712.604 4050.87 709.508 4049.79C706.412 4048.71 703.761 4047.26 701.556 4045.43C699.351 4043.6 697.521 4041.6 696.067 4039.44H695.223C695.363 4041.27 695.528 4043.48 695.715 4046.06C695.95 4048.64 696.067 4050.89 696.067 4052.81V4084.48H684.315V3972.87H693.956L695.504 3984.27H696.067C697.568 3981.93 699.398 3979.79 701.556 3977.87C703.714 3975.9 706.341 3974.35 709.438 3973.22C712.581 3972.05 716.287 3971.47 720.556 3971.47ZM718.516 3981.32C713.167 3981.32 708.851 3982.35 705.567 3984.41C702.33 3986.48 699.961 3989.57 698.46 3993.7C696.958 3997.78 696.161 4002.92 696.067 4009.11V4011.37C696.067 4017.89 696.771 4023.4 698.178 4027.9C699.633 4032.41 702.002 4035.83 705.286 4038.18C708.617 4040.52 713.073 4041.7 718.656 4041.7C723.442 4041.7 727.429 4040.41 730.619 4037.83C733.81 4035.25 736.179 4031.66 737.727 4027.06C739.322 4022.41 740.12 4017.09 740.12 4011.08C740.12 4001.98 738.337 3994.76 734.771 3989.41C731.253 3984.02 725.834 3981.32 718.516 3981.32ZM807.606 3971.47C809.154 3971.47 810.773 3971.56 812.461 3971.75C814.15 3971.89 815.652 3972.1 816.965 3972.38L815.487 3983.22C814.221 3982.89 812.813 3982.63 811.265 3982.44C809.717 3982.26 808.263 3982.16 806.902 3982.16C803.806 3982.16 800.874 3982.8 798.106 3984.06C795.385 3985.28 792.992 3987.06 790.928 3989.41C788.864 3991.71 787.245 3994.5 786.072 3997.78C784.899 4001.02 784.313 4004.63 784.313 4008.62V4050H772.561V3972.87H782.272L783.539 3987.09H784.031C785.626 3984.23 787.55 3981.62 789.802 3979.28C792.054 3976.88 794.657 3974.98 797.613 3973.58C800.616 3972.17 803.947 3971.47 807.606 3971.47ZM898.033 4011.3C898.033 4017.63 897.212 4023.28 895.57 4028.26C893.928 4033.23 891.559 4037.43 888.463 4040.85C885.366 4044.28 881.613 4046.9 877.203 4048.73C872.84 4050.52 867.891 4051.41 862.355 4051.41C857.194 4051.41 852.456 4050.52 848.14 4048.73C843.871 4046.9 840.164 4044.28 837.021 4040.85C833.925 4037.43 831.509 4033.23 829.773 4028.26C828.084 4023.28 827.239 4017.63 827.239 4011.3C827.239 4002.85 828.67 3995.67 831.532 3989.76C834.394 3983.8 838.475 3979.28 843.777 3976.18C849.125 3973.04 855.482 3971.47 862.847 3971.47C869.885 3971.47 876.03 3973.04 881.285 3976.18C886.586 3979.32 890.691 3983.87 893.6 3989.83C896.555 3995.74 898.033 4002.9 898.033 4011.3ZM839.343 4011.3C839.343 4017.49 840.164 4022.86 841.806 4027.41C843.448 4031.96 845.982 4035.48 849.406 4037.97C852.831 4040.45 857.241 4041.7 862.636 4041.7C867.985 4041.7 872.371 4040.45 875.796 4037.97C879.267 4035.48 881.824 4031.96 883.466 4027.41C885.108 4022.86 885.929 4017.49 885.929 4011.3C885.929 4005.15 885.108 3999.85 883.466 3995.39C881.824 3990.89 879.291 3987.42 875.866 3984.98C872.441 3982.54 868.008 3981.32 862.566 3981.32C854.544 3981.32 848.656 3983.97 844.903 3989.27C841.196 3994.57 839.343 4001.91 839.343 4011.3ZM908.941 4084.62C906.548 4084.62 904.46 4084.44 902.678 4084.06C900.895 4083.73 899.347 4083.33 898.033 4082.86V4073.36C899.488 4073.83 900.965 4074.18 902.467 4074.42C903.968 4074.7 905.657 4074.84 907.533 4074.84C910.723 4074.84 913.304 4073.95 915.274 4072.17C917.245 4070.38 918.23 4067.15 918.23 4062.46V3972.87H929.911V4062.17C929.911 4066.87 929.161 4070.88 927.66 4074.21C926.158 4077.59 923.86 4080.17 920.763 4081.95C917.667 4083.73 913.726 4084.62 908.941 4084.62ZM917.174 3951.69C917.174 3949.06 917.831 3947.14 919.145 3945.92C920.505 3944.65 922.194 3944.02 924.211 3944.02C926.135 3944.02 927.777 3944.65 929.137 3945.92C930.545 3947.14 931.249 3949.06 931.249 3951.69C931.249 3954.27 930.545 3956.19 929.137 3957.46C927.777 3958.73 926.135 3959.36 924.211 3959.36C922.194 3959.36 920.505 3958.73 919.145 3957.46C917.831 3956.19 917.174 3954.27 917.174 3951.69ZM984.379 3971.47C990.947 3971.47 996.577 3972.92 1001.27 3975.83C1005.96 3978.74 1009.55 3982.82 1012.03 3988.07C1014.52 3993.28 1015.76 3999.38 1015.76 4006.37V4013.62H962.493C962.634 4022.67 964.886 4029.57 969.249 4034.31C973.612 4039.05 979.758 4041.41 987.686 4041.41C992.566 4041.41 996.882 4040.97 1000.63 4040.08C1004.39 4039.19 1008.28 4037.87 1012.32 4036.14V4046.41C1008.42 4048.15 1004.55 4049.41 1000.71 4050.21C996.905 4051.01 992.401 4051.41 987.194 4051.41C979.781 4051.41 973.307 4049.91 967.771 4046.9C962.282 4043.85 958.013 4039.4 954.964 4033.53C951.914 4027.67 950.39 4020.49 950.39 4012C950.39 4003.7 951.774 3996.52 954.541 3990.47C957.356 3984.37 961.297 3979.68 966.364 3976.39C971.478 3973.11 977.483 3971.47 984.379 3971.47ZM984.238 3981.04C977.999 3981.04 973.026 3983.08 969.319 3987.16C965.613 3991.24 963.408 3996.94 962.705 4004.26H1003.52C1003.47 3999.66 1002.75 3995.63 1001.34 3992.15C999.978 3988.64 997.89 3985.92 995.075 3983.99C992.261 3982.02 988.648 3981.04 984.238 3981.04ZM1066.5 4051.41C1059.56 4051.41 1053.44 4049.98 1048.14 4047.11C1042.83 4044.25 1038.71 4039.89 1035.75 4034.03C1032.79 4028.16 1031.32 4020.77 1031.32 4011.86C1031.32 4002.52 1032.86 3994.9 1035.96 3988.99C1039.1 3983.03 1043.42 3978.62 1048.91 3975.76C1054.4 3972.9 1060.64 3971.47 1067.63 3971.47C1071.48 3971.47 1075.18 3971.86 1078.75 3972.66C1082.36 3973.41 1085.32 3974.37 1087.61 3975.55L1084.1 3985.33C1081.75 3984.39 1079.03 3983.55 1075.93 3982.8C1072.88 3982.04 1070.02 3981.67 1067.35 3981.67C1062 3981.67 1057.54 3982.82 1053.98 3985.12C1050.46 3987.42 1047.81 3990.79 1046.02 3995.25C1044.29 3999.71 1043.42 4005.2 1043.42 4011.72C1043.42 4017.96 1044.27 4023.28 1045.95 4027.69C1047.69 4032.1 1050.25 4035.48 1053.62 4037.83C1057.05 4040.12 1061.32 4041.27 1066.43 4041.27C1070.51 4041.27 1074.2 4040.85 1077.48 4040.01C1080.76 4039.12 1083.74 4038.08 1086.42 4036.91V4047.33C1083.84 4048.64 1080.95 4049.65 1077.76 4050.35C1074.62 4051.06 1070.87 4051.41 1066.5 4051.41ZM1129.63 4041.84C1131.55 4041.84 1133.52 4041.67 1135.54 4041.34C1137.55 4041.02 1139.2 4040.62 1140.46 4040.15V4049.23C1139.1 4049.84 1137.2 4050.35 1134.76 4050.77C1132.37 4051.2 1130.02 4051.41 1127.73 4051.41C1123.64 4051.41 1119.94 4050.7 1116.61 4049.3C1113.28 4047.84 1110.6 4045.4 1108.58 4041.98C1106.61 4038.55 1105.63 4033.81 1105.63 4027.76V3982.02H1094.65V3976.32L1105.7 3971.75L1110.34 3955H1117.38V3972.87H1139.97V3982.02H1117.38V4027.41C1117.38 4032.24 1118.48 4035.86 1120.69 4038.25C1122.94 4040.64 1125.92 4041.84 1129.63 4041.84ZM1154.33 4042.68C1154.33 4039.4 1155.12 4037.08 1156.72 4035.71C1158.31 4034.31 1160.26 4033.6 1162.56 4033.6C1164.95 4033.6 1166.97 4034.31 1168.61 4035.71C1170.25 4037.08 1171.07 4039.4 1171.07 4042.68C1171.07 4045.92 1170.25 4048.29 1168.61 4049.79C1166.97 4051.24 1164.95 4051.97 1162.56 4051.97C1160.26 4051.97 1158.31 4051.24 1156.72 4049.79C1155.12 4048.29 1154.33 4045.92 1154.33 4042.68Z" fill="white"/>
<path d="M842.095 1384.67V1507.82C842.095 1521.28 839.361 1533.25 833.893 1543.76C828.512 1554.26 820.353 1562.55 809.418 1568.62C798.482 1574.61 784.769 1577.6 768.278 1577.6C744.758 1577.6 726.835 1571.22 714.511 1558.47C702.274 1545.71 696.155 1528.65 696.155 1507.3V1384.67H718.417V1507.95C718.417 1524.1 722.67 1536.55 731.175 1545.32C739.767 1554.08 752.569 1558.47 769.58 1558.47C781.21 1558.47 790.714 1556.38 798.091 1552.22C805.555 1547.96 811.067 1542.06 814.625 1534.51C818.27 1526.87 820.093 1518.06 820.093 1508.08V1384.67H842.095ZM956.399 1429.71C974.191 1429.71 988.382 1435.83 998.97 1448.07C1009.56 1460.31 1014.85 1478.7 1014.85 1503.27C1014.85 1519.5 1012.42 1533.12 1007.56 1544.15C1002.7 1555.17 995.846 1563.5 986.993 1569.14C978.227 1574.78 967.855 1577.6 955.878 1577.6C948.327 1577.6 941.688 1576.61 935.96 1574.61C930.231 1572.61 925.328 1569.92 921.248 1566.54C917.169 1563.15 913.784 1559.46 911.094 1555.47H909.532C909.792 1558.86 910.096 1562.94 910.443 1567.71C910.877 1572.48 911.094 1576.65 911.094 1580.21V1638.79H889.353V1432.31H907.188L910.052 1453.41H911.094C913.871 1449.07 917.256 1445.12 921.248 1441.56C925.241 1437.91 930.101 1435.05 935.829 1432.97C941.644 1430.8 948.501 1429.71 956.399 1429.71ZM952.624 1447.94C942.729 1447.94 934.745 1449.85 928.669 1453.67C922.68 1457.48 918.298 1463.21 915.52 1470.85C912.743 1478.4 911.267 1487.9 911.094 1499.36V1503.53C911.094 1515.59 912.396 1525.79 914.999 1534.12C917.69 1542.45 922.073 1548.79 928.148 1553.13C934.311 1557.47 942.556 1559.64 952.884 1559.64C961.737 1559.64 969.114 1557.25 975.016 1552.48C980.918 1547.7 985.301 1541.06 988.165 1532.56C991.116 1523.97 992.591 1514.12 992.591 1503.01C992.591 1486.17 989.293 1472.8 982.697 1462.91C976.187 1452.93 966.163 1447.94 952.624 1447.94ZM1074.35 1575H1052.61V1372.43H1074.35V1575ZM1243.07 1503.4C1243.07 1515.11 1241.55 1525.57 1238.51 1534.77C1235.48 1543.97 1231.09 1551.74 1225.37 1558.08C1219.64 1564.41 1212.69 1569.27 1204.54 1572.66C1196.46 1575.95 1187.31 1577.6 1177.07 1577.6C1167.52 1577.6 1158.75 1575.95 1150.77 1572.66C1142.87 1569.27 1136.01 1564.41 1130.2 1558.08C1124.47 1551.74 1120 1543.97 1116.79 1534.77C1113.67 1525.57 1112.1 1515.11 1112.1 1503.4C1112.1 1487.77 1114.75 1474.5 1120.04 1463.56C1125.34 1452.54 1132.89 1444.16 1142.7 1438.43C1152.59 1432.62 1164.35 1429.71 1177.98 1429.71C1191 1429.71 1202.37 1432.62 1212.09 1438.43C1221.89 1444.25 1229.49 1452.67 1234.87 1463.69C1240.34 1474.63 1243.07 1487.86 1243.07 1503.4ZM1134.5 1503.4C1134.5 1514.85 1136.01 1524.79 1139.05 1533.21C1142.09 1541.63 1146.78 1548.14 1153.11 1552.74C1159.45 1557.34 1167.61 1559.64 1177.59 1559.64C1187.48 1559.64 1195.6 1557.34 1201.93 1552.74C1208.35 1548.14 1213.08 1541.63 1216.12 1533.21C1219.16 1524.79 1220.68 1514.85 1220.68 1503.4C1220.68 1492.03 1219.16 1482.22 1216.12 1473.97C1213.08 1465.64 1208.4 1459.22 1202.06 1454.71C1195.73 1450.19 1187.52 1447.94 1177.46 1447.94C1162.62 1447.94 1151.72 1452.84 1144.78 1462.65C1137.92 1472.46 1134.5 1486.04 1134.5 1503.4ZM1333.81 1429.97C1350.82 1429.97 1363.45 1433.79 1371.7 1441.43C1379.94 1449.07 1384.06 1461.26 1384.06 1478.01V1575H1368.31L1364.15 1553.91H1363.1C1359.11 1559.12 1354.95 1563.5 1350.61 1567.06C1346.27 1570.53 1341.23 1573.18 1335.5 1575C1329.86 1576.74 1322.92 1577.6 1314.67 1577.6C1306 1577.6 1298.27 1576.08 1291.5 1573.05C1284.82 1570.01 1279.52 1565.41 1275.62 1559.25C1271.8 1553.09 1269.89 1545.27 1269.89 1535.81C1269.89 1521.58 1275.53 1510.64 1286.81 1503.01C1298.1 1495.37 1315.28 1491.2 1338.37 1490.51L1362.97 1489.47V1480.74C1362.97 1468.42 1360.33 1459.78 1355.03 1454.84C1349.74 1449.89 1342.27 1447.42 1332.64 1447.42C1325.18 1447.42 1318.06 1448.5 1311.29 1450.67C1304.52 1452.84 1298.1 1455.4 1292.02 1458.35L1285.38 1441.95C1291.8 1438.65 1299.18 1435.83 1307.51 1433.49C1315.85 1431.14 1324.61 1429.97 1333.81 1429.97ZM1362.71 1504.7L1340.97 1505.61C1323.18 1506.3 1310.64 1509.21 1303.35 1514.33C1296.06 1519.45 1292.41 1526.7 1292.41 1536.07C1292.41 1544.23 1294.89 1550.26 1299.83 1554.17C1304.78 1558.08 1311.33 1560.03 1319.49 1560.03C1332.16 1560.03 1342.53 1556.51 1350.61 1549.48C1358.68 1542.45 1362.71 1531.91 1362.71 1517.85V1504.7ZM1479.36 1577.6C1461.31 1577.6 1446.99 1571.44 1436.4 1559.12C1425.9 1546.79 1420.65 1528.48 1420.65 1504.18C1420.65 1479.62 1426.03 1461.09 1436.79 1448.59C1447.55 1436 1461.87 1429.71 1479.75 1429.71C1487.3 1429.71 1493.9 1430.71 1499.54 1432.71C1505.18 1434.7 1510.04 1437.39 1514.12 1440.78C1518.2 1444.08 1521.63 1447.85 1524.41 1452.1H1525.97C1525.62 1449.41 1525.27 1445.72 1524.93 1441.04C1524.58 1436.35 1524.41 1432.53 1524.41 1429.58V1372.43H1546.02V1575H1528.57L1525.32 1554.69H1524.41C1521.72 1558.94 1518.29 1562.81 1514.12 1566.28C1510.04 1569.75 1505.14 1572.53 1499.41 1574.61C1493.77 1576.61 1487.09 1577.6 1479.36 1577.6ZM1482.75 1559.64C1498.02 1559.64 1508.83 1555.3 1515.16 1546.62C1521.5 1537.94 1524.67 1525.05 1524.67 1507.95V1504.05C1524.67 1485.91 1521.63 1471.98 1515.55 1462.26C1509.56 1452.54 1498.63 1447.68 1482.75 1447.68C1469.47 1447.68 1459.53 1452.8 1452.93 1463.04C1446.34 1473.19 1443.04 1487.08 1443.04 1504.7C1443.04 1522.23 1446.29 1535.77 1452.8 1545.32C1459.4 1554.86 1469.38 1559.64 1482.75 1559.64ZM1588.59 1561.46C1588.59 1555.39 1590.06 1551.09 1593.01 1548.57C1595.97 1545.97 1599.57 1544.67 1603.82 1544.67C1608.25 1544.67 1611.98 1545.97 1615.02 1548.57C1618.05 1551.09 1619.57 1555.39 1619.57 1561.46C1619.57 1567.45 1618.05 1571.83 1615.02 1574.61C1611.98 1577.3 1608.25 1578.65 1603.82 1578.65C1599.57 1578.65 1595.97 1577.3 1593.01 1574.61C1590.06 1571.83 1588.59 1567.45 1588.59 1561.46ZM779.475 1764.46C768.973 1764.46 759.512 1766.28 751.094 1769.93C742.762 1773.49 735.645 1778.69 729.743 1785.55C723.928 1792.32 719.458 1800.52 716.334 1810.16C713.209 1819.79 711.647 1830.64 711.647 1842.7C711.647 1858.67 714.121 1872.56 719.068 1884.36C724.102 1896.08 731.566 1905.15 741.46 1911.57C751.441 1917.99 763.895 1921.21 778.824 1921.21C787.329 1921.21 795.314 1920.51 802.778 1919.12C810.329 1917.65 817.663 1915.82 824.78 1913.65V1932.92C817.836 1935.53 810.546 1937.44 802.908 1938.65C795.271 1939.95 786.201 1940.6 775.699 1940.6C756.345 1940.6 740.158 1936.61 727.139 1928.63C714.207 1920.55 704.487 1909.19 697.977 1894.52C691.555 1879.85 688.343 1862.53 688.343 1842.57C688.343 1828.17 690.34 1815.02 694.332 1803.13C698.411 1791.15 704.313 1780.82 712.038 1772.14C719.849 1763.46 729.396 1756.78 740.679 1752.09C752.048 1747.32 765.067 1744.93 779.735 1744.93C789.369 1744.93 798.655 1745.89 807.595 1747.8C816.534 1749.71 824.606 1752.44 831.81 1756L822.957 1774.75C816.882 1771.97 810.199 1769.58 802.908 1767.58C795.705 1765.5 787.893 1764.46 779.475 1764.46ZM985.821 1866.4C985.821 1878.11 984.302 1888.57 981.265 1897.77C978.227 1906.97 973.844 1914.74 968.116 1921.08C962.388 1927.41 955.444 1932.27 947.286 1935.66C939.214 1938.95 930.058 1940.6 919.816 1940.6C910.269 1940.6 901.503 1938.95 893.519 1935.66C885.621 1932.27 878.764 1927.41 872.949 1921.08C867.221 1914.74 862.751 1906.97 859.54 1897.77C856.415 1888.57 854.853 1878.11 854.853 1866.4C854.853 1850.77 857.5 1837.5 862.794 1826.56C868.089 1815.54 875.64 1807.16 885.447 1801.43C895.341 1795.62 907.101 1792.71 920.728 1792.71C933.746 1792.71 945.116 1795.62 954.837 1801.43C964.644 1807.25 972.238 1815.67 977.619 1826.69C983.087 1837.63 985.821 1850.86 985.821 1866.4ZM877.245 1866.4C877.245 1877.85 878.764 1887.79 881.802 1896.21C884.839 1904.63 889.526 1911.14 895.862 1915.74C902.198 1920.34 910.356 1922.64 920.337 1922.64C930.231 1922.64 938.346 1920.34 944.682 1915.74C951.105 1911.14 955.835 1904.63 958.873 1896.21C961.91 1887.79 963.429 1877.85 963.429 1866.4C963.429 1855.03 961.91 1845.22 958.873 1836.97C955.835 1828.64 951.148 1822.22 944.812 1817.71C938.477 1813.19 930.275 1810.94 920.207 1810.94C905.366 1810.94 894.473 1815.84 887.53 1825.65C880.673 1835.46 877.245 1849.04 877.245 1866.4ZM1090.75 1792.71C1107.68 1792.71 1120.48 1796.88 1129.16 1805.21C1137.84 1813.45 1142.18 1826.73 1142.18 1845.05V1938H1120.83V1846.48C1120.83 1834.59 1118.09 1825.69 1112.62 1819.79C1107.24 1813.89 1098.95 1810.94 1087.76 1810.94C1071.96 1810.94 1060.85 1815.41 1054.43 1824.35C1048.01 1833.29 1044.8 1846.26 1044.8 1863.27V1938H1023.19V1795.31H1040.63L1043.88 1815.88H1045.06C1048.09 1810.85 1051.96 1806.64 1056.64 1803.26C1061.33 1799.78 1066.58 1797.18 1072.4 1795.44C1078.21 1793.62 1084.33 1792.71 1090.75 1792.71ZM1254.27 1792.71C1271.19 1792.71 1283.99 1796.88 1292.67 1805.21C1301.35 1813.45 1305.69 1826.73 1305.69 1845.05V1938H1284.34V1846.48C1284.34 1834.59 1281.61 1825.69 1276.14 1819.79C1270.76 1813.89 1262.47 1810.94 1251.27 1810.94C1235.48 1810.94 1224.37 1815.41 1217.95 1824.35C1211.52 1833.29 1208.31 1846.26 1208.31 1863.27V1938H1186.7V1795.31H1204.15L1207.4 1815.88H1208.57C1211.61 1810.85 1215.47 1806.64 1220.16 1803.26C1224.85 1799.78 1230.1 1797.18 1235.91 1795.44C1241.73 1793.62 1247.84 1792.71 1254.27 1792.71ZM1405.15 1792.71C1417.31 1792.71 1427.72 1795.4 1436.4 1800.78C1445.08 1806.16 1451.72 1813.71 1456.32 1823.44C1460.92 1833.07 1463.22 1844.35 1463.22 1857.28V1870.69H1364.67C1364.93 1887.44 1369.09 1900.2 1377.16 1908.97C1385.24 1917.73 1396.61 1922.12 1411.27 1922.12C1420.3 1922.12 1428.28 1921.29 1435.23 1919.64C1442.17 1917.99 1449.37 1915.56 1456.84 1912.35V1931.36C1449.63 1934.57 1442.47 1936.92 1435.36 1938.39C1428.33 1939.87 1420 1940.6 1410.36 1940.6C1396.65 1940.6 1384.67 1937.83 1374.43 1932.27C1364.28 1926.63 1356.38 1918.39 1350.74 1907.54C1345.09 1896.69 1342.27 1883.41 1342.27 1867.7C1342.27 1852.34 1344.83 1839.06 1349.95 1827.86C1355.16 1816.58 1362.45 1807.9 1371.83 1801.82C1381.29 1795.75 1392.4 1792.71 1405.15 1792.71ZM1404.89 1810.42C1393.35 1810.42 1384.15 1814.19 1377.29 1821.74C1370.44 1829.29 1366.36 1839.84 1365.06 1853.38H1440.57C1440.48 1844.87 1439.13 1837.41 1436.53 1830.99C1434.01 1824.48 1430.15 1819.44 1424.94 1815.88C1419.74 1812.24 1413.05 1810.42 1404.89 1810.42ZM1557.08 1940.6C1544.24 1940.6 1532.91 1937.96 1523.1 1932.66C1513.3 1927.37 1505.66 1919.3 1500.19 1908.45C1494.72 1897.6 1491.99 1883.93 1491.99 1867.44C1491.99 1850.17 1494.85 1836.06 1500.58 1825.13C1506.4 1814.11 1514.38 1805.95 1524.54 1800.65C1534.69 1795.36 1546.23 1792.71 1559.17 1792.71C1566.28 1792.71 1573.14 1793.45 1579.74 1794.92C1586.42 1796.31 1591.89 1798.09 1596.14 1800.26L1589.63 1818.36C1585.29 1816.62 1580.26 1815.06 1574.53 1813.67C1568.89 1812.28 1563.59 1811.59 1558.65 1811.59C1548.75 1811.59 1540.51 1813.71 1533.91 1817.97C1527.4 1822.22 1522.5 1828.47 1519.2 1836.71C1515.99 1844.96 1514.38 1855.11 1514.38 1867.18C1514.38 1878.72 1515.94 1888.57 1519.07 1896.73C1522.28 1904.89 1527.01 1911.14 1533.26 1915.48C1539.59 1919.73 1547.49 1921.86 1556.95 1921.86C1564.5 1921.86 1571.32 1921.08 1577.39 1919.51C1583.47 1917.86 1588.98 1915.95 1593.93 1913.79V1933.05C1589.15 1935.48 1583.81 1937.35 1577.91 1938.65C1572.1 1939.95 1565.15 1940.6 1557.08 1940.6ZM1673.86 1922.9C1677.42 1922.9 1681.06 1922.59 1684.8 1921.99C1688.53 1921.38 1691.57 1920.64 1693.91 1919.77V1936.57C1691.39 1937.7 1687.88 1938.65 1683.36 1939.43C1678.94 1940.21 1674.6 1940.6 1670.35 1940.6C1662.79 1940.6 1655.94 1939.3 1649.78 1936.7C1643.61 1934.01 1638.67 1929.49 1634.93 1923.16C1631.29 1916.82 1629.47 1908.06 1629.47 1896.86V1812.24H1609.16V1801.69L1629.6 1793.23L1638.19 1762.25H1651.21V1795.31H1693V1812.24H1651.21V1896.21C1651.21 1905.15 1653.25 1911.83 1657.33 1916.26C1661.49 1920.69 1667 1922.9 1673.86 1922.9ZM1719.56 1924.46C1719.56 1918.39 1721.03 1914.09 1723.98 1911.57C1726.93 1908.97 1730.54 1907.67 1734.79 1907.67C1739.21 1907.67 1742.95 1908.97 1745.98 1911.57C1749.02 1914.09 1750.54 1918.39 1750.54 1924.46C1750.54 1930.45 1749.02 1934.83 1745.98 1937.61C1742.95 1940.3 1739.21 1941.65 1734.79 1941.65C1730.54 1941.65 1726.93 1940.3 1723.98 1937.61C1721.03 1934.83 1719.56 1930.45 1719.56 1924.46ZM846.912 2301H821.395L717.636 2141.13H716.594C716.854 2145.38 717.158 2150.24 717.505 2155.71C717.853 2161.09 718.113 2166.86 718.287 2173.03C718.547 2179.1 718.677 2185.31 718.677 2191.64V2301H698.108V2110.67H723.494L826.863 2270.02H827.774C827.6 2266.98 827.383 2262.68 827.123 2257.13C826.863 2251.49 826.602 2245.45 826.342 2239.03C826.168 2232.52 826.082 2226.49 826.082 2220.93V2110.67H846.912V2301ZM950.541 2155.71C962.691 2155.71 973.106 2158.4 981.785 2163.78C990.465 2169.16 997.104 2176.71 1001.7 2186.44C1006.3 2196.07 1008.6 2207.35 1008.6 2220.28V2233.69H910.052C910.313 2250.44 914.479 2263.2 922.55 2271.97C930.622 2280.73 941.992 2285.12 956.659 2285.12C965.686 2285.12 973.67 2284.29 980.614 2282.64C987.557 2280.99 994.761 2278.56 1002.22 2275.35V2294.36C995.021 2297.57 987.861 2299.92 980.744 2301.39C973.714 2302.87 965.382 2303.6 955.748 2303.6C942.035 2303.6 930.058 2300.83 919.816 2295.27C909.662 2289.63 901.764 2281.39 896.122 2270.54C890.481 2259.69 887.66 2246.41 887.66 2230.7C887.66 2215.34 890.22 2202.06 895.341 2190.86C900.549 2179.58 907.839 2170.9 917.213 2164.82C926.673 2158.75 937.782 2155.71 950.541 2155.71ZM950.28 2173.42C938.737 2173.42 929.537 2177.19 922.68 2184.74C915.824 2192.29 911.745 2202.84 910.443 2216.38H985.951C985.865 2207.87 984.519 2200.41 981.916 2193.99C979.399 2187.48 975.536 2182.44 970.329 2178.88C965.122 2175.24 958.439 2173.42 950.28 2173.42ZM1091.4 2285.9C1094.96 2285.9 1098.61 2285.59 1102.34 2284.99C1106.07 2284.38 1109.11 2283.64 1111.45 2282.77V2299.57C1108.94 2300.7 1105.42 2301.65 1100.91 2302.43C1096.48 2303.21 1092.14 2303.6 1087.89 2303.6C1080.34 2303.6 1073.48 2302.3 1067.32 2299.7C1061.16 2297.01 1056.21 2292.49 1052.48 2286.16C1048.83 2279.82 1047.01 2271.06 1047.01 2259.86V2175.24H1026.7V2164.69L1047.14 2156.23L1055.73 2125.25H1068.75V2158.31H1110.54V2175.24H1068.75V2259.21C1068.75 2268.15 1070.79 2274.83 1074.87 2279.26C1079.04 2283.69 1084.55 2285.9 1091.4 2285.9ZM1256.48 2300.74L1231.09 2217.68C1229.97 2214.12 1228.88 2210.65 1227.84 2207.27C1226.88 2203.79 1225.97 2200.5 1225.11 2197.37C1224.32 2194.16 1223.59 2191.21 1222.89 2188.52C1222.28 2185.74 1221.76 2183.35 1221.33 2181.36H1220.42C1220.07 2183.35 1219.59 2185.74 1218.99 2188.52C1218.38 2191.21 1217.64 2194.16 1216.77 2197.37C1215.99 2200.58 1215.12 2203.97 1214.17 2207.53C1213.21 2211 1212.13 2214.51 1210.92 2218.07L1184.36 2300.74H1160.01L1120.7 2158.05H1143.09L1163.66 2236.82C1165.05 2242.03 1166.35 2247.19 1167.56 2252.31C1168.86 2257.34 1169.95 2262.12 1170.82 2266.63C1171.77 2271.06 1172.47 2274.92 1172.9 2278.22H1173.94C1174.46 2276.05 1175.03 2273.44 1175.63 2270.41C1176.33 2267.37 1177.07 2264.16 1177.85 2260.77C1178.72 2257.3 1179.63 2253.87 1180.58 2250.49C1181.54 2247.02 1182.49 2243.76 1183.45 2240.72L1209.74 2158.05H1233.05L1258.43 2240.59C1259.74 2244.76 1260.99 2249.1 1262.21 2253.61C1263.51 2258.13 1264.68 2262.51 1265.72 2266.76C1266.77 2270.93 1267.5 2274.66 1267.94 2277.96H1268.98C1269.33 2275.01 1269.98 2271.36 1270.93 2267.02C1271.89 2262.68 1272.97 2257.91 1274.19 2252.7C1275.49 2247.49 1276.83 2242.2 1278.22 2236.82L1299.05 2158.05H1321.05L1281.61 2300.74H1256.48ZM1470.12 2229.4C1470.12 2241.11 1468.6 2251.57 1465.56 2260.77C1462.52 2269.97 1458.14 2277.74 1452.41 2284.08C1446.68 2290.41 1439.74 2295.27 1431.58 2298.66C1423.51 2301.95 1414.35 2303.6 1404.11 2303.6C1394.57 2303.6 1385.8 2301.95 1377.82 2298.66C1369.92 2295.27 1363.06 2290.41 1357.25 2284.08C1351.52 2277.74 1347.05 2269.97 1343.84 2260.77C1340.71 2251.57 1339.15 2241.11 1339.15 2229.4C1339.15 2213.77 1341.8 2200.5 1347.09 2189.56C1352.39 2178.54 1359.94 2170.16 1369.74 2164.43C1379.64 2158.62 1391.4 2155.71 1405.02 2155.71C1418.04 2155.71 1429.41 2158.62 1439.13 2164.43C1448.94 2170.25 1456.53 2178.67 1461.92 2189.69C1467.38 2200.63 1470.12 2213.86 1470.12 2229.4ZM1361.54 2229.4C1361.54 2240.85 1363.06 2250.79 1366.1 2259.21C1369.14 2267.63 1373.82 2274.14 1380.16 2278.74C1386.49 2283.34 1394.65 2285.64 1404.63 2285.64C1414.53 2285.64 1422.64 2283.34 1428.98 2278.74C1435.4 2274.14 1440.13 2267.63 1443.17 2259.21C1446.21 2250.79 1447.73 2240.85 1447.73 2229.4C1447.73 2218.03 1446.21 2208.22 1443.17 2199.97C1440.13 2191.64 1435.44 2185.22 1429.11 2180.71C1422.77 2176.19 1414.57 2173.94 1404.5 2173.94C1389.66 2173.94 1378.77 2178.84 1371.83 2188.65C1364.97 2198.46 1361.54 2212.04 1361.54 2229.4ZM1572.31 2155.71C1575.18 2155.71 1578.17 2155.88 1581.3 2156.23C1584.42 2156.49 1587.2 2156.88 1589.63 2157.4L1586.9 2177.45C1584.55 2176.84 1581.95 2176.37 1579.08 2176.02C1576.22 2175.67 1573.53 2175.5 1571.01 2175.5C1565.28 2175.5 1559.86 2176.67 1554.74 2179.01C1549.71 2181.27 1545.28 2184.57 1541.46 2188.91C1537.64 2193.16 1534.65 2198.33 1532.48 2204.4C1530.31 2210.39 1529.22 2217.07 1529.22 2224.45V2301H1507.48V2158.31H1525.45L1527.79 2184.61H1528.7C1531.65 2179.32 1535.21 2174.5 1539.38 2170.16C1543.54 2165.74 1548.36 2162.22 1553.83 2159.62C1559.38 2157.01 1565.54 2155.71 1572.31 2155.71ZM1638.06 2098.43V2203.62C1638.06 2207.09 1637.93 2211.34 1637.67 2216.38C1637.41 2221.33 1637.19 2225.71 1637.02 2229.53H1637.93C1639.75 2227.27 1642.4 2223.93 1645.87 2219.5C1649.43 2215.08 1652.42 2211.52 1654.85 2208.83L1702.24 2158.31H1727.63L1670.22 2219.24L1731.79 2301H1705.76L1655.37 2233.43L1638.06 2249.32V2301H1616.58V2098.43H1638.06ZM1753.41 2287.46C1753.41 2281.39 1754.88 2277.09 1757.83 2274.57C1760.78 2271.97 1764.38 2270.67 1768.64 2270.67C1773.06 2270.67 1776.8 2271.97 1779.83 2274.57C1782.87 2277.09 1784.39 2281.39 1784.39 2287.46C1784.39 2293.45 1782.87 2297.83 1779.83 2300.61C1776.8 2303.3 1773.06 2304.65 1768.64 2304.65C1764.38 2304.65 1760.78 2303.3 1757.83 2300.61C1754.88 2297.83 1753.41 2293.45 1753.41 2287.46Z" fill="white"/>
<ellipse opacity="0.25" cx="3180.57" cy="829" rx="334.756" ry="308" fill="#FAFAFA"/>
<ellipse opacity="0.25" cx="92.384" cy="85" rx="92.384" ry="85" transform="matrix(1 0 0 -1 147 3147)" fill="#FAFAFA"/>
<ellipse opacity="0.25" cx="92.384" cy="85" rx="92.384" ry="85" transform="matrix(1 0 0 -1 1441 298)" fill="#FAFAFA"/>
<ellipse opacity="0.25" cx="2845.81" cy="4627" rx="188.029" ry="173" fill="#FAFAFA"/>
<ellipse opacity="0.25" cx="940.527" cy="4392" rx="47.8223" ry="44" fill="#FAFAFA"/>
<ellipse opacity="0.25" cx="3838.12" cy="1908" rx="158.683" ry="146" fill="#FAFAFA"/>
<ellipse opacity="0.25" cx="1128.56" cy="597" rx="82.6022" ry="76" fill="#FAFAFA"/>
</svg>