<svg width="38" height="38" viewBox="0 0 38 38" fill="none" xmlns="http://www.w3.org/2000/svg">
<path d="M26.9149 20.2966C25.5435 19.0139 24.2091 17.7538 22.9116 16.5164C21.6142 15.2789 20.4664 14.0652 19.4683 12.8754C18.4701 11.6843 17.6729 10.5318 17.0767 9.41766C16.4804 8.30356 16.1823 7.22672 16.1823 6.18714C16.1823 4.4769 16.7487 3.04153 17.8816 1.88101C19.0145 0.720488 20.4157 0.140228 22.0852 0.140228C23.0392 0.140228 23.9336 0.346679 24.7684 0.759579C25.6032 1.17248 26.3187 1.72953 26.9149 2.43073C27.5112 1.72831 28.2267 1.17126 29.0614 0.759579C29.8962 0.3479 30.7906 0.14145 31.7446 0.140228C33.4141 0.140228 34.8153 0.720488 35.9482 1.88101C37.0811 3.04153 37.6475 4.4769 37.6475 6.18714C37.6475 7.2255 37.3494 8.30234 36.7531 9.41766C36.1569 10.533 35.3597 11.6856 34.3616 12.8754C33.3622 14.0665 32.2216 15.2807 30.9396 16.5182C29.6577 17.7557 28.3161 19.0152 26.9149 20.2966ZM26.9149 15.3491C28.6739 13.6389 30.3064 11.936 31.8126 10.2404C33.3187 8.54483 34.0712 7.19374 34.07 6.18714C34.07 5.48472 33.8535 4.9124 33.4207 4.47018C32.9878 4.02797 32.4291 3.80625 31.7446 3.80502C31.3272 3.80502 30.9319 3.88931 30.5586 4.0579C30.1854 4.22648 29.8652 4.47813 29.5981 4.81284L26.9149 8.11116L24.2318 4.81284C23.9634 4.4769 23.6433 4.22464 23.2712 4.05606C22.8991 3.88748 22.5038 3.8038 22.0852 3.80502C21.3995 3.80502 20.8403 4.02674 20.4074 4.47018C19.9745 4.91363 19.7586 5.48594 19.7598 6.18714C19.7598 7.19496 20.5129 8.54666 22.0191 10.2422C23.5252 11.9378 25.1572 13.6401 26.9149 15.3491ZM23.3374 37.7044L10.816 34.1312V36.7882H0.083374V16.6318H14.3041L25.3945 20.8463C26.3783 21.2128 27.1755 21.8541 27.786 22.7703C28.3966 23.6865 28.7025 24.6944 28.7037 25.7938H32.2812C33.7719 25.7938 35.0389 26.2977 36.0824 27.3055C37.1258 28.3134 37.6475 29.6418 37.6475 31.291V33.1234L23.3374 37.7044ZM3.66091 33.1234H7.23845V20.2966H3.66091V33.1234ZM23.2479 33.8563L33.8911 30.4664C33.8017 30.1305 33.6007 29.8782 33.2883 29.7096C32.9759 29.5411 32.6402 29.4574 32.2812 29.4586H23.6951C22.7709 29.4586 21.9362 29.3975 21.1909 29.2754C20.4455 29.1532 19.6406 28.9394 18.776 28.634L15.6904 27.5346L16.7189 24.053L20.2965 25.2441C20.8331 25.4273 21.4592 25.5648 22.1747 25.6564C22.8902 25.748 23.874 25.7938 25.1261 25.7938C25.1261 25.4579 25.0296 25.1372 24.8364 24.8318C24.6432 24.5264 24.4118 24.3279 24.1423 24.2363L13.678 20.2966H10.816V30.3748L23.2479 33.8563Z" fill="#F44336"/>
</svg>
