<svg width="717" height="112" viewBox="0 0 717 112" fill="none" xmlns="http://www.w3.org/2000/svg">
<path d="M0 0H716.8V112H0V0Z" fill="white"/>
<path d="M258.878 67.2402C258.385 67.6511 257.46 68.2059 256.104 68.9044C254.79 69.6029 253.166 70.2193 251.235 70.7535C249.304 71.2876 247.167 71.5342 244.825 71.4931C241.25 71.4109 238.045 70.774 235.21 69.5824C232.416 68.3497 230.033 66.6855 228.06 64.5899C226.129 62.4943 224.65 60.0906 223.623 57.3786C222.595 54.6666 222.082 51.7698 222.082 48.688C222.082 45.2364 222.595 42.0725 223.623 39.1962C224.691 36.3199 226.191 33.8339 228.122 31.7383C230.094 29.6427 232.436 28.0197 235.148 26.8691C237.86 25.7186 240.86 25.1433 244.147 25.1433C247.188 25.1433 249.879 25.5542 252.221 26.376C254.564 27.1978 256.474 28.0813 257.954 29.0264L254.44 37.4704C253.413 36.6897 252.037 35.8884 250.311 35.0666C248.626 34.2037 246.674 33.7723 244.455 33.7723C242.73 33.7723 241.065 34.1421 239.463 34.8817C237.901 35.5803 236.504 36.587 235.272 37.9018C234.08 39.2167 233.135 40.7576 232.436 42.5245C231.738 44.2503 231.389 46.1404 231.389 48.1949C231.389 50.3727 231.697 52.3656 232.313 54.1736C232.971 55.9815 233.895 57.543 235.087 58.8578C236.278 60.1316 237.696 61.1178 239.34 61.8163C241.024 62.5149 242.914 62.8641 245.01 62.8641C247.434 62.8641 249.509 62.4738 251.235 61.6931C252.961 60.9124 254.276 60.0906 255.18 59.2277L258.878 67.2402ZM273.132 71.7396C270.626 71.7396 268.345 71.2465 266.291 70.2604C264.277 69.2331 262.675 67.6717 261.483 65.5761C260.291 63.4805 259.696 60.8096 259.696 57.5635C259.696 54.5228 260.312 51.8931 261.545 49.6742C262.777 47.4553 264.4 45.7501 266.414 44.5585C268.427 43.3258 270.564 42.7094 272.824 42.7094C275.495 42.7094 277.508 43.1614 278.864 44.0654C280.261 44.9283 281.412 45.8939 282.316 46.9622L281.946 48.01L282.747 44.0654H290.76V71H282.131V65.1446L282.809 66.9937C282.727 66.9937 282.48 67.2402 282.069 67.7333C281.658 68.1853 281.042 68.74 280.22 69.3975C279.44 70.0138 278.453 70.548 277.262 71C276.111 71.4931 274.735 71.7396 273.132 71.7396ZM275.598 64.7132C276.625 64.7132 277.549 64.5694 278.371 64.2818C279.193 63.953 279.912 63.501 280.528 62.9258C281.145 62.3094 281.679 61.5493 282.131 60.6453V54.0503C281.802 53.1463 281.309 52.3861 280.652 51.7698C279.994 51.1123 279.214 50.6193 278.31 50.2905C277.406 49.9207 276.399 49.7358 275.289 49.7358C274.057 49.7358 272.906 50.0645 271.838 50.722C270.811 51.3383 269.989 52.2012 269.372 53.3107C268.756 54.4201 268.448 55.6939 268.448 57.1321C268.448 58.5702 268.777 59.8646 269.434 61.0151C270.091 62.1656 270.954 63.0696 272.023 63.727C273.132 64.3845 274.324 64.7132 275.598 64.7132ZM311.917 71.7396C310.314 71.7396 308.732 71.452 307.171 70.8767C305.65 70.2604 304.377 69.3975 303.349 68.288L303.596 65.761V83.9434H295.029V43.449H302.425L303.658 48.688L302.98 46.839C304.377 45.6473 305.938 44.6612 307.664 43.8805C309.39 43.0998 311.382 42.7094 313.642 42.7094C316.149 42.7094 318.388 43.3052 320.361 44.4968C322.333 45.6473 323.874 47.332 324.983 49.5509C326.134 51.7287 326.709 54.3585 326.709 57.4402C326.709 60.4809 326.072 63.0696 324.798 65.2063C323.525 67.343 321.778 68.966 319.559 70.0755C317.341 71.1849 314.793 71.7396 311.917 71.7396ZM310.191 64.9597C311.588 64.9597 312.862 64.6516 314.012 64.0352C315.204 63.4189 316.149 62.556 316.847 61.4465C317.587 60.296 317.957 59.0017 317.957 57.5635C317.957 56.0432 317.628 54.7283 316.971 53.6188C316.354 52.4683 315.491 51.5849 314.382 50.9685C313.314 50.3111 312.122 49.9824 310.807 49.9824C309.657 49.9824 308.629 50.1467 307.725 50.4754C306.863 50.7631 306.082 51.2151 305.383 51.8314C304.726 52.4067 304.151 53.1463 303.658 54.0503V60.6453C303.986 61.5082 304.459 62.2683 305.075 62.9258C305.691 63.5832 306.431 64.0968 307.294 64.4667C308.198 64.7954 309.164 64.9597 310.191 64.9597ZM362.237 32.2314H370.866V43.9421H377.399V50.6604H370.866V71H362.237V50.6604H358.045V43.9421H362.237V32.2314ZM390.685 71.7396C388.178 71.7396 385.898 71.2465 383.843 70.2604C381.83 69.2331 380.227 67.6717 379.036 65.5761C377.844 63.4805 377.248 60.8096 377.248 57.5635C377.248 54.5228 377.864 51.8931 379.097 49.6742C380.33 47.4553 381.953 45.7501 383.966 44.5585C385.98 43.3258 388.116 42.7094 390.376 42.7094C393.047 42.7094 395.061 43.1614 396.417 44.0654C397.814 44.9283 398.964 45.8939 399.868 46.9622L399.498 48.01L400.3 44.0654H408.312V71H399.683V65.1446L400.361 66.9937C400.279 66.9937 400.033 67.2402 399.622 67.7333C399.211 68.1853 398.594 68.74 397.773 69.3975C396.992 70.0138 396.006 70.548 394.814 71C393.664 71.4931 392.287 71.7396 390.685 71.7396ZM393.15 64.7132C394.177 64.7132 395.102 64.5694 395.924 64.2818C396.745 63.953 397.465 63.501 398.081 62.9258C398.697 62.3094 399.231 61.5493 399.683 60.6453V54.0503C399.355 53.1463 398.862 52.3861 398.204 51.7698C397.547 51.1123 396.766 50.6193 395.862 50.2905C394.958 49.9207 393.951 49.7358 392.842 49.7358C391.609 49.7358 390.459 50.0645 389.39 50.722C388.363 51.3383 387.541 52.2012 386.925 53.3107C386.309 54.4201 386 55.6939 386 57.1321C386 58.5702 386.329 59.8646 386.987 61.0151C387.644 62.1656 388.507 63.0696 389.575 63.727C390.685 64.3845 391.876 64.7132 393.15 64.7132ZM412.581 22.3698H421.21V71H412.581V22.3698ZM425.474 44.0654H434.103V71H425.474V44.0654ZM425.289 34.5119C425.289 33.2381 425.782 32.1903 426.768 31.3685C427.795 30.5467 428.884 30.1358 430.035 30.1358C431.185 30.1358 432.233 30.5467 433.178 31.3685C434.164 32.1903 434.658 33.2381 434.658 34.5119C434.658 35.7857 434.164 36.8335 433.178 37.6553C432.233 38.436 431.185 38.8264 430.035 38.8264C428.884 38.8264 427.795 38.436 426.768 37.6553C425.782 36.8335 425.289 35.7857 425.289 34.5119ZM447.119 71.5547C444.9 71.5547 442.825 71.1644 440.894 70.3836C439.004 69.6029 437.401 68.514 436.086 67.117L439.661 62.3711C440.976 63.5627 442.188 64.4256 443.298 64.9597C444.448 65.4528 445.475 65.6994 446.379 65.6994C447.078 65.6994 447.694 65.6377 448.228 65.5145C448.804 65.3501 449.256 65.1241 449.584 64.8365C449.913 64.5077 450.077 64.0968 450.077 63.6038C450.077 62.9052 449.79 62.3505 449.215 61.9396C448.68 61.5287 447.982 61.2 447.119 60.9534C446.256 60.6658 445.332 60.3782 444.345 60.0906C441.88 59.3098 440.093 58.1799 438.983 56.7006C437.915 55.1803 437.381 53.5367 437.381 51.7698C437.381 50.4138 437.73 49.0578 438.428 47.7019C439.168 46.3048 440.319 45.1543 441.88 44.2503C443.482 43.3052 445.537 42.8327 448.043 42.8327C450.303 42.8327 452.214 43.0587 453.776 43.5107C455.337 43.9627 456.816 44.7023 458.213 45.7295L454.947 50.7836C454.166 50.1673 453.282 49.6536 452.296 49.2427C451.351 48.7907 450.468 48.5442 449.646 48.5031C448.906 48.462 448.269 48.5442 447.735 48.7497C447.242 48.9551 446.852 49.2222 446.564 49.5509C446.277 49.8796 446.133 50.2289 446.133 50.5987C446.092 51.3794 446.379 51.9958 446.996 52.4478C447.653 52.8998 448.475 53.249 449.461 53.4956C450.447 53.7421 451.413 54.0297 452.358 54.3585C453.673 54.7694 454.803 55.3241 455.748 56.0226C456.693 56.7212 457.412 57.5635 457.905 58.5497C458.439 59.4947 458.706 60.6453 458.706 62.0012C458.706 63.6449 458.275 65.2063 457.412 66.6855C456.59 68.1237 455.316 69.2948 453.591 70.1987C451.906 71.1027 449.749 71.5547 447.119 71.5547ZM474.563 71.7396C471.276 71.7396 468.482 71.1233 466.181 69.8906C463.921 68.6579 462.195 66.9526 461.003 64.7748C459.812 62.5971 459.216 60.0906 459.216 57.2553C459.216 54.5434 459.914 52.0985 461.311 49.9207C462.709 47.7429 464.578 46.0172 466.92 44.7434C469.262 43.4285 471.872 42.771 474.748 42.771C478.61 42.771 481.774 43.901 484.24 46.161C486.746 48.3798 488.369 51.6054 489.109 55.8377L468.153 62.4943L466.242 57.81L481.405 52.6943L479.617 53.4956C479.288 52.4272 478.693 51.5027 477.83 50.722C477.008 49.9002 475.755 49.4893 474.07 49.4893C472.796 49.4893 471.666 49.7975 470.68 50.4138C469.735 50.9891 468.995 51.8314 468.461 52.9409C467.968 54.0092 467.722 55.283 467.722 56.7622C467.722 58.4469 468.03 59.8646 468.646 61.0151C469.262 62.1245 470.105 62.9669 471.173 63.5421C472.241 64.1174 473.433 64.405 474.748 64.405C475.693 64.405 476.597 64.2407 477.46 63.9119C478.364 63.5832 479.247 63.1518 480.11 62.6176L483.932 69.0277C482.493 69.8495 480.932 70.5069 479.247 71C477.604 71.4931 476.042 71.7396 474.563 71.7396ZM487.244 66.5623C487.244 65.2885 487.696 64.2201 488.6 63.3572C489.545 62.4943 490.572 62.0629 491.681 62.0629C492.709 62.0629 493.674 62.4943 494.578 63.3572C495.523 64.2201 495.996 65.2885 495.996 66.5623C495.996 67.9182 495.523 69.0071 494.578 69.8289C493.674 70.6096 492.709 71 491.681 71C490.572 71 489.545 70.6096 488.6 69.8289C487.696 69.0071 487.244 67.9182 487.244 66.5623Z" fill="#2E86DE"/>
<rect x="334.95" y="64.4082" width="12.0998" height="2.11746" rx="1.05873" fill="#2E86DE"/>
<rect x="334.95" y="67.1306" width="12.0998" height="1.81497" rx="0.907483" fill="#2E86DE"/>
<rect x="334.95" y="69.5505" width="12.0998" height="2.11746" rx="1.05873" fill="#2E86DE"/>
<path fill-rule="evenodd" clip-rule="evenodd" d="M348.042 59.095C350.683 57.0707 352.386 53.8838 352.386 50.2991C352.386 44.1823 347.428 39.2236 341.311 39.2236C335.194 39.2236 330.235 44.1823 330.235 50.2991C330.235 53.5308 331.619 56.4391 333.827 58.4638V61.9235C333.827 62.9307 334.643 63.7471 335.651 63.7471H346.219C347.226 63.7471 348.042 62.9307 348.042 61.9235V59.095Z" fill="#FECA57"/>
<path d="M331.694 37.0352L341.036 39.461L350.659 37.0352V44.3293H331.694V37.0352Z" fill="#343434"/>
<path fill-rule="evenodd" clip-rule="evenodd" d="M355.141 34.1177H355.909V42.7888C356.248 42.9164 356.485 43.2079 356.485 43.5471C356.485 43.8175 356.334 44.0576 356.101 44.2085L356.732 46.5618C356.794 46.7934 356.619 47.0209 356.379 47.0209H354.671C354.431 47.0209 354.256 46.7934 354.319 46.5618L354.949 44.2086C354.716 44.0577 354.565 43.8175 354.565 43.5471C354.565 43.2078 354.802 42.9163 355.141 42.7887V34.1177Z" fill="#5E5E5E"/>
<path d="M341.268 40.2688L361.448 34.9625C362.175 34.7714 362.173 33.7391 361.446 33.5509L341.265 28.3299C341.145 28.2988 341.019 28.2989 340.899 28.3303L320.884 33.5513C320.158 33.7405 320.156 34.77 320.881 34.9621L340.896 40.2684C341.018 40.3008 341.146 40.3009 341.268 40.2688Z" fill="#424242"/>
<path d="M336.8 51.6235C338.099 53.2748 341.959 55.5866 347.012 51.6235" stroke="#2E86DE" stroke-width="2.55294"/>
</svg>
