<svg width="37" height="38" viewBox="0 0 37 38" fill="none" xmlns="http://www.w3.org/2000/svg">
<path d="M34.7612 4.58487H29.3433V2.7789C29.3433 2.29993 29.153 1.84057 28.8143 1.50189C28.4756 1.1632 28.0163 0.972931 27.5373 0.972931H9.4776C8.99863 0.972931 8.53927 1.1632 8.20059 1.50189C7.8619 1.84057 7.67163 2.29993 7.67163 2.7789V4.58487H2.25372C1.77475 4.58487 1.31539 4.77514 0.97671 5.11383C0.638025 5.45251 0.447754 5.91187 0.447754 6.39084V11.8087C0.447754 19.5925 3.69669 24.288 9.15072 24.4722C9.94916 25.8444 11.0393 27.0244 12.3441 27.9287C13.6488 28.8331 15.1364 29.4398 16.7015 29.7059V33.4804H13.0895V37.0923H23.9254V33.4804H20.3134V29.7059C21.8781 29.4387 23.3652 28.8316 24.6699 27.9274C25.9745 27.0231 27.0649 25.8436 27.8642 24.4722C33.3182 24.288 36.5671 19.5925 36.5671 11.8087V6.39084C36.5671 5.91187 36.3769 5.45251 36.0382 5.11383C35.6995 4.77514 35.2401 4.58487 34.7612 4.58487ZM4.05969 11.8087V8.19681H7.67163V20.5316C4.44978 19.1735 4.05969 14.1547 4.05969 11.8087ZM18.5074 26.2565C14.5235 26.2565 11.2836 23.0166 11.2836 19.0326V4.58487H25.7313V19.0326C25.7313 23.0166 22.4914 26.2565 18.5074 26.2565ZM29.3433 20.5316V8.19681H32.9552V11.8087C32.9552 14.1547 32.5651 19.1735 29.3433 20.5316Z" fill="#FFB300"/>
</svg>
