<svg width="126" height="119" viewBox="0 0 126 119" fill="none" xmlns="http://www.w3.org/2000/svg">
<rect x="45.9275" y="99.0546" width="33.1768" height="5.80594" rx="2.90297" fill="#0039A6"/>
<rect x="45.9275" y="106.519" width="33.1768" height="4.97652" rx="2.48826" fill="#0039A6"/>
<rect x="45.9275" y="113.155" width="33.1768" height="5.80594" rx="2.90297" fill="#0039A6"/>
<path fill-rule="evenodd" clip-rule="evenodd" d="M81.8256 84.4859C89.0672 78.9355 93.7366 70.1972 93.7366 60.3683C93.7366 43.5964 80.1403 30 63.3683 30C46.5964 30 33 43.5964 33 60.3683C33 69.2292 36.795 77.2038 42.8483 82.7552V92.2416C42.8483 95.003 45.0869 97.2416 47.8483 97.2416H76.8256C79.587 97.2416 81.8256 95.003 81.8256 92.2416V84.4859Z" fill="#FECA57"/>
<rect x="45.9275" y="99.0546" width="33.1768" height="5.80594" rx="2.90297" fill="#2E86DE"/>
<rect x="45.9275" y="106.519" width="33.1768" height="4.97652" rx="2.48826" fill="#2E86DE"/>
<rect x="45.9275" y="113.155" width="33.1768" height="5.80594" rx="2.90297" fill="#2E86DE"/>
<path fill-rule="evenodd" clip-rule="evenodd" d="M81.8256 84.4859C89.0672 78.9355 93.7366 70.1972 93.7366 60.3683C93.7366 43.5964 80.1403 30 63.3683 30C46.5964 30 33 43.5964 33 60.3683C33 69.2292 36.795 77.2038 42.8483 82.7552V92.2416C42.8483 95.003 45.0869 97.2416 47.8483 97.2416H76.8256C79.587 97.2416 81.8256 95.003 81.8256 92.2416V84.4859Z" fill="#FECA57"/>
<path d="M37 24L62.6157 30.6514L89 24V44H37V24Z" fill="#343434"/>
<path fill-rule="evenodd" clip-rule="evenodd" d="M101.291 16H103.396V39.7755C104.325 40.1255 104.974 40.9247 104.974 41.8547C104.974 42.5962 104.561 43.2546 103.923 43.6684L105.652 50.1211C105.822 50.7563 105.343 51.3799 104.686 51.3799H100.001C99.343 51.3799 98.8645 50.7563 99.0346 50.1211L100.763 43.6686C100.125 43.2548 99.7118 42.5963 99.7118 41.8547C99.7118 40.9246 100.361 40.1253 101.291 39.7753V16Z" fill="#5E5E5E"/>
<path d="M63.2513 32.8657L118.584 18.3162C120.577 17.7923 120.571 14.9618 118.577 14.4457L63.2436 0.130138C62.9137 0.0447956 62.5675 0.0451413 62.2379 0.131144L7.35871 14.4467C5.36924 14.9657 5.36362 17.7883 7.351 18.3152L62.2302 32.8647C62.5647 32.9534 62.9166 32.9537 63.2513 32.8657Z" fill="#424242"/>
<path d="M51 64C54.5607 68.5277 65.1457 74.8666 79 64" stroke="#2E86DE" stroke-width="7"/>
</svg>
